<svg width="64" height="64" viewBox="0 0 64 64" fill="none" xmlns="http://www.w3.org/2000/svg">
<path d="M15 56V8H30.9486C34.9551 8 38.2424 8.59069 40.8106 9.77207C43.4302 10.9535 45.3563 12.6228 46.5891 14.7801C47.8732 16.9374 48.5152 19.4543 48.5152 22.3307C48.5152 24.077 48.1557 25.8234 47.4366 27.5698C46.7689 29.2648 45.7929 30.8315 44.5088 32.2697C43.2247 33.6565 41.7095 34.7608 39.9631 35.5827L49.825 56H38.5762L29.4077 36.8925H26.0947V56H15ZM26.0947 28.0321H31.488C33.2857 28.0321 34.6982 27.5698 35.7255 26.6453C36.8042 25.6693 37.3435 24.3596 37.3435 22.7159C37.3435 21.6886 37.1124 20.764 36.6501 19.9422C36.1878 19.1204 35.5201 18.4526 34.6469 17.939C33.7737 17.4254 32.7207 17.1685 31.488 17.1685H26.0947V28.0321Z" fill="white"/>
</svg>
