<svg width="167" height="50" viewBox="0 0 167 50" fill="none" xmlns="http://www.w3.org/2000/svg">
<path d="M54.4875 7.05962C54.4875 7.05962 54.4962 7.0976 54.5134 7.10278C54.5444 7.11314 54.7942 7.0907 54.8511 7.10623C54.8873 7.11659 54.858 7.20117 54.9149 7.22189C54.9665 7.24088 55.1854 7.19772 55.225 7.20635C55.2388 7.20981 55.2388 7.24088 55.2526 7.24951C55.3129 7.28749 55.3577 7.22707 55.3335 7.38588H55.5506L55.5196 7.4791C55.6523 7.42558 55.7006 7.52916 55.7298 7.53952C55.8487 7.5844 55.9504 7.6172 56.0538 7.66898C56.1141 7.70005 56.1641 7.78982 56.2657 7.75875L56.2347 7.85196L56.3277 7.82089V7.94518L56.5896 7.94345L56.6086 8.03494C56.6999 8.02458 56.8102 8.05393 56.8774 8.10917C56.8929 8.12125 56.8791 8.16959 56.8946 8.18512C56.9136 8.20411 57.0583 8.28179 57.0669 8.29042C57.0842 8.30941 57.06 8.36983 57.079 8.40435C57.0979 8.43888 57.2306 8.45959 57.2513 8.48376C57.2651 8.50102 57.2513 8.54763 57.2668 8.55971C57.3099 8.59942 57.384 8.51138 57.3581 8.7496L57.4408 8.75823L57.4494 8.84109L57.57 8.84627L57.539 8.93948L57.6338 8.9602V9.12592L57.7182 9.1449L57.7251 9.40556L57.7871 9.37449L57.7803 10.1979C57.7131 10.2756 57.6648 10.3964 57.6321 10.4931L57.5545 10.4672L57.446 10.5242L57.477 10.5863C57.4046 10.5759 57.2857 10.5673 57.2203 10.5863C57.1944 10.5949 57.1996 10.645 57.1806 10.6467C57.1513 10.6484 56.8533 10.5949 56.8188 10.5863C56.7792 10.5742 56.7826 10.5121 56.7499 10.4931L56.7034 10.5552C56.6448 10.3774 56.4535 10.4482 56.5173 10.2134L56.4535 10.229C56.4242 10.1651 56.376 10.0788 56.3174 10.0374C56.295 10.0218 56.2502 10.0322 56.2416 10.0236C56.2157 9.99593 56.2571 9.86992 56.2312 9.84403C56.2226 9.83539 56.1778 9.84575 56.1554 9.83022C56.1382 9.81813 56.1348 9.78879 56.1037 9.7698C56.0641 9.74563 55.909 9.68521 55.9021 9.67658C55.8677 9.63343 55.9504 9.5592 55.7402 9.592C55.7833 9.51259 55.6868 9.42455 55.6161 9.46771V9.31235L55.5231 9.34342L55.5179 9.22258C55.4318 9.23122 55.4249 9.18979 55.3818 9.12764L55.3353 9.22086C55.3611 9.08276 55.2784 9.13282 55.1802 9.12764L55.2112 9.03443H55.0561L55.1182 9.09657L55.0424 9.15354L54.6099 9.12592L54.5926 9.22086H54.4996L54.4824 9.12764C54.36 9.11383 54.3497 9.21741 54.3221 9.22258C54.2756 9.23467 54.1567 9.18633 54.0861 9.21913C54.0482 9.23812 54.0981 9.33479 53.9792 9.31925L53.9724 9.40556L53.8793 9.37449L53.9724 9.49878C53.8724 9.48324 53.6432 9.47461 53.5571 9.50396C53.514 9.5195 53.5123 9.62652 53.4141 9.592L53.4761 9.68521C53.3796 9.6645 53.2142 9.73355 53.2246 9.83539L52.9489 9.84057L53.0419 9.90272C53.0298 9.96659 52.9213 9.93379 52.9799 10.027L52.8575 10.0322C52.8696 10.1409 52.6646 10.1824 52.6956 10.3049L52.6094 10.3101L52.606 10.4948L52.5439 10.4016C52.525 10.5155 52.5474 10.588 52.4182 10.6053V10.7745L52.3268 10.7434V10.992L52.4199 10.9764L52.3734 11.0472L52.3268 11.023L52.3234 11.1439L52.1718 11.1784C52.2166 11.2026 52.2424 11.389 52.2338 11.3959C52.1563 11.4477 52.1907 11.3217 52.1408 11.3338V11.6738L52.0512 11.6773C52.015 11.7135 52.1115 11.9483 51.9857 11.9241V11.9535C52.0684 11.9431 52.0184 11.9897 52.0477 12.0467L51.9547 12.0156C51.9719 12.171 51.9426 12.3177 51.9254 12.4696C51.9219 12.5059 51.9547 12.5628 51.9495 12.5697C51.9426 12.5801 51.8909 12.5784 51.872 12.6163C51.8496 12.6595 51.8547 12.9305 51.8599 13.0065H51.7669C51.7582 13.2153 51.803 13.5502 51.7669 13.7384C51.7531 13.8161 51.6807 13.8023 51.6721 13.8368C51.6549 13.9127 51.6652 14.0698 51.6721 14.1561H51.5791V14.3098L51.6721 14.3426C51.629 14.3495 51.5842 14.3063 51.5773 14.3875C51.5687 14.4997 51.5859 14.617 51.5773 14.731L51.4843 14.7154L51.5773 14.7931L51.4843 14.8086V16.0653L51.5773 16.0498C51.5963 16.1914 51.5119 16.3467 51.6704 16.4071L51.5773 16.4693L51.6411 16.5004V16.578L51.5773 16.5159V16.6868L51.6704 16.6712C51.6842 16.6902 51.6618 17.0786 51.6773 17.146C51.6962 17.2305 51.8375 17.3963 51.8496 17.4308C51.8771 17.5067 51.8685 17.7173 51.8909 17.7985C51.9047 17.8451 52.0391 18.0419 52.0443 18.0574C52.0649 18.1351 52.0305 18.2732 52.0408 18.3595L52.1321 18.3785L52.1356 18.6357L52.1976 18.6564L52.1356 18.7168C52.2597 18.7203 52.2097 18.8169 52.2338 18.8825C52.251 18.9291 52.3544 18.9447 52.3217 19.088L52.2321 19.0914C52.1718 19.2261 52.3027 19.2589 52.3148 19.2899C52.3286 19.3245 52.3096 19.5005 52.3217 19.554H52.4009L52.413 19.7854L52.5078 19.8026C52.525 19.8889 52.4768 19.863 52.4147 19.8648C52.4216 19.9701 52.5233 20.0322 52.4974 20.122C52.4871 20.1548 52.4388 20.191 52.4475 20.2048C52.4492 20.2083 52.5009 20.1979 52.5095 20.2255C52.525 20.2842 52.4923 20.3705 52.5129 20.4344C52.5267 20.4758 52.5939 20.4741 52.6025 20.5069C52.6387 20.6485 52.5646 20.9437 52.6025 21.0852C52.6112 21.118 52.6766 21.1145 52.6904 21.1577C52.7094 21.2147 52.6973 21.3182 52.7076 21.389C52.7163 21.4443 52.8265 21.5219 52.6956 21.5116C52.6904 21.5685 52.7524 21.5116 52.7611 21.5875C52.7748 21.7136 52.7059 21.8275 52.7076 21.8689C52.7076 21.8914 52.7542 21.9259 52.7559 21.9639C52.7662 22.1209 52.7318 22.2539 52.8214 22.3971L52.7576 22.4437L52.8524 22.461C52.8713 22.6129 52.8196 22.8425 52.8524 22.9823C52.8575 23.0065 52.9041 23.003 52.9092 23.0186C52.9179 23.0479 52.8231 23.2102 52.9454 23.1273L52.8524 23.2067V23.5934L52.9454 23.6089C52.8593 23.716 52.8351 23.8334 52.9144 23.9525L52.8524 23.987C52.8403 24.3374 52.8817 24.7241 52.8558 25.0711C52.8489 25.1522 52.8041 25.109 52.7611 25.1159L52.8541 25.1781C52.7111 25.1902 52.7835 25.4129 52.7611 25.5199L52.699 25.4577C52.699 25.563 52.7059 25.6666 52.6852 25.7719C52.6697 25.8427 52.5405 26.055 52.5267 26.1068C52.506 26.1793 52.5129 26.2535 52.5129 26.3278L52.4199 26.2967C52.4268 26.4192 52.4371 26.5159 52.3268 26.5919L52.3889 26.6678C52.2907 26.6626 52.3699 26.7973 52.2338 26.761L52.3268 26.7921V26.8853L52.2338 26.8542L52.2958 26.9319C52.1838 26.9319 52.2441 27.127 52.2338 27.1339C52.1563 27.184 52.1907 27.0597 52.1408 27.0718L52.1097 27.3203L52.0477 27.2582C52.0856 27.4308 51.9202 27.4239 51.9547 27.6L52.0167 27.5378L52.0477 27.7864L51.9857 27.7553V27.8158H52.046C52.0753 27.8969 52.0012 27.8693 51.9943 27.8831C51.9857 27.8986 51.9547 28.073 51.9392 28.0954C51.9271 28.1144 51.8858 28.1248 51.8616 28.1265L51.9237 28.1731L51.8616 28.2197L51.9237 28.2508C51.8358 28.2352 51.8737 28.325 51.8444 28.3716C51.8065 28.4337 51.7186 28.508 51.6928 28.5632C51.66 28.6323 51.7117 28.7341 51.6152 28.7168L51.6773 28.779H51.5859V29.1346L51.4912 29.1519V29.4315L51.4119 29.4281C51.3706 29.504 51.4464 29.6335 51.3361 29.6179L51.3981 29.6801C51.231 29.6369 51.3258 29.8354 51.2982 29.889C51.2913 29.901 51.15 30.0668 51.1414 30.0909C51.0949 30.2152 51.0863 30.3982 51.0535 30.5C51.0397 30.5432 50.9725 30.5397 50.9639 30.5725C50.9519 30.6243 50.9708 30.8384 50.9501 30.8625H50.8709C50.8605 30.9212 50.8847 31.0024 50.8709 31.0576C50.8674 31.0731 50.6882 31.2717 50.6831 31.2872C50.6624 31.3649 50.6969 31.503 50.6865 31.5893L50.5952 31.6083C50.5952 31.7533 50.4505 31.7964 50.4987 31.9777L50.4212 31.9742C50.4263 32.1227 50.3505 32.1986 50.304 32.3247C50.2833 32.3816 50.3522 32.4662 50.2213 32.4731L50.2833 32.5197L50.2282 32.5404L50.2196 32.6595C50.1782 32.6768 50.1886 32.5301 50.1265 32.5974C50.0473 32.6854 50.2213 32.682 50.2196 32.7217C50.068 32.6923 50.1438 32.8115 50.1231 32.9064L50.0369 32.9098L50.03 33.0928L49.9439 33.0963C49.9835 33.2499 49.9008 33.2603 49.8784 33.3017C49.8371 33.3794 49.8836 33.4536 49.7595 33.4381L49.7509 33.6193C49.6113 33.6072 49.6045 33.8282 49.5631 33.9128C49.5407 33.9577 49.4821 33.9577 49.4752 33.987C49.4597 34.0543 49.4804 34.2045 49.4063 34.2684C49.3856 34.2856 49.3357 34.2684 49.327 34.2787C49.3133 34.2926 49.3046 34.529 49.2288 34.6274C49.1892 34.6792 49.0962 34.6033 49.1323 34.8329L49.0462 34.8363L49.0393 35.0193L48.9531 35.0227L48.9463 35.1747L48.8549 35.1971V35.3628L48.7636 35.3317C48.7636 35.4422 48.6912 35.6425 48.5775 35.6735L48.6396 35.734C48.562 35.7167 48.5879 35.8047 48.5706 35.8203C48.55 35.8393 48.5052 35.8203 48.4879 35.8306C48.4793 35.8341 48.5172 35.9722 48.4776 36.0084C48.4569 36.0274 48.4052 36.0188 48.3415 36.1154C48.2329 36.2812 48.3604 36.3347 48.1192 36.4831C48.1123 36.4866 48.1175 36.5988 48.102 36.6281C48.0865 36.6575 47.9693 36.6834 48.0193 36.8215C47.9693 36.8353 48.002 36.7058 47.9262 36.7593C47.9193 36.7645 47.9469 36.8025 47.94 36.8249C47.9124 36.9112 47.8452 37.0614 47.7401 37.039L47.8332 37.1011C47.7022 37.0821 47.6747 37.272 47.6643 37.3842L47.5868 37.3808C47.6419 37.5344 47.5627 37.5568 47.5144 37.6363C47.4731 37.7053 47.542 37.7536 47.4145 37.7502L47.399 37.9383C47.2422 37.9073 47.3249 38.054 47.3008 38.111C47.2904 38.1369 47.2318 38.1334 47.218 38.1766C47.1732 38.3112 47.2181 38.2646 47.1164 38.3785C47.0992 38.3992 47.0957 38.4165 47.0578 38.4061L47.1198 38.4683L47.0251 38.4856V38.6219L46.9406 38.6271C46.9406 38.7738 46.8166 38.7687 46.839 38.9309L46.7494 38.9499C46.9062 39.0103 46.7494 39.0673 46.6563 39.0276L46.6529 39.2123L46.5667 39.2157L46.5788 39.2779C46.4065 39.3055 46.5064 39.378 46.453 39.4626C46.4255 39.5075 46.2911 39.599 46.2842 39.6093C46.2532 39.6508 46.2015 39.8458 46.1877 39.8631C46.1756 39.8769 45.9947 40.015 45.9516 40.0927C45.9327 40.1289 45.9551 40.1859 45.9396 40.2049C45.9292 40.2187 45.8241 40.2152 45.7862 40.2549C45.7449 40.2981 45.769 40.3723 45.75 40.3913C45.738 40.4034 45.688 40.3879 45.6708 40.4034C45.6001 40.4742 45.5105 40.6658 45.3882 40.6779L45.383 40.7987L45.29 40.7676C45.3055 40.9109 45.2659 40.8919 45.2159 40.9558C45.1745 41.0093 45.2004 41.0991 45.1039 41.0473C45.1676 41.2441 45.0488 41.2078 45.0177 41.2406C44.9936 41.2665 45.0436 41.3528 44.9178 41.3286V41.4944L44.8248 41.5151V41.6808L44.7352 41.7032C44.7868 41.9 44.5801 41.8828 44.4733 41.9794C44.4457 42.0036 44.4457 42.0778 44.3785 42.1227C44.3251 42.159 44.0184 42.3143 43.996 42.3212C43.9305 42.3419 43.8392 42.3333 43.7703 42.3385V42.4162C43.629 42.3955 43.3929 42.449 43.2654 42.411C43.1982 42.3903 43.1793 42.2781 43.0914 42.3212L43.0724 42.2297H42.3763L42.3746 42.3247C42.3057 42.3143 42.1816 42.3109 42.1196 42.3264C42.0955 42.3333 42.0937 42.3799 42.0731 42.3851C41.8835 42.4386 41.7698 42.4196 41.6078 42.4783C41.5338 42.5059 41.3683 42.5594 41.3821 42.4507C41.2357 42.5957 41.153 42.4645 41.0358 42.4403C40.9393 42.4213 40.7653 42.4403 40.6895 42.4144C40.6016 42.3851 40.4655 42.1313 40.3655 42.1365L40.3466 41.9812L40.2691 41.9846V41.705L40.3311 41.7671C40.3414 41.667 40.3156 41.4944 40.4517 41.5168L40.4706 41.3304L40.5482 41.3338L40.5534 41.1508C40.674 41.1698 40.6257 41.087 40.6498 41.0628C40.6653 41.0473 40.7119 41.0628 40.7274 41.0473C40.7601 41.0162 40.7239 40.8971 40.9204 40.9627V40.7763H41.1064L41.0754 40.683H41.2408L41.2632 40.5933C41.4355 40.6382 41.4373 40.5329 41.4907 40.5087C41.5441 40.4845 41.6561 40.5536 41.6354 40.4068L41.7577 40.4034L41.7267 40.3102L41.9111 40.3067L41.9301 40.2152H42.0989V40.0927C42.1213 40.1479 42.2678 40.0651 42.2781 40.0547C42.2971 40.0323 42.2781 39.9891 42.2884 39.9718C42.2953 39.958 42.4228 39.996 42.5762 39.8872C42.6244 39.8527 42.6847 39.9183 42.6572 39.7526L42.7192 39.7837V39.6939L42.8743 39.6905L42.8123 39.6439L42.9363 39.5972L42.9053 39.504L43.0604 39.473L42.9983 39.4108L43.0862 39.4074L43.1224 39.2244L43.1844 39.2865C43.1655 39.1795 43.2361 39.1622 43.2671 39.1191C43.3016 39.0707 43.2361 39.0103 43.4015 39.0379L43.3705 38.9447C43.4963 38.9741 43.4463 38.8843 43.4722 38.8584C43.486 38.8429 43.5325 38.8584 43.5497 38.8429C43.6169 38.7842 43.6789 38.5201 43.7754 38.432L43.8375 38.4786V38.3406L43.9271 38.3216L43.9443 38.1334L44.0218 38.1369V37.9504C44.0787 37.9383 44.0425 38.0022 44.0528 38.0126C44.0976 38.0505 44.1149 37.8693 44.1218 37.8624C44.1442 37.8417 44.232 37.8935 44.2113 37.7692L44.2717 37.7778C44.3992 37.6069 44.4457 37.3445 44.6369 37.2945L44.6456 37.1754L44.7317 37.1702L44.7507 37.0148C44.8696 37.0545 44.9092 36.7611 44.9281 36.7421C44.9419 36.7283 44.9971 36.7524 45.016 36.7179C45.0401 36.6747 45.0108 36.5884 45.016 36.585C45.0298 36.5764 45.0711 36.5884 45.0953 36.5729C45.1504 36.5332 45.1642 36.4659 45.2917 36.4883L45.2831 36.1862L45.3865 36.1327L45.2314 36.1172C45.1487 35.9031 45.3262 35.8444 45.2917 35.6528C45.2503 35.6494 45.209 35.6563 45.1694 35.6356C45.1573 35.6287 45.0212 35.5095 44.9936 35.4975C44.8609 35.437 44.6301 35.5078 44.4733 35.4629L44.3888 35.6476C44.1889 35.7391 44.0046 36.0757 43.7944 36.1845C43.7013 36.2328 43.5669 36.2656 43.56 36.3813L43.4033 36.4279L43.4653 36.49C43.4136 36.4935 43.2189 36.566 43.193 36.5884C43.1861 36.5936 43.193 36.6868 43.1155 36.73C43.069 36.7559 42.9604 36.7956 42.9156 36.8405C42.9053 36.8508 42.8036 36.9889 42.8123 37.0148L42.6623 37.0234C42.683 37.1443 42.5986 37.0959 42.5745 37.1201C42.559 37.1356 42.5745 37.1874 42.5624 37.1995C42.5452 37.2168 42.4832 37.1995 42.4435 37.2237C42.2144 37.3635 41.968 37.5292 41.6682 37.5793L41.6716 37.657L41.451 37.6725L41.4821 37.7657H41.296L41.358 37.8589C41.1943 37.8486 41.1323 37.8399 41.0272 37.9642C40.9841 38.016 41.0565 38.0782 40.848 38.0419L40.829 38.1334L40.6757 38.1369L40.6912 38.199L40.5551 38.2335L40.5516 38.3216C40.4431 38.2939 40.4655 38.1817 40.3035 38.2283L40.3655 38.2905L40.1795 38.3216L40.2105 38.4148C40.1105 38.3699 40.0795 38.4735 40.0657 38.4769C39.971 38.4994 39.8193 38.4614 39.716 38.4769L39.7315 38.5391C39.7125 38.5684 39.5437 38.5753 39.5178 38.5684C39.4799 38.5598 39.5213 38.4942 39.4678 38.508L39.4368 38.6634C39.3489 38.6806 39.3817 38.634 39.3731 38.5736L39.1887 38.5701V38.6634L39.2818 38.6323V38.7566C39.1353 38.7134 39.0939 38.8619 38.9751 38.8446L38.9561 38.7876L38.9216 38.8515H38.5701L38.6012 38.943H38.26L38.322 39.0362C38.2514 39.0449 38.1618 39.0224 38.0946 39.0362C37.8344 39.0949 37.4726 39.2175 37.1624 39.29C37.0814 39.309 36.9987 39.3038 36.916 39.3141L36.8953 39.4091L36.8178 39.3469C36.7541 39.4661 36.4922 39.3849 36.3543 39.4108C36.3319 39.2088 36.0614 39.3538 35.9046 39.3176L35.8701 39.5006L35.5479 39.504L35.5307 39.4108L35.1758 39.4074L35.1585 39.5023H34.9759L34.9742 39.6887C34.8966 39.7233 34.9225 39.6456 34.9087 39.6352C34.8966 39.6266 34.8725 39.6508 34.8604 39.6473C34.7416 39.6249 34.7536 39.4643 34.8811 39.5023V39.4091C34.7795 39.3746 34.7416 39.4661 34.6795 39.4868C34.6037 39.5127 34.5124 39.454 34.4624 39.5955L34.4159 39.5334C34.4159 39.6076 34.2798 39.6749 34.2126 39.687C34.0696 39.7112 33.5234 39.7094 33.3752 39.6905C33.3149 39.6836 33.3442 39.6266 33.2856 39.6231C33.1788 39.6162 33.065 39.7146 33.0357 39.5955L33.0202 39.6887C32.9324 39.5524 32.7015 39.5748 32.543 39.5714C32.4861 39.5714 32.4189 39.6111 32.3586 39.5972C32.3241 39.5886 32.3741 39.4833 32.2156 39.5972L32.2466 39.504H31.8951L31.8606 39.4419L31.8141 39.504L31.7986 39.4108L31.7521 39.504L31.7211 39.4419L31.5057 39.5058L31.5195 39.5679C31.3902 39.6041 31.3868 39.7215 31.2283 39.6956C31.2472 39.8165 31.1645 39.7681 31.1404 39.7923C31.1163 39.8165 31.1525 39.9373 30.9802 39.8786L30.9767 39.9684C30.8906 39.9787 30.832 39.9339 30.8079 40.034L30.7613 39.9718L30.7579 40.0599C30.6804 40.0495 30.6166 40.1151 30.558 40.1255C30.4254 40.1479 30.3685 40.0685 30.2651 40.1583L30.3271 40.2204C30.1859 40.1876 30.1031 40.2636 29.9929 40.305C29.9119 40.3343 29.8361 40.2618 29.8619 40.4068L29.7689 40.3136L29.7516 40.4086C29.6776 40.4137 29.2968 40.393 29.2726 40.4535L29.3347 40.5001C29.2244 40.5121 29.09 40.4811 28.9849 40.507C28.8453 40.5398 28.5559 40.6606 28.4456 40.6865C28.3801 40.7003 28.2991 40.6727 28.2405 40.6865C28.2078 40.6951 28.2199 40.7676 28.1423 40.7814C28.0407 40.8004 27.8649 40.7832 27.7546 40.7814L27.7857 40.8747C27.7633 40.8919 27.5582 40.8591 27.4979 40.8747C27.4635 40.8833 27.4755 40.9558 27.3997 40.9696C27.3067 40.9869 27.1671 40.9299 27.0672 40.9696C27.0258 40.9851 27.0413 41.049 26.9672 41.0628C26.8983 41.0766 26.6329 41.0455 26.6088 41.0628L26.6398 41.156C26.5468 41.1595 26.2504 41.0939 26.2987 41.2492L26.2677 41.156H26.1746L26.1901 41.2492L26.0971 41.1577L26.0816 41.251H25.9765L25.9575 41.3442L25.88 41.251C25.8042 41.4305 25.6095 41.2337 25.5388 41.4374L25.5543 41.3442H25.4613L25.4923 41.4063L25.1201 41.4685L25.1511 41.5306L24.8427 41.5341L24.8238 41.6256C24.7238 41.629 24.5102 41.5928 24.4223 41.629C24.3965 41.6394 24.3982 41.6963 24.3568 41.7119C24.2586 41.7464 23.9967 41.6912 23.9002 41.7188C23.8761 41.7257 23.8933 41.774 23.8365 41.7809C23.7348 41.7947 23.6021 41.7671 23.4953 41.7757L23.4781 41.8707L23.385 41.7775L23.3678 41.8724C23.2317 41.881 23.068 41.8517 22.937 41.8724C22.8474 41.8862 22.8354 41.9346 22.7802 41.9639C22.6958 42.0105 22.8026 41.8724 22.7182 41.9018C22.5683 41.9535 22.4908 41.9397 22.3839 41.9708C22.3391 41.9846 22.3202 42.045 22.253 42.0571C22.0652 42.0934 21.7602 42.0364 21.5569 42.0571L21.5879 42.1503H20.8746L20.9056 42.2435L20.7471 42.2591L20.7505 42.3368L20.673 42.3091L20.642 42.4006L20.4765 42.4369L20.4697 42.5197L20.287 42.5249C20.2612 42.5612 20.4128 42.556 20.318 42.6026C20.2388 42.6423 20.094 42.6216 20.0079 42.6181L20.0389 42.7114H19.8218L19.8838 42.7735C19.8339 42.7925 19.7667 42.789 19.7219 42.808C19.7064 42.8149 19.6219 42.8961 19.615 42.8961C19.4789 42.9168 19.3307 42.8667 19.1894 42.8961L19.1705 42.991C19.0912 43.0203 19.0051 42.903 18.993 42.8995C18.8758 42.8702 18.7053 42.9081 18.5812 42.8667L18.6432 42.8046C18.3624 42.865 18.2935 42.7338 18.0919 42.6268C18.0367 42.5974 17.8179 42.5336 17.8093 42.5215C17.7921 42.5008 17.8214 42.4231 17.7886 42.3696C17.7783 42.3523 17.7386 42.3489 17.7214 42.3264C17.6956 42.2919 17.7404 42.2177 17.618 42.2435V42.1814L17.6801 42.1503C17.637 42.1659 17.5526 42.1124 17.537 42.0778C17.4785 41.9484 17.5836 41.8638 17.4475 41.8741C17.4078 41.8206 17.4337 41.7585 17.4251 41.7309C17.4199 41.7153 17.3751 41.7188 17.3716 41.6946C17.3579 41.6169 17.3579 41.3148 17.3682 41.232C17.3734 41.1975 17.4991 41.087 17.4354 40.973C17.5577 40.9955 17.5095 40.9092 17.5336 40.885C17.5887 40.828 17.7283 40.7573 17.7852 40.6606C17.8093 40.6209 17.7128 40.5881 17.8954 40.595L17.8989 40.5087C17.9196 40.488 18.0677 40.5208 18.1263 40.5001C18.1763 40.4828 18.1884 40.3136 18.3159 40.5052C18.3417 40.5052 18.3314 40.4465 18.3607 40.4276C18.4623 40.3602 19.248 40.4483 19.4307 40.4103L19.4651 40.507H19.8183C19.7977 40.6451 19.92 40.5484 19.9303 40.6934H20.5472L20.5817 40.595L21.0124 40.5985L21.0469 40.5018C21.1727 40.5501 21.2536 40.4396 21.3312 40.4207C21.3898 40.4068 21.519 40.4379 21.5948 40.4103C21.6327 40.3965 21.6982 40.2446 21.8343 40.3171L21.8533 40.2221H22.2082L22.1152 40.1306C22.3012 40.16 22.4425 40.0909 22.6166 40.0581C22.7613 40.0305 23.0215 39.9011 23.1283 39.8821C23.2127 39.8665 23.3127 39.889 23.4005 39.8821L23.4178 39.7871H23.5108L23.5418 39.8803C23.5556 39.7215 23.7314 39.813 23.8313 39.7889C23.8658 39.7802 23.8537 39.7077 23.9295 39.6939C24.0708 39.668 24.3913 39.7164 24.505 39.6801C24.5636 39.6611 24.5584 39.6162 24.5894 39.6024C24.6515 39.5765 24.7445 39.6059 24.748 39.599C24.7841 39.5265 24.7187 39.4919 24.9047 39.4764L24.8427 39.4143C24.9909 39.4712 25.003 39.34 25.0478 39.3245C25.1098 39.3038 25.1959 39.3366 25.258 39.3159C25.2993 39.3021 25.2976 39.2347 25.3303 39.2261C25.3958 39.2088 25.494 39.2416 25.5664 39.2261C25.5802 39.2227 25.7921 39.1225 25.8042 39.1156C25.8266 39.1018 25.8283 39.0483 25.8576 39.0397C25.9058 39.0276 26.0316 39.0569 26.0506 39.0379L26.054 38.9482C26.1591 39.0017 26.4451 38.8757 26.2125 38.8498L26.1901 38.76C26.1402 38.7911 26.0454 38.7531 26.0109 38.7652C25.9489 38.7859 25.9834 38.886 25.8989 38.855L25.8834 38.7928L25.8472 38.8567C25.7318 38.886 25.3372 38.7773 25.4027 38.9482C25.339 38.9551 25.2614 38.9361 25.1994 38.9482C25.1287 38.962 25.1046 39.1018 24.9392 39.0449V39.1363L24.8462 39.0742C24.8375 39.2071 24.5446 39.1001 24.4309 39.1398L24.412 39.2278C24.3723 39.252 23.8933 39.2123 23.7813 39.2313C23.7779 39.2313 23.7193 39.2658 23.7159 39.2675C23.69 39.2848 23.6969 39.2934 23.6986 39.321L23.6676 39.2278H23.2231L23.1869 39.29C23.1559 39.29 23.1989 39.233 23.1266 39.2244C22.8061 39.1847 21.8791 39.1933 21.5483 39.2382C21.4897 39.2451 21.2226 39.3072 21.1761 39.3262C21.1261 39.3469 21.133 39.4074 21.1055 39.4125C21.0555 39.4212 20.8832 39.3642 20.8039 39.4125L20.7815 39.504C20.5903 39.4574 20.6385 39.6369 20.4731 39.6318L20.5351 39.6939C20.461 39.6456 20.3266 39.7647 20.318 39.7561C20.306 39.7457 20.3439 39.6818 20.287 39.6939V39.7854C20.1526 39.7336 20.0217 39.9252 19.9924 39.7871C19.939 39.9321 19.7649 39.889 19.6357 39.8803L19.6977 39.927C19.6581 40.0236 19.2911 39.9459 19.1929 39.9736C19.1567 39.9839 19.1498 40.1082 18.9844 40.0357L19.0154 39.9736H18.2883L18.2693 39.8838C18.097 39.9304 18.0953 39.8251 18.0419 39.7992C17.985 39.7716 17.8696 39.8458 17.8989 39.6939L17.8058 39.7871C17.8058 39.7491 17.8644 39.7215 17.8145 39.6956C17.6094 39.5869 17.6146 39.5489 17.506 39.3607C17.4888 39.3297 17.4388 39.3228 17.4337 39.3003V38.7324L17.494 38.7945C17.5336 38.7238 17.5215 38.5805 17.5474 38.5235C17.5732 38.4666 17.6783 38.4648 17.618 38.3302H17.7076L17.7111 38.2059L17.8041 38.237L17.7421 38.1438C17.8593 38.1645 17.7748 37.9919 17.8076 37.9591C17.9282 37.9798 17.8799 37.8952 17.9041 37.871C17.9282 37.8469 18.0109 37.8952 17.9919 37.7744L18.1125 37.7692L18.0815 37.676C18.1143 37.6621 18.2159 37.676 18.2297 37.6656C18.4916 37.4947 18.5088 37.5223 18.8397 37.4878C18.8845 37.4826 18.9224 37.4257 18.9586 37.4326C19.0344 37.4464 19.0964 37.4636 19.1929 37.4774C19.3428 37.4999 19.6874 37.7277 19.839 37.7623C19.9062 37.7778 19.9803 37.7554 20.0441 37.7744C20.0889 37.7882 20.1078 37.8469 20.175 37.8607C20.2336 37.8727 21.0021 37.8693 21.0607 37.852C21.1192 37.8348 21.1072 37.7795 21.1434 37.7692C21.2605 37.7346 21.3484 37.745 21.4587 37.6708C21.438 37.5327 21.5793 37.6328 21.5586 37.4947L21.7413 37.4895L21.7102 37.3963C21.8446 37.455 21.8912 37.3083 21.917 37.3014C21.9928 37.2824 22.1203 37.3169 22.2048 37.3014L22.2013 37.2237L22.4494 37.2064L22.4684 37.1149H23.1938V37.0234H23.7831L23.752 36.837H23.5659V36.7127L23.4729 36.7438L23.4695 36.5919C23.3488 36.6247 23.2799 36.478 23.2868 36.3727L23.1938 36.4037C23.2248 36.3122 23.1059 36.2846 23.099 36.257C23.0887 36.2138 23.1111 36.1569 23.1007 36.1137C23.0938 36.0809 23.0266 36.0844 23.0111 36.0412C22.987 35.9704 23.0111 35.803 23.0025 35.7063C22.9905 35.5838 22.9233 35.5268 22.9198 35.5164C22.8974 35.4267 22.9939 35.28 22.8182 35.2661L22.8233 34.6792C22.6269 34.6413 22.6476 34.2218 22.6734 34.0561C22.6751 34.0423 22.7234 34.044 22.7268 34.0198C22.7389 33.9577 22.7217 33.8869 22.7268 33.823H22.6028C22.5976 33.7799 22.6148 33.7281 22.6028 33.6884C22.5942 33.6538 22.5097 33.6884 22.5407 33.6055H22.6028L22.5407 33.5589L22.6028 33.5278L22.5476 33.5071C22.5752 33.4519 22.5373 33.3811 22.5442 33.3414C22.5528 33.2879 22.601 33.2603 22.6045 33.2188C22.6045 33.2085 22.4632 33.0825 22.4546 33.0583C22.4305 32.9944 22.4546 32.9012 22.4408 32.846C22.4374 32.8322 22.3908 32.8339 22.3874 32.8097C22.3719 32.7269 22.3995 32.6371 22.3822 32.5525L22.2961 32.5491L22.2892 32.3661H22.1996V32.2711H22.2892L22.2926 32.1158L22.3547 32.1779L22.3857 32.0226L22.4477 32.0847C22.4511 31.9915 22.3822 31.9518 22.3822 31.8517C22.3822 31.7291 22.3977 31.6721 22.3926 31.5168C22.3891 31.4391 22.4546 31.3839 22.4494 31.3252C22.4443 31.282 22.3977 31.2423 22.3857 31.1681C22.3736 31.08 22.4391 31.0006 22.4494 30.9212C22.4632 30.8159 22.3891 30.5259 22.5407 30.5933L22.5545 30.2808L22.6682 30.2325C22.6803 30.1462 22.6441 30.0081 22.6648 29.9321C22.6682 29.9218 22.7958 29.7888 22.8164 29.7664L22.8216 29.0707L22.7286 29.1329C22.7596 29.0103 22.6941 28.9913 22.6527 28.8998L22.3874 28.6979L22.4494 28.6513C22.427 28.5943 22.3202 28.6185 22.2995 28.5977C22.2875 28.5839 22.303 28.5356 22.2875 28.5183C22.2719 28.5028 22.2237 28.5183 22.2099 28.5028C22.1944 28.4873 22.2099 28.4372 22.1979 28.4234C22.1875 28.413 21.9894 28.3906 21.9325 28.3146C21.8894 28.2559 21.9291 28.1455 21.9222 28.1403C21.9153 28.1351 21.7757 28.0902 21.7464 28.0661C21.7378 28.0592 21.6482 27.909 21.6379 27.8969C21.6 27.8537 21.5569 27.9038 21.4397 27.7346C21.3984 27.6759 21.345 27.745 21.3966 27.5775L21.4587 27.6397L21.4638 27.5188L21.5466 27.5102L21.5534 27.4256C21.6293 27.4032 21.6861 27.455 21.7533 27.4705C21.8705 27.4981 22.0083 27.5396 22.1272 27.5689C22.2065 27.5896 22.2875 27.6052 22.3702 27.6069L22.4063 27.7053L22.8371 27.7018L22.8543 27.7968L22.9009 27.7346C22.9301 27.7346 22.9009 27.7881 22.9353 27.7968C22.9818 27.8089 23.2231 27.7657 23.2885 27.7968V27.9211C23.3816 27.8883 23.4677 27.9038 23.5539 27.9504C23.6297 27.7778 23.6142 27.9608 23.6263 27.9677L23.8468 27.9832V28.073C23.8675 28.092 24.0191 28.0643 24.0742 28.0764C24.0984 28.0816 24.0932 28.1317 24.1173 28.1368C24.3499 28.1921 24.9616 28.1351 25.1873 28.0419C25.2166 28.0298 25.2356 27.9711 25.2873 27.947C25.3665 27.9107 25.494 27.9383 25.5078 27.7933H25.7077L25.6457 27.7018H25.9386C25.9472 27.5551 26.0764 27.6587 26.0488 27.5154L26.1109 27.5775C26.2056 27.4015 26.3797 27.4101 26.5761 27.4222L26.5606 27.36L26.483 27.329C26.6984 27.3738 26.8604 27.2599 27.0568 27.2357C27.1568 27.2237 27.3894 27.2547 27.4617 27.2288C27.4859 27.2202 27.4703 27.1822 27.4755 27.1736L27.5255 27.2357C27.7081 27.2513 27.9356 27.2099 28.1113 27.2426C28.1268 27.2461 28.1234 27.2858 28.1423 27.2893C28.294 27.3186 28.4163 27.3255 28.5714 27.3272L28.6075 27.4239L28.947 27.4325L28.9625 27.5137C29.0004 27.5361 29.1572 27.5137 29.1934 27.5223C29.2123 27.5275 29.2037 27.5689 29.2537 27.5793C29.3519 27.6017 29.4501 27.6138 29.5501 27.6086C29.5328 27.6414 29.5225 27.6828 29.5656 27.7018C29.619 27.7243 29.6224 27.5948 29.7189 27.6086L29.7344 27.7018C29.8809 27.6103 29.9395 27.7881 29.9739 27.795C30.0222 27.8071 30.1479 27.7795 30.1669 27.7968L30.1703 27.8865H30.5098L30.4167 27.9797L30.6959 28.0108L30.6649 28.073C30.7769 28.0039 30.8578 28.1299 30.8733 28.1351C30.9474 28.1524 31.0508 28.1265 31.1301 28.1351L31.068 28.2283L31.2541 28.2594L31.2231 28.3215C31.2541 28.3509 31.4574 28.3509 31.4867 28.3595C31.4971 28.363 31.5643 28.4648 31.6866 28.4182L31.7056 28.5097H31.8744L31.8124 28.5701L31.9382 28.6167L31.9347 28.6944C32.2173 28.6547 32.4275 28.9309 32.7101 28.8808L32.7066 28.8032L32.8617 28.7842L32.8703 28.7013L32.953 28.6927L32.9582 28.5718L33.0513 28.6029C33.0237 28.5615 33.134 28.3958 33.1495 28.3923C33.1753 28.3854 33.2236 28.4303 33.2994 28.3543L33.2373 28.2922L33.3321 28.2749V28.1386L33.4183 28.1317L33.4234 28.0436L33.5165 28.0747C33.4407 27.8399 33.6474 27.8865 33.706 27.8071C33.7422 27.7571 33.6836 27.6328 33.706 27.6103C33.8301 27.6345 33.7801 27.5465 33.8042 27.524C33.8283 27.5016 33.9197 27.5499 33.8904 27.4239L33.9834 27.455L33.9869 27.3324L34.0696 27.3255C34.0558 27.2202 34.1213 27.1874 34.135 27.1494C34.1437 27.127 34.1299 27.0907 34.1471 27.0579C34.154 27.0441 34.1867 27.0579 34.2005 27.0338C34.2453 26.9526 34.0902 27.0631 34.1385 26.9561L34.2625 26.9872V26.7697C34.2798 26.78 34.3074 26.7921 34.3246 26.78C34.3366 26.7714 34.5021 26.5763 34.5055 26.5625C34.5245 26.5056 34.4969 26.4382 34.5089 26.3864C34.5158 26.3605 34.5727 26.3536 34.5968 26.3122C34.6881 26.1517 34.7364 26.0257 34.8208 25.8893C34.9052 25.7529 34.8553 25.8185 34.8846 25.7011C34.8915 25.6735 35.0224 25.6407 34.9759 25.5251L35.0689 25.5872L35.0741 25.4025L35.1568 25.3956C35.1258 25.2834 35.2533 25.2074 35.2567 25.1919C35.2705 25.1384 35.2378 24.9934 35.2585 24.9692C35.5014 24.9778 35.3963 24.7569 35.4411 24.6153C35.4514 24.5808 35.5049 24.5843 35.5221 24.548C35.5376 24.5169 35.5221 24.4065 35.5324 24.3616L35.6237 24.3409L35.6306 24.22L35.7168 24.2166C35.734 24.0629 35.6858 23.9784 35.8064 23.8765C35.8322 23.8541 35.8874 23.8558 35.9029 23.842C35.908 23.8368 35.8839 23.7885 35.8994 23.7626C35.9925 23.5986 36.0821 23.4588 36.0941 23.2568L36.1562 23.35V23.1014C36.3181 23.1429 36.2406 22.9547 36.2509 22.9478C36.2578 22.9409 36.3078 22.9564 36.3319 22.9374C36.4387 22.8529 36.4715 22.7735 36.437 22.6371L36.5301 22.6682C36.4887 22.5249 36.5783 22.5214 36.6128 22.4696C36.6266 22.4506 36.6214 22.4161 36.6352 22.4006C36.7489 22.2711 36.8523 22.3229 36.8092 22.1089L36.9022 22.1399C36.9022 22.0968 36.8936 22.0467 36.9091 22.007C36.9746 21.8275 37.2089 21.7688 37.1865 21.553L37.2692 21.5444L37.2779 21.4615C37.3899 21.4581 37.4657 21.4615 37.4967 21.3372L37.5535 21.3649V21.2112C37.5966 21.2233 37.7362 21.1819 37.7086 21.1473C37.6983 21.1353 37.6345 21.1732 37.6466 21.1163L37.7414 21.0973V20.992L37.7999 21.0231C37.7999 20.9471 37.8068 20.8884 37.8895 20.9264L37.8947 20.7451C38.0136 20.7555 38.055 20.6019 38.1704 20.6467C38.1583 20.5639 38.2927 20.4914 38.3548 20.443C38.3961 20.4102 38.3944 20.3464 38.484 20.3705L38.453 20.2773L38.5391 20.2722C38.5374 20.172 38.5977 20.153 38.627 20.1082C38.77 19.8889 38.7769 19.9096 38.9613 19.7767C39.0336 19.7249 39.137 19.5748 39.1973 19.6248L39.2042 19.5368L39.2938 19.5143V19.3762L39.3834 19.4073C39.3507 19.2813 39.4558 19.2554 39.5264 19.1795C39.6057 19.0931 39.6333 19.0672 39.7108 18.993C39.7883 18.9188 39.8159 18.7962 39.9089 18.8169C39.8521 18.7082 39.921 18.7462 39.9399 18.6616L40.002 18.7237C39.9813 18.5977 40.0364 18.5874 40.0847 18.5252C40.0985 18.5062 40.0899 18.4613 40.1019 18.451C40.1433 18.4165 40.35 18.4406 40.2828 18.2576H40.5309L40.4689 18.1644H40.7791L40.7481 18.1023C40.798 18.085 40.8652 18.085 40.91 18.0678C40.9652 18.0453 41.1151 17.9435 41.1788 17.9297C41.2426 17.9159 41.3046 17.9124 41.3683 17.9159L41.3373 17.6673L41.2753 17.6984L41.2805 17.5464C41.3046 17.5395 41.3459 17.5516 41.3615 17.5361C41.3925 17.505 41.3546 17.3859 41.5544 17.4498V17.36C41.5786 17.3393 41.6837 17.3773 41.7336 17.3479C41.7612 17.3324 41.9094 17.1632 41.9249 17.1529C41.9507 17.1373 42.0093 17.1805 42.0179 17.1684C41.9938 17.0458 42.0662 17.0924 42.1006 17.0648C42.1472 17.0286 42.1437 16.9492 42.266 16.982L42.204 16.8888L42.3884 16.8853L42.3918 16.799C42.4228 16.7679 42.6003 16.8525 42.5762 16.7334L42.6692 16.7955L42.6382 16.7023C42.7606 16.7023 42.8071 16.5694 42.9484 16.6091L42.9174 16.5159H43.1965C43.2223 16.4796 43.0707 16.4831 43.1655 16.4382C43.2499 16.3968 43.324 16.4313 43.3619 16.4209C43.3757 16.4175 43.61 16.345 43.6221 16.3398C43.6807 16.3122 43.6858 16.2242 43.8461 16.2656V16.1758C43.9339 16.2293 44.0563 16.1344 44.0339 16.238H44.0649C44.0494 16.1344 44.1579 16.1965 44.2234 16.162L44.22 16.0843L44.313 16.1465C44.2992 16.0377 44.4801 16.105 44.5611 16.0533L44.4681 15.9911H45.2107L45.2279 15.8962H46.8062C46.92 16.0239 47.1026 15.9238 47.1181 16.0861H47.6281L47.5971 16.1447C47.6781 16.1689 47.7591 16.1793 47.8418 16.1896C47.9245 16.2 47.9486 16.124 47.94 16.269L48.3087 16.2725C48.2794 16.4296 48.6344 16.4606 48.7292 16.4192C48.755 16.4089 48.7533 16.364 48.7739 16.3502C48.7929 16.3381 48.8343 16.3657 48.836 16.3623C48.8963 16.2932 48.7602 16.3139 48.7739 16.269C48.9445 16.2656 48.7946 16.0412 48.929 16.0498L48.867 15.9877L48.9618 15.9704C48.9376 15.6787 48.9859 15.3576 48.9583 15.071C48.9497 14.9899 48.9463 14.9122 48.8653 14.8846L48.9583 14.8673C48.9204 14.781 49.0135 14.6947 48.8963 14.6688L48.9566 14.5411L48.8946 14.5117L48.9566 14.4807C48.8153 14.3253 48.8859 14.151 48.8653 13.968L48.9514 13.9628L48.9807 13.8247L48.8946 13.7643C48.9738 13.5709 48.9721 13.3224 48.979 13.11C48.9876 12.858 49.0221 12.9184 49.0514 12.7717C49.0703 12.6733 49.0272 12.5197 49.0565 12.4334C49.072 12.3902 49.1375 12.3937 49.1461 12.3609C49.1978 12.1606 49.1134 11.7153 49.1461 11.4822L49.2237 11.4857L49.253 11.3251L49.3305 11.3286V11.2043L49.4235 11.2354C49.4304 11.1301 49.4132 11.0179 49.427 10.9126C49.4477 10.7537 49.5648 10.6277 49.5889 10.5155C49.6131 10.4033 49.5149 10.3671 49.6579 10.3688C49.6269 10.2272 49.7475 10.1996 49.7612 10.1599C49.7819 10.1012 49.7492 9.95278 49.7699 9.93206L49.8612 9.91307V9.68349L49.9491 9.68003C49.9215 9.52985 49.9904 9.54366 50.0352 9.48497C50.0611 9.45045 50.0128 9.37622 50.1369 9.40211L50.0438 9.3089L50.13 9.30372C50.1489 9.28991 50.1455 9.20014 50.161 9.16562C50.2127 9.05687 50.3505 8.98782 50.3936 8.89805C50.4332 8.8152 50.3678 8.72888 50.5039 8.74787L50.509 8.56489L50.6021 8.62704C50.5108 8.42162 50.8261 8.42334 50.8743 8.36983C50.895 8.34739 50.9794 8.23173 50.976 8.19721L51.1276 8.19203L51.0656 8.09881C51.0811 8.08673 51.3964 8.05048 51.4481 8.03149C51.4567 8.02804 51.5791 7.94345 51.5859 7.93655C51.6221 7.89512 51.5411 7.8416 51.7169 7.85024L51.6859 7.75702H51.903L51.872 7.6638L52.0288 7.64827L52.0581 7.50844L52.1511 7.57059V7.48082C52.2597 7.47219 52.3372 7.486 52.3889 7.38415H52.7076V7.29439C52.7955 7.28921 52.8817 7.31165 52.9385 7.22879L53.0471 7.29094L52.9851 7.22879C53.0419 7.20117 53.1315 7.21153 53.1815 7.19082C53.228 7.17183 53.2228 7.11314 53.2538 7.10451C53.3297 7.08379 53.5571 7.11659 53.6536 7.10451C53.7053 7.09933 53.6967 7.05445 53.7053 7.05099C53.9189 6.96813 54.2394 7.01302 54.4927 7.05272L54.4875 7.05962ZM22.2892 28.0747H22.1961C22.2271 28.2128 22.1358 28.1299 22.1031 28.199L22.4132 28.3561L22.4443 28.4165V28.2301L22.3822 28.2611V28.1368H22.2582L22.2892 28.0747ZM23.0025 28.5097L22.6614 28.4786C22.6614 28.615 22.732 28.7393 22.8922 28.6979L22.9146 28.6081L23.0008 28.6012V28.508L23.0025 28.5097Z" fill="white"/>
<path d="M3.84581 35.28C3.84581 35.28 3.85615 35.2385 3.82341 35.2195C3.76139 35.1816 3.58391 35.1971 3.56841 35.1833V35.0935C3.34958 35.1643 3.24447 34.9226 3.03943 34.9226L3.07045 34.8449C2.94467 34.8916 2.8499 34.6723 2.79993 34.6585C2.76375 34.6482 2.7 34.6723 2.67243 34.6551C2.64314 34.6378 2.65347 34.5049 2.62935 34.4773C2.62246 34.4686 2.52252 34.4376 2.46222 34.3651C2.37779 34.2615 2.41225 34.2062 2.38468 34.1182C2.37262 34.0837 2.2589 34.0681 2.30714 33.9283C2.32093 33.8869 2.38296 33.8541 2.38296 33.8351C2.38296 33.823 2.30025 33.7488 2.29336 33.6763C2.28302 33.5693 2.3864 33.5244 2.28991 33.3897L0.992468 33.3535L1.02348 33.2913C0.883917 33.3086 0.747797 33.2758 0.611677 33.2672C0.573771 33.2637 0.503126 33.2965 0.485896 33.2913C0.453158 33.2827 0.458327 33.2188 0.415251 33.2033C0.323931 33.1705 0.09649 33.2327 0.0292916 33.186L0 32.9823L0.727121 33.0151L0.821888 32.827H1.33363L1.30261 32.8891H1.38015C1.39566 32.8045 1.49387 32.8149 1.56796 32.8253C1.62999 32.8339 1.61104 32.884 1.65067 32.8995C1.81436 32.9651 2.19687 32.8753 2.38813 32.9202L2.35711 32.827C2.66209 32.8045 2.50529 32.4041 2.54492 32.1935C2.44843 32.171 2.40191 32.0899 2.38813 31.988L2.35711 32.0502C2.27613 32.0433 2.3261 31.9414 2.31231 31.9242C2.30197 31.9121 2.11589 31.7705 2.08315 31.736L2.11072 31.679L2.01767 31.7412C2.00734 31.6583 2.03318 31.5565 2.01767 31.4771C2.00561 31.4132 1.95048 31.3959 1.93325 31.3459C1.9074 31.2768 1.91257 31.1646 1.92635 31.0887L1.83331 31.1198V30.5156L1.92635 30.4983C1.96081 30.4137 1.8626 30.45 1.86432 30.4206L1.92808 30.3844V29.8769L2.02112 29.9079L1.95909 29.7992C2.05558 29.7733 2.01423 29.7146 2.02457 29.63L2.11589 29.611V29.3504L2.20376 29.3469L2.20721 29.1933L2.30025 29.2244V28.9775C2.45533 28.9965 2.43293 28.7963 2.47256 28.6979C2.53286 28.5511 2.73273 28.4165 2.76547 28.2628L2.82578 28.325L2.91882 28.2318L2.85679 28.1852C2.88608 28.1575 2.90504 28.1196 2.93088 28.0885C3.06011 27.9383 3.23414 27.8606 3.29789 27.7122C3.34096 27.6863 3.5529 27.5827 3.56151 27.5706C3.5977 27.5171 3.51155 27.4532 3.66145 27.5171C3.63216 27.3911 3.72176 27.4394 3.7476 27.4153C3.75622 27.4066 3.84754 27.253 3.85615 27.2444C3.88028 27.2202 3.9647 27.2685 3.94403 27.1477L4.09393 27.1391C4.07325 27.0182 4.15768 27.0666 4.18181 27.0424C4.19042 27.0338 4.2783 26.8853 4.29036 26.8715C4.34722 26.8076 4.60223 26.7472 4.6453 26.6989C4.69182 26.6471 4.6453 26.5591 4.84001 26.6143L4.74696 26.5211L4.93305 26.49L4.90203 26.4279L5.02437 26.4244C5.03126 26.3951 5.01403 26.3519 5.04677 26.3329C5.05883 26.326 5.27421 26.2466 5.29144 26.2432C5.35347 26.2294 5.42756 26.2466 5.49131 26.2414L5.4603 26.1482L5.5878 26.1344L5.58436 26.055C5.67395 26.0792 5.77906 26.0481 5.87038 26.0205C5.89623 26.0136 5.88416 25.9652 5.9393 25.9583C6.07714 25.9411 6.2236 26.0274 6.28219 25.8668L6.29769 25.929L6.34766 25.8668H6.76119L6.69916 25.7754C6.76808 25.7564 6.81288 25.8323 6.86802 25.834C6.93521 25.8375 6.96106 25.7546 6.9938 25.8686H7.04032L7.05583 25.7754C7.16093 25.841 7.27465 25.7771 7.39527 25.7736C7.55034 25.7685 8.19131 25.7495 8.29124 25.7857C8.34294 25.8047 8.35844 25.853 8.40496 25.8686L8.42047 25.7754C8.52385 25.929 8.71167 25.8513 8.87018 25.8686L8.80816 25.9307C8.86502 25.9497 8.93566 25.8979 8.97701 25.8996C8.99597 25.8996 8.9908 25.9566 9.01492 25.9618C9.10279 25.9825 9.23202 25.9083 9.24236 26.055L9.30439 25.9618C9.31645 26.1051 9.44396 26.0377 9.537 26.055C9.59041 26.0654 9.73859 26.1223 9.84198 26.1465C9.87299 26.1534 9.87127 26.2121 9.90745 26.2294C9.94708 26.2483 10.0625 26.1983 10.0505 26.3019L10.1435 26.2397L10.128 26.3329H10.3916L10.2986 26.4261C10.4295 26.4002 10.5915 26.4192 10.6863 26.5194C10.7362 26.5729 10.6225 26.5263 10.6397 26.5815C10.7517 26.5625 10.8086 26.7265 10.8655 26.7576C10.912 26.7835 10.9826 26.7697 11.0223 26.7956C11.0533 26.8163 11.0447 26.8939 11.0843 26.9267C11.1515 26.9803 11.2514 26.9043 11.229 27.0441H11.3307L11.3514 27.1408L11.4134 27.0787V27.2029L11.4444 27.1408H11.5064L11.5133 27.2271C11.5995 27.2306 11.6133 27.234 11.6012 27.3255L11.6632 27.2634C11.6718 27.3876 11.7942 27.4429 11.8683 27.5257C11.9492 27.6121 12.0371 27.7691 12.1543 27.795C12.1371 27.8606 12.2249 28.0264 12.2611 28.0626C12.3628 28.161 12.4937 28.0712 12.4386 28.3509L12.5006 28.3198C12.511 28.4009 12.4851 28.5028 12.5006 28.5787C12.5041 28.5926 12.6574 28.6875 12.5937 28.7859L12.6833 28.7893C12.7039 28.8843 12.6281 29.0051 12.7798 28.9741L12.6867 29.0673L12.7798 29.0517V29.233L12.8418 29.2692L12.7798 29.3158L12.8728 29.3314L12.8676 29.4367L12.778 29.4557L12.8245 29.5333L12.8711 29.4712V30.2307L12.778 30.248C12.8573 30.431 12.7212 30.4137 12.6936 30.4413C12.6298 30.5104 12.5351 30.6261 12.4489 30.7262C12.4334 30.7434 12.4438 30.7935 12.4351 30.8021C12.4145 30.8194 12.3438 30.7987 12.3042 30.8125C12.2611 30.8263 12.2318 30.9644 12.0681 30.9022L12.1302 30.9644C12.0612 30.9834 11.9131 31.0334 11.8648 30.9644L11.882 30.6847L11.9751 30.7158L11.951 30.6381C11.9837 30.5725 12.0164 30.6019 12.0681 30.6243V30.5C12.1009 30.4724 12.1026 30.6278 12.1457 30.5311C12.1991 30.4103 12.2663 30.2946 12.2577 30.16L12.349 30.141V29.8803L12.4403 29.8786L12.3783 29.8009L12.4403 29.7854C12.4627 29.7422 12.3611 29.4936 12.349 29.4263C12.3369 29.359 12.3628 29.2727 12.349 29.2174C12.3404 29.1864 12.2818 29.1898 12.2628 29.1467C12.2284 29.0673 12.2508 28.8273 12.2542 28.7307L12.1646 28.7272L12.1577 28.6081C12.0268 28.6254 12.075 28.5218 12.0268 28.4303C11.982 28.3457 11.8941 28.3561 11.8889 28.3492C11.8734 28.3302 11.7959 28.1627 11.7804 28.1489C11.7614 28.1299 11.6167 28.0799 11.6098 28.073C11.5926 28.0522 11.615 27.997 11.596 27.9625C11.5736 27.9193 11.4702 27.8347 11.4186 27.8917C11.4944 27.7709 11.3255 27.6569 11.2325 27.7053L11.2273 27.619C11.0877 27.6172 11.1067 27.5879 11.0343 27.5292C11.0016 27.5016 10.9275 27.5482 10.9516 27.4256H10.7655L10.7965 27.3324C10.7242 27.3652 10.6983 27.272 10.6828 27.272C10.6156 27.2668 10.6173 27.2893 10.5243 27.2323C10.5415 27.0597 10.3124 27.2565 10.3279 27.0579C10.1797 27.1011 10.1745 26.9889 10.1297 26.9734C10.078 26.9526 9.84715 26.9526 9.77133 26.9613L9.83336 26.8681C9.76272 26.8594 9.67312 26.8819 9.60764 26.8681C9.5818 26.8629 9.5818 26.8163 9.56457 26.8059C9.40605 26.7179 9.18033 26.837 9.09935 26.7127H8.61001L8.59278 26.6195C8.49456 26.6661 8.62551 26.7386 8.46872 26.7127V26.6195L8.42219 26.6816C8.3257 26.711 8.35155 26.6091 8.32915 26.6195L8.23611 26.6816C8.21199 26.6816 8.22749 26.6298 8.20509 26.6247C8.16202 26.6126 7.48486 26.6057 7.4349 26.616C7.40216 26.6229 7.4056 26.692 7.36253 26.7058C7.24709 26.7455 6.99725 26.6782 6.87491 26.7092C6.84217 26.7179 6.87491 26.8025 6.7922 26.7714L6.76119 26.7092C6.78876 26.8249 6.44932 26.7628 6.42003 26.8025L6.45104 26.8646C6.29769 26.8076 6.26668 26.9285 6.20637 26.944C6.06336 26.9837 5.92379 26.887 5.90484 27.0528H5.73943L5.73771 27.1408C5.58436 27.0994 5.58953 27.2012 5.54128 27.2254C5.50682 27.2426 5.38276 27.2237 5.32935 27.2392C5.28455 27.253 4.7797 27.4999 4.7573 27.5257C4.74179 27.543 4.7573 27.5879 4.74179 27.6034C4.71595 27.6276 4.62635 27.5758 4.65564 27.7036L4.60912 27.6414C4.48161 27.8848 4.11805 27.9107 4.03362 28.1679L3.9423 28.1386L3.95953 28.2335C3.83031 28.2508 3.86994 28.3026 3.83892 28.344C3.81997 28.3681 3.77862 28.3681 3.76139 28.4078C3.73209 28.4769 3.68902 28.5977 3.5753 28.6098L3.56841 28.6961H3.50638L3.47536 28.634C3.4857 28.7531 3.43745 28.7445 3.39266 28.7997C3.37887 28.817 3.38921 28.8601 3.3737 28.8739C3.25309 28.981 3.26515 28.9274 3.179 29.0966C3.14971 29.1536 3.07389 29.1847 3.10319 29.2848L3.01014 29.2537C3.06873 29.3538 2.98085 29.4125 2.88781 29.4419L2.9171 29.5316H2.82405L2.81889 29.7767L2.73101 29.7802V30.2446L2.63797 30.2135C2.6328 30.2946 2.61729 30.3274 2.7 30.3533C2.63452 30.481 2.6104 31.1422 2.63797 31.3148C2.65003 31.3925 2.76375 31.4391 2.73273 31.5496L2.91021 31.5599C2.95156 31.7101 3.35475 31.7118 3.43745 31.6359C3.45469 31.6204 3.44262 31.5634 3.47364 31.5358C3.50465 31.5082 3.58736 31.5617 3.56841 31.3631L3.66145 31.3942V31.2699L3.74071 31.2993L3.76828 31.2423L3.84754 31.2699V31.1767C3.93714 31.2112 4.06464 31.2061 4.03362 31.0835L4.09565 31.1456C4.12839 30.9989 4.43509 31.1198 4.56087 31.0524C4.61946 31.2665 4.35928 31.2924 4.1887 31.2699L4.21799 31.3303C4.1887 31.3683 3.96126 31.4167 3.94058 31.427C3.93024 31.4339 3.88544 31.5858 3.83892 31.6342C3.8148 31.6583 3.58391 31.7895 3.57357 31.8016C3.55634 31.8223 3.58047 31.881 3.56151 31.9138C3.55118 31.9311 3.49948 31.9311 3.48225 31.9708C3.44952 32.045 3.48225 32.4248 3.46847 32.4438C3.45124 32.4679 3.35647 32.4645 3.38404 32.5404C3.54945 32.5698 3.38576 32.865 3.56496 32.8235L3.55462 32.884L4.06464 32.915L4.08359 33.0031C4.2111 33.0341 4.42475 32.9772 4.53847 33.0065C4.57121 33.0151 4.56777 33.0721 4.60395 33.0894C4.64013 33.1066 4.94166 33.0928 5.01059 33.1049L5.02437 33.1947L5.11569 33.1015C5.13464 33.262 5.25698 33.1688 5.35002 33.1705C5.47753 33.174 5.66362 33.1791 5.78423 33.1912C5.84281 33.1981 5.82386 33.2637 5.91173 33.2793C6.08921 33.3121 6.30803 33.2706 6.49067 33.2862L6.51135 33.3483L6.57338 33.2862L6.59061 33.3794C6.68538 33.3707 6.83528 33.3638 6.92488 33.3794C6.94728 33.3828 6.94555 33.4312 6.96106 33.4329C7.11958 33.4571 7.29533 33.4329 7.45557 33.4381L7.49003 33.5347H7.90701L7.87599 33.6262C8.02417 33.6608 8.01211 33.5934 8.1086 33.533L8.15512 33.6262L8.17063 33.533L8.18614 33.6262H8.65136L8.58933 33.7194C8.77886 33.6953 9.03559 33.6987 9.21651 33.754C9.32851 33.7885 9.35608 33.7937 9.49909 33.8196C9.58352 33.8351 9.60764 33.9628 9.76789 33.9059V34.0612L9.9488 34.0975L9.95397 34.372L9.89367 34.3409C9.88678 34.372 9.87816 34.4427 9.85576 34.46C9.78512 34.5101 9.22168 34.4358 9.08729 34.4341L9.14932 34.372H8.49973L8.49629 34.2787H7.89839L7.86221 34.2149C7.73643 34.3184 7.73126 34.2183 7.64683 34.2011C7.41939 34.1545 7.17816 34.2114 6.949 34.1855C6.96106 34.2736 6.949 34.2874 6.8594 34.2822L6.85596 34.3581L6.69916 34.3737L6.73017 34.4669C6.55959 34.3875 6.57166 34.5946 6.48206 34.6361C6.42864 34.6602 6.37006 34.6447 6.32871 34.6706C6.30631 34.6844 6.30803 34.7396 6.27702 34.7483C6.16157 34.7793 5.99961 34.6844 5.91173 34.8398L5.8497 34.7465L5.8342 34.8398C5.71186 34.8622 5.82213 34.7638 5.80318 34.7465C5.7446 34.6948 5.74115 34.8001 5.72737 34.8018C5.64639 34.8121 5.53094 34.7794 5.44479 34.8363L5.41895 34.7793L5.30867 34.8087L5.3707 34.7465C5.19667 34.7673 5.02092 34.7172 4.85207 34.7224C4.61773 34.7293 4.79521 34.7396 4.72284 34.6689C4.65047 34.5981 4.54192 34.662 4.53331 34.6533C4.52641 34.6464 4.55054 34.5826 4.51435 34.5567C4.48161 34.5342 4.39891 34.5377 4.361 34.498C4.34722 34.498 4.35066 34.5549 4.32654 34.5601C4.18353 34.5946 3.94575 34.3029 3.75794 34.3581V34.2805H3.57185C3.60976 34.2062 3.55634 34.151 3.47881 34.1873L3.50982 34.094L3.35647 34.0906L3.3513 34.0043C3.32029 34.0422 3.21518 33.9439 3.20829 33.93C3.17383 33.8558 3.2462 33.7971 3.13592 33.8299C3.12042 33.7263 3.03254 33.735 3.0446 33.659L3.10663 33.628L3.01703 33.6228L3.01359 33.5347L2.92054 33.5658V33.3794L2.87058 33.4415H2.64314V34.0923C2.76719 34.0681 2.71723 34.1527 2.74307 34.1786C2.74996 34.1855 2.87919 34.2425 2.88781 34.2995C2.8947 34.3357 2.8499 34.3512 2.92054 34.4341L2.98257 34.372C2.9619 34.4876 3.09112 34.4445 3.01359 34.5584L3.19623 34.5636L3.20485 34.6464L3.28755 34.6551V34.731C3.43056 34.8018 3.58391 34.8916 3.75794 34.838V34.9295L4.00606 34.9313L3.94403 35.0245C3.96815 35.0435 4.29725 35.0107 4.35756 35.0262C4.61084 35.0952 5.15704 35.1246 5.44996 35.0883C5.50854 35.0814 5.47925 35.0279 5.53956 35.021C5.67395 35.0038 5.88072 35.0158 6.02201 35.0245V34.9347C6.15985 34.9054 6.38384 34.9882 6.4407 34.838C6.51307 34.9865 6.70778 34.8622 6.67504 35.0227C6.84906 34.9641 7.08512 35.204 7.04549 35.3645L7.10924 35.349C7.15404 35.4388 7.10924 35.4526 7.21779 35.456L7.23502 35.6442L7.32118 35.6476C7.32118 35.7443 7.33324 35.8462 7.32634 35.9428C7.31428 36.0896 7.17816 36.15 7.2333 36.2984C7.09201 36.2432 7.06444 36.3865 7.00241 36.3951C6.90248 36.4072 6.77842 36.3813 6.67504 36.3934L6.67848 36.2104C6.98346 36.1949 6.82839 35.8738 6.86285 35.6649C6.71467 35.6563 6.81805 35.5268 6.67504 35.5544L6.73707 35.4612H6.61301L6.67504 35.368H6.51996L6.58199 35.3058C6.52686 35.2903 6.43209 35.2938 6.38729 35.273C6.35111 35.2558 6.38212 35.1867 6.30286 35.2126L6.33388 35.2748C6.30975 35.2903 5.8721 35.2454 5.767 35.2748C5.75321 35.28 5.61882 35.425 5.5275 35.3991L5.55851 35.4595C5.43445 35.4215 5.42928 35.5199 5.39482 35.5441C5.35519 35.57 5.27076 35.5562 5.23458 35.5803C5.19323 35.6097 5.25009 35.7633 5.09329 35.7409C5.17083 35.8306 4.94339 36.0153 4.93822 36.0395C4.90548 36.2104 4.86757 36.238 4.84517 36.3191C4.82105 36.4072 4.84862 36.6247 4.84517 36.7334C4.80899 36.7559 4.7573 36.6454 4.75213 36.749C4.73662 37.0027 4.75902 37.2876 4.78487 37.5396L4.8469 37.4774C4.86068 37.5534 4.82794 37.6673 4.8469 37.7346C4.85551 37.7657 4.90893 37.764 4.92271 37.7882C4.94166 37.8227 4.9365 37.8693 4.94856 37.89C4.98474 37.9487 5.05711 37.9401 5.03471 38.0367L5.11225 37.9435L5.12603 38.0212L5.2208 38.0367C5.17255 38.1369 5.09501 38.1576 5.11225 38.287L4.86585 38.3181C4.84862 38.2266 4.74696 38.1438 4.66253 38.1921L4.65909 38.0385L4.57294 38.035C4.61429 37.8745 4.52814 37.871 4.49884 37.8123C4.46955 37.7536 4.45749 36.8733 4.48506 36.8318C4.4954 36.8163 4.54364 36.8387 4.5402 36.8111L4.47645 36.7749C4.50401 36.7248 4.46955 36.6316 4.48161 36.5988C4.49712 36.5556 4.54881 36.5574 4.56087 36.5418C4.57121 36.528 4.56949 36.2725 4.58327 36.2035C4.60223 36.1154 4.65736 36.1085 4.66081 36.0913C4.67804 36.0119 4.66598 35.8634 4.66253 35.7737L4.81588 35.7391L4.75385 35.6459L4.90548 35.6425C4.90376 35.4716 5.0864 35.5872 5.03299 35.387C5.02437 35.3542 4.96062 35.3783 4.97096 35.3507L5.03299 35.273H4.75385L4.78487 35.3663H4.66081L4.72284 35.3197L4.58327 35.3041L4.6298 35.3663L4.28863 35.3507L4.35066 35.273C4.26107 35.2523 3.90267 35.3007 3.85443 35.273L3.84581 35.28ZM4.77453 33.5416H4.13873C4.0991 33.5416 4.04913 33.5209 3.99916 33.5416L4.03018 33.4812C3.85271 33.4467 3.7252 33.3707 3.73209 33.5952C3.73382 33.6504 3.75449 33.7056 3.75105 33.7609L3.84409 33.7298C3.84409 33.7574 3.83892 33.7885 3.85443 33.8109C3.92852 33.918 4.11116 33.9439 4.17836 34.0181C4.19559 34.0371 4.17836 34.0889 4.1887 34.0975C4.20937 34.1182 4.30586 34.0906 4.35066 34.1009C4.37996 34.1078 4.37823 34.17 4.42303 34.189C4.46438 34.2062 4.7125 34.2718 4.76591 34.2805C4.85034 34.296 4.9365 34.2856 5.02265 34.2874L4.99163 34.3495C5.05538 34.3685 5.13981 34.3098 5.18978 34.3167C5.21046 34.3202 5.20701 34.3737 5.22941 34.3806C5.2432 34.384 5.3707 34.3599 5.4155 34.3616C5.55334 34.3668 5.69118 34.3789 5.82903 34.3806C5.7894 34.2114 6.00478 34.3046 6.08748 34.2874C6.09954 34.2856 6.18397 34.1545 6.2908 34.1873L6.29769 34.1044L6.42003 34.1009L6.38901 34.0405L6.49756 34.0095C6.56649 33.9249 6.40969 33.9093 6.38729 33.8955C6.36489 33.8817 6.36661 33.8368 6.34077 33.8265C6.32526 33.8213 6.06508 33.8524 6.01684 33.8196V33.7298H5.92207L5.96859 33.7678C6.02201 33.8679 5.84281 33.8455 5.89106 33.7298H5.5051L5.47064 33.6349H4.96062L4.9141 33.5744L4.9296 33.6366H4.74352L4.77453 33.5434V33.5416Z" fill="white"/>
<path d="M12.3387 38.432C12.33 38.4579 12.1819 38.4959 12.2422 38.6634L12.156 38.6668V38.8343L12.0664 38.8567C12.0354 38.9741 11.9837 39.176 11.8424 39.1312L11.8734 39.2244C11.7477 39.1933 11.7959 39.2865 11.7735 39.3107C11.7511 39.3349 11.6581 39.2848 11.6874 39.4108L11.5943 39.3797L11.5616 39.5023L11.5082 39.4799C11.4875 39.4988 11.4134 39.6197 11.4048 39.6231C11.3634 39.6369 11.2997 39.5247 11.3152 39.6905H11.0998L11.1153 39.7837L9.94536 39.7526C9.9109 39.6594 9.85404 39.6939 9.76961 39.687L9.76617 39.5972L9.58525 39.5903L9.57835 39.5075L9.45947 39.5006L9.45602 39.4143H9.3199C9.30784 39.3487 9.23203 39.2813 9.17861 39.2434C9.15794 39.2296 9.11831 39.2572 9.11831 39.2537C9.10969 39.2365 9.07006 39.0552 9.04594 39.0155C9.03388 38.9948 8.94428 38.9689 8.96151 38.8826L8.86846 38.9447V38.7756L8.78231 38.7531L8.67893 38.4838L8.42048 38.4769C8.38946 38.4838 8.41531 38.5442 8.39635 38.5632C8.34294 38.6202 8.18097 38.6616 8.16202 38.6737C8.1379 38.6892 8.12411 38.7859 8.03107 38.7583L8.06208 38.8515H7.84498L7.8467 38.9275L7.5624 39.0535V39.1277C7.49521 39.1829 7.24537 39.2227 7.22986 39.233C7.061 39.3625 7.07823 39.2865 6.89387 39.3435C6.85079 39.3573 6.85424 39.3987 6.83528 39.4039C6.66126 39.4505 6.55271 39.328 6.39591 39.5161C6.37868 39.5368 6.39074 39.58 6.38213 39.5921C6.37696 39.599 6.27013 39.5489 6.29253 39.6749C6.43209 39.7319 6.40108 39.8786 6.41831 40.0029L6.48034 39.9718C6.48551 40.015 6.47 40.0685 6.48034 40.1082C6.48895 40.141 6.57338 40.1082 6.54237 40.1893L6.48034 40.2204C6.59234 40.2152 6.63714 40.3412 6.75947 40.3136L6.69744 40.3758L7.0386 40.4379L7.00759 40.5001H7.9208L7.93803 40.4068L8.04658 40.4707C8.0707 40.3671 8.15168 40.431 8.21716 40.3913C8.23956 40.3775 8.23611 40.3223 8.26885 40.3136C8.32915 40.2981 8.42737 40.3257 8.49457 40.3136L8.49112 40.2359L8.67893 40.2221L8.6169 40.1289H8.86502L8.77198 40.2221L8.834 40.2843C8.68238 40.2636 8.68238 40.3965 8.65998 40.4103C8.62379 40.431 8.54281 40.4241 8.49801 40.4448L8.47734 40.5277C8.38601 40.4379 8.30676 40.6813 8.28608 40.6899C8.22405 40.7158 8.1155 40.6813 8.07931 40.6934C8.03279 40.7107 8.00178 40.847 7.82603 40.7814L7.84154 40.8436L7.68646 40.7814V40.8746L7.57791 40.7814L7.5176 40.8695C7.36942 40.7763 7.3074 40.759 7.1282 40.8125L7.15921 40.8746H7.09718L7.09374 40.8177L6.9938 40.8453C6.96279 40.7659 6.93177 40.7814 6.85251 40.7763L6.84734 40.6917L6.66643 40.683L6.66298 40.5967L6.54065 40.5933L6.57166 40.5311C6.53203 40.5121 6.40625 40.5087 6.39074 40.4932C6.36145 40.4604 6.41142 40.4776 6.31665 40.4068C6.26668 40.3689 6.32699 40.286 6.19948 40.3136L6.29253 40.2359L6.20293 40.2187L6.19948 40.065C6.03235 40.1306 6.05992 39.9753 6.01512 39.8993C5.99272 39.8631 5.90829 39.908 5.90484 39.7837C5.78596 39.7992 5.64639 39.7699 5.53267 39.7837C5.47925 39.7906 5.50338 39.832 5.44135 39.8493C5.28972 39.8942 5.05883 39.8372 4.89859 39.8786L4.86758 39.7854L4.81933 39.8786C4.77281 39.8579 4.68149 39.8113 4.63324 39.8217C4.61429 39.8251 4.62291 39.8648 4.60223 39.87C4.48679 39.8976 4.47128 39.7992 4.44716 39.7906C4.40064 39.7716 4.20938 39.8044 4.14046 39.7802C4.0991 39.7664 4.10255 39.6991 4.06809 39.6905C3.96815 39.6663 3.94575 39.7509 3.91474 39.5955L3.71659 39.5834V39.5058H3.4702C3.49949 39.3797 3.3806 39.3987 3.28411 39.3815L3.30995 39.3245C3.2238 39.3072 3.11525 39.1812 3.06011 39.1536C3.01704 39.1329 2.93433 39.1432 2.9171 39.126C2.8947 39.1035 2.92744 38.9965 2.75686 39.0086L2.78787 38.9465L2.63625 38.9413C2.62935 38.9171 2.64142 38.874 2.62591 38.8601C2.61557 38.8515 2.46394 38.76 2.45533 38.7514C2.39158 38.6754 2.31749 38.4545 2.26063 38.3561L2.1986 38.4182L2.19343 38.2353C2.08315 38.2508 2.02629 38.0488 1.997 37.9504L1.91946 37.9539C2.00389 37.8451 1.83848 37.8296 1.82814 37.7761C1.81608 37.7191 1.82987 37.657 1.82814 37.5983L1.73338 37.581L1.79541 37.5344L1.73338 37.4982C1.69202 37.3324 1.75578 36.5401 1.72821 36.4987C1.71615 36.4814 1.518 36.3796 1.7351 36.4003V36.0291H1.82814C1.79196 35.9566 1.82125 35.8617 1.84882 35.7875C1.8626 35.7512 1.9074 35.7529 1.91257 35.7339C1.93669 35.6649 1.85916 35.5372 2.00734 35.5596C1.9746 35.4819 2.03663 35.494 2.0642 35.4578C2.09177 35.4215 2.0418 35.3507 2.16758 35.3749L2.10555 35.3438V35.2817L2.1917 35.2748C2.18654 35.1401 2.31749 35.166 2.4157 35.1885L2.29164 35.0952C2.36056 35.0849 2.45533 35.1108 2.51908 35.0952C2.54493 35.0883 2.53631 35.0314 2.55526 35.0314C2.60696 35.0314 2.69483 35.1367 2.78787 35.0952C2.74824 35.1332 2.73791 35.2558 2.71723 35.2748C2.70172 35.2886 2.65348 35.2748 2.63969 35.2886C2.60351 35.3248 2.68277 35.4146 2.44671 35.3749L2.45016 35.4526L2.29336 35.4992L2.38641 35.5613L2.20377 35.5959L2.19687 35.746C2.16758 35.7529 2.12623 35.7357 2.10728 35.7685C2.06075 35.8513 2.00045 36.0222 1.98322 36.1206L1.92119 36.0274C1.9143 36.0965 1.92636 36.2 1.9074 36.2622C1.89534 36.2984 1.84537 36.3226 1.83504 36.3606C1.80919 36.4521 1.81781 37.1805 1.85054 37.2634C1.85916 37.2841 1.97288 37.3911 1.98322 37.4412L1.92119 37.4878C2.07109 37.4533 1.95737 37.6155 2.10728 37.581C2.11934 37.638 2.05558 37.6 2.04525 37.6121C2.04008 37.6173 2.10211 37.7398 2.10728 37.745C2.13484 37.7813 2.18137 37.7588 2.19343 37.7726C2.21066 37.7899 2.19343 37.8641 2.22789 37.9107C2.27269 37.9729 2.35884 37.9055 2.29336 38.0471L2.38641 37.9849C2.38124 38.0316 2.43121 38.2042 2.45361 38.2266C2.4605 38.2335 2.50185 38.2094 2.51219 38.218C2.55699 38.2577 2.51047 38.3578 2.63452 38.3267L2.60351 38.42C2.64831 38.4234 2.79132 38.4683 2.81372 38.4925C2.87747 38.5632 2.97569 38.6754 3.01187 38.7566C3.09285 38.7134 3.09285 38.8204 3.11525 38.8222L3.22553 38.7945L3.19451 38.8567L3.28239 38.8601L3.28755 38.9499L3.34958 38.8567C3.33925 38.9516 3.44607 38.9361 3.46675 38.9585C3.48398 38.9775 3.46675 39.0241 3.47537 39.0414C3.48398 39.0604 3.83376 39.0259 3.89234 39.05C3.92335 39.0621 4.12323 39.2071 4.17836 39.2244C4.26279 39.2485 4.37307 39.2088 4.44716 39.2347C4.48851 39.2503 4.48679 39.3159 4.51952 39.3245C4.57983 39.34 5.69463 39.3366 5.75322 39.3159C5.77217 39.309 5.77045 39.2572 5.82731 39.2434C5.96515 39.2071 6.21499 39.1743 6.33733 39.1329C6.3804 39.1191 6.37696 39.0518 6.40969 39.0431C6.46311 39.0293 6.54581 39.0535 6.6044 39.0431L6.49585 39.0121L6.48034 38.9499C6.7095 38.9689 6.87836 38.798 7.06962 38.7169L7.00759 38.6703H7.22469L7.19368 38.577C7.42284 38.6409 7.38149 38.527 7.48142 38.4355C7.49004 38.4286 7.52105 38.4424 7.53311 38.432C7.5917 38.3906 7.62099 38.2836 7.75194 38.2957L7.68991 38.2335H7.84498L7.75194 38.1403L7.91046 38.1248L7.93803 37.9228L8.03107 37.9849V37.7364H8.15513L8.12411 37.6742C8.24645 37.7001 8.19993 37.6259 8.2275 37.5914C8.24645 37.5655 8.29469 37.5655 8.30676 37.5292C8.32915 37.4654 8.31365 37.3014 8.31537 37.2202L8.40497 37.2064L8.34294 37.1443L8.77714 37.1132C8.75302 37.0442 8.67032 37.0252 8.60656 37.0183C8.17236 36.9717 7.41767 36.9941 6.96451 37.0062C6.9111 37.0062 6.79048 37.0114 6.75085 37.0234C6.69055 37.0424 6.72501 37.1443 6.63886 37.1115L6.62335 37.0493L6.60267 37.1046L5.6774 37.1115V36.925L5.73943 36.9561V36.8318L6.17364 36.8008L6.11161 36.7386C6.26324 36.7214 6.4476 36.7593 6.59406 36.7403C6.65264 36.7334 6.62335 36.6816 6.68366 36.673C6.84218 36.6523 7.04549 36.692 7.21091 36.6782L7.24537 36.5815H7.88978C7.93113 36.5694 7.92769 36.4987 7.96215 36.49C8.0707 36.4624 8.31365 36.4641 8.43598 36.459L8.40497 36.3968L9.07351 36.3934C9.11314 36.4037 9.16655 36.3226 9.18033 36.3347C9.1924 36.345 9.15449 36.4089 9.21135 36.3968L9.22858 36.3019L10.3451 36.2984L10.3744 36.2415L10.4089 36.3071L11.0498 36.2812C11.4823 36.3053 11.9269 36.3226 12.3593 36.326C12.4834 36.326 13.1554 36.2794 13.2071 36.3122C13.2226 36.3226 13.2002 36.3709 13.2277 36.3675C13.257 36.3675 13.2277 36.3122 13.2622 36.3036C13.2812 36.2984 13.6275 36.2984 13.6619 36.3036C13.7154 36.3088 13.705 36.3537 13.724 36.3588C13.8601 36.4003 13.9997 36.4417 14.0789 36.3071C14.0893 36.4313 14.2685 36.4555 14.2357 36.3071C14.3942 36.3606 14.7699 36.2639 14.8939 36.3347C14.9129 36.345 14.9198 36.3761 14.9163 36.3985C14.9904 36.3951 14.937 36.3088 14.9628 36.3053C15.0731 36.2881 15.0283 36.3761 15.0559 36.3675L15.0714 36.3053L15.1024 36.3675L15.1799 36.3088C15.2592 36.4348 15.4884 36.4227 15.5521 36.3036C15.59 36.4521 15.7899 36.2967 15.8605 36.3036C15.9277 36.3088 16.0776 36.528 16.0639 36.3053L16.0949 36.3675L16.2 36.3968L16.2499 36.3053C16.3034 36.2915 16.2689 36.3537 16.2827 36.3657C16.3016 36.3813 16.3447 36.3347 16.3688 36.3433C16.374 36.345 16.3706 36.3899 16.3878 36.3934C16.436 36.4037 17.32 36.4089 17.3785 36.3968C17.475 36.3796 17.4664 36.2812 17.5078 36.3968H18.2642L18.2021 36.459L18.8965 36.4918L18.9155 36.5522L19.0085 36.49L19.0275 36.5781L19.2566 36.5833L19.2256 36.6454L19.4427 36.6765V36.7697H19.3497L19.3807 36.8318C19.2653 36.8128 19.1602 36.8474 19.0516 36.8594C18.9655 36.8681 18.931 36.8008 18.8328 36.9164L17.5819 36.925L17.5663 37.0183L17.4733 36.925C17.4406 37.0165 17.3648 37.0217 17.2717 37.0183L17.3337 36.925C17.2424 36.9181 17.1545 36.9078 17.1476 37.0183C17.0029 36.8802 16.9081 37.1149 16.8203 36.9285L16.6824 36.9561L16.7134 37.0183H16.6359C16.5411 36.8802 16.2482 36.9734 16.0794 36.9233L16.0484 37.0183C16.007 36.9078 15.8743 36.8664 15.8313 36.9872L15.7951 36.9233H15.5556L15.5349 36.8629C15.478 36.8508 15.5314 36.9527 15.4591 36.925C15.3953 36.9009 15.4591 36.8318 15.4263 36.8318H15.2558V36.925C15.1662 36.9423 15.0421 36.8681 14.9921 36.8646C14.9783 36.8646 14.9835 36.9164 14.9577 36.925C14.9198 36.9371 14.7664 36.9199 14.744 36.8646L14.713 36.9268L14.682 36.8646L14.6665 36.9268H14.3408L14.3236 36.837L13.9738 36.8336L13.9376 36.7697L13.9015 36.8336H13.226L13.2088 36.925L13.1313 36.8318C13.0744 36.9889 12.9538 36.8922 12.8246 36.8974C12.7746 36.8992 12.7229 36.9233 12.666 36.925C12.268 36.9354 11.8683 36.9147 11.472 36.925L11.534 37.0183L11.4444 37.0148L11.4237 36.9233H11.055L11.0223 37.02H10.9137L10.8999 36.9371L10.7586 36.9268L10.7896 36.9889C10.6466 37.0373 10.5605 36.8715 10.3865 36.9268L10.4175 37.02C10.0505 36.9889 9.68174 37.0338 9.31645 37.0545C9.21824 37.0597 9.15104 36.9855 9.13209 37.0787L8.86846 37.02V37.1115L8.95462 37.1184C8.95462 37.2237 8.98046 37.1909 9.05628 37.222C9.06317 37.2962 9.03905 37.3929 9.05628 37.4636C9.06144 37.4895 9.10969 37.4705 9.12003 37.5292C9.13554 37.6259 9.12692 37.7571 9.12003 37.8572H9.2079L9.25787 38.0436L9.30439 37.9815C9.30439 38.035 9.29578 38.092 9.31129 38.1438C9.34919 38.2594 9.48359 38.3923 9.55251 38.4942C9.56629 38.5166 9.58697 38.6012 9.61454 38.6323L9.67657 38.5701C9.67829 38.6375 9.67485 38.7756 9.70758 38.8291C9.72654 38.8619 9.77478 38.8394 9.79374 38.8567C9.81269 38.874 9.95398 39.1104 9.96604 39.1208C9.99188 39.145 10.078 39.0932 10.0505 39.2209L10.0815 39.1277C10.1349 39.2278 10.321 39.29 10.3296 39.1588L10.3796 39.2209C10.4381 39.2175 10.5071 39.2296 10.5622 39.2227C10.6294 39.214 10.6105 39.1588 10.6518 39.1381C10.7001 39.1156 10.9327 39.1381 10.9482 39.126L10.9172 39.0328H11.0722L11.0102 38.9396H11.2256C11.2118 38.8343 11.3979 38.7307 11.503 38.7479L11.5099 38.6651L11.5978 38.6599L11.5667 38.5667L11.6891 38.5615L11.6977 38.4786L11.7856 38.4735L11.7545 38.4113L11.8769 38.4061L11.8855 38.3233L11.9717 38.3164L11.9768 38.0402L12.063 38.0367L12.0664 37.9297L12.1595 37.9452L12.0647 37.8365C12.206 37.6794 12.1543 37.5068 12.1577 37.31L12.2525 37.2927V37.1374C12.3042 37.1236 12.2663 37.1909 12.3042 37.1995C12.3456 37.2099 12.3955 37.1943 12.4386 37.1995C12.4765 37.3031 12.3662 37.2945 12.3559 37.3376C12.3473 37.3773 12.3903 37.4809 12.3455 37.5413L12.4386 37.4792V37.9452L12.3455 37.9142C12.3197 38.0419 12.38 38.3233 12.3455 38.4269L12.3387 38.432Z" fill="white"/>
<path d="M9.03732 30.3412C9.05455 30.3464 9.08901 30.4155 9.13725 30.4275C9.1855 30.4396 9.28371 30.4224 9.29922 30.4379C9.30956 30.4483 9.29233 30.5035 9.30611 30.519C9.32162 30.538 9.39399 30.5363 9.43362 30.557C9.45946 30.5708 9.46291 30.6502 9.5749 30.6243C9.5749 30.8142 9.82302 30.6174 9.76444 30.8988L9.84198 30.8367C9.90917 30.9402 9.97982 30.8625 9.95397 31.0507C10.1211 31.0697 10.0763 31.1059 10.1349 31.194C10.1797 31.2596 10.2521 31.2527 10.1969 31.3649L10.1504 31.3027C10.1366 31.4201 9.90056 31.389 9.82647 31.3476C9.74721 31.3045 9.79028 31.2285 9.76788 31.1974C9.74549 31.1664 9.54389 31.0835 9.5749 30.9972C9.40777 31.0507 9.36469 30.8505 9.29233 30.8142C9.2527 30.7935 9.20617 30.8159 9.16654 30.8056C9.1407 30.7987 9.14415 30.7538 9.13898 30.7521C9.12175 30.7434 9.07867 30.7762 9.04421 30.7693C8.90464 30.7383 8.80298 30.6796 8.6324 30.7124L8.52558 30.8056L8.49456 30.7124C8.52385 30.8677 8.41186 30.7849 8.3257 30.8039L8.30503 30.8936L8.21543 30.8988C8.20337 30.9558 8.26712 30.9178 8.27746 30.9299C8.28435 30.9385 8.22404 30.9955 8.21543 31.0386C8.19648 31.1491 8.22921 31.2924 8.21198 31.4098L8.30675 31.4426L8.21371 31.5202C8.31192 31.5254 8.3929 31.5668 8.46182 31.4736L8.39979 31.427H8.47733L8.50835 31.5202L8.52385 31.427L8.65825 31.4305L8.67893 31.5496H9.11313C9.12519 31.6014 9.00113 31.5634 9.0511 31.6428C9.05627 31.6514 9.17516 31.6169 9.24753 31.6497C9.29405 31.6704 9.2906 31.7274 9.31989 31.736C9.41811 31.7619 9.82647 31.7602 9.93502 31.8051C9.96259 31.8171 9.95914 31.8724 10.0005 31.8879C10.0625 31.9104 10.1607 31.8827 10.2297 31.8931L10.2262 31.9708L10.4881 31.9846L10.5088 32.0467L10.6018 31.9846L10.5984 32.0623C10.6639 32.0968 10.7414 32.0381 10.7724 32.133C10.8637 32.0675 10.8413 32.1607 10.8706 32.1693C10.9568 32.1917 11.1601 32.1123 11.0981 32.2625H11.4082L11.3772 32.3557H11.6873L11.6563 32.4489H11.7614L11.8114 32.3868C11.7856 32.4938 12.0251 32.4438 12.0595 32.48L12.0285 32.5422H12.3369V32.6354L12.399 32.5732C12.399 32.7251 12.6609 32.5335 12.6178 32.7269C12.7591 32.6665 12.8642 32.7787 12.9555 32.8063C13.0106 32.8235 13.0692 32.8132 13.1192 32.8287C13.2157 32.8598 13.2967 32.9426 13.4224 32.9133L13.3914 33.0065L13.4845 32.9444C13.4724 33.0531 13.5982 32.9875 13.6809 33.0117C13.7222 33.0238 13.7446 33.079 13.786 33.0928C13.8618 33.117 13.9635 33.0911 14.0427 33.0997L13.9807 33.1463C14.0083 33.2188 14.2409 33.1291 14.2288 33.2551L14.2891 33.193C14.3081 33.3673 14.5528 33.193 14.5355 33.3656L14.8164 33.3794L14.7854 33.4415H15.0955L15.0645 33.5347H15.3746L15.3436 33.5969L15.6228 33.628L15.5607 33.7212C15.6486 33.7333 15.7658 33.7039 15.8485 33.7212C15.8743 33.7264 15.8726 33.7781 15.9071 33.792C15.9863 33.823 16.0725 33.804 16.1517 33.8265C16.2258 33.8472 16.4446 33.9611 16.5463 33.9922C16.6187 34.0146 16.6945 34.0146 16.7686 34.0319L16.7376 34.094C16.7806 34.0958 16.8289 34.0854 16.872 34.094C16.8788 34.094 16.9684 34.1838 16.9753 34.1855C17.0443 34.1959 17.1201 34.1734 17.1856 34.189C17.3234 34.2201 17.4423 34.3202 17.606 34.2805L17.5129 34.3115C17.5543 34.4289 17.8437 34.3392 17.8834 34.3771V34.4669C18.1212 34.3979 18.278 34.7051 18.5347 34.6568L18.5381 34.7431C18.6295 34.7604 18.7104 34.7017 18.738 34.8087L18.7587 34.7621L18.8155 34.7466V34.8363L19.2497 34.933L19.1877 34.9951C19.2566 35.0141 19.3462 35.0107 19.4117 35.0279C19.4376 35.0348 19.4341 35.0814 19.4565 35.0866C19.5306 35.1039 19.634 35.0763 19.7132 35.0866L19.6512 35.1488C19.7081 35.1798 19.7977 35.1643 19.8442 35.1816C19.8855 35.1971 19.9269 35.3352 20.0854 35.2748L20.0544 35.368C20.1785 35.3248 20.225 35.4301 20.2939 35.4543C20.3473 35.4733 20.418 35.4578 20.4817 35.4819C20.5127 35.494 20.5954 35.6114 20.7057 35.5855L20.6747 35.6476H21.0159L20.9538 35.7409C21.052 35.696 21.0848 35.7978 21.0934 35.7978C21.1089 35.7978 21.1347 35.7702 21.152 35.7737C21.164 35.7737 21.2605 35.8979 21.357 35.8358L21.3605 35.9256C21.3794 35.9446 21.5018 35.9152 21.5569 35.9342C21.5982 35.948 21.5965 36.0153 21.6293 36.024C21.7344 36.0516 21.8877 35.9515 21.8567 36.1155H22.0721V36.2397L22.1806 36.2087L22.1961 36.2708L22.0273 36.3036C21.9704 36.1465 21.8533 36.2397 21.7499 36.2052C21.7085 36.1914 21.7102 36.1241 21.6792 36.1155C21.5931 36.0947 21.419 36.1293 21.3501 36.1155C21.3432 36.1155 21.2519 36.024 21.245 36.024C21.1709 36.0119 21.0934 36.0326 21.0193 36.0205V35.9307H20.6454V35.8375C20.5145 35.8859 20.3921 35.7754 20.2491 35.7529C20.1561 35.7374 20.0182 35.7633 19.951 35.7409C19.9079 35.7253 19.9114 35.6597 19.8787 35.6511C19.7632 35.6235 19.4979 35.6217 19.3807 35.551C19.3635 35.5406 19.3652 35.4923 19.329 35.4785C19.2894 35.4629 19.0309 35.475 19.0016 35.4353L19.0326 35.3732H18.7845L18.8155 35.311C18.7087 35.3628 18.6932 35.2385 18.5381 35.2765V35.1867L18.1952 35.1557L18.2263 35.0935C18.1556 35.0832 18.066 35.1091 17.9988 35.0935C17.9661 35.0849 17.7834 35.04 17.749 35.0279C17.7076 35.0141 17.7111 34.9468 17.6766 34.9382C17.6129 34.9226 17.5043 34.9468 17.4337 34.9244C17.3303 34.8916 17.2459 34.7776 17.0787 34.8449L17.2028 34.7517H16.8633L16.8616 34.6585C16.6531 34.7276 16.5532 34.517 16.3533 34.567L16.3344 34.4755L16.0259 34.441L16.057 34.3789C15.8692 34.4151 15.7572 34.3029 15.6072 34.2235L15.5917 34.2857H15.5314C15.5349 34.1769 15.3764 34.2166 15.304 34.1873C15.2575 34.1683 15.2609 34.1078 15.2299 34.0992C15.1662 34.082 15.061 34.1113 14.9887 34.1027L14.9542 34.006C14.9094 33.9956 14.7664 34.0129 14.7388 34.0026C14.7113 33.9922 14.7147 33.9439 14.6803 33.9266C14.6217 33.9007 14.4804 33.9024 14.4149 33.9145L14.4459 33.8213H14.1358L14.1168 33.7315L13.8566 33.7264L13.8877 33.6331H13.6258L13.5913 33.5382C13.4931 33.5192 13.3191 33.5934 13.2674 33.4778L13.3294 33.4467H13.0503L13.0813 33.3846H12.8814L12.8642 33.2913L12.7711 33.3535L12.7866 33.2913C12.6454 33.3483 12.5885 33.2361 12.5402 33.224C12.4662 33.2033 12.3731 33.2154 12.2973 33.1912C12.2284 33.1688 12.1836 33.0687 12.0595 33.1015L12.0406 33.01C11.9648 33.0065 11.8717 33.029 11.7993 33.0065C11.7614 32.9944 11.739 32.9444 11.7149 32.9357C11.6339 32.9081 11.5374 32.9392 11.4823 32.8563C11.4496 32.8995 11.4892 32.9357 11.4048 32.9185V32.8287C11.3669 32.7942 11.1635 32.8857 11.1877 32.7631L11.1256 32.8253L11.1084 32.7303C10.9671 32.7959 10.9103 32.644 10.8879 32.6388C10.8034 32.6181 10.7052 32.6923 10.6776 32.5784L10.6001 32.6406V32.5473L10.3382 32.5491L10.3193 32.4541C10.1194 32.5232 10.047 32.3178 9.87299 32.3626L9.85576 32.2677L9.76272 32.3298L9.77822 32.2677C9.68001 32.2832 9.59213 32.2522 9.50081 32.2263C9.48531 32.2211 9.48703 32.1814 9.43706 32.171C9.32506 32.1451 9.18894 32.2021 9.09935 32.171C9.06489 32.1589 9.06316 32.1123 9.03732 32.0933C8.99941 32.064 8.95461 32.1141 8.9391 31.988L8.69443 31.9932L8.6772 31.8983L8.58588 31.9915L8.53936 31.8983L8.52385 31.9604L8.47388 31.8983C8.38601 31.9017 8.3033 31.9035 8.21715 31.8793C8.14995 31.8603 8.14995 31.812 8.131 31.8068C8.05174 31.7895 7.94491 31.8171 7.86048 31.8033L7.83981 31.8948C7.73815 31.8551 7.69852 31.9811 7.81224 32.007L7.75021 32.0381C7.87771 32.0899 7.87255 32.2176 7.84325 32.3333C7.92768 32.247 8.04657 32.4489 8.08276 32.4576C8.13962 32.4731 8.62207 32.4697 8.69788 32.4576C8.77369 32.4455 8.81332 32.3937 8.84951 32.392C8.8564 32.392 8.88397 32.4904 8.95806 32.4559C8.95634 32.575 8.81849 32.5025 8.89603 32.6423C8.86501 32.6457 8.82366 32.6337 8.79609 32.6423C8.75129 32.6595 8.52213 32.8166 8.5049 32.8218C8.39979 32.8563 8.01039 32.8443 7.90356 32.8132C7.6968 32.7545 7.74849 32.6198 7.75193 32.4403L7.65717 32.4213L7.62443 32.0813L7.5624 32.1434C7.58825 32.0174 7.58135 31.8983 7.46936 31.8171L7.53138 31.7705L7.41594 31.7015L7.43834 31.6463H7.31428L7.3453 31.553L7.21952 31.5375C7.21952 31.4287 7.17127 31.4408 7.06617 31.427L7.09718 31.3649C7.02137 31.3821 6.87663 31.3856 6.80943 31.3649C6.77497 31.3528 6.78014 31.2976 6.73534 31.2786C6.60956 31.2233 6.43898 31.3355 6.40107 31.2095C6.31492 31.263 6.27702 31.3217 6.2908 31.1784L6.22877 31.2717C6.24945 31.1491 6.2012 31.175 6.10471 31.1784V30.992H6.25978L6.22877 30.8988C6.34766 30.8384 6.45277 30.9868 6.46655 30.9903C6.53202 31.0075 6.7991 30.9506 6.89386 30.9903L6.91109 31.0852H7.40733L7.37631 30.992L7.46246 30.9868L7.50037 30.8367L7.5624 30.8988V30.7124H7.68646L7.65544 30.6191L7.83981 30.6157L7.84325 30.5294L8.0259 30.5225L8.04485 30.431H8.58588L8.49284 30.3395C8.63413 30.3654 8.91498 30.3032 9.03559 30.3395L9.03732 30.3412Z" fill="white"/>
<path d="M15.2592 30.4275C15.3298 30.4724 15.8657 30.3723 15.9829 30.4966L16.0277 30.4344C16.0277 30.5743 16.2534 30.5052 16.3223 30.5328C16.3499 30.5432 16.3395 30.6071 16.4136 30.6209C16.4636 30.6312 16.5946 30.6036 16.6135 30.6243C16.5946 30.7452 16.6773 30.6968 16.7014 30.721C16.7169 30.7365 16.7014 30.7866 16.7134 30.8004C16.7289 30.8177 16.8547 30.8194 16.8944 30.8384L16.8633 30.9005H16.9874L16.9719 30.9644C16.9891 30.9937 17.1063 30.9471 17.0804 31.0869C17.1528 31.08 17.0615 30.9627 17.1735 30.9937L17.158 31.0576C17.2889 31.068 17.2407 31.175 17.3286 31.1802L17.2665 31.2734L17.3596 31.2578V31.3666H17.5147L17.4526 31.4287C17.6697 31.4115 17.5284 31.6704 17.6956 31.648L17.699 31.8016H17.8231L17.7921 31.8948L17.8799 31.9017C17.8834 31.988 17.8868 32.0018 17.9781 31.9898L17.8851 32.083L17.9799 32.1037C17.9385 32.2556 18.1436 32.2038 18.0712 32.3609C18.2142 32.3298 18.1125 32.48 18.2521 32.4576L18.2573 32.5801L18.3124 32.556C18.3452 32.6682 18.5192 32.6923 18.5795 32.732C18.5898 32.7389 18.6639 32.8753 18.7294 32.9116C18.7845 32.9426 18.8862 32.8563 18.8155 33.0151C18.9362 32.9616 18.9534 33.0497 19.0137 33.098C19.0464 33.1239 19.1205 33.079 19.0947 33.2016L19.155 33.1705C19.1498 33.3241 19.2515 33.2982 19.3738 33.2948L19.3118 33.3569C19.4186 33.426 19.4755 33.4691 19.6202 33.4553L19.6236 33.5416L19.7425 33.5485L19.7494 33.6314C19.9321 33.5986 19.87 33.7747 19.9407 33.8161C20.0441 33.8765 20.2732 33.9525 20.3663 34.0284C20.4007 34.0561 20.3663 34.0958 20.3697 34.1009C20.399 34.1251 20.511 34.1286 20.5506 34.1044L20.5196 34.1976C20.6971 34.1838 20.6385 34.3478 20.6437 34.4773C20.6109 34.4617 20.5179 34.4496 20.5196 34.5083L20.6127 34.5705C20.542 34.5705 20.4989 34.498 20.4628 34.4807C20.3956 34.4479 20.2905 34.4462 20.2784 34.441C20.2698 34.4376 20.1888 34.3046 20.1733 34.296C20.1595 34.2874 20.0906 34.315 20.032 34.3029C19.8649 34.2649 19.6943 34.1596 19.4893 34.1044C19.4634 34.0975 19.3979 33.9456 19.2497 34.0112L19.3118 33.949L19.0947 33.918L19.1567 33.8247L19.0482 33.8869L18.8776 33.8247L18.9086 33.7315H18.6467L18.6277 33.6418C18.6088 33.6228 18.4589 33.6504 18.4037 33.6383C18.3917 33.6349 18.321 33.5192 18.197 33.5779L18.228 33.64L18.0746 33.6435L18.0557 33.735H17.8558L17.8868 33.8265L17.799 33.8316L17.7766 33.9214H17.6077C17.556 33.7332 17.7542 33.7643 17.7886 33.7246C17.8231 33.6849 17.7369 33.6021 17.9626 33.6418L17.985 33.552L18.0677 33.5434L18.0729 33.3604L18.166 33.3915C18.1953 33.3518 18.1212 33.1049 18.228 33.0963L18.166 33.0807L18.2194 33.0445C18.209 32.9513 18.2676 32.8891 18.2263 32.7942C18.2176 32.7752 18.1849 32.7752 18.1677 32.7441C18.1573 32.7234 18.178 32.6682 18.1608 32.6492C18.1522 32.6406 18.0143 32.5525 17.9868 32.5473C18.035 32.3833 17.7731 32.2401 17.7318 32.1572C17.7076 32.1071 17.7076 32.0105 17.6938 31.9984C17.6852 31.9898 17.5336 31.9035 17.5233 31.8931C17.4991 31.8689 17.5491 31.7792 17.4233 31.8068L17.4543 31.7464H17.3647L17.3613 31.591C17.2493 31.6583 17.1425 31.4909 17.1752 31.3735C17.0512 31.4615 17.0167 31.2544 16.9581 31.2026C16.9271 31.1767 16.8668 31.1784 16.8254 31.156C16.7979 31.1405 16.7961 31.0541 16.6807 31.0939L16.7117 31.0006L16.5256 30.9696L16.5566 30.9091C16.4481 30.9143 16.3981 30.8435 16.2913 30.8194C16.0397 30.7624 15.7796 30.626 15.5004 30.6122C15.3161 30.6036 15.0921 30.6554 14.8991 30.6278L14.8819 30.7227L14.6044 30.7262V30.8159C14.5321 30.8643 14.5407 30.7175 14.5097 30.7538C14.508 30.7572 14.5166 30.79 14.4976 30.8038C14.4494 30.8384 14.3529 30.8953 14.2943 30.9109L14.3236 30.9696L14.2357 30.973L14.2305 31.0628C14.1857 31.0783 14.2081 30.9419 14.1375 31.0006C14.1358 31.0024 14.1616 31.0438 14.1496 31.0628C14.091 31.1543 14.103 31.1405 14.0548 31.2423C14.0307 31.2924 13.9359 31.2924 13.9824 31.4356L13.8894 31.3735V31.6048L13.7946 31.6393C13.786 31.7308 13.8118 31.9 13.7894 31.9794C13.7843 31.9949 13.7447 31.9984 13.7378 32.0191C13.7016 32.1382 13.6964 32.2435 13.7033 32.3678H13.6103V32.1814L13.5172 32.2124C13.4948 32.1123 13.5448 32.121 13.6103 32.0726H13.5172V31.9328L13.6103 31.9639C13.6447 31.8845 13.5465 31.9069 13.5465 31.8862C13.5465 31.8448 13.5879 31.8068 13.5947 31.7654C13.6137 31.648 13.6103 31.5254 13.6103 31.4063L13.7033 31.4374V31.2061C13.8136 31.2095 13.8411 31.0334 13.8997 30.9799C13.929 30.9523 14.0427 30.9868 13.9824 30.8177L14.1341 30.8125C14.1048 30.6744 14.2874 30.7538 14.2323 30.633L14.3856 30.6157V30.538C14.5269 30.5725 14.6406 30.4621 14.7423 30.4448C14.9025 30.4172 15.1179 30.5035 15.2368 30.3809C15.2644 30.3775 15.2437 30.4258 15.2575 30.4344L15.2592 30.4275Z" fill="white"/>
<path d="M10.7483 34.0492C10.7655 34.0595 10.7466 34.1061 10.7724 34.1009L10.8034 34.0388L10.8965 34.1027C10.9258 34.0405 10.9258 34.0284 11.005 34.0405L10.9895 34.1027C11.0515 34.1113 11.2256 34.0923 11.2721 34.1148C11.3083 34.132 11.3066 34.189 11.3376 34.1976C11.4272 34.2218 11.5977 34.1993 11.7339 34.2356C11.8252 34.2598 12.1319 34.3702 12.1681 34.3754C12.2215 34.384 12.4127 34.3702 12.4317 34.3823L12.4007 34.4445L12.7729 34.4755L12.7108 34.5688L13.0933 34.5739L13.114 34.6602L13.5792 34.6913L13.5172 34.7535H13.9204L13.8894 34.8156C14.0083 34.7535 13.9704 34.8363 14.0014 34.8449C14.1013 34.8726 14.2495 34.8985 14.377 34.933C14.7182 35.0245 14.9835 35.0521 15.3316 35.0935C15.3798 35.0987 15.3746 35.1574 15.466 35.1747C15.5642 35.1954 15.6624 35.1919 15.7623 35.1867L15.7968 35.2834H16.1827L16.1672 35.3421L16.0897 35.3732C16.2224 35.3853 16.3792 35.3421 16.5015 35.4042C16.6583 35.4836 16.6704 35.4422 16.8306 35.4854C16.8978 35.5044 16.8926 35.5492 16.9185 35.5562C16.9702 35.5717 17.1011 35.5803 17.1597 35.5613L17.1735 35.6822L17.127 35.62L16.9564 35.6822L16.9874 35.7443H16.7393L16.7703 35.6822C16.6617 35.6235 16.6342 35.6908 16.5687 35.7132C16.5549 35.7184 16.5618 35.6684 16.5308 35.6528C16.4963 35.6356 16.4136 35.6822 16.4309 35.5889C16.3809 35.5751 16.4154 35.7029 16.3378 35.6511C16.3344 35.6476 16.3774 35.5803 16.3223 35.5596L16.0432 35.6528L16.0277 35.5596H15.4556L15.4212 35.4629L14.8732 35.4578C14.763 35.3559 14.5838 35.4146 14.4666 35.3663C14.4201 35.3473 14.4235 35.2869 14.3925 35.2782C14.3133 35.2575 14.1789 35.2955 14.0893 35.2782C14.0221 35.2644 14.0031 35.2057 13.9583 35.1919C13.8618 35.1626 13.7257 35.2057 13.6292 35.185C13.6103 35.1816 13.6103 35.1332 13.5396 35.1125C13.4052 35.0728 13.1778 35.1229 13.0692 35.0935C13.0399 35.0849 13.052 35.0331 13.0485 35.0314C13.0365 35.021 12.9796 35.1039 12.9107 35.0952C12.8952 35.0935 12.8969 35.0383 12.8728 35.0314C12.7677 35.0055 12.5764 35.0607 12.4782 35.0262C12.4369 35.0107 12.4386 34.9537 12.4127 34.9433C12.3163 34.9036 12.0612 35.0003 11.9785 34.876C11.9096 35.0227 11.8579 34.8622 11.82 34.8501C11.7149 34.8139 11.5013 34.8536 11.3893 34.8173C11.3341 34.8001 11.3514 34.7552 11.2997 34.75C11.1756 34.7345 11.036 34.7793 10.9103 34.7207L10.9723 34.6585H10.5691L10.6001 34.5653L10.5226 34.6274L10.4864 34.5636H10.29L10.321 34.4721C10.0935 34.5014 10.2055 34.2701 10.0453 34.2839L10.0418 34.006C10.2142 34.0423 10.5984 33.9559 10.7448 34.0474L10.7483 34.0492Z" fill="white"/>
<path d="M54.777 9.22085V9.31407L54.653 9.25193V9.22085H54.777Z" fill="white"/>
<path d="M71.8058 27.8814C73.5753 28.0298 74.8349 29.1708 74.6936 31.0248C74.6246 31.9276 74.1646 32.732 73.3134 33.0859C74.8676 33.8714 74.2594 35.4474 74.4403 36.7783C74.5058 37.2634 74.8745 37.4222 74.8624 37.8607H72.538C72.1125 37.0269 72.5949 34.7845 71.8936 34.2459C71.7971 34.1717 71.3767 33.9905 71.2888 33.9905H68.6629V37.7329L68.5337 37.8624H66.6401L66.5109 37.7329V28.0125L66.6401 27.8831C68.3149 27.9867 70.1516 27.7433 71.8075 27.8831L71.8058 27.8814ZM68.6629 32.2694H71.6335C72.1624 32.2694 72.607 31.5202 72.6052 31.0214C72.6035 30.5225 72.1934 29.6887 71.6335 29.6887H68.6629V32.2694Z" fill="white"/>
<path d="M99.4898 16.6747V17.6207C99.7293 17.5326 99.7965 17.2547 99.9636 17.1045C100.723 16.4209 102.386 16.2984 103.141 17.0268L103.666 17.707C104.516 16.1378 107.216 16.1154 107.946 17.8192C108.005 17.9556 108.188 18.508 108.188 18.6098V24.0716H106.251L106.122 23.9421V18.9533C106.122 18.9136 105.991 18.6702 105.949 18.6098C105.37 17.7709 103.883 18.375 103.883 19.2968V24.0716H101.904V19.1259C101.904 19.012 101.69 18.5753 101.58 18.4786C101.051 18.016 100.012 18.1834 99.7327 18.848C99.7069 18.9102 99.5794 19.3555 99.5794 19.3831V24.0716H97.5996V16.8042L97.7288 16.6747H99.4932H99.4898Z" fill="white"/>
<path d="M139.79 18.0505L143.536 14.094H146.248L142.204 18.2663L146.42 24.0733H143.794L140.694 19.7733L139.79 20.6744V23.9438L139.661 24.0733H137.636V14.2235L137.765 14.094H139.661L139.79 14.2235V18.0505Z" fill="white"/>
<path d="M66.5109 24.0733L69.9966 14.1786L72.4002 14.0888L75.8962 24.0733H73.7011L72.9723 22.0484H69.4366L68.7491 24.0733H66.5109ZM72.3657 20.2877L71.2027 16.5884L69.9535 20.2877H72.3657Z" fill="white"/>
<path d="M112.149 37.8607H110.298C110.061 37.6552 110.204 37.2841 110.169 37.001L109.563 37.6397C105.812 39.5213 103.928 34.9226 105.42 31.9535C106.337 30.1272 108.837 29.6991 110.171 31.3235V27.8831H112.021L112.151 28.0126V37.8624L112.149 37.8607ZM108.427 32.0295C106.465 32.2263 106.563 36.005 108.095 36.3606C110.876 37.0079 110.776 31.7947 108.427 32.0295Z" fill="white"/>
<path d="M91.2244 14.1803V17.5344C91.4036 17.3876 91.4949 17.1753 91.6982 17.0182C92.8285 16.1465 94.9513 16.4002 95.6319 17.7329C95.6888 17.8434 95.8748 18.2715 95.8748 18.3509V24.0716H93.8951V19.1259C93.8951 19.0137 93.5884 18.4475 93.4626 18.3543C92.8733 17.909 91.8619 18.1748 91.4966 18.7945C91.4535 18.867 91.2261 19.4332 91.2261 19.4695V24.0716H89.2463V14.1803H91.2261H91.2244Z" fill="white"/>
<path d="M116.282 24.0733H114.26L114.044 23.2999C113.126 24.025 112.218 24.5135 111.01 24.2252C108.946 23.7315 108.865 20.8211 110.688 19.989C111.41 19.6593 113.762 19.6542 113.944 19.0241C114.279 17.8692 111.48 17.7329 111.548 19.0862H109.654C109.673 18.3526 109.995 17.5016 110.607 17.07C111.761 16.257 114.938 16.2984 115.667 17.6811C116.267 18.8187 115.771 21.7757 115.938 23.1739C115.99 23.5986 116.334 23.6642 116.284 24.075L116.282 24.0733ZM113.956 20.5449C113.193 21.0213 111.365 20.7261 111.365 21.9639C111.365 23.2775 113.322 22.9806 113.743 22.0933C113.965 21.6255 113.975 21.0524 113.956 20.5432V20.5449Z" fill="white"/>
<path d="M82.6988 34.7638H77.7037C77.6796 35.929 78.6686 36.799 79.8334 36.4175C80.2452 36.2829 80.6156 35.6235 80.6742 35.6235H82.6109C81.9131 39.0241 76.5269 38.8947 75.8342 35.4681C75.2174 32.4196 76.8835 29.5834 80.2883 30.4155C81.4823 30.7072 82.6971 32.0951 82.6971 33.3431V34.7621L82.6988 34.7638ZM80.6329 33.3863C80.6208 31.4339 77.845 31.4098 77.7916 33.3863H80.6329Z" fill="white"/>
<path d="M97.5651 37.2271C95.7973 38.9309 92.2875 38.2577 91.4415 35.7926C90.3766 32.6941 92.1841 29.9925 95.5768 30.286C98.8557 30.5708 99.6552 35.2126 97.5669 37.2254L97.5651 37.2271ZM94.5602 31.9449C92.8595 32.2349 92.732 35.7236 94.2621 36.3295C97.2171 37.4982 97.6203 31.4236 94.5602 31.9449Z" fill="white"/>
<path d="M161.79 16.6747L163.426 21.9224L164.977 16.6747H167C166.182 19.0034 165.448 21.3718 164.591 23.6866C164.31 24.4479 163.756 26.2656 163.128 26.6989C163.003 26.7869 162.505 26.9958 162.393 26.9958H160.713V25.4474C161.559 25.5527 162.253 25.3075 162.344 24.3788L159.679 16.673H161.788L161.79 16.6747Z" fill="white"/>
<path d="M81.1929 18.9965C80.9189 18.3198 80.6622 18.0091 79.8782 17.9884C78.9805 17.9642 78.1448 18.7203 79.1459 19.1501C80.4089 19.6921 82.6402 19.5212 83.1571 21.1646C84.2771 24.7172 77.9622 25.3248 76.7991 22.8701C76.6492 22.5525 76.4338 21.9587 76.6303 21.6635H78.4377C78.6324 21.8586 78.5825 22.2055 78.7668 22.4109C79.4319 23.1567 81.9751 22.7648 81.155 21.7895C80.8431 21.4184 78.6169 21.049 77.9673 20.759C76.8319 20.2532 76.5131 19.3262 76.9094 18.1558C77.752 15.6631 83.1899 15.9117 83.0469 18.9965H81.1929Z" fill="white"/>
<path d="M115.335 35.4508C115.378 36.4849 116.401 36.6609 117.263 36.5591C118.031 36.4693 118.495 35.8013 117.747 35.406C116.519 34.7569 113.808 35.0227 113.613 33.0842C113.346 30.4379 116.451 29.7819 118.433 30.5915C119.42 30.9937 119.823 31.7377 119.899 32.7838H117.919C118.088 31.1853 114.708 31.7982 115.719 32.789C116.3 33.3587 118.531 33.2275 119.546 34.2131C120.306 34.9502 120.247 36.295 119.599 37.0856C118.145 38.8584 113.19 38.4459 113.355 35.4508H115.335Z" fill="white"/>
<path d="M132.384 19.3417H130.318C130.291 18.0557 128.6 17.8278 127.954 18.829C127.556 19.4453 127.549 20.9782 127.78 21.6618C128.278 23.129 130.224 23.003 130.318 21.4063H132.384C132.059 23.8851 129.622 24.9537 127.389 24.0301C125.382 23.1998 125.184 19.9286 126.052 18.2197C127.399 15.5665 132.31 16.0205 132.384 19.3417Z" fill="white"/>
<path d="M90.3629 33.1291H88.2969C88.2694 31.843 86.5791 31.6152 85.9329 32.6164C85.5349 33.2326 85.528 34.7655 85.7589 35.4491C86.2569 36.9164 88.2022 36.7904 88.2969 35.1936H90.3629C90.0372 37.6725 87.6008 38.741 85.3678 37.8175C83.3604 36.9872 83.1623 33.716 84.0307 32.007C85.3781 29.3538 90.2888 29.8078 90.3629 33.1291Z" fill="white"/>
<path d="M153.481 14.6964V16.761H154.687V18.1368H153.481V22.3954C153.481 22.7407 154.434 22.7009 154.687 22.6958V24.0284C154.318 24.2252 153.538 24.1993 153.092 24.1613C152.645 24.1234 151.982 23.9645 151.72 23.5537C151.667 23.4708 151.501 23.0583 151.501 22.9979V18.1385H150.467V16.7627H151.501V14.8259C152.048 14.5394 152.854 14.7689 153.481 14.6964Z" fill="white"/>
<path d="M119.813 16.761H120.933V18.1368H119.813V22.48C120.118 22.7614 120.556 22.6923 120.933 22.6958V24.1579H119.082C118.664 24.1579 117.833 23.5261 117.833 23.0824V18.1368H116.799V16.761H117.833V14.6964H119.684L119.813 14.8259V16.761Z" fill="white"/>
<path d="M158.044 14.6964V16.761H159.25V18.1368C158.996 18.1869 158.145 18.0073 158.056 18.2784C158.13 19.5092 157.916 20.935 158.038 22.1417C158.107 22.8218 158.698 22.6802 159.248 22.6958V24.1579H157.398C157.006 24.1579 156.224 23.6918 156.169 23.2344L156.138 18.2766C156.052 18.0143 155.351 18.1782 155.116 18.1351V16.7593H156.15V14.6964H158.044Z" fill="white"/>
<path d="M86.8324 14.6964V16.761H88.0385V18.1368L86.8703 18.2179L86.8892 22.3384C87.0184 22.8011 87.6456 22.682 88.0385 22.6958V24.1579H86.1879C85.7813 24.1579 84.9749 23.6348 84.9594 23.148L84.9267 18.2766C84.8405 18.0143 84.1393 18.1782 83.9049 18.1351V16.7593H84.9387V14.6964H86.8324Z" fill="white"/>
<path d="M104.313 30.2894V32.354C103.539 32.1952 102.498 32.3575 102.167 33.1791C102.128 33.2775 101.986 33.7125 101.986 33.773V37.8589H100.007V30.4603H101.9L101.943 31.5789C102.469 30.664 103.243 30.2359 104.313 30.2894Z" fill="white"/>
<path d="M122.137 24.0733V16.8042L122.267 16.6747H124.074L124.203 16.8042V23.9438L124.074 24.0733H122.137Z" fill="white"/>
<path d="M149.434 16.6747H147.454V24.0733H149.434V16.6747Z" fill="white"/>
<path d="M124.203 14.094V15.7719L124.074 15.9014H122.267L122.137 15.7719V14.094H124.203Z" fill="white"/>
<path d="M149.434 14.094H147.454V15.8996H149.434V14.094Z" fill="white"/>
</svg>
