<svg width="106" height="50" viewBox="0 0 106 50" fill="none" xmlns="http://www.w3.org/2000/svg">
<g clip-path="url(#clip0_40_24183)">
<path d="M65.8766 34.025C59.7059 38.5733 50.7618 41 43.0611 41C32.2635 41 22.5428 37.0064 15.1888 30.3641C14.611 29.8418 15.1287 29.13 15.822 29.5368C23.7585 34.1544 33.5716 36.9324 43.7082 36.9324C50.5446 36.9324 58.065 35.518 64.9799 32.5828C66.0246 32.1391 66.8982 33.2669 65.8766 34.025Z" fill="white"/>
<path d="M68.442 31.0898C67.6562 30.0822 63.2281 30.6138 61.2405 30.8495C60.635 30.9234 60.5425 30.3965 61.088 30.0175C64.6148 27.5353 70.4018 28.2518 71.0767 29.0838C71.7515 29.9204 70.9011 35.7214 67.5869 38.4901C67.0784 38.9154 66.5931 38.6889 66.8196 38.1249C67.5638 36.2668 69.2324 32.1021 68.442 31.0898Z" fill="white"/>
<path d="M61.3792 12.4944V10.0816C61.3792 9.71645 61.6565 9.47147 61.9893 9.47147H72.7916C73.1382 9.47147 73.4156 9.72108 73.4156 10.0816V12.1478C73.4109 12.4944 73.1197 12.9474 72.602 13.6639L67.0045 21.6558C69.0845 21.6049 71.2801 21.9146 73.166 22.9778C73.5912 23.2181 73.7068 23.5694 73.7391 23.9161V26.4907C73.7391 26.842 73.3509 27.2534 72.9441 27.0407C69.6207 25.2981 65.2064 25.1086 61.5317 27.0592C61.1573 27.2626 60.7644 26.8558 60.7644 26.5046V24.0594C60.7644 23.6665 60.769 22.9962 61.1619 22.4L67.647 13.1H62.0032C61.6565 13.1 61.3792 12.855 61.3792 12.4944Z" fill="white"/>
<path d="M21.9743 27.5492H18.6878C18.3735 27.5261 18.1239 27.2903 18.1008 26.9899V10.1232C18.1008 9.78579 18.3828 9.5177 18.7341 9.5177H21.7986C22.1176 9.53155 22.3718 9.77654 22.3949 10.0816V12.2864H22.455C23.2547 10.1556 24.7569 9.16178 26.7815 9.16178C28.8384 9.16178 30.1234 10.1556 31.0478 12.2864C31.8428 10.1556 33.6501 9.16178 35.5869 9.16178C36.9643 9.16178 38.4712 9.73032 39.391 11.0061C40.431 12.4251 40.2184 14.4866 40.2184 16.294L40.2138 26.939C40.2138 27.2765 39.9318 27.5492 39.5805 27.5492H36.2987C35.9705 27.5261 35.7071 27.2626 35.7071 26.939V17.9996C35.7071 17.2877 35.7718 15.5128 35.6146 14.8379C35.3696 13.7055 34.6347 13.3865 33.6825 13.3865C32.8875 13.3865 32.0555 13.9181 31.718 14.7686C31.3806 15.6191 31.413 17.0428 31.413 17.9996V26.939C31.413 27.2765 31.131 27.5492 30.7797 27.5492H27.4979C27.1651 27.5261 26.9063 27.2626 26.9063 26.939L26.9016 17.9996C26.9016 16.1183 27.2113 13.3496 24.8771 13.3496C22.5151 13.3496 22.6075 16.049 22.6075 17.9996V26.939C22.6075 27.2765 22.3256 27.5492 21.9743 27.5492Z" fill="white"/>
<path d="M82.7156 9.16178C87.5921 9.16178 90.2314 13.3496 90.2314 18.6744C90.2314 23.819 87.3147 27.9005 82.7156 27.9005C77.9269 27.9005 75.3199 23.7127 75.3199 18.4942C75.3199 13.2432 77.9593 9.16178 82.7156 9.16178ZM82.7433 12.6054C80.3212 12.6054 80.1687 15.9057 80.1687 17.9626C80.1687 20.0241 80.1364 24.4245 82.7156 24.4245C85.2625 24.4245 85.3826 20.8746 85.3826 18.7114C85.3826 17.2877 85.3225 15.5867 84.8927 14.237C84.5229 13.063 83.7879 12.6054 82.7433 12.6054Z" fill="white"/>
<path d="M96.5547 27.5492H93.2821C92.9539 27.5261 92.6905 27.2626 92.6905 26.939L92.6858 10.0677C92.7136 9.75805 92.9863 9.5177 93.3191 9.5177H96.3652C96.6517 9.53155 96.8875 9.7257 96.9522 9.98917V12.5684H97.0123C97.9321 10.2619 99.2217 9.16178 101.491 9.16178C102.966 9.16178 104.403 9.69334 105.328 11.1494C106.187 12.4991 106.188 14.7686 106.188 16.4003V27.0176C106.151 27.3134 105.878 27.5492 105.554 27.5492H102.259C101.958 27.5261 101.709 27.3042 101.676 27.0176V17.8563C101.676 16.012 101.889 13.3126 99.6192 13.3126C98.8196 13.3126 98.0846 13.8488 97.7195 14.6623C97.2573 15.6931 97.1972 16.7192 97.1972 17.8563V26.939C97.1926 27.2765 96.906 27.5492 96.5547 27.5492Z" fill="white"/>
<path d="M52.7679 19.4926V18.7807C50.392 18.7807 47.8821 19.2892 47.8821 22.0903C47.8821 23.5093 48.6171 24.4708 49.8789 24.4708C50.8034 24.4708 51.6308 23.9022 52.1531 22.9778C52.8002 21.8407 52.7679 20.7729 52.7679 19.4926ZM56.082 27.503C55.8648 27.6971 55.5505 27.711 55.3055 27.5815C54.2146 26.6756 54.0205 26.2549 53.4196 25.3906C51.6169 27.2302 50.3412 27.7803 48.0023 27.7803C45.2382 27.7803 43.0842 26.0747 43.0842 22.6588C43.0842 19.9918 44.531 18.1752 46.5879 17.2877C48.3721 16.5019 50.8635 16.3633 52.7679 16.146V15.7208C52.7679 14.9396 52.828 14.0152 52.3704 13.3403C51.9682 12.7348 51.2009 12.4852 50.5261 12.4852C49.2734 12.4852 48.1548 13.1277 47.8821 14.4589C47.8267 14.7547 47.6094 15.0459 47.3136 15.0598L44.1242 14.7178C43.8561 14.6577 43.5603 14.4404 43.6343 14.029C44.3692 10.1648 47.859 9 50.9837 9C52.583 9 54.6722 9.42525 55.9341 10.6363C57.5334 12.1293 57.3809 14.1215 57.3809 16.2893V21.4108C57.3809 22.95 58.0188 23.6249 58.6197 24.4569C58.8323 24.7527 58.8785 25.1086 58.6104 25.3305C57.9402 25.8898 56.7476 26.9298 56.0913 27.5122L56.082 27.503Z" fill="white"/>
<path d="M9.68366 19.4926V18.7807C7.30781 18.7807 4.79792 19.2892 4.79792 22.0903C4.79792 23.5093 5.53286 24.4708 6.79474 24.4708C7.71919 24.4708 8.54658 23.9022 9.0689 22.9778C9.71602 21.8407 9.68366 20.7729 9.68366 19.4926ZM12.9978 27.503C12.7806 27.6971 12.4663 27.711 12.2213 27.5815C11.1304 26.6756 10.9363 26.2549 10.3354 25.3906C8.53271 27.2302 7.25697 27.7803 4.9181 27.7803C2.15398 27.7803 0 26.0747 0 22.6588C0 19.9918 1.44677 18.1752 3.50368 17.2877C5.28788 16.5019 7.77928 16.3633 9.68366 16.146V15.7208C9.68366 14.9396 9.74375 14.0152 9.28615 13.3403C8.88401 12.7348 8.11671 12.4852 7.44186 12.4852C6.18922 12.4852 5.07063 13.1277 4.79792 14.4589C4.74245 14.7547 4.5252 15.0459 4.22938 15.0598L1.04001 14.7178C0.771919 14.6577 0.476093 14.4404 0.55005 14.029C1.28499 10.1648 4.77481 9 7.89947 9C9.49877 9 11.588 9.42525 12.8499 10.6363C14.4492 12.1293 14.2967 14.1215 14.2967 16.2893V21.4108C14.2967 22.95 14.9346 23.6249 15.5355 24.4569C15.7481 24.7527 15.7943 25.1086 15.5262 25.3305C14.856 25.8898 13.6634 26.9298 13.0071 27.5122L12.9978 27.503Z" fill="white"/>
</g>
<defs>
<clipPath id="clip0_40_24183">
<rect width="106" height="50" fill="white"/>
</clipPath>
</defs>
</svg>
