<svg width="175" height="50" viewBox="0 0 175 50" fill="none" xmlns="http://www.w3.org/2000/svg">
<path d="M3.07035 24.4932C3.07548 24.5512 3.08175 24.6069 3.08535 24.6629C3.21201 26.6108 3.81946 28.3967 4.89593 30.024C5.32489 30.6725 5.81917 31.2674 6.37668 31.809C7.53879 32.9377 8.88205 33.7768 10.4112 34.3158C11.1468 34.5749 11.9018 34.7518 12.6762 34.8471C13.0657 34.8951 13.4563 34.9228 13.8486 34.9291C15.5786 34.9572 17.2244 34.599 18.7843 33.8512C19.8188 33.3554 20.7519 32.7107 21.5831 31.921C22.8323 30.734 23.7569 29.3311 24.3522 27.7137C24.6338 26.9488 24.8224 26.1605 24.9264 25.3522C25.0056 24.7361 25.0327 24.1173 25.0018 23.4975C24.9534 22.5303 24.7584 21.5919 24.3915 20.6951C23.455 18.4069 21.85 16.7644 19.5841 15.7727C18.8977 15.4722 18.1789 15.2795 17.4376 15.1672C16.8473 15.0777 16.2539 15.0493 15.6593 15.0821C13.8341 15.1827 12.1851 15.7794 10.7354 16.8931C9.02675 18.2056 7.92882 19.9195 7.44194 22.0192C7.27617 22.7338 7.20193 23.4603 7.23212 24.193C7.30352 25.9186 7.93318 27.4147 9.12511 28.665C10.0757 29.662 11.2323 30.3065 12.5776 30.606C13.1952 30.7435 13.8208 30.7898 14.4534 30.7493C15.7548 30.6662 16.9403 30.2516 17.9946 29.4867C19.4385 28.4392 20.3427 27.0347 20.7086 25.2882C20.7584 25.0507 20.7787 24.8071 20.8127 24.5664C20.8157 24.545 20.8186 24.5233 20.8222 24.4952H23.8862C23.8862 24.5503 23.8894 24.6006 23.8856 24.6501C23.8363 25.3233 23.7252 25.986 23.5399 26.6352C23.0978 28.1832 22.3259 29.5454 21.2219 30.7174C20.0907 31.9183 18.7425 32.7842 17.1803 33.3161C16.5953 33.5154 15.996 33.6549 15.384 33.7392C15.027 33.7884 14.6679 33.815 14.3071 33.8267C13.9464 33.8383 13.5865 33.8273 13.2274 33.7983C12.4686 33.7368 11.7264 33.59 11.0018 33.3544C10.5684 33.2134 10.1467 33.0446 9.73674 32.8461C9.11998 32.5474 8.54101 32.1883 7.99964 31.7686C7.02704 31.0145 6.22002 30.1119 5.58162 29.0598C4.96372 28.0415 4.54597 26.9458 4.32532 25.7759C4.20778 25.153 4.15328 24.5239 4.15841 23.89C4.16335 23.2664 4.21443 22.647 4.31507 22.031C4.58167 20.399 5.15874 18.8853 6.06051 17.5004C7.53195 15.2408 9.53754 13.6424 12.0687 12.7084C12.8359 12.4254 13.6275 12.2338 14.4372 12.1192C15.1149 12.0233 15.7964 11.9838 16.4806 12.006C18.1881 12.0616 19.8133 12.4556 21.3487 13.2067C23.0065 14.0177 24.4059 15.1506 25.5426 16.6038C26.718 18.1064 27.491 19.7949 27.8583 21.6678C28.0305 22.546 28.0996 23.4327 28.0744 24.3269C28.0531 25.0801 27.976 25.8273 27.8355 26.5679C27.6245 27.681 27.2837 28.7528 26.8118 29.7833C26.4024 30.6772 25.9045 31.5187 25.3183 32.3079C24.5273 33.3728 23.6044 34.3084 22.5509 35.115C21.8311 35.6662 21.0649 36.1435 20.2527 36.5463C19.3669 36.9858 18.444 37.3269 17.4855 37.5705C16.8661 37.7278 16.2383 37.8416 15.6033 37.9129C14.87 37.9953 14.1342 38.0185 13.397 37.9856C12.5076 37.9458 11.6293 37.8233 10.7635 37.6151C9.78933 37.3808 8.85129 37.0467 7.94875 36.6114C6.67518 35.9969 5.52142 35.2072 4.48502 34.2463C3.71464 33.5319 3.03238 32.7413 2.4386 31.8743C1.69842 30.7932 1.11926 29.632 0.704734 28.3891C0.448195 27.6203 0.260587 26.8349 0.141337 26.0331C0.0691798 25.5481 0.024936 25.0606 0.000250659 24.5712C-0.000888667 24.5469 0.00214953 24.5224 0.00347875 24.4932H3.07035Z" fill="white"/>
<path fill-rule="evenodd" clip-rule="evenodd" d="M47.4777 24.0989C48.4194 24.3309 49.2025 24.8528 49.8219 25.6637V25.6626C50.4414 26.4735 50.749 27.448 50.749 28.5892C50.749 30.1395 50.2228 31.407 49.1797 32.396C48.1324 33.385 46.7443 33.8779 45.0165 33.8779H37.8462V14.9309H44.5203C46.2813 14.9309 47.6652 15.402 48.67 16.3475C49.6738 17.293 50.1741 18.5212 50.1741 20.0353C50.1741 20.9984 49.9203 21.8465 49.4128 22.589C48.9052 23.3315 48.2598 23.8307 47.4777 24.0989ZM43.9516 18.0314H41.4117V22.762H43.9734C44.7917 22.762 45.4402 22.5486 45.9115 22.1209C46.3828 21.6932 46.618 21.1143 46.618 20.3822C46.618 19.65 46.3859 19.0784 45.926 18.6579C45.463 18.2416 44.8031 18.0314 43.9516 18.0314ZM44.3401 30.8033C45.2133 30.8033 45.898 30.5858 46.3942 30.1478C46.8914 29.7128 47.1411 29.108 47.1411 28.3438C47.1411 27.5795 46.9018 26.9644 46.4201 26.5004C45.9415 26.0365 45.2641 25.8045 44.3908 25.8045H41.4085V30.8033H44.3401Z" fill="white"/>
<path d="M71.3547 16.7669V20.6628H73.9775V23.7882H71.3547V29.2447C71.3547 29.7936 71.4779 30.1809 71.7255 30.4108C71.9731 30.6397 72.3605 30.7546 72.8909 30.7546C73.2565 30.767 73.6222 30.7318 73.9775 30.649V33.5631C73.3425 33.7951 72.6671 33.9028 71.9907 33.88C70.7176 33.88 69.7107 33.5217 68.9711 32.804C68.2315 32.0864 67.8596 31.1026 67.8576 29.8505V23.7841H65.4999V20.6587H66.1629C66.8165 20.6587 67.3158 20.4681 67.6607 20.0881C68.0171 19.6738 68.2015 19.1384 68.1756 18.5927V16.7638L71.3547 16.7669Z" fill="white"/>
<path d="M167.196 29.2447L164.211 29.8971V29.9034C164.264 30.3062 164.388 30.7184 164.591 31.1461C164.794 31.5738 165.091 32.0004 165.483 32.4281C165.877 32.8558 166.428 33.2038 167.145 33.4751C167.859 33.7433 168.671 33.881 169.581 33.881C171.171 33.881 172.399 33.4606 173.272 32.6238C174.143 31.7871 174.581 30.7909 174.581 29.6393C174.581 28.6617 174.254 27.8249 173.599 27.1259C172.943 26.43 171.997 25.9485 170.758 25.6875L168.925 25.296C168.139 25.1552 167.747 24.771 167.747 24.1445C167.747 23.7789 167.91 23.4744 168.233 23.228C168.551 22.9856 168.942 22.8624 169.395 22.8624C170.059 22.8624 170.558 23.0364 170.899 23.3843C171.24 23.7323 171.446 24.1341 171.516 24.5867L174.421 23.9311C174.37 23.5469 174.247 23.1555 174.056 22.7537C173.863 22.3508 173.584 21.9532 173.219 21.5617C172.852 21.1703 172.338 20.8482 171.675 20.5945C171.012 20.3408 170.244 20.2144 169.37 20.2144C167.989 20.2144 166.845 20.6245 165.928 21.4426C165.011 22.2649 164.554 23.2611 164.554 24.4272C164.554 25.3685 164.856 26.1794 165.457 26.8608C166.059 27.5412 166.961 28.0124 168.168 28.2733L169.866 28.6648C170.79 28.8574 171.255 29.2768 171.255 29.922C171.255 30.2876 171.105 30.5962 170.809 30.8385C170.512 31.0808 170.091 31.2041 169.552 31.2041C168.838 31.2041 168.272 31.0156 167.863 30.6428C167.454 30.27 167.232 29.8029 167.196 29.2447Z" fill="white"/>
<path d="M80.5729 16.7669V20.6618H83.1947V23.7872H80.5729V29.2437C80.5729 29.7926 80.6952 30.1799 80.9427 30.4098C81.1903 30.6397 81.5798 30.7536 82.1081 30.7536C82.4727 30.766 82.8384 30.7308 83.1947 30.6479V33.5621C82.5587 33.7941 81.8844 33.9028 81.2079 33.879C79.9369 33.879 78.9311 33.5207 78.1884 32.803C77.4456 32.0853 77.0748 31.1015 77.0769 29.8495V23.783H74.7192V20.6576H75.3811C76.0348 20.6576 76.5341 20.4671 76.878 20.087C77.2343 19.6728 77.4197 19.1374 77.3938 18.5917V16.7638L80.5729 16.7669Z" fill="white"/>
<path fill-rule="evenodd" clip-rule="evenodd" d="M63.1485 21.9946C62.0214 20.8099 60.4635 20.2165 58.4746 20.2165C56.7644 20.2165 55.282 20.8503 54.0245 22.1147C52.7669 23.3792 52.1402 24.9004 52.1402 26.9934C52.1402 29.0863 52.7887 30.7567 54.0783 32.0025C55.368 33.2524 56.9374 33.8748 58.7885 33.8748C60.3071 33.8748 61.575 33.4906 62.5963 32.7233C63.6177 31.9548 64.3035 30.9814 64.6505 29.7925L61.7449 28.9299C61.2735 30.2378 60.2957 30.8934 58.8133 30.8934C57.9401 30.8934 57.1901 30.6148 56.5634 30.0566C55.9326 29.4984 55.6032 28.7994 55.5669 27.9627H64.781L64.8069 27.7783C64.8069 27.6944 64.811 27.5867 64.8173 27.4583C64.8177 27.4435 64.8184 27.4285 64.8192 27.4131L64.8192 27.4127C64.82 27.3949 64.8209 27.3767 64.8214 27.3579C64.8328 27.1839 64.8359 27.0286 64.8359 26.8867C64.8359 24.8114 64.2745 23.1814 63.1474 21.9935L63.1485 21.9946ZM55.6477 25.5808L55.6435 25.5839C55.6767 24.9388 55.9585 24.3526 56.4805 23.8307C57.0057 23.3056 57.6873 23.0447 58.5243 23.0447C59.4525 23.0447 60.1517 23.287 60.6334 23.7768C61.1119 24.2625 61.3688 24.8673 61.4051 25.5808H55.6477Z" fill="white"/>
<path fill-rule="evenodd" clip-rule="evenodd" d="M90.6934 20.2165C92.6823 20.2165 94.2403 20.8099 95.3673 21.9946L95.3652 21.9935C96.4923 23.1814 97.0537 24.8114 97.0537 26.8867C97.0537 27.0286 97.0496 27.1839 97.0392 27.3579C97.0387 27.3767 97.0378 27.3949 97.037 27.4127L97.0364 27.4259C97.0361 27.4323 97.0358 27.4387 97.0356 27.445C97.0354 27.4495 97.0352 27.4539 97.0351 27.4583C97.0289 27.5867 97.0247 27.6944 97.0247 27.7783L96.9999 27.9627H87.7857C87.822 28.7994 88.1514 29.4984 88.7823 30.0566C89.409 30.6148 90.1589 30.8934 91.0322 30.8934C92.5145 30.8934 93.4924 30.2378 93.9637 28.9299L96.8693 29.7925C96.5213 30.9814 95.8366 31.9548 94.8152 32.7233C93.7938 33.4906 92.5259 33.8748 91.0073 33.8748C89.1562 33.8748 87.5869 33.2524 86.2972 32.0025C85.0075 30.7567 84.3591 29.0863 84.3591 26.9934C84.3591 24.9004 84.9858 23.3792 86.2433 22.1147C87.5009 20.8503 88.9832 20.2165 90.6934 20.2165ZM87.8634 25.5839L87.8665 25.5808H93.625C93.5887 24.8673 93.3318 24.2625 92.8532 23.7768C92.3716 23.287 91.6723 23.0447 90.7442 23.0447C89.9072 23.0447 89.2256 23.3056 88.7004 23.8307C88.1783 24.3526 87.8966 24.9388 87.8634 25.5839Z" fill="white"/>
<path d="M102.184 20.6286H98.9193V33.8821H102.26V27.1777C102.26 27.0006 102.3 26.7324 102.38 26.3741C102.46 26.0189 102.623 25.4752 102.862 25.1169C103.101 24.7586 103.449 24.4427 103.905 24.1641C104.359 23.8856 104.836 23.7478 105.586 23.7478C105.837 23.7478 106.091 23.7696 106.352 23.8131C106.609 23.8566 106.873 23.9146 107.141 23.9871V20.494C106.945 20.4391 106.754 20.3967 106.565 20.3604C106.377 20.3242 106.185 20.3055 105.989 20.3055C105.13 20.3055 104.369 20.5116 103.71 20.9217C103.05 21.3349 102.543 21.9138 102.184 22.6636V20.6286Z" fill="white"/>
<path fill-rule="evenodd" clip-rule="evenodd" d="M107.518 27.0224C107.518 23.2363 110.587 20.1688 114.374 20.1688C118.16 20.1688 121.229 23.2363 121.229 27.0224C121.229 30.8085 118.16 33.8759 114.374 33.8759C110.587 33.8759 107.518 30.8085 107.518 27.0224ZM110.743 27.0213C110.743 29.0252 112.37 30.6511 114.374 30.6511C116.377 30.6511 118.004 29.0241 118.004 27.0213C118.004 25.0185 116.377 23.3916 114.374 23.3916C112.37 23.3916 110.743 25.0175 110.743 27.0213Z" fill="white"/>
<path d="M126.733 33.8748H126.729V25.9495C126.729 25.2184 126.95 24.6125 127.385 24.131C127.82 23.6495 128.389 23.4102 129.139 23.4102C129.889 23.4102 130.454 23.6308 130.838 24.0772C131.222 24.5225 131.415 25.1127 131.415 25.8449V33.879H134.871V25.9495C134.871 25.2329 135.092 24.6312 135.527 24.1424C135.965 23.6567 136.541 23.4102 137.255 23.4102C138.024 23.4102 138.596 23.6308 138.969 24.0772C139.342 24.5225 139.531 25.1127 139.531 25.8449V33.8748H142.908V25.1345C142.908 23.5159 142.458 22.2908 141.56 21.4727C140.661 20.6504 139.556 20.2413 138.248 20.2413C136.451 20.2413 135.089 20.959 134.165 22.3891C133.483 20.958 132.208 20.2413 130.342 20.2413C129.592 20.2413 128.856 20.4184 128.142 20.7664C127.429 21.1143 126.904 21.5845 126.573 22.1789V20.611H123.251V33.8748H126.729V33.879L126.733 33.8748Z" fill="white"/>
<path d="M145.13 20.61H148.612V33.8748H145.13V20.61Z" fill="white"/>
<path d="M145.336 15.6268C144.919 16.0545 144.709 16.5609 144.709 17.1553C144.709 17.7497 144.916 18.2313 145.336 18.6476C145.756 19.0639 146.26 19.2741 146.854 19.2741C147.449 19.2741 147.953 19.068 148.373 18.6476C148.79 18.2271 149 17.7311 149 17.1553C149 16.5464 148.793 16.0327 148.373 15.6123C147.953 15.196 147.449 14.9857 146.854 14.9857C146.26 14.9857 145.753 15.1991 145.336 15.6268Z" fill="white"/>
<path d="M157.196 23.4351C156.272 23.4351 155.493 23.7572 154.866 24.4023V24.4013C154.239 25.0454 153.923 25.9298 153.923 27.0451C153.923 28.1605 154.242 29.048 154.88 29.7004C155.518 30.3528 156.296 30.6821 157.225 30.6821C158.043 30.6821 158.7 30.4688 159.189 30.0411C159.678 29.6144 160.007 29.1039 160.181 28.5095L163.243 29.5305C162.928 30.7194 162.247 31.7374 161.199 32.5917C160.152 33.4461 158.826 33.8738 157.22 33.8738C155.301 33.8738 153.691 33.2255 152.391 31.9248C151.09 30.6252 150.442 28.9983 150.442 27.0462C150.442 25.0941 151.083 23.4465 152.365 22.153C153.649 20.8637 155.232 20.2155 157.116 20.2155C158.758 20.2155 160.101 20.639 161.149 21.483C162.196 22.3301 162.866 23.3512 163.163 24.5577L160.047 25.6046C159.627 24.1559 158.678 23.4309 157.196 23.4309V23.4351Z" fill="white"/>
</svg>
