<svg width="141" height="50" viewBox="0 0 141 50" fill="none" xmlns="http://www.w3.org/2000/svg">
<path d="M11.1837 33.5583C8.88454 33.5583 6.77134 32.7715 5.09561 31.452C7.04404 27.0562 11.0141 21.1588 16.4277 15.3991C19.1914 17.1415 21.0271 20.2178 21.0271 23.7236C21.0271 25.2204 20.6898 26.6401 20.0914 27.9105C18.3742 27.1159 16.7727 26.1219 15.414 24.8669L18.38 30.432C16.5829 32.3563 14.0254 33.5583 11.1837 33.5583ZM1.34332 23.7236C1.34332 18.2886 5.74797 13.886 11.1837 13.886C12.6407 13.886 14.0216 14.2029 15.2685 14.7692C9.93489 19.481 5.80485 24.9574 3.36112 29.6903C2.0959 28.0328 1.34332 25.9687 1.34332 23.7236ZM21.3277 28.4383C21.9974 27.0061 22.3694 25.4072 22.3694 23.7236C22.3694 19.8373 20.3853 16.4144 17.373 14.411C19.1673 12.5656 21.1089 10.7423 23.1759 9C20.7534 10.4245 18.4773 12.0551 16.3737 13.8167C14.8233 13.0038 13.057 12.5415 11.1837 12.5415C5.00792 12.5415 0 17.5499 0 23.7236C0 26.51 1.02148 29.0624 2.71069 31.0175C0.567616 35.6493 0.192756 39.3691 2.08144 40.6269C4.10214 41.9744 8.49812 39.5318 11.1365 35.554C11.1365 35.554 7.05655 39.2332 4.81519 38.3895C3.43626 37.8675 3.43146 35.7591 4.56852 32.7358C6.42251 34.0977 8.7082 34.9019 11.1837 34.9019C14.249 34.9019 17.0232 33.671 19.0439 31.6773L19.441 32.4247C24.3159 32.0289 38.8713 31.6436 38.8713 31.6436C38.8713 30.9453 29.2341 31.5791 21.3277 28.4383Z" fill="white"/>
<path fill-rule="evenodd" clip-rule="evenodd" d="M88.0604 22.6941L89.8826 20.2747L83.5353 20.2728L85.0992 18.2001H91.4465L93.2736 15.7816H80.5991L71.8803 27.3462H84.5567L86.377 24.9248H80.0316L81.7093 22.6941H88.0604ZM96.8631 15.7817L88.1481 27.3462H94.4713L103.188 15.7817H96.8631ZM117.933 15.7817L113.516 21.6444L112.157 15.7817H107.215L98.4977 27.3462H102.681L107.061 21.5356L108.407 27.3462H113.401L122.12 15.7817H117.933Z" fill="white"/>
<path d="M138.61 15.7834L128.444 15.7815C126.705 15.7815 125.162 16.6146 124.187 17.9062L118.94 24.8669C118.743 25.125 118.628 25.4477 118.628 25.7973C118.628 26.6526 119.321 27.348 120.177 27.348H130.341C132.082 27.348 133.629 26.5139 134.602 25.2233L135.862 23.5522H137.331L139.167 21.1154H131.38L128.922 24.3747C128.794 24.5463 128.627 24.6856 128.436 24.7814C128.244 24.8773 128.032 24.927 127.818 24.9266H126.029C125.802 24.9266 125.623 24.7455 125.623 24.524C125.623 24.4316 125.654 24.3478 125.706 24.2832L129.874 18.7519C130.126 18.4158 130.527 18.2019 130.979 18.2019H132.77C132.995 18.2019 133.174 18.382 133.174 18.6035C133.174 18.6921 133.141 18.7779 133.091 18.8472L132.414 19.7458H138.732L139.85 18.2616C140.043 18.0045 140.16 17.6838 140.16 17.3322C140.16 16.4769 139.464 15.7834 138.61 15.7834ZM68.3447 18.847L64.1741 24.3754C64.0458 24.547 63.8791 24.6862 63.6874 24.7819C63.4956 24.8775 63.2841 24.927 63.0698 24.9263H61.2785C61.0578 24.9263 60.8785 24.7462 60.8785 24.5257C60.8785 24.4313 60.9094 24.3475 60.9576 24.2829L65.1262 18.7535C65.3815 18.4212 65.7814 18.2016 66.2314 18.2016H68.0238C68.2464 18.2016 68.4256 18.3827 68.4256 18.6033C68.4247 18.691 68.3964 18.7762 68.3447 18.847ZM75.4118 17.3319C75.4118 16.4776 74.7199 15.7832 73.8623 15.7832H63.7029C61.9617 15.7832 60.417 16.6143 59.4418 17.9059L54.1939 24.8666C53.9983 25.1267 53.8837 25.4474 53.8837 25.798C53.8837 26.6523 54.5756 27.3477 55.4313 27.3477H65.5926C67.3357 27.3477 68.8823 26.5136 69.8556 25.223L75.1025 18.2633C75.2971 18.0051 75.4118 17.6835 75.4118 17.3319ZM49.029 18.847L48.3622 19.7292C48.1088 20.0605 47.7108 20.2763 47.2569 20.2763L44.66 20.2743L46.2258 18.2016H48.7062C48.9269 18.2016 49.108 18.3827 49.108 18.6033C49.108 18.6919 49.0791 18.7776 49.029 18.847ZM45.638 23.34L44.8556 24.3774C44.6041 24.7106 44.2051 24.9263 43.7513 24.9263H41.1563L42.8358 22.6957H45.3181C45.5397 22.6957 45.72 22.8748 45.72 23.0973C45.72 23.1898 45.6891 23.2736 45.638 23.34ZM51.5084 21.8471C52.7543 21.5669 53.8384 20.8455 54.5813 19.8582L55.783 18.2633C55.9786 18.0051 56.0952 17.6835 56.0952 17.3319C56.0952 16.4776 55.4023 15.7832 54.5466 15.7832H41.7238L33.007 27.3477H46.274C48.0172 27.3477 49.5628 26.5136 50.5361 25.223L51.7657 23.5914C51.9247 23.3862 52.0133 23.1252 52.0133 22.8479C52.0133 22.4366 51.8129 22.0745 51.5084 21.8471Z" fill="white"/>
</svg>
