<svg width="179" height="50" viewBox="0 0 179 50" fill="none" xmlns="http://www.w3.org/2000/svg">
<path d="M48.0314 15.3701C50.0044 15.561 52.6721 16.4898 53.6735 18.2758C54.5913 19.9146 53.9363 22.1102 52.5168 23.224C52.0271 23.6078 51.4856 23.6436 50.9978 23.8902C50.7848 23.9976 50.6255 23.7888 50.7151 24.3039C53.6795 24.6599 55.6524 27.0982 54.5913 30.0596C53.7452 32.4204 50.8346 33.6356 48.4276 33.6356H39.9744C40.6095 32.4661 40.8703 31.0839 40.9659 29.7613C41.1729 26.9312 41.155 22.6711 40.9778 19.827C40.8823 18.2857 40.5518 16.7941 39.9744 15.3701C42.5665 15.553 45.4772 15.1234 48.0294 15.3701H48.0314ZM44.7505 23.5104H47.8323C48.0573 23.5104 49.4091 22.6035 49.6142 22.3111C50.2831 21.3565 50.3149 19.0792 49.6142 18.1604C49.5286 18.049 47.9359 17.158 47.8343 17.158H44.7525V23.5104H44.7505ZM48.6287 25.0995C47.8124 24.9364 46.0067 25.0995 45.0491 25.0995C44.9894 25.0995 44.8958 24.8489 44.7505 24.9006V32.0485C46.8648 31.9848 49.4887 32.49 50.6912 30.3341C51.3004 29.2402 51.2546 27.3369 50.4563 26.3524C50.305 26.1655 48.8377 25.1412 48.6287 25.0995Z" fill="white"/>
<path d="M71.6012 33.6376C72.4712 29.6658 72.6643 24.8111 71.4041 20.9328L75.778 20.5351C75.7979 21.0283 75.7561 21.5315 75.778 22.0267C75.788 22.2514 75.6486 22.5716 75.9751 22.5179C77.7251 19.7097 82.1229 19.4154 83.6359 22.7168C84.9001 20.5947 87.6814 19.6839 89.947 20.7837C90.5542 21.078 91.5675 22.3549 91.679 23.0251C92.0533 25.2606 91.5058 28.5561 91.681 30.9646C91.7447 31.8317 91.9318 32.84 92.2862 33.6376H87.7112C87.7849 32.8122 88.0616 31.9908 88.1174 31.1634C88.2189 29.6161 88.3523 25.3799 88.0994 24.0175C87.6634 21.6588 84.8543 22.1958 83.7295 23.6516C83.827 26.9869 83.403 30.3918 84.3307 33.6376H79.7557C80.562 30.4892 79.9827 27.0605 80.1499 23.8147C79.0012 21.5613 77.309 22.2654 75.776 23.6536C75.9433 26.969 75.3898 30.3997 76.1762 33.6376H71.6012Z" fill="white"/>
<path d="M98.651 14.9743V22.1222C101.787 18.4448 107.154 20.9328 107.6 25.3998C107.749 26.9073 107.709 28.6297 107.04 30C105.647 32.85 103.198 34.2103 99.9669 33.8146C99.091 33.7072 98.1533 33.0906 97.3609 33.0807C96.8851 33.0747 94.9798 33.7469 94.8743 33.6376C94.5817 28.6993 95.2586 23.3314 94.8803 18.4428C94.8007 17.4245 94.4503 16.3784 94.2771 15.374L98.653 14.9763L98.651 14.9743ZM98.9098 23.1723C98.2329 24.0215 98.86 30.2486 98.6828 31.7183C99.9769 33.0071 102.314 32.3488 103.124 30.8552C104.315 28.6575 104.47 23.6257 101.832 22.4185C100.901 21.9909 99.507 22.4225 98.9098 23.1723Z" fill="white"/>
<path d="M146.782 14.9743V32.1479C146.782 32.4363 147.248 33.2995 147.379 33.6376H143.202V31.8516C142.522 31.9749 142.39 32.7267 141.793 33.1244C141.62 33.2398 140.465 33.7529 140.274 33.7927C132.607 35.3758 131.19 20.8732 140.113 20.3282C141.311 20.2546 142.058 20.6942 143.202 20.734C143.364 18.8644 142.924 17.1282 142.406 15.374L146.782 14.9763V14.9743ZM143.176 22.3469C142.177 21.973 140.555 21.6627 139.567 22.1659C139.272 22.3171 138.215 23.6774 138.072 24.0494C137.68 25.0756 137.672 28.2219 137.843 29.3556C138.271 32.1638 141.839 32.9474 143.161 30.3202L143.175 22.3449L143.176 22.3469Z" fill="white"/>
<path d="M22.3752 17.158C27.9238 17.6115 29.7573 20.4336 33.4185 24.0036C33.5997 24.1786 34.2189 24.6162 33.9083 24.9046C27.9496 20.8394 19.7911 24.4451 13.281 22.0685C11.6585 21.4758 8.9071 19.129 7.85592 17.7567C7.70263 17.5558 7.47169 17.5061 7.55929 17.16C12.3672 17.4504 17.6211 16.7722 22.3772 17.16L22.3752 17.158Z" fill="white"/>
<path d="M7.5573 32.842C7.41993 32.7207 7.89773 32.0584 8.02515 31.9192C11.0473 28.6714 13.4582 27.3528 17.9894 27.0744C23.303 26.7482 29.2576 28.2737 33.9063 25.0955C34.2328 25.3143 33.7669 25.6404 33.6136 25.7975C30.5417 28.9439 27.1553 32.842 22.3713 32.842H7.5573Z" fill="white"/>
<path d="M0 40.9823C2.49454 38.1244 4.86168 35.7835 8.85334 35.4255C14.6647 34.9064 21.4137 36.7242 26.5501 33.2358C26.8587 33.5242 26.2395 33.9597 26.0583 34.1387C23.0183 37.1479 19.9325 40.9823 15.2141 40.9823H0Z" fill="white"/>
<path d="M15.2161 9.0177C15.9946 9.08333 18.1865 9.46519 18.9032 9.70584C20.3924 10.207 25.5666 15.0001 26.5541 16.3645C26.7432 16.625 26.6178 16.5972 26.353 16.5654C25.5646 16.4759 24.7205 15.5411 23.8724 15.2686C18.4035 13.5125 10.2131 15.8891 5.32554 13.7293C3.35659 12.8582 1.55486 10.4775 0 9.0177H15.2161Z" fill="white"/>
<path d="M121.92 20.5331V32.1479C121.92 32.5556 122.503 33.194 122.517 33.6376H118.341V31.8516C117.827 32.0684 117.887 32.7028 117.423 33.021C115.332 34.4629 111.934 33.9836 110.501 31.8357C107.307 27.0485 110.22 19.8489 116.427 20.362C117.258 20.4317 118.291 20.9229 119.045 20.9408C119.874 20.9607 121.052 20.5749 121.92 20.5351V20.5331ZM117.68 31.3882C117.936 31.1734 118.303 30.5389 118.351 30.173C118.661 27.8659 118.118 24.833 118.313 22.4444C118.08 21.7662 115.715 21.8855 115.062 22.1261C112.696 22.9973 112.74 28.1503 113.415 30.1133C113.523 30.4236 114.58 31.7163 114.898 31.8078C115.613 32.0147 117.086 31.8794 117.678 31.3882H117.68Z" fill="white"/>
<path d="M69.9866 27.1002C69.9866 30.8432 66.9466 33.8782 63.1978 33.8782C59.449 33.8782 56.409 30.8432 56.409 27.1002C56.409 23.3572 59.449 20.3223 63.1978 20.3223C66.9466 20.3223 69.9866 23.3572 69.9866 27.1002ZM62.8076 21.971C59.8631 22.329 59.9109 27.9057 60.6037 30.0238C60.97 31.1455 61.8261 32.3925 63.144 32.4144C64.1434 32.4303 65.0951 31.6905 65.4753 30.7975C66.4727 28.4606 66.6937 21.4977 62.8076 21.971Z" fill="white"/>
<path d="M168.261 27.0843H159.808C159.291 27.7128 159.916 29.286 160.266 30.0039C161.723 32.9991 165.333 32.5735 167.664 30.8572C167.726 30.9387 167.497 32.2971 167.417 32.494C166.931 33.7092 162.587 34.0035 161.413 33.8225C153.818 32.6551 154.276 20.3004 162.394 20.3223C166.155 20.3322 168.614 23.4447 168.261 27.0843ZM165.08 25.6941C164.749 24.121 164.371 21.9372 162.396 21.9074C162.09 21.9034 161.088 22.0625 160.887 22.2554C160.252 22.87 159.569 24.7753 159.709 25.6961H165.078L165.08 25.6941Z" fill="white"/>
<path d="M128.882 23.5104L129.794 21.7403C130.622 20.6286 131.727 20.0916 133.131 20.362C133.766 20.5709 133.334 22.7288 133.455 23.3115C131.918 22.4006 129.334 23.2856 128.936 25.0537C128.691 26.1376 128.789 29.7096 128.874 30.9626C128.936 31.8655 129.322 32.7187 129.278 33.6356H124.703C125.177 30.5747 125.317 26.9113 125.109 23.7988C125.044 22.8163 124.835 21.8437 124.506 20.9289L128.88 20.5311V23.5084L128.882 23.5104Z" fill="white"/>
<path d="M174.23 23.5104L175.707 21.1138C176.543 20.4297 177.537 20.1035 178.618 20.4197L179 23.3115C177.537 22.3748 174.698 23.401 174.276 25.0478C174.045 25.9487 174.14 29.8508 174.23 30.9526C174.306 31.8635 174.588 32.7625 174.823 33.6356H170.049C170.354 32.9236 170.573 32.1221 170.642 31.3484C170.822 29.3615 170.869 24.0712 170.39 22.2753C170.256 21.7741 169.868 21.438 169.85 20.9289L174.224 20.5311V23.5084L174.23 23.5104Z" fill="white"/>
<path d="M153.744 20.5331V32.5457C153.744 32.7466 154.244 33.2816 154.142 33.6376H149.567C149.641 32.8122 149.918 31.9908 149.973 31.1634C150.111 29.0811 150.152 25.6563 149.973 23.6039C149.886 22.6015 149.432 21.8935 149.368 20.9309L153.744 20.5331Z" fill="white"/>
<path d="M153.487 18.2956C152.358 19.6918 149.591 18.7053 149.583 17.0407C149.569 14.2145 153.941 13.9699 153.903 16.8637C153.899 17.168 153.67 18.0709 153.489 18.2956H153.487Z" fill="white"/>
</svg>
