<svg width="141" height="50" viewBox="0 0 141 50" fill="none" xmlns="http://www.w3.org/2000/svg">
<path d="M21.2929 36.7075L23.6721 13.4156L23.7468 13.2703L27.3146 13.2692L30.3364 22.678L33.3373 13.2777L37.006 13.2787L39.3253 36.7075H35.5924L34.2776 28.4052L31.5923 36.7023L29.2289 36.6833L26.5762 28.3526L25.1836 36.7075H21.2929Z" fill="white"/>
<path d="M21.233 13.4377C21.1478 14.3157 21.2046 15.2032 21.1899 16.0865C21.1299 19.6039 21.0458 23.1876 20.7144 26.6976C20.4199 29.8149 20.0592 33.8008 17.6947 36.0801C16.5387 37.1939 13.865 37.2602 12.5713 36.4138C11.5573 35.7505 10.4161 34.0808 10.069 32.9248C9.16867 29.9181 9.08768 26.3186 8.99091 23.1781C8.89941 20.2229 8.80369 16.9298 8.93622 13.9799C8.94779 13.7125 9.02983 13.4461 8.99091 13.1682C9.05613 13.1029 9.9996 13.2187 10.1721 13.2229C13.7956 13.3124 17.396 13.0408 21.0047 13.3787C21.0836 13.3861 21.1625 13.404 21.234 13.4387L21.233 13.4377Z" fill="white"/>
<path d="M84.8005 36.9697C84.8099 36.6107 84.7889 36.2496 84.7984 35.8906C84.9519 30.336 84.6417 24.7762 84.5354 19.2386C84.4997 17.3667 84.5985 15.4843 84.4818 13.6198C84.5186 13.4851 85.6777 13.544 85.8807 13.5366C86.0048 13.5324 86.1205 13.4819 86.2446 13.4798C87.2018 13.4661 88.1537 13.5661 89.1119 13.5345L89.2959 23.097H93.0025V13.6146C93.275 13.4598 93.702 13.5535 94.0302 13.5377C94.1543 13.5314 94.27 13.4851 94.3941 13.4809C95.3649 13.4493 96.3431 13.5093 97.3139 13.483L97.316 18.0826C97.315 18.2068 97.2603 18.3216 97.2592 18.4458C97.193 23.5518 97.2719 28.6842 97.3686 33.7892C97.3876 34.8051 97.3918 35.82 97.4202 36.8349L92.8974 36.9707V27.9851H89.4274L89.5852 36.9697H84.8005Z" fill="white"/>
<path d="M122.168 14.8116C130.471 14.2146 130.526 26.6313 127.884 31.8215C127.005 33.5491 126.211 34.8188 124.136 35.1694C117.733 36.2485 116.595 28.8684 116.446 24.1783C116.382 22.1379 116.728 20.4756 117.342 18.5532C118.103 16.1634 119.64 14.9948 122.168 14.8126V14.8116Z" fill="white"/>
<path d="M114.609 13.3777L114.979 19.287L114.714 36.9707C114.11 36.9591 113.502 36.9844 112.898 36.9728C111.466 36.9444 110.025 36.776 108.586 36.8107C108.085 36.8223 107.515 36.9065 107.014 36.9202C104.452 36.9897 101.879 36.9707 99.3092 36.9707L99.467 13.4303C100.457 13.4745 101.448 13.5051 102.439 13.5335C103.542 13.5651 104.591 13.5619 105.695 13.5335C108.669 13.4566 111.629 13.3377 114.608 13.3777H114.609ZM106.659 15.0221C104.234 15.1822 102.779 16.4424 102.02 18.6869C101.473 20.3029 101.148 21.8821 101.2 23.6003C101.323 27.5598 101.903 35.4073 107.487 35.0283C110.026 34.8557 110.94 33.2459 111.867 31.1572C113.206 28.141 113.453 23.116 112.519 19.9587C111.671 17.0919 109.946 14.8063 106.658 15.0232L106.659 15.0221Z" fill="white"/>
<path d="M72.3407 33.0817C73.748 33.0743 75.3636 33.068 76.7162 32.6469C78.8556 31.9805 79.6045 29.557 77.8616 27.9578C76.4238 26.6386 74.3128 26.426 72.4459 26.3565L72.5016 13.5377C73.0622 13.4366 73.6386 13.4987 74.2066 13.4819C75.351 13.4472 76.53 13.3872 77.6744 13.3756C79.2248 13.3587 80.7846 13.3566 82.3298 13.4303L82.4118 17.2172C82.3645 17.2846 81.339 17.3014 81.1475 17.3193C79.3931 17.4783 76.5185 17.6973 75.9947 19.7881C75.6318 21.2347 76.4964 22.2274 77.7375 22.7759C79.1954 23.4202 80.8667 23.4845 82.4328 23.6266L82.7515 36.9697H72.3428V33.0817H72.3407Z" fill="white"/>
<path d="M61.7741 24.8331C61.75 24.9247 61.812 24.9384 61.852 24.991C63.8368 27.5777 66.034 30.0055 68.0272 32.5858C68.8539 33.6565 69.5649 34.8125 70.4695 35.819L71.0259 36.6549L61.6153 36.7075C61.5932 35.6842 61.5974 34.6546 61.5648 33.6313C61.386 27.963 61.3913 22.2874 61.4596 16.6119C61.4733 15.4464 61.4449 14.2799 61.4575 13.1155C64.0639 13.025 66.5 13.2134 68.4774 15.059C71.3341 17.7236 70.8629 22.3822 67.1342 23.913C65.5165 24.5773 63.5086 24.7583 61.7731 24.8341L61.7741 24.8331Z" fill="white"/>
<path d="M59.5127 33.3975L59.6179 36.6033L50.3641 36.678C50.4282 35.4715 50.3977 34.2661 50.4156 33.0543C50.4535 30.415 50.5134 27.762 50.5734 25.1205C50.647 21.9 50.5597 18.6627 50.5776 15.4569C50.5818 14.6947 50.5702 13.9304 50.5755 13.1692L59.2151 13.0618C59.2782 13.0766 59.2971 13.2408 59.3024 13.2998C59.3823 14.1915 59.2046 15.1664 59.355 16.0591H54.6239L54.524 22.8844L59.3024 22.8896V26.5155C57.4302 26.6207 55.1561 26.9545 54.1085 28.7063C52.9294 30.6771 54.4367 32.6859 56.4004 33.2259C56.5782 33.2744 57.0189 33.3986 57.1746 33.3986H59.5138L59.5127 33.3975Z" fill="white"/>
<path d="M0.737322 21.9432L2.69265 22.2727C6.8673 23.5676 9.45371 28.5789 7.51101 32.6795C6.06792 35.7274 3.20383 36.7107 0 36.8117L0.0546944 13.0103C1.78493 13.1355 3.40578 13.863 4.16413 15.4969C5.43999 18.2437 3.41629 21.1536 0.738374 21.9432H0.737322Z" fill="white"/>
<path d="M41.4815 21.9958C41.4678 22.0822 41.5519 22.0453 41.6119 22.0485C44.0563 22.1695 45.5415 22.6696 47.075 24.6289C48.7474 26.766 49.3406 29.3496 48.7642 32.0342C48.0269 35.4673 44.0132 36.7496 40.903 36.8139L40.9545 13.0103C42.6848 13.1208 44.3487 13.8799 45.0924 15.5212C46.3745 18.3521 44.2204 21.2504 41.4804 21.9958H41.4815Z" fill="white"/>
<path d="M141 13.2198V17.7383H137.688C137.675 18.1489 137.704 18.5637 137.69 18.9754C137.636 20.584 137.628 22.1948 137.633 23.8098C137.647 27.8904 137.731 31.9278 137.95 35.9979C137.96 36.199 137.943 36.4022 137.95 36.6022L133.69 36.677L133.796 17.7394H129.958V13.1682L140.998 13.2208L141 13.2198Z" fill="white"/>
</svg>
