<svg width="108" height="50" viewBox="0 0 108 50" fill="none" xmlns="http://www.w3.org/2000/svg">
<path fill-rule="evenodd" clip-rule="evenodd" d="M11.2152 42.6961C11.2152 42.6961 7.60992 42.6286 5.6607 42.6286C3.71133 42.6286 0.0943145 42.6961 0.0943145 42.6961C0.0943145 42.6961 0 42.7123 0 42.5691C0 42.4259 0 42.01 0 41.881C0 41.7522 0.0944669 41.7541 0.0944669 41.7541C0.0944669 41.7541 3.6996 41.8315 5.64897 41.8315C7.59834 41.8315 11.2152 41.7541 11.2152 41.7541C11.2152 41.7541 11.3179 41.7311 11.3179 41.881C11.3179 42.0316 11.3179 42.4287 11.3179 42.5691C11.3179 42.7095 11.2152 42.6961 11.2152 42.6961Z" fill="white"/>
<path fill-rule="evenodd" clip-rule="evenodd" d="M107.417 42.6961C107.417 42.6961 103.812 42.6286 101.863 42.6286C99.9137 42.6286 96.2966 42.6961 96.2966 42.6961C96.2966 42.6961 96.2021 42.7123 96.2021 42.5691C96.2021 42.4259 96.2021 42.01 96.2021 41.881C96.2021 41.7522 96.2966 41.7541 96.2966 41.7541C96.2966 41.7541 99.9018 41.8315 101.851 41.8315C103.8 41.8315 107.417 41.7541 107.417 41.7541C107.417 41.7541 107.52 41.7311 107.52 41.881C107.52 42.0316 107.52 42.4287 107.52 42.5691C107.52 42.7095 107.417 42.6961 107.417 42.6961Z" fill="white"/>
<path fill-rule="evenodd" clip-rule="evenodd" d="M12.5247 14.5107C12.3257 14.5107 12.2904 14.7049 12.2644 14.848C12.2128 15.1585 11.9893 15.9231 11.6278 16.3027C10.8858 17.0644 9.72847 17.1695 8.58838 17.1695C4.61537 17.1695 2.24108 13.8913 2.24108 10.7217C2.24108 9.19788 2.42852 7.4599 3.81885 6.12412C4.70322 5.26339 6.02434 4.84481 7.85785 4.84481C9.47045 4.84481 10.8069 5.3618 11.3666 5.84236C11.7966 6.20661 12.0854 6.91245 12.0854 7.59886C12.0854 7.80287 12.0854 8.05708 12.3108 8.05708C12.5243 8.05708 12.5417 7.79537 12.5544 7.60437C12.5618 7.49035 12.5663 7.24946 12.5713 6.97061C12.5785 6.58555 12.5872 6.10667 12.6078 5.76538C12.6295 5.37618 12.6575 5.14493 12.6763 4.99204C12.6888 4.88981 12.6969 4.82216 12.6969 4.76171C12.6969 4.58769 12.6022 4.50153 12.3874 4.48209C11.838 4.44766 11.281 4.34481 10.6361 4.22574L10.5805 4.21549C9.523 4.02097 8.41147 4 7.9825 4C5.58605 4 3.78982 4.63254 2.491 5.93403C1.00198 7.42546 0.471579 9.45882 0.471579 10.8644C0.471579 13.1091 1.20608 14.9071 2.65446 16.2086C4.1308 17.5381 6.01624 18.1573 8.58838 18.1573C9.65056 18.1573 11.0588 18.0479 11.8283 17.7396C12.1723 17.5864 12.2244 17.5281 12.3373 17.1694C12.5178 16.5546 12.7326 14.9977 12.7326 14.8618C12.7326 14.5361 12.5736 14.5107 12.5247 14.5107Z" fill="white"/>
<path fill-rule="evenodd" clip-rule="evenodd" d="M21.9894 15.7256C21.8027 15.7256 21.7777 15.9293 21.7689 16.0034C21.7207 16.3164 21.5617 16.6933 21.3825 16.9199C21.0464 17.3367 20.4446 17.3679 19.565 17.3679C18.3261 17.3679 17.974 17.2475 17.7579 17.0255C17.489 16.7499 17.4399 15.5997 17.4399 13.4335V10.5955C17.4399 8.1118 17.4399 7.66436 17.4708 7.15615C17.5025 6.58673 17.6283 6.39261 18.0088 6.32509C18.1857 6.29479 18.3982 6.27848 18.5081 6.27848C18.6276 6.27848 18.7141 6.20311 18.7141 6.09914C18.7141 5.88764 18.4742 5.88764 18.3839 5.88764C18.0514 5.88764 17.39 5.91148 16.9946 5.92579C16.8381 5.93132 16.7279 5.93532 16.7054 5.93532C16.6864 5.93532 16.6117 5.93255 16.4997 5.92809C16.1673 5.91502 15.4753 5.88764 14.9494 5.88764C14.859 5.88764 14.6189 5.88764 14.6189 6.09914C14.6189 6.20311 14.7058 6.27848 14.8249 6.27848C14.9644 6.27848 15.2185 6.29433 15.3363 6.32447C15.7732 6.41938 15.9086 6.60596 15.9402 7.15661C15.9711 7.6642 15.9711 8.1118 15.9711 10.5955V13.4018C15.9711 14.8961 15.9711 16.1869 15.894 16.85C15.8273 17.3461 15.7494 17.607 15.5065 17.6568C15.3369 17.6955 15.1692 17.7185 15.0579 17.7185C14.9158 17.7185 14.8522 17.8086 14.8522 17.8981C14.8522 18.1095 15.0921 18.1095 15.1824 18.1095C15.4209 18.1095 15.7661 18.0932 16.0682 18.0775C16.2844 18.0775 16.4805 18.0696 16.5976 18.065C16.6492 18.063 16.6867 18.0613 16.7054 18.0613C17.1303 18.0613 17.6033 18.0758 18.2886 18.1095C18.4322 18.1127 18.5832 18.1172 18.7434 18.1216C19.3018 18.1376 19.9965 18.1573 20.8705 18.1573C21.6801 18.1573 21.7987 18.1024 21.9282 17.6651C22.0554 17.1926 22.1642 16.2242 22.1642 16.0485C22.1642 15.9122 22.1642 15.7256 21.9894 15.7256Z" fill="white"/>
<path fill-rule="evenodd" clip-rule="evenodd" d="M29.4403 12.5549L26.4477 12.5547L26.4485 12.5529L27.8486 8.16281C27.8647 8.11355 27.8783 8.08233 27.8886 8.06288C27.8989 8.08249 27.9127 8.11402 27.9291 8.16406L29.4386 12.5469C29.4393 12.5497 29.4399 12.5524 29.4403 12.5549ZM36.8268 6.5418C36.8268 6.48297 36.8498 6.4472 36.8945 6.42869C37.0431 6.38319 37.4588 6.33456 37.9366 6.33456C39.6079 6.33456 40.6058 7.51851 40.6058 9.5016C40.6058 10.6156 40.2563 11.5256 39.671 11.936C39.3007 12.1991 38.8398 12.2294 38.5253 12.2294C37.8508 12.2294 37.1206 12.1182 36.8976 11.9817C36.8472 11.9508 36.8268 11.9153 36.8268 11.8596V6.5418ZM52.638 15.7422C52.4684 15.7422 52.436 15.9235 52.4124 16.057C52.3048 16.7001 52.1243 17.0002 51.746 17.1636C51.348 17.3359 50.6613 17.3359 50.2513 17.3359C48.6894 17.3359 48.5327 17.1145 48.4888 16.0837C48.4775 15.8401 48.4825 14.7899 48.4864 14.0228C48.4876 13.7218 48.489 13.4621 48.489 13.3071V11.8758C48.489 11.8497 48.4911 11.8475 48.5169 11.8475C48.7845 11.8475 50.3577 11.88 50.7836 11.9282C51.3408 11.9867 51.4782 12.2178 51.5396 12.4377C51.5996 12.6368 51.5996 12.7886 51.5996 12.9491C51.5996 13.0899 51.6762 13.1808 51.7945 13.1808C51.9896 13.1808 51.9896 12.9243 51.9896 12.7866C51.9896 12.6815 52.0203 12.0863 52.0529 11.7534C52.0824 11.4213 52.1241 11.1913 52.1516 11.0392C52.1692 10.943 52.1806 10.8795 52.1806 10.8352C52.1806 10.6404 52.0664 10.6195 52.0173 10.6195C51.921 10.6195 51.8538 10.6984 51.7427 10.8288L51.7164 10.8594C51.6011 10.9904 51.4177 11.0255 51.0235 11.0589C50.7564 11.0828 49.5453 11.0912 48.5009 11.0912C48.4985 11.0912 48.4946 11.0912 48.4946 11.0912C48.4922 11.0817 48.489 11.0605 48.489 11.0141V6.52564C48.489 6.46163 48.5002 6.44641 48.5009 6.44861C48.6902 6.44861 50.4088 6.46524 50.6716 6.49661C51.4966 6.59058 51.6366 6.77178 51.7333 6.99768C51.8036 7.17009 51.8225 7.42611 51.8225 7.5502C51.8225 7.79556 51.9371 7.84701 52.0334 7.84701C52.1296 7.84701 52.1946 7.76387 52.2273 7.59664C52.2483 7.46643 52.269 7.12412 52.2854 6.84912C52.2942 6.70134 52.3019 6.57521 52.3072 6.51873C52.3352 6.25424 52.3731 6.0823 52.4007 5.95664C52.4207 5.86628 52.4349 5.80133 52.4349 5.74502C52.4349 5.54343 52.3428 5.51331 52.2879 5.51331C52.223 5.51331 52.1709 5.54029 52.1252 5.56414C52.0979 5.5781 52.0722 5.59143 52.0447 5.59724C51.916 5.63018 51.6536 5.66109 51.3773 5.67599C51.0172 5.69199 47.8708 5.69199 47.7411 5.69215L47.0884 5.65967C46.7366 5.64336 46.3128 5.64336 45.9391 5.64336C45.8465 5.64336 45.6011 5.64336 45.6011 5.85907C45.6011 5.96511 45.6896 6.04198 45.8118 6.04198C45.9544 6.04198 46.2149 6.05814 46.3354 6.08889C46.7827 6.18568 46.9211 6.37598 46.9535 6.9376C46.9851 7.45529 46.9851 7.9118 46.9851 10.4449V13.3071C46.9851 14.8312 46.9851 16.1477 46.9064 16.824C46.8381 17.3299 46.7584 17.596 46.5096 17.6468C46.3358 17.6864 46.1642 17.7097 46.0503 17.7097C46.0364 17.7097 46.0236 17.7115 46.0112 17.7129C45.9985 17.7111 45.9854 17.7097 45.9721 17.7097C45.8786 17.7097 45.6602 17.7097 45.3648 17.6619C44.9438 17.5933 44.2896 17.3999 43.4711 16.5173C42.6639 15.6353 41.724 14.4028 40.6359 12.9752L40.2136 12.4219C41.5068 11.1854 42.1096 9.98698 42.1096 8.65603C42.1096 7.51334 41.3975 6.68471 40.9766 6.37488C40.0971 5.73027 38.9865 5.64336 38.0161 5.64336C37.7056 5.64336 37.1088 5.66265 36.6731 5.67693C36.4102 5.68556 36.2025 5.69199 36.1385 5.69199C36.1189 5.69199 36.0426 5.68917 35.9281 5.68462C35.5875 5.67128 34.8791 5.64336 34.3404 5.64336C34.248 5.64336 34.0023 5.64336 34.0023 5.85907C34.0023 5.96511 34.091 6.04198 34.2132 6.04198C34.3559 6.04198 34.6161 6.05814 34.7366 6.08889C35.1839 6.18568 35.3227 6.37598 35.3549 6.9376C35.3865 7.45529 35.3865 7.9118 35.3865 10.4449V13.3071C35.3865 14.8312 35.3865 16.1477 35.3079 16.8238C35.2395 17.3299 35.1595 17.596 34.9111 17.6468C34.7374 17.6864 34.5656 17.7097 34.4519 17.7097C34.4101 17.7097 34.3759 17.718 34.347 17.7309C34.3111 17.7174 34.2672 17.7097 34.2135 17.7097C34.0602 17.7097 33.8296 17.6936 33.6 17.6153C33.2538 17.5144 32.8271 17.2272 32.2862 15.8609C31.5936 14.0968 30.1266 10.181 29.2501 7.84152C28.9003 6.90732 28.6475 6.23259 28.5792 6.05595C28.3913 5.56006 28.3124 5.41573 28.1511 5.41573C27.991 5.41573 27.9159 5.56288 27.7225 6.10599L24.1106 16.2053C23.8054 17.0717 23.4998 17.5903 22.8422 17.6779C22.7134 17.6944 22.4942 17.7097 22.3912 17.7097C22.2555 17.7097 22.1642 17.7833 22.1642 17.893C22.1642 18.1085 22.4249 18.1085 22.5503 18.1085C23.0559 18.1085 23.6154 18.0864 23.9856 18.0718C24.1614 18.0649 24.2917 18.0594 24.3483 18.0594C24.4168 18.0594 24.572 18.0676 24.7516 18.077C25.0223 18.0911 25.3596 18.1085 25.5895 18.1085C25.8557 18.1085 25.9116 17.9913 25.9116 17.893C25.9116 17.8246 25.8801 17.7097 25.6689 17.7097H25.5099C25.3083 17.7097 24.9887 17.6049 24.9887 17.3238C24.9887 17.0388 25.0661 16.6619 25.207 16.2616L26.1602 13.3874C26.1879 13.3169 26.2158 13.3109 26.2419 13.3109H29.6629C29.7005 13.3109 29.7082 13.3143 29.7278 13.3534L31.2075 17.3538C31.2473 17.462 31.2525 17.5574 31.2223 17.6219C31.2023 17.6647 31.1747 17.6779 31.1701 17.6799C31.018 17.7185 30.9953 17.8197 30.9953 17.8765C30.9953 18.0473 31.1876 18.0572 31.4789 18.072L31.5538 18.0759C32.2627 18.0969 33.1507 18.1085 34.0545 18.1085C34.1854 18.1085 34.2744 18.0898 34.3355 18.0618C34.4152 18.1073 34.524 18.1085 34.5791 18.1085C34.9848 18.1085 35.7537 18.074 36.0065 18.0627C36.0467 18.0608 36.0714 18.0597 36.0748 18.0594C36.0929 18.0594 36.1599 18.0622 36.2627 18.0662C36.6182 18.08 37.3581 18.1085 38.0319 18.1085C38.3263 18.1085 38.3702 17.9734 38.3702 17.893C38.3702 17.8017 38.305 17.7097 38.1593 17.7097C38.0232 17.7097 37.681 17.6787 37.4542 17.6456C37.0554 17.5911 36.9565 17.3273 36.9057 16.8256C36.8268 16.1477 36.8268 14.8312 36.8268 13.3071V12.9165C36.8268 12.8845 36.8336 12.8756 36.8336 12.8756C36.8336 12.8756 36.8411 12.872 36.8532 12.872L38.8117 12.9044C38.8778 12.9044 38.9053 12.9215 38.9523 12.9687C39.0861 13.1466 39.2998 13.4477 39.5469 13.7966C39.8826 14.2696 40.3003 14.8586 40.6864 15.3752L40.8884 15.6474C41.6864 16.7239 42.2134 17.4349 42.8614 17.7893C43.3006 18.0309 43.7238 18.1085 44.6035 18.1085H45.7332C45.819 18.1085 45.9176 18.1073 46.0026 18.0894C46.0681 18.1073 46.1374 18.1085 46.1777 18.1085C46.2907 18.1085 46.4307 18.1013 46.5791 18.0938C46.7528 18.085 46.9323 18.0759 47.1046 18.0757C47.4126 18.0608 47.6667 18.0594 47.7371 18.0594C47.9603 18.0594 48.3072 18.0732 48.976 18.1085L49.3263 18.1181C49.8985 18.1347 50.6821 18.1573 51.6673 18.1573C52.2911 18.1573 52.4791 18.1573 52.6079 17.6686C52.6864 17.3329 52.8168 16.2205 52.8168 16.0713C52.8168 15.9562 52.8168 15.7422 52.638 15.7422Z" fill="white"/>
<path fill-rule="evenodd" clip-rule="evenodd" d="M69.5832 17.7718C69.4302 17.7718 69.0241 17.7718 68.5768 17.6344C67.9322 17.427 67.8345 16.5571 67.7759 16.0377L66.712 6.38595C66.685 6.13376 66.6418 5.88764 66.4383 5.88764C66.2592 5.88764 66.1745 6.07568 66.1245 6.18669L61.5292 15.9021L56.7464 6.17183C56.668 6.00138 56.5846 5.88764 56.4322 5.88764C56.2912 5.88764 56.1948 6.02155 56.1744 6.24416L55.0308 16.494L55.025 16.5498C54.9657 17.1134 54.9099 17.6456 54.4624 17.7263C54.2319 17.7718 54.1253 17.7718 54.0021 17.7718C53.8818 17.7718 53.76 17.8272 53.76 17.933C53.76 18.0819 53.8787 18.1573 54.1132 18.1573C54.387 18.1573 54.7945 18.1382 55.0919 18.1242C55.2625 18.1164 55.3972 18.1098 55.4476 18.1098C55.4874 18.1098 55.5904 18.1148 55.7307 18.1212C56.0456 18.1355 56.5213 18.1573 56.9244 18.1573C57.0351 18.1573 57.2939 18.1573 57.2939 17.933C57.2939 17.8428 57.2016 17.7718 57.0835 17.7718C56.9885 17.7718 56.7584 17.7557 56.4962 17.6949C56.2958 17.6553 56.1505 17.4843 56.1505 17.2884C56.1505 17.0193 56.1505 16.7411 56.1659 16.4939L56.7836 9.40465C57.1731 10.2713 58.6647 13.4354 58.8035 13.7101L58.8803 13.8625C59.8206 15.7303 60.4203 16.9067 60.6624 17.3586L60.6941 17.4182C60.9989 17.9897 61.0712 18.1258 61.229 18.1258C61.407 18.1258 61.4667 18.0011 61.7175 17.4763L65.6292 9.26074L66.3714 17.156C66.4005 17.4176 66.3816 17.5897 66.358 17.6356C66.2506 17.6616 66.1964 17.7247 66.1964 17.8231C66.1964 18.0035 66.4219 18.0372 66.7173 18.0627C67.3253 18.1114 69.0452 18.1573 69.3768 18.1573C69.7532 18.1573 69.7937 18.0005 69.7937 17.933C69.7937 17.8596 69.7572 17.7718 69.5832 17.7718Z" fill="white"/>
<path fill-rule="evenodd" clip-rule="evenodd" d="M81.2973 11.9631C81.2973 17.1181 77.6967 17.3793 76.9748 17.3793C74.0163 17.3793 71.9499 14.8882 71.9499 11.3215C71.9499 8.11894 73.704 6.12955 76.5277 6.12955C78.8248 6.12955 81.2973 7.9551 81.2973 11.9631ZM76.6394 5.41573C74.11 5.41573 72.5994 6.60744 71.7774 7.60732C70.8307 8.75896 70.2653 10.3153 70.2653 11.7705C70.2653 14.8466 72.23 18.1573 76.5439 18.1573C78.3882 18.1573 80.0536 17.4616 81.233 16.1982C82.3711 14.9791 82.9979 13.3154 82.9979 11.5138C82.9979 7.86646 80.4425 5.41573 76.6394 5.41573Z" fill="white"/>
<path fill-rule="evenodd" clip-rule="evenodd" d="M96.2968 5.6422C95.8564 5.6422 95.4688 5.66358 95.2121 5.67778C95.0808 5.68496 94.9771 5.69058 94.9186 5.69058C94.8603 5.69058 94.737 5.68543 94.5721 5.67825C94.2338 5.66405 93.7229 5.6422 93.2326 5.6422C93.0795 5.6422 92.8232 5.6422 92.8232 5.84042C92.8232 6.0043 92.9402 6.03879 93.0382 6.03879C93.1554 6.03879 93.5227 6.053 93.8112 6.11683C94.2515 6.23046 94.3631 6.51639 94.3795 7.57351L94.5533 15.5733C94.2759 15.2784 93.8264 14.7863 93.2827 14.1904C92.5603 13.3994 91.6613 12.4146 90.8148 11.5098C88.2959 8.81651 85.8945 6.22593 85.6577 5.9581C85.6163 5.91705 85.5674 5.86274 85.5154 5.8053C85.2967 5.56291 85.1548 5.41573 85.0299 5.41573C84.8044 5.41573 84.7665 5.69152 84.7665 6.30959L84.7503 15.5805C84.7503 17.0535 84.663 17.459 84.3222 17.5542C84.1166 17.6229 83.8501 17.6471 83.6843 17.6471C83.5258 17.6471 83.4695 17.7453 83.4695 17.8294C83.4695 18.0438 83.6937 18.0438 83.814 18.0438C84.3204 18.0438 84.8087 18.0203 85.1005 18.0061C85.2314 18 85.3262 17.995 85.3706 17.995C85.4113 17.995 85.492 17.9992 85.6074 18.0047C85.9133 18.0193 86.4253 18.0438 87.089 18.0438C87.2017 18.0438 87.466 18.0438 87.466 17.8294C87.466 17.7453 87.4094 17.6471 87.251 17.6471C87.207 17.6471 86.8111 17.6444 86.4645 17.5534C86.1123 17.4495 85.9272 17.143 85.8936 15.756L85.689 8.23887C86.3718 9.00224 88.0515 10.866 89.7659 12.71C91.4979 14.5686 93.8281 16.9415 93.9992 17.0968C94.9012 17.9969 95.0751 18.1573 95.2429 18.1573C95.4569 18.1573 95.4741 17.9706 95.4741 16.9235L95.5063 7.44225C95.5063 6.46332 95.5726 6.1841 96.0417 6.08484C96.226 6.03879 96.3325 6.03879 96.41 6.03879C96.592 6.03879 96.6737 5.93922 96.6737 5.84042C96.6737 5.6422 96.4283 5.6422 96.2968 5.6422Z" fill="white"/>
<path fill-rule="evenodd" clip-rule="evenodd" d="M107.355 5.99774C107.316 5.99774 107.269 6.00759 107.198 6.02276C107.124 6.03868 107.022 6.06006 106.888 6.07781C106.609 6.12891 106.229 6.15469 105.761 6.15469H99.7248C99.5279 6.15469 98.9108 6.12209 98.4596 6.07659C98.1951 6.05733 98.0415 5.99076 97.9294 5.94223C97.8591 5.91175 97.8035 5.88764 97.7453 5.88764C97.633 5.88764 97.5772 6.02594 97.5113 6.22157L97.5021 6.24902C97.483 6.32363 97.1453 7.72925 97.1453 7.9038C97.1453 8.11701 97.283 8.12763 97.3105 8.12763C97.4505 8.12763 97.5106 8.02147 97.5495 7.92063C97.5973 7.81084 97.6426 7.70741 97.8158 7.44658C98.0519 7.10052 98.4046 6.99573 99.388 6.98026L101.684 6.95008V13.516C101.684 14.9892 101.684 16.2619 101.605 16.9156C101.536 17.4047 101.455 17.6619 101.204 17.711C101.028 17.7492 100.854 17.7718 100.739 17.7718C100.592 17.7718 100.526 17.8607 100.526 17.9489C100.526 18.1573 100.774 18.1573 100.868 18.1573C101.213 18.1573 101.818 18.1338 102.179 18.1195C102.322 18.1139 102.422 18.1098 102.445 18.1098C102.464 18.1098 102.531 18.1126 102.636 18.1164C102.995 18.1297 103.744 18.1573 104.425 18.1573C104.723 18.1573 104.767 18.0267 104.767 17.9489C104.767 17.8607 104.701 17.7718 104.554 17.7718C104.416 17.7718 104.07 17.7418 103.841 17.7098C103.437 17.6572 103.337 17.4021 103.286 16.9171C103.206 16.2619 103.206 14.9892 103.206 13.516V6.95039L105.148 6.98026C106.752 7.01302 107.007 7.3982 107.045 7.77004L107.061 7.9411C107.072 8.09442 107.086 8.28489 107.275 8.28489C107.321 8.28489 107.472 8.26426 107.472 7.99812C107.472 7.93443 107.478 7.74199 107.487 7.49829C107.501 7.10401 107.52 6.56429 107.52 6.26888C107.52 6.1741 107.52 5.99774 107.355 5.99774Z" fill="white"/>
<path fill-rule="evenodd" clip-rule="evenodd" d="M26.6572 33.7873C26.4953 33.7873 26.0653 33.7873 25.5915 33.6393C24.9093 33.416 24.8056 32.4795 24.7438 31.92L23.6172 21.5256C23.5888 21.2541 23.5431 20.9888 23.3275 20.9888C23.1373 20.9888 23.0479 21.1914 22.9951 21.311L18.1296 31.774L13.0654 21.2951C12.9825 21.1112 12.8942 20.9888 12.7327 20.9888C12.5835 20.9888 12.4816 21.1329 12.46 21.3728L11.2493 32.4113L11.2426 32.4737C11.1797 33.0794 11.1204 33.6518 10.6469 33.7387C10.4032 33.7873 10.2904 33.7873 10.1597 33.7873C10.0322 33.7873 9.90316 33.8471 9.90316 33.9613C9.90316 34.1213 10.0291 34.2022 10.2773 34.2022C10.5674 34.2022 10.9989 34.1818 11.3141 34.167C11.4944 34.1584 11.6368 34.1517 11.69 34.1517C11.7323 34.1517 11.8412 34.1565 11.9901 34.1636C12.3234 34.1792 12.8272 34.2022 13.2541 34.2022C13.3709 34.2022 13.645 34.2022 13.645 33.9613C13.645 33.8624 13.5493 33.7873 13.4222 33.7873C13.3218 33.7873 13.0783 33.77 12.8003 33.7045C12.5883 33.6618 12.4342 33.4779 12.4342 33.267C12.4342 32.977 12.4342 32.6772 12.4507 32.4113L13.1046 24.7762C13.5158 25.7065 15.0955 29.1144 15.2434 29.413L15.2981 29.5235C16.551 32.0555 17.0306 32.9981 17.212 33.3423L17.2479 33.4111C17.5688 34.0232 17.6451 34.1686 17.8113 34.1686C18.0002 34.1686 18.0633 34.0341 18.3287 33.4696L22.4706 24.6219L23.2565 33.1244C23.2875 33.4054 23.2675 33.5908 23.2425 33.6409C23.1287 33.6685 23.0709 33.7365 23.0709 33.8422C23.0709 34.0366 23.3098 34.0731 23.6231 34.1005C24.2664 34.153 26.0875 34.2022 26.4386 34.2022C26.8371 34.2022 26.88 34.0338 26.88 33.9613C26.88 33.8819 26.8414 33.7873 26.6572 33.7873Z" fill="white"/>
<path fill-rule="evenodd" clip-rule="evenodd" d="M35.6293 31.5628C35.4349 31.5628 35.4015 31.7394 35.3816 31.8451C35.3467 32.0458 35.1869 32.5703 34.9393 32.8202C34.4201 33.3314 33.6002 33.402 32.7916 33.402C29.9659 33.402 28.2775 31.1641 28.2775 29.0003C28.2775 27.9586 28.4103 26.7711 29.3963 25.8618C30.0223 25.2777 30.9607 24.9935 32.2652 24.9935C33.4122 24.9935 34.3597 25.344 34.7549 25.6699C35.0521 25.9112 35.2515 26.3817 35.2515 26.8401C35.2515 26.9805 35.2515 27.2158 35.475 27.2158C35.6857 27.2158 35.7018 26.9855 35.7114 26.8478C35.717 26.7673 35.7201 26.5999 35.7239 26.4065C35.7288 26.1411 35.7351 25.8111 35.7499 25.5751C35.7652 25.3088 35.7854 25.1499 35.7988 25.044C35.8078 24.974 35.8143 24.9235 35.8143 24.8771C35.8143 24.7263 35.7203 24.6416 35.534 24.6255C35.1407 24.6017 34.7397 24.5307 34.2757 24.4485L34.2389 24.4421C33.4724 24.3065 32.666 24.2921 32.355 24.2921C30.6108 24.2921 29.3018 24.7351 28.3533 25.6467C27.2669 26.6915 26.88 28.1151 26.88 29.099C26.88 30.6691 27.4162 31.9277 28.4737 32.8395C29.55 33.7693 30.922 34.2022 32.7916 34.2022C33.5634 34.2022 34.5885 34.1252 35.1519 33.9088C35.4165 33.7957 35.4652 33.7432 35.5527 33.4772C35.684 33.0477 35.84 31.9594 35.84 31.8643C35.84 31.5774 35.6644 31.5628 35.6293 31.5628Z" fill="white"/>
<path fill-rule="evenodd" clip-rule="evenodd" d="M48.7573 33.8099C48.6344 33.8099 48.1976 33.7731 47.8152 33.608C47.0819 33.2972 46.8157 33.0454 45.5364 31.835L45.4989 31.7994C44.8951 31.2294 41.8264 28.0035 41.2337 27.346C41.7179 26.8007 44.2589 24.2712 44.6359 23.9023C44.7384 23.8027 44.8332 23.709 44.9226 23.6207C45.4518 23.098 45.7714 22.7825 46.3094 22.5416C46.6006 22.408 46.9248 22.3251 47.1551 22.3251C47.2206 22.3251 47.3947 22.3251 47.3947 22.1288C47.3947 21.9326 47.1716 21.9326 47.0766 21.9326C46.8037 21.9326 46.2165 21.9559 45.8655 21.9698C45.7072 21.976 45.5926 21.9808 45.5685 21.9808C45.3738 21.9808 45.1493 21.9676 44.9322 21.9551C44.732 21.9435 44.5427 21.9326 44.3904 21.9326C44.139 21.9326 44.1195 22.0827 44.1195 22.1288C44.1195 22.2561 44.2402 22.3055 44.3142 22.3356C44.3888 22.3642 44.465 22.417 44.465 22.593C44.465 22.8179 44.078 23.2255 43.704 23.6197L43.6385 23.6888C43.3377 24.0208 42.3759 25.0268 41.5271 25.9144C40.8608 26.6114 40.2728 27.2263 40.0431 27.4743V26.659C40.0431 24.1655 40.0431 23.7163 40.0743 23.2061C40.106 22.6418 40.231 22.4389 40.5903 22.3713C40.772 22.3404 40.8635 22.3251 40.9659 22.3251C41.0866 22.3251 41.1742 22.2493 41.1742 22.1451C41.1742 21.9326 40.9315 21.9326 40.8402 21.9326C40.534 21.9326 40.0512 21.9525 39.6989 21.9669C39.5122 21.9746 39.3649 21.9808 39.3166 21.9808C39.2916 21.9808 39.2081 21.9772 39.0855 21.9724C38.7438 21.9584 38.1079 21.9326 37.5886 21.9326C37.4973 21.9326 37.2547 21.9326 37.2547 22.1451C37.2547 22.2493 37.3422 22.3251 37.4626 22.3251C37.5996 22.3251 37.8616 22.3412 37.9797 22.3713C38.4211 22.4667 38.5581 22.654 38.5901 23.2065C38.6213 23.7163 38.6213 24.1655 38.6213 26.659V29.4758C38.6213 30.9766 38.6213 32.2726 38.5436 32.9382C38.4761 33.4362 38.3972 33.6979 38.152 33.7476C38.0691 33.7665 37.8588 33.8099 37.6984 33.8099C37.5548 33.8099 37.4905 33.9004 37.4905 33.9899C37.4905 34.2022 37.7328 34.2022 37.8241 34.2022C38.1365 34.2022 38.6456 34.1811 38.9823 34.1672C39.1573 34.1599 39.2899 34.1542 39.3322 34.1542C39.368 34.1542 39.4681 34.1582 39.6106 34.1639C39.9765 34.1782 40.5889 34.2022 41.1387 34.2022C41.4292 34.2022 41.4725 34.0693 41.4725 33.9899C41.4725 33.9004 41.4081 33.8099 41.2643 33.8099C41.1534 33.8099 40.9568 33.7893 40.6626 33.7466C40.2686 33.6931 40.1711 33.4334 40.121 32.9397C40.0431 32.2726 40.0431 30.9766 40.0431 29.4758V28.0449C40.9103 29.1043 44.0848 32.5945 44.7788 33.1755L44.8873 33.2631C45.5042 33.7622 45.9119 34.0918 46.7235 34.17C47.0727 34.2022 47.3679 34.2022 47.8149 34.2022H48.6161C48.7551 34.2022 49.0442 34.2022 49.0442 33.9899C49.0442 33.903 48.9689 33.8099 48.7573 33.8099Z" fill="white"/>
<path fill-rule="evenodd" clip-rule="evenodd" d="M55.942 31.859C55.7759 31.859 55.7444 32.0353 55.7211 32.1647C55.6158 32.7884 55.4388 33.0795 55.0681 33.2383C54.6776 33.4054 54.0046 33.4054 53.6026 33.4054C52.0717 33.4054 51.9181 33.1911 51.8752 32.1906C51.8641 31.9538 51.8689 30.9346 51.8725 30.1906C51.874 29.898 51.8752 29.6462 51.8752 29.4953V28.1068C51.8752 28.0803 51.8782 28.0792 51.9025 28.0792C52.1643 28.0792 53.7052 28.111 54.1245 28.1579C54.6706 28.2144 54.8052 28.4386 54.8654 28.6524C54.9243 28.8451 54.9243 28.9926 54.9243 29.1484C54.9243 29.2852 54.9995 29.3735 55.1155 29.3735C55.3069 29.3735 55.3069 29.1246 55.3069 28.9908C55.3069 28.8891 55.3368 28.312 55.3689 27.9882C55.3978 27.6665 55.4385 27.4432 55.4655 27.2956C55.4826 27.202 55.4939 27.1399 55.4939 27.0971C55.4939 26.9079 55.3821 26.8878 55.3341 26.8878C55.2396 26.8878 55.1736 26.9644 55.064 27.0913L55.0391 27.1203C54.9259 27.2475 54.7462 27.2813 54.3599 27.3141C54.0977 27.337 52.9106 27.3453 51.8868 27.3453C51.8842 27.3456 51.8808 27.3453 51.8808 27.3453C51.8784 27.3361 51.8752 27.3156 51.8752 27.2707V22.9148C51.8752 22.852 51.8865 22.8375 51.8868 22.8399C52.0723 22.8399 53.7565 22.8562 54.0147 22.8867C54.8234 22.9777 54.9607 23.1537 55.0556 23.3732C55.1245 23.5396 55.1429 23.7884 55.1429 23.9091C55.1429 24.1598 55.2724 24.1971 55.3496 24.1971C55.4146 24.1971 55.5005 24.1554 55.5394 23.9543C55.5603 23.8286 55.5804 23.4977 55.5964 23.2321C55.6051 23.0873 55.6128 22.9632 55.6183 22.9078C55.6454 22.6511 55.6828 22.4843 55.7097 22.3622C55.7292 22.2748 55.7434 22.2118 55.7434 22.1574C55.7434 21.9617 55.6528 21.9326 55.5989 21.9326C55.5354 21.9326 55.4844 21.9586 55.4393 21.9818C55.413 21.9953 55.3877 22.0082 55.3609 22.0137C55.2344 22.0458 54.9772 22.0758 54.7064 22.0903C54.3534 22.1057 51.2693 22.106 51.1422 22.106L50.5025 22.0745C50.1575 22.0585 49.7421 22.0585 49.3758 22.0585C49.2851 22.0585 49.0442 22.0585 49.0442 22.268C49.0442 22.3707 49.1312 22.4455 49.251 22.4455C49.387 22.4455 49.6468 22.4613 49.7642 22.491C50.2026 22.5851 50.3385 22.7697 50.3703 23.3145C50.4011 23.817 50.4011 24.2599 50.4011 26.7182V29.4953C50.4011 30.9749 50.4011 32.2527 50.3239 32.9088C50.2571 33.3998 50.1789 33.6578 49.935 33.7069C49.7639 33.7452 49.5957 33.7682 49.4848 33.7682C49.3421 33.7682 49.2782 33.8574 49.2782 33.9457C49.2782 34.1551 49.5189 34.1551 49.6095 34.1551C49.7204 34.1551 49.8576 34.1482 50.003 34.141C50.1732 34.1324 50.3492 34.1235 50.5182 34.1235C50.8203 34.1089 51.0692 34.1077 51.1381 34.1077C51.3563 34.1077 51.6962 34.1208 52.3528 34.1551L52.6989 34.1645C53.259 34.1806 54.0266 34.2022 54.9906 34.2022C55.6021 34.2022 55.7867 34.2022 55.9128 33.7283C55.9895 33.4019 56.1179 32.3232 56.1179 32.1785C56.1179 32.0668 56.1179 31.859 55.942 31.859Z" fill="white"/>
<path fill-rule="evenodd" clip-rule="evenodd" d="M70.8312 21.687C70.391 21.687 70.0032 21.7085 69.7466 21.7226C69.6153 21.7299 69.5115 21.7357 69.453 21.7357C69.3947 21.7357 69.2715 21.7302 69.1065 21.7232C68.7684 21.7088 68.2573 21.687 67.7674 21.687C67.6143 21.687 67.358 21.687 67.358 21.8854C67.358 22.0493 67.4749 22.0838 67.573 22.0838C67.6818 22.0838 68.0581 22.0981 68.3458 22.1618C68.7865 22.2754 68.898 22.5612 68.9143 23.6186L69.0877 31.6187C68.8092 31.3226 68.3576 30.8278 67.8107 30.2288C67.0901 29.4396 66.1935 28.4574 65.3495 27.5553C62.8358 24.8672 60.4328 22.275 60.1922 22.0032C60.1507 21.9619 60.1018 21.9075 60.0499 21.8498C59.8311 21.6077 59.6895 21.4607 59.5646 21.4607C59.3393 21.4607 59.3011 21.7363 59.3011 22.3544L59.285 31.6257C59.285 33.099 59.1977 33.5045 58.8568 33.5999C58.6505 33.6686 58.3844 33.6926 58.2191 33.6926C58.0607 33.6926 58.0042 33.7908 58.0042 33.8746C58.0042 34.0892 58.2285 34.0892 58.349 34.0892C58.8548 34.0892 59.343 34.0657 59.6347 34.0518C59.7659 34.0454 59.8608 34.0407 59.9052 34.0407C59.9457 34.0407 60.0264 34.0448 60.1417 34.0502C60.4477 34.0649 60.96 34.0892 61.6234 34.0892C61.7363 34.0892 62.0006 34.0892 62.0006 33.8746C62.0006 33.7908 61.9443 33.6926 61.7856 33.6926C61.7416 33.6926 61.3461 33.6901 60.9993 33.5993C60.6468 33.495 60.4616 33.1883 60.4278 31.8013L60.2234 24.2838C60.9093 25.0506 62.595 26.9205 64.3008 28.7552C66.0318 30.6135 68.3627 32.9868 68.5338 33.1423C69.4355 34.0423 69.6092 34.2022 69.7774 34.2022C69.9828 34.2022 70.0088 34.064 70.0088 32.9692L70.0412 23.4871C70.0412 22.5083 70.1073 22.2291 70.5762 22.1297C70.7605 22.0838 70.8669 22.0838 70.9446 22.0838C71.1269 22.0838 71.2084 21.984 71.2084 21.8854C71.2084 21.687 70.9631 21.687 70.8312 21.687Z" fill="white"/>
<path fill-rule="evenodd" clip-rule="evenodd" d="M84.9788 21.687C84.5387 21.687 84.1507 21.7085 83.8942 21.7226C83.7629 21.7299 83.6592 21.7357 83.6007 21.7357C83.5424 21.7357 83.419 21.7302 83.254 21.7232C82.9159 21.7088 82.4047 21.687 81.9147 21.687C81.7615 21.687 81.5052 21.687 81.5052 21.8854C81.5052 22.0493 81.6221 22.0838 81.72 22.0838C81.8292 22.0838 82.2058 22.0981 82.4935 22.1618C82.934 22.2754 83.0457 22.5612 83.0617 23.6186L83.2354 31.6187C82.9569 31.3226 82.5049 30.8275 81.9581 30.2285C81.2376 29.4393 80.3407 28.4571 79.4971 27.5553C76.9865 24.8707 74.5827 22.2776 74.3399 22.0032C74.2984 21.9622 74.2496 21.9079 74.1979 21.8503C73.9791 21.6077 73.8371 21.4607 73.7121 21.4607C73.4866 21.4607 73.4485 21.7363 73.4485 22.3544L73.432 31.6257C73.432 33.099 73.3451 33.5045 73.0043 33.5999C72.7982 33.6686 72.5321 33.6926 72.3664 33.6926C72.2079 33.6926 72.1516 33.7908 72.1516 33.8746C72.1516 34.0892 72.376 34.0892 72.4966 34.0892C73.0023 34.0892 73.4907 34.0657 73.7825 34.0518C73.9136 34.0454 74.0083 34.0407 74.0527 34.0407C74.0934 34.0407 74.1741 34.0448 74.2895 34.0502C74.5955 34.0649 75.1075 34.0892 75.7711 34.0892C75.8838 34.0892 76.1483 34.0892 76.1483 33.8746C76.1483 33.7908 76.0918 33.6926 75.9331 33.6926C75.889 33.6926 75.4936 33.6901 75.1468 33.5993C74.7943 33.495 74.6093 33.1886 74.5755 31.8013L74.371 24.2838C75.0567 25.0506 76.7425 26.9205 78.4485 28.7552C80.1753 30.6087 82.5085 32.9854 82.6812 33.1423C83.583 34.0423 83.7571 34.2022 83.9249 34.2022C84.1388 34.2022 84.1562 34.0157 84.1562 32.9692L84.1885 23.4871C84.1885 22.5083 84.2547 22.2291 84.7238 22.1297C84.9079 22.0838 85.0144 22.0838 85.0921 22.0838C85.2742 22.0838 85.3558 21.984 85.3558 21.8854C85.3558 21.687 85.1104 21.687 84.9788 21.687Z" fill="white"/>
<path fill-rule="evenodd" clip-rule="evenodd" d="M93.085 28.8337H90.0999L90.1006 28.832L91.4974 24.5878C91.5132 24.5403 91.527 24.5102 91.5372 24.4915C91.5475 24.5103 91.5614 24.5408 91.5775 24.5892L93.0832 28.8267C93.0838 28.8293 93.0844 28.8317 93.085 28.8337ZM97.8462 33.8169C97.6934 33.8169 97.4637 33.8014 97.2341 33.7259C96.8888 33.6283 96.4631 33.3501 95.9239 32.0294C95.2339 30.3271 93.7728 26.5474 92.8999 24.2889C92.5484 23.3796 92.2944 22.7227 92.2262 22.551C92.0387 22.0719 91.96 21.9326 91.7995 21.9326C91.6395 21.9326 91.5645 22.0747 91.3714 22.5998L87.7685 32.3623C87.4644 33.1998 87.1599 33.7013 86.5033 33.7861C86.375 33.802 86.1566 33.8169 86.0537 33.8169C85.9183 33.8169 85.8274 33.888 85.8274 33.9937C85.8274 34.2022 86.0873 34.2022 86.2123 34.2022C86.7165 34.2022 87.2747 34.1809 87.6442 34.1669C87.8192 34.1601 87.9492 34.1551 88.0057 34.1551C88.0741 34.1551 88.2289 34.1628 88.4082 34.1718C88.6785 34.1854 89.0145 34.2022 89.2438 34.2022C89.5094 34.2022 89.5653 34.0888 89.5653 33.9937C89.5653 33.9279 89.5337 33.8169 89.3231 33.8169H89.1646C88.9636 33.8169 88.6448 33.7159 88.6448 33.444C88.6448 33.168 88.7219 32.8036 88.8625 32.4167L89.8132 29.6388C89.8407 29.5707 89.8685 29.5651 89.8945 29.5651H93.3069C93.3445 29.5651 93.3523 29.568 93.3716 29.6059L94.8476 33.473C94.8873 33.5776 94.8925 33.6693 94.8625 33.7318C94.8487 33.7606 94.827 33.7822 94.8104 33.7878C94.6587 33.8254 94.636 33.9235 94.636 33.9783C94.636 34.1433 94.828 34.1528 95.1185 34.1669L95.1934 34.1709C95.9003 34.191 96.786 34.2022 97.6876 34.2022C97.9535 34.2022 98.0884 34.132 98.0884 33.9937C98.0884 33.8764 98.007 33.8169 97.8462 33.8169Z" fill="white"/>
<path fill-rule="evenodd" clip-rule="evenodd" d="M20.6262 44.1465C20.5103 44.1465 20.4902 44.2571 20.4769 44.331C20.4526 44.4775 20.3402 44.8609 20.1663 45.0437C19.8031 45.4171 19.2327 45.4686 18.6707 45.4686C16.71 45.4686 15.5384 43.849 15.5384 42.2834C15.5384 41.5301 15.6307 40.6712 16.3161 40.0125C16.751 39.5883 17.4025 39.3823 18.3081 39.3823C19.1043 39.3823 19.7627 39.6366 20.0378 39.8729C20.2471 40.0508 20.3876 40.3956 20.3876 40.7305C20.3876 40.8296 20.3876 40.9788 20.5199 40.9788C20.6446 40.9788 20.6545 40.832 20.6612 40.7346C20.6647 40.679 20.667 40.5618 20.6696 40.4229C20.673 40.2306 20.6773 39.9909 20.6875 39.8205C20.6982 39.6279 20.7122 39.5131 20.7213 39.4377C20.7278 39.3853 20.7317 39.35 20.7317 39.3205C20.7317 39.1914 20.6342 39.1678 20.5591 39.1609C20.288 39.1442 20.0124 39.0933 19.6934 39.0342L19.664 39.0292C19.1382 38.9318 18.584 38.9213 18.37 38.9213C17.1743 38.9213 16.2775 39.2376 15.6281 39.8884C14.8841 40.6348 14.6189 41.6514 14.6189 42.3544C14.6189 43.4762 14.9862 44.375 15.71 45.0262C16.4471 45.6905 17.388 46 18.6707 46C19.2003 46 19.9029 45.9451 20.2887 45.7913C20.4645 45.7125 20.4941 45.6792 20.5526 45.4944C20.6426 45.1871 20.7495 44.4092 20.7495 44.341C20.7495 44.1606 20.655 44.1465 20.6262 44.1465Z" fill="white"/>
<path fill-rule="evenodd" clip-rule="evenodd" d="M33.4546 42.5582C33.4546 45.3958 31.4751 45.5396 31.0783 45.5396C29.4505 45.5396 28.3137 44.1678 28.3137 42.2032C28.3137 40.4411 29.2783 39.3466 30.8312 39.3466C32.0947 39.3466 33.4546 40.3516 33.4546 42.5582ZM30.893 38.9213C28.3131 38.9213 27.3516 41.0869 27.3516 42.4518C27.3516 44.1606 28.4433 46 30.8399 46C32.9175 46 34.4253 44.4482 34.4253 42.3098C34.4253 40.283 33.0057 38.9213 30.893 38.9213Z" fill="white"/>
<path fill-rule="evenodd" clip-rule="evenodd" d="M45.159 44.5721C45.0418 44.5721 45.0261 44.7042 45.0213 44.7452C44.9947 44.9226 44.9072 45.136 44.8088 45.2638C44.6251 45.4978 44.292 45.5155 43.8047 45.5155C43.1183 45.5155 42.9242 45.4481 42.8058 45.3235C42.6603 45.1701 42.6326 44.4839 42.6326 43.2712V41.6413C42.6326 40.2148 42.6326 39.9579 42.6498 39.6662C42.6671 39.3487 42.7346 39.2408 42.9381 39.2036C43.0361 39.1864 43.1536 39.177 43.2147 39.177C43.2887 39.177 43.3445 39.1261 43.3445 39.0583C43.3445 38.9213 43.1944 38.9213 43.145 38.9213C42.959 38.9213 42.5894 38.935 42.3683 38.943C42.2813 38.9464 42.2201 38.9489 42.2076 38.9489C42.1971 38.9489 42.1554 38.947 42.0931 38.9446C41.9073 38.9372 41.5208 38.9213 41.2267 38.9213C41.1774 38.9213 41.0274 38.9213 41.0274 39.0583C41.0274 39.1261 41.0832 39.177 41.1572 39.177C41.2323 39.177 41.3754 39.1861 41.4396 39.2033C41.678 39.2565 41.748 39.3561 41.7652 39.6666C41.7823 39.9579 41.7823 40.2148 41.7823 41.6413V43.2527C41.7823 44.1108 41.7823 44.8519 41.7397 45.2323C41.7035 45.5095 41.662 45.6552 41.5349 45.6821C41.4891 45.6927 41.3736 45.7171 41.2874 45.7171C41.1978 45.7171 41.1575 45.7768 41.1575 45.8358C41.1575 45.9728 41.3075 45.9728 41.3568 45.9728C41.4648 45.9728 41.6278 45.9669 41.8517 45.9546C41.9726 45.9546 42.0808 45.95 42.148 45.9474C42.1765 45.9459 42.1973 45.9449 42.2076 45.9449C42.4444 45.9449 42.7001 45.953 43.0916 45.9728L43.3467 45.9799C43.6584 45.9889 44.0465 46 44.534 46C44.9913 46 45.0648 45.9645 45.1392 45.7063C45.2105 45.4329 45.2716 44.8745 45.2716 44.7733C45.2716 44.6981 45.2716 44.5721 45.159 44.5721Z" fill="white"/>
<path fill-rule="evenodd" clip-rule="evenodd" d="M56.4768 44.5721C56.3593 44.5721 56.3438 44.7042 56.339 44.7452C56.3122 44.9229 56.2244 45.1364 56.1263 45.2638C55.9423 45.4978 55.6094 45.5155 55.1225 45.5155C54.436 45.5155 54.242 45.4481 54.1238 45.3235C53.9778 45.1695 53.9502 44.4836 53.9502 43.2712V41.6413C53.9502 40.2148 53.9502 39.9579 53.9677 39.6662C53.985 39.3487 54.0526 39.2408 54.256 39.2036C54.3535 39.1864 54.4713 39.177 54.5323 39.177C54.6065 39.177 54.6623 39.1261 54.6623 39.0583C54.6623 38.9213 54.5119 38.9213 54.4627 38.9213C54.277 38.9213 53.9074 38.935 53.6864 38.943C53.599 38.9464 53.5378 38.9489 53.5255 38.9489C53.5149 38.9489 53.4733 38.947 53.4112 38.9446C53.2254 38.9372 52.8388 38.9213 52.5445 38.9213C52.4953 38.9213 52.3453 38.9213 52.3453 39.0583C52.3453 39.1261 52.4011 39.177 52.4751 39.177C52.5502 39.177 52.6934 39.1861 52.7577 39.2033C52.996 39.2565 53.0659 39.3561 53.0832 39.6666C53.1004 39.9579 53.1004 40.2148 53.1004 41.6413V43.2527C53.1004 44.1108 53.1004 44.8519 53.0575 45.2323C53.0215 45.5095 52.98 45.6552 52.853 45.6821C52.8071 45.6927 52.6911 45.7171 52.6051 45.7171C52.5156 45.7171 52.4755 45.7768 52.4755 45.8358C52.4755 45.9728 52.6257 45.9728 52.6749 45.9728C52.7828 45.9728 52.9458 45.9669 53.1695 45.9546C53.2906 45.9546 53.3989 45.95 53.4658 45.9474C53.4945 45.9459 53.5152 45.9449 53.5255 45.9449C53.7623 45.9449 54.0178 45.953 54.4093 45.9728L54.6641 45.9799C54.9759 45.9889 55.3639 46 55.8515 46C56.3089 46 56.3823 45.9645 56.4571 45.7063C56.5284 45.4323 56.5895 44.8742 56.5895 44.7733C56.5895 44.6981 56.5895 44.5721 56.4768 44.5721Z" fill="white"/>
<path fill-rule="evenodd" clip-rule="evenodd" d="M67.7873 44.6228C67.6749 44.6228 67.6537 44.7361 67.6394 44.8119C67.5774 45.1686 67.478 45.3267 67.2602 45.4166C67.0306 45.5113 66.6321 45.5113 66.3939 45.5113C65.4896 45.5113 65.4057 45.3992 65.3804 44.8282C65.3741 44.6928 65.3768 44.1074 65.3791 43.6801C65.3799 43.5121 65.3807 43.3673 65.3807 43.2808L65.3809 42.4832C65.5373 42.4832 66.4553 42.5013 66.7029 42.5279C67.0174 42.5594 67.0945 42.6775 67.1307 42.8012C67.165 42.9098 67.165 42.9934 67.165 43.0818C67.165 43.1682 67.2172 43.2263 67.2949 43.2263C67.4242 43.2263 67.4242 43.0732 67.4242 42.9909C67.4242 42.9334 67.4422 42.6031 67.4611 42.4168C67.4783 42.2331 67.5026 42.1056 67.5183 42.0211C67.5292 41.9641 67.5358 41.9296 67.5358 41.9033C67.5358 41.7778 67.4508 41.7679 67.4248 41.7679C67.3608 41.7679 67.3171 41.8166 67.2513 41.8908L67.2371 41.9063C67.1737 41.9755 67.069 41.9945 66.8431 42.0128C66.6888 42.0257 65.9899 42.0299 65.3817 42.0302C65.381 42.0241 65.3807 42.0155 65.3807 42.003V39.5011C65.3807 39.488 65.3817 39.4794 65.3828 39.4736C65.536 39.4742 66.4908 39.4833 66.6374 39.5005C67.1474 39.5555 67.1967 39.6653 67.244 39.77C67.2842 39.8644 67.2949 40.0044 67.2949 40.0721C67.2949 40.2298 67.3821 40.2533 67.4341 40.2533C67.4984 40.2533 67.5414 40.2028 67.5628 40.1007C67.575 40.0287 67.5865 39.8487 67.5966 39.6903C67.6021 39.6049 67.6068 39.5314 67.6103 39.4986C67.626 39.3516 67.6482 39.2559 67.6643 39.1862C67.676 39.1354 67.6843 39.0989 67.6843 39.0658C67.6843 38.9355 67.6132 38.9213 67.5825 38.9213C67.5411 38.9213 67.5075 38.938 67.4807 38.9511C67.4656 38.9585 67.4515 38.9655 67.4367 38.9685C67.362 38.9865 67.21 39.0038 67.0499 39.0116C66.8405 39.0208 65.0038 39.0212 64.9288 39.0212L64.5478 39.0031C64.3424 38.9939 64.0946 38.9939 63.8762 38.9939C63.8236 38.9939 63.6632 38.9939 63.6632 39.1294C63.6632 39.1965 63.7229 39.247 63.8021 39.247C63.8823 39.247 64.0355 39.2559 64.1044 39.273C64.3593 39.3256 64.4341 39.4242 64.4526 39.7315C64.4713 40.0198 64.4713 40.2741 64.4713 41.686V43.2808C64.4713 44.1301 64.4713 44.8636 64.4251 45.2402C64.3875 45.5084 64.3419 45.6587 64.2066 45.6854C64.1023 45.7074 64.0057 45.72 63.9414 45.72C63.8452 45.72 63.8024 45.7791 63.8024 45.8375C63.8024 45.973 63.9628 45.973 64.0156 45.973C64.0813 45.973 64.1629 45.9691 64.2507 45.9649C64.3496 45.9602 64.4559 45.955 64.5576 45.9547C64.7371 45.9464 64.8847 45.9455 64.9258 45.9455C65.0721 45.9455 65.32 45.9566 65.6488 45.973L65.8549 45.9785C66.1889 45.9875 66.6462 46 67.2204 46C67.584 46 67.7066 46 67.7849 45.7161C67.8309 45.5269 67.9074 44.9053 67.9074 44.8224C67.9074 44.7574 67.9074 44.6228 67.7873 44.6228Z" fill="white"/>
<path fill-rule="evenodd" clip-rule="evenodd" d="M81.3829 42.4254C81.1965 42.4254 80.8692 42.4389 80.6737 42.447C80.597 42.4499 80.5432 42.4524 80.5308 42.4524C80.5201 42.4524 80.4783 42.4506 80.4159 42.4482C80.2296 42.4407 79.8422 42.4254 79.5477 42.4254C79.4982 42.4254 79.3478 42.4254 79.3478 42.5582C79.3478 42.6237 79.4039 42.6734 79.4782 42.6734C79.5528 42.6734 79.6955 42.6821 79.7574 42.6978C80.061 42.7827 80.1045 42.8418 80.1045 43.552V45.0601C80.1045 45.1832 80.0607 45.2619 79.9609 45.3168C79.7528 45.4393 79.3167 45.495 78.9995 45.495C78.1371 45.495 77.3845 45.1814 76.7626 44.5632C76.4499 44.2534 75.8586 43.3504 75.8586 42.1501C75.8586 41.1944 76.172 40.3704 76.697 39.9453C77.3218 39.4425 77.9427 39.373 78.521 39.373C79.5848 39.373 80.3003 39.7312 80.514 40.0628C80.6597 40.3 80.6841 40.5684 80.688 40.6221C80.6958 40.6969 80.7077 40.8101 80.8092 40.8101C80.9478 40.8101 80.9478 40.6549 80.9478 40.5624C80.9478 39.9199 80.98 39.6131 80.9971 39.4484C81.0042 39.3828 81.0087 39.3379 81.0087 39.3026C81.0087 39.2558 80.988 39.1753 80.8462 39.1609C80.6165 39.1514 80.3188 39.114 80.1516 39.0735C80.1227 39.0672 79.4364 38.9213 78.8083 38.9213C78.1328 38.9213 77.2556 38.9858 76.4619 39.4898C75.5346 40.085 74.981 41.1953 74.981 42.4605C74.981 43.67 75.5496 44.6035 76.0365 45.0358C76.7546 45.6756 77.7313 46 78.9388 46C79.4812 46 80.2579 45.8934 80.8131 45.5927C80.9514 45.5105 80.9567 45.4567 80.9567 45.0601V44.0665C80.9567 43.6966 80.9567 43.4294 80.9738 43.1469C80.9904 42.8436 81.0567 42.7346 81.2448 42.6988L81.2589 42.6965C81.3523 42.6812 81.3992 42.6734 81.4526 42.6734C81.5269 42.6734 81.5832 42.6237 81.5832 42.5582C81.5832 42.4254 81.4323 42.4254 81.3829 42.4254Z" fill="white"/>
<path fill-rule="evenodd" clip-rule="evenodd" d="M92.7803 44.6228C92.6684 44.6228 92.6471 44.7361 92.6329 44.8119C92.5708 45.1686 92.4717 45.3267 92.2537 45.4166C92.0243 45.5113 91.6255 45.5113 91.387 45.5113C90.4835 45.5113 90.3998 45.3992 90.3741 44.8282C90.3679 44.6928 90.3706 44.1074 90.3727 43.6801C90.3736 43.5121 90.3743 43.3673 90.3743 43.2808L90.3752 42.4832C90.5316 42.4832 91.4495 42.5013 91.6959 42.5279C92.0108 42.5594 92.088 42.6775 92.1245 42.8012C92.1588 42.9098 92.1588 42.9934 92.1588 43.0818C92.1588 43.1697 92.2096 43.2263 92.2884 43.2263C92.4178 43.2263 92.4178 43.0732 92.4178 42.9909C92.4178 42.9319 92.4359 42.6004 92.4549 42.4168C92.4721 42.2331 92.4963 42.1056 92.512 42.0211C92.5229 41.9641 92.5294 41.9296 92.5294 41.9033C92.5294 41.7743 92.4369 41.7679 92.4184 41.7679C92.3544 41.7679 92.3099 41.8176 92.2431 41.8925L92.2308 41.9063C92.1672 41.9755 92.0625 41.9945 91.8369 42.0128C91.6847 42.0257 91.006 42.0302 90.403 42.0302C90.3937 42.0302 90.3844 42.0302 90.3752 42.0302C90.3746 42.0241 90.3743 42.0155 90.3743 42.003V39.5011C90.3743 39.488 90.3752 39.479 90.3762 39.4736C90.5282 39.4742 91.4843 39.4833 91.6308 39.5005C92.141 39.5558 92.1905 39.6653 92.2378 39.77C92.2778 39.865 92.2886 40.0048 92.2886 40.0721C92.2886 40.2298 92.3759 40.2533 92.4279 40.2533C92.4725 40.2533 92.531 40.227 92.5562 40.1013C92.5692 40.0265 92.5812 39.8319 92.5912 39.6755C92.5963 39.5966 92.6003 39.5292 92.6034 39.4986C92.6193 39.352 92.6414 39.2565 92.6575 39.1868C92.6694 39.1357 92.6777 39.0989 92.6777 39.0658C92.6777 38.9355 92.6066 38.9213 92.5759 38.9213C92.5348 38.9213 92.5013 38.938 92.4741 38.9511C92.4589 38.9585 92.4448 38.9655 92.4298 38.9685C92.3555 38.9868 92.2035 39.0038 92.0437 39.0116C91.834 39.0208 89.9979 39.0212 89.923 39.0212L89.5417 39.0031C89.3363 38.9939 89.0887 38.9939 88.8704 38.9939C88.8174 38.9939 88.6568 38.9939 88.6568 39.1294C88.6568 39.1965 88.7166 39.247 88.7964 39.247C88.8766 39.247 89.0298 39.2559 89.0985 39.273C89.3532 39.3256 89.428 39.4242 89.4466 39.7315C89.4652 40.0198 89.4652 40.2741 89.4652 41.686V43.2808C89.4652 44.1301 89.4652 44.8636 89.4192 45.2402C89.3805 45.5146 89.3361 45.6587 89.2003 45.6854C89.1514 45.6959 89.0277 45.72 88.9352 45.72C88.8392 45.72 88.7964 45.7791 88.7964 45.8375C88.7964 45.973 88.9571 45.973 89.0099 45.973C89.0751 45.973 89.157 45.9691 89.2445 45.9649C89.3432 45.9602 89.4498 45.955 89.5516 45.9547C89.7311 45.9464 89.8788 45.9455 89.9199 45.9455C90.066 45.9455 90.3138 45.9566 90.6424 45.973L90.8492 45.9785C91.183 45.9875 91.6399 46 92.2141 46C92.5771 46 92.6996 46 92.7782 45.7161C92.8242 45.5276 92.9011 44.9056 92.9011 44.8224C92.9011 44.7574 92.9011 44.6228 92.7803 44.6228Z" fill="white"/>
</svg>
