<svg width="175" height="50" viewBox="0 0 175 50" fill="none" xmlns="http://www.w3.org/2000/svg">
<g clip-path="url(#clip0_41_160)">
<path d="M146.527 32.544C144.912 33.388 144.425 32.7647 144.477 31.0845C142.32 33.5795 137.787 33.6107 135.21 31.7527C131.41 29.0135 131.163 21.6145 132.703 17.5976C135.392 10.5816 144.996 11.4002 146.527 18.6194L144.395 18.9945C142.96 13.1332 135.959 13.2465 134.472 19.1665C133.264 23.9766 134.075 32.1942 140.912 31.0376C142.099 30.8364 144.182 29.33 144.182 28.0659V25.2427H139.884V23.2948H146.527V32.544Z" fill="white"/>
<path d="M128.748 19.9812L126.599 20.4735C128.572 23.2459 126.908 27.5462 123.525 28.1147C122.312 28.3179 120.106 27.7982 119.359 28.0503C118.444 28.3609 118.42 29.666 119.31 30.0705C122.06 30.2952 128.169 29.8595 128.707 33.5658C129.403 38.3779 120.501 38.7413 117.669 37.1588C115.287 35.8283 115.653 32.6924 118.198 31.8562L118.074 31.4538C115.911 30.4046 116.496 28.0561 118.591 27.3782C114.167 23.0779 117.959 16.9821 123.871 18.5158C124.332 18.635 125.316 19.186 125.525 19.1938C126.145 19.2133 127.811 17.8086 128.748 18.0352V19.9812ZM121.475 20.032C120.134 20.1941 118.87 21.0812 118.638 22.4625C117.765 27.6361 126.01 27.9409 125.605 23.0271C125.422 20.7822 123.609 19.7741 121.475 20.032ZM126.337 35.2988C126.9 34.7322 126.974 33.8842 126.497 33.2278C125.668 32.0868 121.465 32.0164 120.139 32.3349C117.521 32.964 116.924 35.6524 120.075 36.1233C121.563 36.346 125.232 36.4066 126.337 35.2968V35.2988Z" fill="white"/>
<path d="M46.8886 13.1684V32.8351L45.3183 32.7452L44.933 31.4713C43.1436 33.2024 40.6873 33.5189 38.4774 32.3583C32.7337 29.3417 35.1235 15.8216 42.8405 18.6624C43.6364 18.9554 44.1586 19.5494 44.935 19.7878V13.1684H46.8886ZM40.789 20.03C37.1124 20.4305 36.7897 25.8972 37.7479 28.6071C38.9957 32.1337 42.729 31.9774 44.8958 29.3925L44.9291 22.228C44.1879 20.8545 42.3379 19.862 40.789 20.03Z" fill="white"/>
<path d="M175.246 13.1684V32.8351L173.671 32.7491L173.29 31.4733C172.027 32.6885 170.697 33.2043 168.917 33.009C160.78 32.1141 162.906 15.3918 171.336 18.721C172.082 19.016 172.588 19.5103 173.292 19.7897V13.1684H175.246ZM169.346 20.0261C165.974 20.3622 165.608 24.4651 165.872 27.091C166.31 31.4655 170.443 32.7647 173.255 29.3886L173.29 22.228C172.633 20.9542 170.763 19.8835 169.346 20.0261Z" fill="white"/>
<path d="M6.83891 36.1467V31.8621C6.49862 31.7781 6.44778 32.0028 6.25221 32.1532C5.53253 32.7022 2.734 35.9572 2.249 35.9592C1.72879 35.7247 -0.0645364 34.0484 0.033246 33.5462L4.30047 29.3319H0V25.8269H9.86625L10.1596 26.118V35.8537L9.86625 36.1467H6.83891Z" fill="white"/>
<path d="M24.031 25.8249V29.33H19.7325L23.9997 33.5443C24.0975 34.0464 22.3022 35.7228 21.784 35.9572C21.299 35.9572 18.5004 32.7022 17.7808 32.1512C17.5832 32.0008 17.5344 31.7761 17.1941 31.8601V36.1448H14.1667L13.8734 35.8517V26.116L14.1667 25.8249H24.033H24.031Z" fill="white"/>
<path d="M6.83891 16.2846V12H10.1596V22.1264H0V18.8167H4.29852C3.5671 17.4921 0.672743 15.6633 0.0860486 14.5301C-0.0606251 14.2488 0.0430243 14.2449 0.183831 14.0397C0.639497 13.3794 1.72684 12.6858 2.24704 12.0039C2.53061 12.0039 5.58925 15.4875 6.25026 15.9935C6.44778 16.144 6.49667 16.3686 6.83695 16.2846H6.83891Z" fill="white"/>
<path d="M17.1921 12V16.2846C17.5324 16.3686 17.5832 16.144 17.7788 15.9935C18.4418 15.4875 21.5004 12.0039 21.784 12.0039C22.3042 12.6858 23.3915 13.3794 23.8472 14.0397C23.988 14.2449 24.0897 14.2488 23.945 14.5301C23.3583 15.6633 20.4639 17.4921 19.7325 18.8148H24.031V22.1245H13.8714V12H17.1921Z" fill="white"/>
<path d="M61.3468 26.0203H52.2628C51.9147 26.2587 52.1161 27.0441 52.1904 27.4583C52.9727 31.9051 57.8638 32.5948 60.2712 28.9881L61.7359 29.8184C59.6043 33.9116 53.3521 34.2437 51.0855 30.1174C48.8189 25.991 50.0685 18.3244 55.8025 18.254C60.2223 18.1993 61.5638 22.3179 61.3487 26.0223L61.3468 26.0203ZM59.1975 24.2678C59.5339 18.4944 52.165 18.7015 52.165 24.2678H59.1975Z" fill="white"/>
<path d="M159.352 31.5983C158.114 32.7706 156.348 33.2024 154.686 32.9796C147.127 31.9656 148.481 15.9447 157.273 18.5237C162.088 19.9362 162.561 28.5583 159.354 31.5983H159.352ZM155.279 20.0261C149.975 20.5556 150.738 33.134 156.794 31.0943C160.608 29.8087 160.332 19.522 155.279 20.0261Z" fill="white"/>
<path d="M110.969 32.8351V22.2222C110.969 21.9858 110.592 20.8838 110.391 20.6572C108.906 18.9984 105.625 20.792 104.524 22.2222V32.8351H102.57V18.6213H104.526V20.3739C107.17 17.4843 112.446 17.3416 112.923 22.0307C113.254 25.2837 112.683 29.0389 112.925 32.3486L112.604 32.8077L110.971 32.8351H110.969Z" fill="white"/>
<path d="M67.071 20.6279C66.3904 21.2511 66.3043 22.523 66.9986 23.2088C68.9151 25.0981 74.7919 24.3498 74.784 28.8435C74.7762 34.1461 66.5195 34.0464 64.0827 30.4007L65.5436 29.1424C66.9693 31.7585 73.3193 32.4111 72.6641 28.4645C72.2867 26.1883 66.1674 26.5771 64.818 23.8203C64.0514 22.2534 64.6186 20.1023 66.0442 19.1176C67.949 17.8027 71.0194 18.2071 72.8577 19.5064C74.3675 20.5751 74.3303 21.1241 72.6054 21.9076C71.4809 20.3661 68.6648 19.1645 67.069 20.6259L67.071 20.6279Z" fill="white"/>
<path d="M84.9867 18.6213H86.9423V21.1534C88.1626 19.5592 89.4064 18.1993 91.63 18.426L91.6359 20.2645C85.4736 21.2414 87.175 28.0014 86.913 32.5186L86.6196 32.8116L84.9867 32.839V18.6213Z" fill="white"/>
<path d="M80.4926 18.6213H78.5389V32.837H80.4926V18.6213Z" fill="white"/>
<path d="M97.098 18.6213H95.1443V32.8468H97.098V18.6213Z" fill="white"/>
<path d="M80.4945 12.7756H78.535V15.1182H80.4945V12.7756Z" fill="white"/>
<path d="M97.1019 12.7756H95.1423V15.1182H97.1019V12.7756Z" fill="white"/>
</g>
<defs>
<clipPath id="clip0_41_160">
<rect width="175" height="50" fill="white"/>
</clipPath>
</defs>
</svg>
