<svg width="97" height="50" viewBox="0 0 97 50" fill="none" xmlns="http://www.w3.org/2000/svg">
<path d="M83.6583 22.3948C82.0221 22.7719 77.7006 22.9814 77.7006 22.9814L77.1692 24.6855C77.1692 24.6855 79.3089 24.5039 80.8753 24.6575C80.8753 24.6575 81.3788 24.6156 81.4347 25.2162C81.4627 25.8308 81.3927 26.4733 81.3927 26.4733C81.3927 26.4733 81.3508 26.8504 80.8333 26.9482C80.232 27.0459 76.1763 27.2275 76.1763 27.2275L75.519 29.4343C75.519 29.4343 75.2812 29.9372 75.8266 29.7975C76.3301 29.6578 80.5816 28.8477 81.141 28.9595C81.7284 29.0991 82.3997 29.9092 82.2039 30.6355C81.9801 31.5155 77.7286 34.2251 75.1553 34.0436C75.1553 34.0436 73.7988 34.1274 72.666 32.2976C71.5751 30.5517 73.0436 27.2694 73.0436 27.2694C73.0436 27.2694 72.3863 25.733 72.8757 25.1743C72.8757 25.1743 73.1555 24.9369 73.9946 24.867L75.0435 22.7161C75.0435 22.7161 73.8547 22.7859 73.1555 21.9199C72.5121 21.0819 72.4562 20.7187 72.9597 20.4953C73.4911 20.2159 78.4139 19.336 81.7983 19.4477C81.7983 19.4477 82.9871 19.308 84.0359 21.3612C84.0359 21.3612 84.5114 22.1993 83.6723 22.3948M70.9038 30.6635C70.4843 31.6831 69.3235 32.7586 67.925 32.1021C66.4985 31.4317 64.2469 26.8504 64.2469 26.8504C64.2469 26.8504 63.4078 25.1464 63.24 25.2022C63.24 25.2022 63.0581 24.867 62.9603 26.7386C62.8204 28.5963 62.9882 32.2138 62.219 32.7865C61.5198 33.3452 60.6807 33.1077 60.2052 32.4513C59.8136 31.7948 59.6458 30.2165 59.8695 27.4649C60.1213 24.7134 60.7506 21.7803 61.5477 20.8724C62.3869 19.9505 63.0581 20.621 63.3099 20.8724C63.3099 20.8724 64.3867 21.8501 66.2048 24.7413L66.5125 25.2721C66.5125 25.2721 68.1627 28.0236 68.3306 28.0097C68.3306 28.0097 68.4704 28.1493 68.5823 28.0376C68.7501 27.9957 68.6942 27.1018 68.6942 27.1018C68.6942 27.1018 68.3865 24.1268 66.8481 19.0985C66.8481 19.0985 66.6244 18.456 66.7782 17.8415C66.9181 17.2828 67.5194 17.5621 67.5194 17.5621C67.5194 17.5621 69.841 18.6795 70.9738 22.4507C72.0926 26.2219 71.3374 29.6438 70.9178 30.6635M59.5199 20.9841C59.2961 21.3752 59.1982 21.9199 58.2332 22.0736C58.2332 22.0736 48.8632 22.73 48.4017 23.3865C48.4017 23.3865 48.094 23.7776 48.5975 23.8753C49.1289 23.9871 51.2546 24.2664 52.2616 24.3223C53.3524 24.3223 57.0165 24.3502 58.3591 25.9984C58.3591 25.9984 59.1283 26.7805 59.1003 28.5544C59.0724 30.3701 58.7507 31.0126 58.0375 31.6691C57.2962 32.2837 50.947 35.133 46.8493 30.7752C46.8493 30.7752 44.9753 28.6801 47.5066 27.0878C47.5066 27.0878 49.3247 25.9704 53.9818 27.2694C53.9818 27.2694 55.3803 27.7722 55.3243 28.289C55.2404 28.8477 54.1636 29.4064 52.5972 29.3785C51.0868 29.3366 49.968 28.6103 50.1918 28.736C50.4015 28.8058 48.5555 27.8421 47.9821 28.4985C47.4227 29.1131 47.5625 29.4762 48.122 29.8534C49.5205 30.6635 55.0167 30.3701 56.6529 28.5404C56.6529 28.5404 57.3102 27.8002 56.3173 27.1996C55.3383 26.6409 52.4853 26.2917 51.3805 26.2498C50.3316 26.1939 46.4018 26.2498 45.8144 25.2302C45.8144 25.2302 45.255 24.5039 45.8703 22.5205C46.5137 20.4254 51.0868 19.6153 53.0727 19.4477C53.0727 19.4477 58.5269 19.2242 59.5479 20.3416C59.5479 20.3416 59.6877 20.593 59.5199 20.9701M44.0523 33.2614C43.395 33.7502 41.9964 33.5407 41.5909 32.982C41.1993 32.4932 41.0594 30.5657 41.1294 27.5348C41.2273 24.434 41.2692 20.6349 41.9685 20.0204C42.6677 19.4198 43.0873 19.9505 43.367 20.3556C43.6467 20.7746 44.0103 21.2355 44.0662 22.1993C44.1502 23.177 44.3879 28.2052 44.3879 28.2052C44.3879 28.2052 44.6956 32.7865 44.0662 33.2614M45.4508 16.9196C43.5208 17.5761 42.2062 17.3666 41.0874 16.8777C40.5979 17.7577 40.3042 18.023 39.9406 18.0789C39.3812 18.1348 38.8917 17.2409 38.8218 16.9615C38.7099 16.752 38.4442 16.3749 38.7659 15.5229C37.675 14.5452 37.5911 13.2323 37.7869 12.3523C38.0386 11.3187 39.8847 7.43582 45.4788 6.9749C45.4788 6.9749 48.2199 6.77936 48.6954 8.23196H48.7793C48.7793 8.23196 51.4364 8.23196 51.3805 10.6064C51.3805 12.9808 48.4436 15.9419 45.4508 16.9615M47.9401 10.1594C46.178 10.4388 43.4649 12.7853 42.1643 14.7268C44.1641 15.0899 47.6604 14.9502 49.2268 11.7936C49.2268 11.7936 49.968 9.81026 47.9401 10.1594ZM40.2063 11.6959C39.6469 12.6037 39.619 13.1485 39.8847 13.5116C40.542 12.5339 41.7028 10.9975 43.4509 9.7963C42.1083 9.93597 40.9755 10.4947 40.2063 11.6959ZM87.8539 33.1636C86.5673 36.3202 85.4764 39.5187 84.8471 44.3095C84.8471 44.3095 84.7072 45.2453 83.938 44.9381C83.1689 44.6587 81.9102 43.4017 81.6305 41.6278C81.3508 39.3092 82.3857 35.3984 84.4975 30.9009C83.8821 29.9232 83.4486 28.4706 83.7982 26.4314C83.7982 26.4314 84.3576 22.6602 88.1336 19.2522C88.1336 19.2522 88.5811 18.8751 88.8329 19.0008C89.1405 19.1404 89.0147 20.3416 88.7629 20.9562C88.5392 21.5428 86.8609 24.448 86.8609 24.448C86.8609 24.448 85.8121 26.4314 86.1058 27.9817C88.0917 24.9369 92.6089 18.7633 95.4059 20.7187C97.182 21.9758 97.182 26.0263 95.8534 28.3728C94.8045 30.2305 91.8397 34.0715 87.8819 33.1776M93.6997 23.6798C92.6648 24.7972 90.8188 26.9202 89.3643 29.7975C90.9027 29.6299 92.3991 28.7779 92.8606 28.3449C93.6018 27.6884 95.308 25.9146 95.0423 23.5681C95.0423 23.5681 94.8745 22.3389 93.6997 23.6798ZM31.046 34.8118C26.0953 36.3202 21.4242 35.6219 18.8789 34.9514C18.809 35.985 18.6971 36.418 18.5293 36.5856C18.3335 36.8091 16.7112 37.7309 15.8161 36.418C15.4246 35.7895 15.2288 34.6581 15.1169 33.6245C9.38296 31.0266 6.72577 27.1996 6.64186 27.0599C6.50201 26.9202 5.20138 25.5654 6.50201 23.8893C7.71872 22.3808 11.7465 20.8584 15.3546 20.2578C15.4945 17.185 15.8301 14.8106 16.2637 13.763C16.7811 12.506 17.4384 13.6233 18.0258 14.4614C18.5013 15.0899 18.795 17.7856 18.823 19.9366C21.1725 19.8248 22.599 19.9924 25.2142 20.4953C28.6546 21.0819 30.9481 22.8418 30.7663 24.8251C30.5985 26.7806 28.8084 27.5907 28.1091 27.6465C27.4099 27.7024 26.2911 27.1856 26.2911 27.1856C25.5079 26.8225 26.2211 26.4872 27.1302 26.0962C28.1371 25.6073 27.9133 25.1184 27.9133 25.1184C27.5497 24.0011 23.0884 23.2608 18.6551 23.2608C18.6551 25.7051 18.753 29.7556 18.823 32.1161C21.9277 32.7027 24.2492 32.577 24.2492 32.577C24.2492 32.577 35.5772 32.2557 35.8989 25.0346C36.2485 17.7996 24.5709 10.8718 15.97 8.69288C7.38307 6.44414 2.51623 8.03642 2.09667 8.24593C1.63516 8.4694 2.05471 8.55321 2.05471 8.55321C2.05471 8.55321 2.51623 8.62304 3.35534 8.90239C4.19445 9.18174 3.52316 9.60075 3.52316 9.60075C2.05471 10.1036 0.418446 9.81026 0.0967867 9.13983C-0.224873 8.48337 0.306565 7.88278 0.935899 7.00283C1.52328 6.09496 2.19457 6.12289 2.19457 6.12289C12.8233 2.42156 25.8016 9.05603 25.8016 9.05603C37.9407 15.1737 40.0105 22.3669 39.7868 25.1603C39.591 27.9119 38.5281 32.563 31.046 34.8257M7.69075 24.8251C6.48802 25.3838 7.32713 26.2777 7.32713 26.2777C9.59274 28.6941 12.3618 30.2165 15.019 31.1663C15.3267 26.9761 15.2987 25.4816 15.2987 23.3725C11.187 23.6519 8.80956 24.3223 7.69075 24.8251Z" fill="white"/>
</svg>
