<svg width="95" height="50" viewBox="0 0 95 50" fill="none" xmlns="http://www.w3.org/2000/svg">
<path d="M5.21705 20.7411H13.2426V23.6897H5.21705V30.8736H2V13H14.2126V15.9485H5.21705V20.7411Z" fill="white"/>
<path d="M16.5815 30.8737V17.7656H19.7474V30.8737H16.5815Z" fill="white"/>
<path d="M34.5727 32.6142C34.5727 33.4721 34.3826 34.1846 34 34.7566C33.6173 35.3285 33.1275 35.7772 32.5304 36.1051C31.9332 36.433 31.2582 36.6647 30.5124 36.7978C29.7642 36.9334 29.033 37 28.3189 37C27.522 37 26.7275 36.9408 25.9403 36.8225C25.1506 36.7042 24.417 36.4034 23.7346 35.9153C23.2375 35.5627 22.8499 35.151 22.577 34.6801C22.304 34.2092 22.1651 33.6644 22.1651 33.0407C22.1651 32.4687 22.2991 31.9436 22.5648 31.4653C22.8304 30.9871 23.2131 30.6222 23.7103 30.3683C23.2959 30.1341 22.9742 29.8086 22.75 29.3969C22.5258 28.9852 22.4137 28.5612 22.4137 28.1224C22.4137 26.9957 22.9279 26.1156 23.9589 25.4746C23.5592 25.0703 23.2448 24.6019 23.0132 24.062C22.7793 23.5245 22.6647 22.9205 22.6647 22.2475C22.6647 21.4734 22.8061 20.7855 23.0888 20.1791C23.3715 19.5726 23.7541 19.0697 24.2367 18.6654C24.7192 18.261 25.2798 17.9553 25.9183 17.7458C26.5569 17.5362 27.2417 17.4302 27.9729 17.4302C28.5042 17.4302 29.0208 17.5017 29.518 17.6447C30.0152 17.7877 30.4807 17.9849 30.9145 18.2364C31.1972 17.6644 31.5701 17.2503 32.0356 16.9889C32.5011 16.7276 33.008 16.5994 33.5564 16.5994C33.6563 16.5994 33.7977 16.5994 33.9805 16.5994C34.1632 16.5994 34.3046 16.6167 34.4045 16.6487V19.0943L34.1559 19.0697C33.7904 19.0697 33.4613 19.1288 33.1713 19.2472C32.8813 19.3655 32.6839 19.5849 32.5864 19.903C33.0348 20.6426 33.2591 21.4315 33.2591 22.2721C33.2591 23.029 33.1128 23.702 32.8228 24.2888C32.5328 24.878 32.1453 25.3735 31.6652 25.7754C31.1826 26.1797 30.6221 26.4903 29.9835 26.7073C29.3425 26.9267 28.6748 27.0351 27.9777 27.0351C27.2466 27.0351 26.5496 26.9168 25.8842 26.6826C25.7355 26.7664 25.5893 26.8897 25.448 27.0475C25.3066 27.2077 25.2359 27.3975 25.2359 27.6145C25.2359 28.0016 25.3895 28.2579 25.6965 28.3837C26.0036 28.5094 26.3229 28.5735 26.6568 28.5735H28.7991C29.1135 28.5735 29.4547 28.5784 29.8202 28.5858C30.1858 28.5957 30.5562 28.6277 30.9291 28.6869C31.302 28.7461 31.6676 28.8348 32.0259 28.9507C32.3841 29.069 32.7107 29.2367 33.0105 29.4536C33.5759 29.8407 33.978 30.3042 34.2193 30.8391C34.4533 31.3864 34.5727 31.9757 34.5727 32.6142ZM31.6335 32.6906C31.6335 32.2863 31.5262 31.9757 31.3093 31.7587C31.0924 31.5393 30.8317 31.3815 30.5246 31.2804C30.2175 31.1794 29.8836 31.1202 29.5278 31.1054C29.1695 31.0881 28.8429 31.0807 28.5432 31.0807H26.1011C25.7672 31.1818 25.4894 31.3717 25.2652 31.6478C25.041 31.9264 24.9288 32.274 24.9288 32.6931C24.9288 33.1122 25.041 33.4401 25.2652 33.6767C25.4894 33.9109 25.7672 34.0934 26.1011 34.2191C26.4326 34.3448 26.7908 34.4237 27.1735 34.4582C27.5561 34.4928 27.8973 34.5076 28.1946 34.5076C28.509 34.5076 28.8673 34.4952 29.267 34.4706C29.6667 34.4459 30.0396 34.3744 30.3881 34.2561C30.7366 34.1378 31.0315 33.9578 31.2728 33.7137C31.5116 33.4672 31.6335 33.127 31.6335 32.6906ZM30.2614 22.2524C30.2614 21.5473 30.0566 20.963 29.6496 20.4996C29.2426 20.0361 28.6821 19.8068 27.968 19.8068C27.2539 19.8068 26.6933 20.0385 26.2863 20.4996C25.8793 20.9606 25.6746 21.5449 25.6746 22.2524C25.6746 22.9575 25.8769 23.5393 26.2863 23.9929C26.6933 24.4466 27.2539 24.6734 27.968 24.6734C28.6821 24.6734 29.2426 24.4466 29.6496 23.9929C30.0591 23.5393 30.2614 22.96 30.2614 22.2524Z" fill="white"/>
<path d="M51.6694 22.7307C51.6694 21.9245 51.5329 21.2983 51.2575 20.8521C50.9846 20.4083 50.4557 20.184 49.6758 20.184C49.2274 20.184 48.8447 20.29 48.5303 20.4996C48.2159 20.7091 47.9527 20.9877 47.7456 21.3304C47.5384 21.6755 47.3849 22.0576 47.2849 22.4767C47.185 22.8983 47.1363 23.3076 47.1363 23.7119V30.8712H44.046V22.7307C44.046 21.9245 43.9095 21.2983 43.6341 20.8521C43.3611 20.4083 42.8322 20.184 42.0524 20.184C41.6039 20.184 41.2213 20.29 40.9069 20.4996C40.5925 20.7091 40.3244 20.9877 40.1099 21.3304C39.893 21.6755 39.7371 22.0576 39.6371 22.4767C39.5372 22.8983 39.4885 23.3076 39.4885 23.7119V30.8712H36.3981V17.7655H38.9888L39.2374 19.506C39.603 18.902 40.0929 18.4065 40.707 18.0194C41.3212 17.6324 42.0621 17.4401 42.9249 17.4401C43.8388 17.4401 44.6041 17.6299 45.2182 18.0071C45.8324 18.3843 46.3076 18.9119 46.6391 19.5824C47.0217 18.8946 47.5482 18.3646 48.2208 17.9948C48.8935 17.625 49.6709 17.4401 50.5508 17.4401C51.9472 17.4401 52.9977 17.8641 53.7044 18.7147C54.4112 19.5652 54.7646 20.6672 54.7646 22.0305V30.8786H51.6694V22.7307Z" fill="white"/>
<path d="M68.9148 24.4219C68.8977 24.5402 68.8904 24.6487 68.8904 24.7497V25.3044H60.219C60.219 25.8098 60.297 26.2881 60.4554 26.7417C60.6138 27.1953 60.8526 27.5725 61.1646 27.8758C61.3986 28.0952 61.6691 28.2826 61.9762 28.4428C62.2833 28.6031 62.6513 28.6819 63.0851 28.6819C63.5335 28.6819 63.904 28.6351 64.194 28.5439C64.484 28.4527 64.7472 28.2875 64.9788 28.0533C65.2761 27.75 65.4857 27.3802 65.6027 26.9439H68.5931C68.5589 27.3309 68.4298 27.755 68.2056 28.2185C67.9813 28.6819 67.7449 29.0616 67.4963 29.3648C66.948 30.0206 66.2924 30.4915 65.5271 30.7775C64.7618 31.0634 63.9649 31.2064 63.1363 31.2064C62.2369 31.2064 61.4619 31.0585 60.8063 30.7651C60.1483 30.4718 59.5634 30.0798 59.0491 29.5941C58.4008 28.9556 57.9061 28.1913 57.5649 27.3014C57.2237 26.4114 57.0531 25.4277 57.0531 24.3528C57.0531 23.2952 57.2066 22.314 57.5137 21.4166C57.8208 20.5168 58.2912 19.7501 58.92 19.1091C59.4025 18.6061 59.9874 18.2018 60.6772 17.8986C61.3669 17.5954 62.159 17.445 63.0583 17.445C64.0234 17.445 64.9178 17.6422 65.7513 18.0367C66.58 18.4311 67.2624 19.04 67.7961 19.8635C68.2762 20.5858 68.5833 21.3229 68.7174 22.0699C68.8465 22.812 68.9148 23.5984 68.9148 24.4219ZM65.8001 23.0092C65.7806 22.0527 65.5149 21.286 65.0007 20.7165C64.7862 20.4823 64.5157 20.2974 64.1916 20.1618C63.8674 20.0286 63.4823 19.9596 63.0315 19.9596C62.5513 19.9596 62.1273 20.0533 61.7593 20.2382C61.3961 20.4231 61.0939 20.6672 60.8624 20.9704C60.6284 21.2564 60.4627 21.5596 60.3628 21.8776C60.2653 22.1957 60.2044 22.5753 60.1897 23.0117H65.8001V23.0092Z" fill="white"/>
<path d="M79.2581 30.8737V22.8318C79.2581 22.0601 79.107 21.4537 78.8097 21.0173C78.5099 20.5809 77.9469 20.3615 77.1158 20.3615C76.5675 20.3615 76.1093 20.5168 75.7437 20.8275C75.3781 21.1381 75.0881 21.5375 74.8712 22.0256C74.6543 22.5138 74.53 23.0808 74.4983 23.7267C74.4642 24.3751 74.4471 24.9742 74.4471 25.5289V30.8737H71.3325V17.7655H73.95L74.1742 19.4543C74.5568 18.7665 75.1003 18.2561 75.8071 17.9282C76.5138 17.6004 77.2401 17.4352 77.9859 17.4352C78.6854 17.4352 79.3044 17.5535 79.843 17.7877C80.3816 18.0244 80.8398 18.3474 81.2151 18.7591C81.588 19.1708 81.8756 19.6663 82.0754 20.2457C82.2753 20.825 82.3752 21.4512 82.3752 22.1242V30.8712H79.2581V30.8737Z" fill="white"/>
<path d="M92.8891 30.6986C91.9923 30.9328 91.1027 31.0511 90.2229 31.0511C88.9093 31.0511 87.9295 30.6937 87.2812 29.9787C86.6329 29.2638 86.3088 28.2777 86.3088 27.0179V20.3615H83.9399V17.7655H86.3088V14.4373L89.4235 13.6558V17.7655H92.6893V20.3615H89.4235V26.7393C89.4235 27.2447 89.538 27.6095 89.772 27.8364C90.006 28.0632 90.3716 28.1766 90.8687 28.1766C91.2002 28.1766 91.5121 28.1692 91.8022 28.1519C92.0922 28.1347 92.4529 28.1026 92.8867 28.0508V30.6986H92.8891Z" fill="white"/>
<path fill-rule="evenodd" clip-rule="evenodd" d="M20.0058 14.8589C20.0058 13.8777 19.221 13.0149 18.1584 13.0149C17.0739 13.0149 16.3111 13.8777 16.3111 14.8589C16.3111 15.887 17.0739 16.6562 18.1584 16.6562C19.221 16.6562 20.0058 15.887 20.0058 14.8589Z" fill="white"/>
</svg>
