<svg width="209" height="50" viewBox="0 0 209 50" fill="none" xmlns="http://www.w3.org/2000/svg">
<path d="M20.5886 18.699C20.4885 18.3387 19.5204 18.8149 19.2487 18.8606C15.9541 19.4126 14.577 18.1413 11.7285 17.4821C10.8348 17.2748 9.60503 17.2491 8.68414 17.3048C6.88525 17.4149 5.20791 18.3959 3.46765 18.8048L3.35897 19.1967L3.36183 35.4067C3.38328 35.9272 2.95287 36.442 2.53961 36.728C1.59011 37.3872 0.160155 36.6722 0.00285992 35.5511L0 14.6279C0.243093 13.1193 1.7374 12.4744 2.92856 13.5626C3.4605 14.0488 3.24315 14.7366 3.48052 15.31C4.12257 15.4616 5.46959 14.7323 6.11022 14.5193C8.02064 13.8829 9.86815 13.6084 11.8529 14.1446C12.8267 14.4077 13.812 14.9354 14.7958 15.2042C17.4283 15.9235 19.2458 15.5974 21.7497 14.7195C22.4761 14.4649 23.1625 14.0159 23.9475 13.9516V30.908C23.4628 31.1382 22.9466 31.3599 22.4446 31.5486C20.936 32.1178 19.0928 32.7284 17.4784 32.7355C15.5222 32.7441 13.8177 31.7617 12.0117 31.2655C10.8605 30.9495 9.22896 30.9209 8.05067 31.0939C7.92626 31.1125 6.86523 31.4557 6.86523 31.1954V28.1253C7.13693 27.8765 7.62025 27.8122 7.98489 27.745C11.045 27.1815 12.2247 28.2183 14.9116 28.9418C16.5546 29.3837 18.7582 29.5024 20.3755 28.9132C20.4599 28.8818 20.5299 28.8374 20.5886 28.7688V18.699Z" fill="white"/>
<path d="M128.303 25.3741C128.425 25.5028 128.53 25.0738 128.55 25.0152C129.019 23.6467 129.471 21.7935 130.063 20.5294C130.565 19.4569 131.849 19.1981 132.537 20.252C132.657 20.435 132.727 20.6381 132.806 20.8397C133.377 22.2768 133.724 23.8769 134.342 25.3026L134.519 25.2568C134.807 24.3674 135.09 23.4679 135.416 22.5914C135.622 22.0366 136.168 20.3664 136.485 20.0189C137.558 18.8435 139.337 20.2205 138.715 21.6033C137.678 23.9699 136.929 26.5138 135.926 28.8846C135.594 29.6697 135.274 30.4662 134.267 30.3761C133.791 30.3332 133.452 30.0329 133.232 29.6253C132.544 28.3455 132.198 26.4351 131.568 25.0766C131.509 24.9494 131.439 24.8336 131.34 24.7335L129.447 29.8384C128.718 30.7336 127.544 30.5262 127.073 29.4938C125.898 26.9141 125.144 23.9884 123.962 21.3916C123.621 19.9846 125.213 19.0179 126.301 19.9831C127.085 21.7291 127.657 23.5723 128.303 25.3741Z" fill="white"/>
<path d="M187.985 29.2664C187.745 30.7121 185.597 30.7379 185.276 29.3322V20.7053C185.516 19.6314 186.688 19.2281 187.531 19.9746C188.62 21.4274 189.441 23.0733 190.451 24.589C190.545 24.5919 191.07 23.7311 191.16 23.5852C191.768 22.5914 192.314 21.446 193 20.4979C193.94 19.2009 195.391 19.2396 195.707 20.9112C195.567 23.5266 195.884 26.3193 195.707 28.9132C195.646 29.8227 195.092 30.5219 194.1 30.3689C193.636 30.2974 193.075 29.8012 192.992 29.3336C192.834 28.4456 193.053 27.0243 192.992 26.0504C192.983 25.9117 192.954 25.7916 192.916 25.6615L191.524 27.8036C191.216 28.1339 191.017 28.377 190.523 28.3784C189.378 28.3813 188.849 26.8341 188.318 26.0061C188.236 25.8774 188.104 25.6772 187.987 25.5886V29.265L187.985 29.2664Z" fill="white"/>
<path d="M78.7693 29.2664C78.5219 30.7607 76.2883 30.7893 76.0138 29.092C76.121 26.5281 75.7607 23.6553 75.9794 21.1257C76.1239 19.4512 77.6125 19.1066 78.6964 20.3449C79.2827 21.0141 79.9147 21.8678 80.4824 22.5756C81.0987 23.3464 81.7079 24.1443 82.2727 24.9479C82.4014 24.9108 82.41 24.5947 82.4171 24.4875C82.4943 23.3149 82.2756 21.8993 82.4128 20.7696C82.5287 19.8072 83.574 19.3482 84.4334 19.7543C84.8009 19.9288 85.0969 20.435 85.134 20.8397C85.3786 23.4622 84.9424 26.4623 85.1312 29.1263C84.9625 30.3503 83.7927 30.7936 82.839 29.9843C82.5015 29.6968 82.2226 29.2121 81.9452 28.8803C80.8742 27.6005 79.8675 26.2735 78.7693 25.0209V29.2693V29.2664Z" fill="white"/>
<path d="M64.5283 19.6099C68.618 19.1652 71.8898 23.0404 70.384 26.9585C69.0613 30.4018 64.4082 31.4485 61.6141 29.1234C57.8948 26.029 59.7809 20.1261 64.5283 19.6085V19.6099ZM63.2285 27.0486C64.6585 28.5357 67.5398 27.7864 67.8887 25.6787C68.5222 21.8607 63.6503 20.9598 62.6136 23.9784C62.2461 25.048 62.4406 26.2278 63.2285 27.0486Z" fill="white"/>
<path d="M178.166 20.977C180.876 23.2935 180.396 27.9437 177.268 29.6268C173.307 31.7588 168.576 29.0848 168.898 24.4789C169.211 19.9774 174.822 18.1199 178.166 20.977ZM172.505 27.1272C173.995 28.4985 176.763 27.7464 177.103 25.6787C177.74 21.8192 172.778 20.9755 171.794 24.017C171.466 25.0309 171.705 26.3936 172.503 27.1272H172.505Z" fill="white"/>
<path d="M207.963 27.6592C209.32 27.8508 209.418 30.0915 207.823 30.2316C206.229 30.3718 204.383 30.1173 202.744 30.2316C202.029 30.0815 201.644 29.694 201.491 28.9833C201.696 26.4566 201.231 23.5294 201.49 21.0499C201.558 20.3964 202.075 19.8544 202.745 19.8044C204.313 19.946 206.217 19.6128 207.743 19.8115C209.167 19.996 209.077 21.9994 207.96 22.2296C206.891 22.4512 205.591 22.1753 204.528 22.2997C204.424 22.3125 204.344 22.3082 204.283 22.4098V23.5881H206.535C206.638 23.5881 207.185 23.9484 207.275 24.0628C207.589 24.4646 207.573 25.2583 207.204 25.6129C207.127 25.6872 206.672 25.9446 206.606 25.9446H204.39L204.283 26.0519V27.6577H207.963V27.6592Z" fill="white"/>
<path d="M146.815 23.4822C146.878 23.5838 146.958 23.5809 147.061 23.5923C147.829 23.6824 148.877 23.3836 149.557 23.814C150.429 24.3645 149.984 25.9461 149.138 25.9461H146.993C146.968 25.9461 146.884 26.0404 146.814 26.0176V27.6592C147.236 27.8408 147.662 27.6649 148.062 27.6563C148.812 27.6391 149.981 27.6034 150.693 27.7464C150.977 27.8036 151.32 28.0967 151.438 28.3584C151.802 29.1606 151.351 30.0458 150.492 30.2245C148.859 30.0829 146.865 30.4276 145.277 30.2302C144.237 30.1015 144.02 29.1606 144.023 28.264C144.03 25.8016 144.18 23.3106 144.097 20.8368C144.256 20.2706 144.686 19.8716 145.28 19.8044C146.85 19.6285 148.743 19.9317 150.349 19.8115C151.39 19.9731 151.737 21.2873 150.967 21.9865C150.304 22.5871 148.014 22.1896 147.064 22.3011C146.96 22.314 146.88 22.3097 146.818 22.4112V23.4822H146.815Z" fill="white"/>
<path d="M116.769 19.9746C116.966 20.1719 117.182 20.6967 117.308 20.9712C118.448 23.4665 119.35 26.1791 120.424 28.7116C120.709 30.0758 119.037 30.9809 118.117 29.8727C117.873 29.5767 117.76 29.2149 117.61 28.8675C116.529 28.9733 115.236 28.7431 114.182 28.8675C113.81 28.9118 113.819 29.4623 113.64 29.754C112.848 31.0496 110.81 30.2474 111.238 28.4971C112.408 25.9875 113.238 23.1576 114.408 20.6695C114.666 20.1233 114.919 19.7229 115.561 19.6085C115.98 19.5341 116.464 19.67 116.769 19.9746ZM114.972 26.5881H116.616L116.692 26.4437L115.865 23.947L115.652 24.0728L114.893 26.4423L114.973 26.5895L114.972 26.5881Z" fill="white"/>
<path d="M163.141 20.7753C163.812 21.5976 163.417 22.7558 162.34 22.8602C161.455 22.946 160.926 21.6776 159.808 22.1109C159.295 22.3097 159.32 22.976 159.774 23.2477C161.524 24.2959 164.141 24.4804 164.105 27.2745C164.061 30.735 158.776 31.2841 156.904 29.1134C156.204 28.3026 156.502 27.0957 157.59 26.8898C158.198 26.7754 159.106 27.8036 159.95 27.9266C160.577 28.0181 161.641 27.7764 161.287 26.947C161.128 26.5738 159.232 25.8774 158.758 25.6172C157.284 24.8078 156.199 23.5023 156.784 21.732C157.596 19.2782 161.591 18.8735 163.141 20.7753Z" fill="white"/>
<path d="M50.7507 22.2339V24.09H53.2874C53.3575 24.09 54.0324 24.4589 54.1111 24.5519C54.45 24.9537 54.4486 25.6157 54.1826 26.0547C54.124 26.1534 53.572 26.5881 53.5019 26.5881H50.7507V29.1234C50.7507 29.2893 50.3674 29.8913 50.1944 30.0114C49.3565 30.5934 48.2039 30.1845 47.9966 29.162L47.9608 21.0513C48.0509 20.4579 48.3441 19.9345 48.9332 19.7372L54.3442 19.7515C54.5944 19.8945 54.9748 20.0904 55.0734 20.3792C55.1464 20.5966 55.1449 21.3044 55.0734 21.5146C55.0019 21.7248 54.4028 22.2325 54.2183 22.2325H50.7521L50.7507 22.2339Z" fill="white"/>
<path d="M93.1361 22.2339C92.3353 22.1252 91.4773 22.3998 90.6851 22.0766C89.5183 21.599 89.7714 19.843 90.9525 19.7315C93.2405 19.5184 95.8559 19.9016 98.1781 19.7315C99.059 19.946 99.3736 21.0313 98.8216 21.7391C98.1367 22.6157 97.0413 22.0394 96.1705 22.1595C96.0761 22.1724 95.853 22.251 95.853 22.3411V29.2664C95.853 29.3622 95.5871 29.7512 95.4984 29.8398C94.915 30.429 93.8096 30.4004 93.3921 29.6568C93.3492 29.581 93.1361 29.1535 93.1361 29.1234V22.2339Z" fill="white"/>
</svg>
