<svg width="138" height="50" viewBox="0 0 138 50" fill="none" xmlns="http://www.w3.org/2000/svg">
<path d="M37.1228 42.9677C33.6689 42.5289 32.4895 37.9424 33.7238 35.1467C35.0825 32.067 38.9125 31.0841 41.3289 33.5656V27.6316H44.072V42.6938H41.3289V41.3244C40.5842 42.0444 39.5603 42.8404 38.4944 42.9677C38.1805 43.0053 37.4339 43.0071 37.1228 42.9677ZM38.2876 33.8606C35.3222 34.3351 35.6726 41.0303 38.4587 41.3143C42.1789 41.6935 42.512 33.1846 38.2876 33.8606Z" fill="white"/>
<path d="M15.6358 42.9677C15.2323 43.0108 14.3933 43.0108 13.9898 42.9677C7.78634 42.3027 7.53016 32.6505 14.3055 32.1916C22.0323 31.6685 22.2675 42.2569 15.6358 42.9677ZM14.2405 33.769C11.5066 34.2343 11.2852 41.9702 15.3074 41.4068C18.1273 41.012 18.4612 33.0508 14.2405 33.769Z" fill="white"/>
<path d="M51.8437 42.9677C51.4402 43.0108 50.6012 43.0108 50.1977 42.9677C43.9997 42.3036 43.7746 32.7879 50.3358 32.1971C58.1716 31.4918 58.5522 42.2486 51.8428 42.9677H51.8437ZM50.4484 33.769C47.2908 34.3058 47.9139 43.1482 52.0477 41.208C54.315 40.1445 54.4294 33.092 50.4484 33.769Z" fill="white"/>
<path d="M0 28.2701H2.83456V40.7766H8.86966V42.6938H0V28.2701Z" fill="white"/>
<path d="M2.83456 7.73007H0V22.1538H2.83456V7.73007Z" fill="white"/>
<path d="M20.024 22.1538H17.4182L17.2809 22.0173V14.9877C17.2809 14.9456 17.0174 14.2998 16.9653 14.2073C16.3147 13.0274 14.5196 13.2381 13.8782 14.33C13.8004 14.4619 13.5314 15.1599 13.5314 15.2616V22.1538H10.7883V15.0793C10.7883 15.0015 10.5779 14.4583 10.5166 14.3456C9.83861 13.0879 8.08371 13.1392 7.38559 14.33C7.30782 14.4619 7.03882 15.1599 7.03882 15.2616V22.1538H4.29576V11.8384H6.94732V13.0256C8.62994 11.2284 11.621 10.9719 13.2103 13.0238C14.9935 11.1716 18.8107 10.8409 19.7513 13.7062C19.8328 13.9535 20.0222 14.679 20.0222 14.8961V22.1538H20.024Z" fill="white"/>
<path d="M124.353 20.6937C123.235 21.9394 122.192 22.4909 120.463 22.3398C116.921 22.0311 115.909 17.1212 117.176 14.396C118.52 11.5068 122.144 10.4781 124.351 13.0256V11.8384H127.003V22.3819C127.003 25.0182 124.713 27.0591 122.202 27.2643C120.596 27.3962 118.609 27.0967 117.23 26.2933L117.678 24.6188C119.678 25.7446 123.098 26.2503 124.095 23.5865C124.15 23.4399 124.352 22.7547 124.352 22.6567V20.6937H124.353ZM121.775 13.229C118.438 13.4635 119.075 20.4014 121.471 20.6955C125.214 21.1544 125.323 12.9807 121.775 13.229Z" fill="white"/>
<path d="M24.1386 20.9675V27.2661H21.487V11.8384H24.1386V13.2079C26.4095 10.5523 30.2478 11.2311 31.4556 14.5297C33.2114 19.326 28.7097 25.0915 24.1386 20.9675ZM26.5907 13.229C23.3215 13.4607 23.5219 19.9947 25.9841 20.6314C29.0611 21.4274 29.4747 16.5798 28.599 14.6433C28.2504 13.872 27.4846 13.1658 26.5907 13.229Z" fill="white"/>
<path d="M85.6736 19.5981L86.3681 21.4256C81.4648 23.9171 75.1744 21.3514 74.7142 15.5245C74.2109 9.14625 81.1884 5.53253 86.4595 8.55083L85.615 10.2794C85.0386 10.1117 84.5335 9.82502 83.9388 9.6922C79.7794 8.76793 77.0967 12.2223 77.8369 16.1493C78.546 19.9141 82.4163 21.3092 85.6736 19.5972V19.5981Z" fill="white"/>
<path d="M31.8197 42.6938H29.1681V36.0755C29.1681 36.0078 29.0282 35.4517 28.9906 35.34C28.3868 33.5519 25.6803 33.6325 24.887 35.1787C24.8248 35.3006 24.5961 35.9015 24.5961 35.9839V42.6938H21.853V32.4691H24.5961L24.6409 33.5638C26.3016 31.7638 30.5278 31.467 31.5242 34.0868C31.5873 34.2526 31.8188 35.0432 31.8188 35.1613V42.6929L31.8197 42.6938Z" fill="white"/>
<path d="M68.0285 42.6938H65.2855V35.8017C65.2855 35.7 65.0155 35.001 64.9387 34.8701C64.1427 33.5207 61.8177 33.8597 61.0601 35.1439C60.9604 35.3134 60.7134 36.0087 60.7134 36.1671V42.6938H58.0618V32.4692H60.7134V33.5647C62.0263 32.3565 63.9203 31.9012 65.6514 32.3317C67.5921 32.8145 67.9388 34.4954 68.0322 36.2542C68.1438 38.3638 67.9407 40.5741 68.0285 42.6938Z" fill="white"/>
<path d="M91.3253 11.592C98.7741 11.0323 99.1245 22.9819 91.0206 22.3398C85.0853 21.8698 84.6653 12.0922 91.3253 11.592ZM90.2795 13.6961C88.5091 15.3743 89.0123 21.8213 92.3702 20.7587C94.5753 20.0607 94.5844 15.4311 93.3556 13.8922C92.5834 12.9248 91.1661 12.8561 90.2795 13.6961Z" fill="white"/>
<path d="M64.096 22.1538H61.1699L60.986 20.6937C59.6941 21.65 58.3894 22.8894 56.6418 22.1565C54.7844 21.3779 54.4193 18.6857 55.6079 17.1944C56.8678 15.6152 59.2833 15.5108 60.9824 14.7029C60.4746 12.5639 57.7553 13.0632 56.553 14.3016C56.4222 14.0745 55.6271 13.1071 55.7222 12.9331C58.1496 10.8189 63.3256 10.8977 63.6422 14.8934C63.8307 17.2686 63.2186 19.8903 64.096 22.1538ZM60.9879 16.2198C59.8853 16.5303 58.2293 16.8555 57.7425 18.0454C56.8934 20.1211 58.9027 21.5501 60.2971 19.5917C60.5057 19.2985 60.9888 18.1407 60.9888 17.8173V16.2198H60.9879Z" fill="white"/>
<path d="M131.027 17.2247C130.856 20.4115 134.178 21.5181 136.56 19.7905C136.698 19.7914 137.421 21.1984 137.331 21.3248C134.378 22.9498 130.233 22.882 128.663 19.4479C126.952 15.705 129.248 11.2559 133.622 11.5765C135.768 11.734 137.52 13.6393 137.52 15.8094V17.2247H131.027ZM134.959 15.7636C135.417 12.0684 130.909 12.3743 131.027 15.7636H134.959Z" fill="white"/>
<path d="M115.666 17.2247H109.174C109.11 20.5508 112.335 21.4384 114.842 19.7804L115.572 21.1966C112.594 23.1559 108.081 22.795 106.688 19.1135C105.294 15.4338 107.507 11.3264 111.688 11.5664C113.775 11.6864 115.666 13.5074 115.666 15.6271V17.2247ZM113.06 15.7636C113.312 15.5172 113.162 14.8806 113.08 14.5563C112.855 13.6522 112.299 13.0897 111.321 13.1099C109.866 13.1401 109.157 14.4473 109.174 15.7636H113.06Z" fill="white"/>
<path d="M42.1515 17.2247H35.6598C35.5958 20.5508 38.8201 21.4384 41.3271 19.7804L42.0216 21.2433C37.4431 23.9428 32.3193 21.6811 32.8271 15.9935C33.2251 11.538 39.7094 9.78197 41.6043 13.7997C41.7773 14.167 42.1515 15.2635 42.1515 15.6262V17.2247ZM39.5457 15.7636C39.7973 15.5172 39.6472 14.8806 39.5658 14.5563C39.3371 13.6348 38.8064 13.0888 37.8063 13.1099C36.3351 13.1401 35.6616 14.4454 35.6589 15.7636H39.5457Z" fill="white"/>
<path d="M100.854 7H98.1107V22.1538H100.854V7Z" fill="white"/>
<path d="M68.0285 7H65.2855V22.1538H68.0285V7Z" fill="white"/>
<path d="M105.151 7H102.5V22.1538H105.151V7Z" fill="white"/>
<path d="M46.084 13.5725C47.0493 12.5154 47.6312 11.0113 49.3459 11.822C49.5206 11.9044 50.1959 12.3642 50.1995 12.5181L49.2827 14.3942C48.2872 13.9838 47.3988 13.7841 46.676 14.7569C46.3676 15.1709 46.084 16.2225 46.084 16.7218V22.1538H43.4324V11.8384H46.084V13.5725Z" fill="white"/>
<path d="M53.7642 11.8384H51.1127V22.1538H53.7642V11.8384Z" fill="white"/>
<path d="M51.3268 10.0723C49.8591 8.69923 51.6818 6.13894 53.444 7.54778C55.101 8.87327 52.9508 11.592 51.3268 10.0723Z" fill="white"/>
</svg>
