<svg width="60" height="50" viewBox="0 0 60 50" fill="none" xmlns="http://www.w3.org/2000/svg">
<path d="M32.3355 31.0565C32.4412 32.4904 33.0558 33.8749 34.3778 34.5468C35.9729 35.3581 38.5636 35.2102 40.289 34.8941C41.7337 34.6294 43.1283 34.1193 44.4375 33.4656L45.3338 38.1668C43.6831 39.2513 41.8297 40.0186 39.8963 40.443C33.4345 41.8576 26.5769 40.3723 25.3125 32.9426C24.4771 28.0323 25.8321 22.1887 30.4331 19.6457C35.0777 17.078 45.6848 17.3384 46.1959 24.2859C46.7625 31.9792 37.7634 32.5236 32.3345 31.0576L32.3355 31.0565ZM38.6074 27.0764C39.5559 26.1023 39.6274 24.5356 38.4089 23.7533C37.5553 23.2057 36.1757 23.1725 35.2271 23.4404C33.2681 23.9944 32.614 26.023 32.3345 27.8437C34.2348 28.3645 37.1018 28.6228 38.6074 27.0764Z" fill="white"/>
<path d="M18.2063 13.069V18.9845L18.2863 19.0648H22.6311V24.3652H18.2063L18.2041 32.6383C18.266 33.8106 18.5338 34.8233 19.7652 35.193C20.8535 35.5199 22.1649 35.3206 23.1636 34.804L24.1228 39.6725C23.1999 40.1526 22.2289 40.5309 21.2024 40.7313C16.4297 41.6636 11.6026 40.293 11.4319 34.6733L11.434 13.0701H18.2052L18.2063 13.069Z" fill="white"/>
<path d="M55.7403 9L55.7381 32.8526C55.8139 34.2307 56.0956 35.3977 57.7398 35.2316C58.0439 35.2005 58.3149 35.0752 58.5657 34.9112L59.5185 39.829C58.2818 40.5598 56.8318 40.906 55.3967 40.9638C50.625 41.1535 49.0715 38.5484 48.9136 34.1375L48.9157 9H55.7403Z" fill="white"/>
<path d="M7.11691 19.0648H0.452409V40.907H7.11691V19.0648Z" fill="white"/>
<path d="M3.78893 16.7855C5.8815 16.7855 7.57786 15.0822 7.57786 12.9811C7.57786 10.8801 5.8815 9.17682 3.78893 9.17682C1.69636 9.17682 0 10.8801 0 12.9811C0 15.0822 1.69636 16.7855 3.78893 16.7855Z" fill="white"/>
</svg>
