<svg width="221" height="50" viewBox="0 0 221 50" fill="none" xmlns="http://www.w3.org/2000/svg">
<path d="M27.242 33.3306C25.1379 33.3306 23.9649 31.3369 23.9649 27.7296C23.9649 24.0666 25.1379 22.1287 27.242 22.1287C29.3461 22.1287 30.5192 24.0963 30.5192 27.7296C30.5155 31.3927 29.3424 33.3306 27.242 33.3306ZM27.242 20.627C22.9556 20.627 20.5797 23.8243 20.5797 27.7296C20.5797 31.635 22.9556 34.8323 27.242 34.8323C31.5284 34.8323 33.9043 31.635 33.9043 27.7296C33.9043 23.8243 31.5284 20.627 27.242 20.627ZM57.027 20.627C55.0049 20.627 53.8877 21.5027 53.2583 22.6206H53.0944V20.899H49.8731V34.5603H53.0944V25.736C53.0944 23.7163 54.1334 22.5386 55.7981 22.5386C57.4106 22.5386 58.1182 23.6044 58.1182 25.218V34.5603H61.3395V25.1882C61.3432 22.3747 59.8685 20.627 57.027 20.627ZM68.6573 20.627C65.6818 20.627 63.4436 21.8828 63.4436 24.5622C63.4436 26.8315 65.0002 28.0613 66.7468 28.4973L69.4765 29.1793C70.9252 29.5333 71.5806 30.0549 71.5806 31.2027C71.5806 32.5964 70.5975 33.3902 68.877 33.3902C67.0186 33.3902 66.0653 32.4884 65.7636 30.2226L62.8701 31.0425C63.0339 33.3939 65.2199 34.8397 68.5232 34.8397C72.21 34.8397 74.2024 33.1181 74.2024 30.3866C74.2024 27.819 72.426 26.7533 70.5714 26.2875L67.9497 25.6317C66.6388 25.3037 66.0653 24.7038 66.0653 23.828C66.0653 22.7362 66.9926 22.0803 68.3854 22.0803C70.024 22.0803 71.0332 22.9821 71.171 24.7038L73.9007 23.8839C73.573 21.9648 71.6887 20.627 68.6573 20.627ZM82.2017 33.3306C80.0974 33.3306 78.9248 31.3369 78.9248 27.7296C78.9248 24.0666 80.0974 22.1287 82.2017 22.1287C84.306 22.1287 85.4787 24.0963 85.4787 27.7296C85.4787 31.3927 84.3017 33.3306 82.2017 33.3306ZM82.2017 20.627C77.9152 20.627 75.5392 23.8243 75.5392 27.7296C75.5392 31.635 77.9152 34.8323 82.2017 34.8323C86.4883 34.8323 88.8643 31.635 88.8643 27.7296C88.8643 23.8243 86.4883 20.627 82.2017 20.627ZM97.9286 20.627C95.9065 20.627 94.7889 21.5027 94.1597 22.6206H93.996V20.899H90.7741V34.5603H93.996V25.736C93.996 23.7163 95.0349 22.5386 96.6994 22.5386C98.3118 22.5386 99.0197 23.6044 99.0197 25.218V34.5603H102.241V25.1882C102.241 22.3747 100.766 20.627 97.9286 20.627ZM145.79 33.3306C143.685 33.3306 142.513 31.3369 142.513 27.7296C142.513 24.0666 143.685 22.1287 145.79 22.1287C147.894 22.1287 149.067 24.0963 149.067 27.7296C149.067 31.3927 147.891 33.3306 145.79 33.3306ZM145.79 20.627C141.503 20.627 139.127 23.8243 139.127 27.7296C139.127 31.635 141.503 34.8323 145.79 34.8323C150.076 34.8323 152.452 31.635 152.452 27.7296C152.452 23.8243 150.076 20.627 145.79 20.627ZM175.575 20.627C173.553 20.627 172.436 21.5027 171.806 22.6206H171.642V20.899H168.421V34.5603H171.642V25.736C171.642 23.7163 172.682 22.5386 174.346 22.5386C175.959 22.5386 176.666 23.6044 176.666 25.218V34.5603H179.888V25.1882C179.891 22.3747 178.416 20.627 175.575 20.627ZM187.209 20.627C184.234 20.627 181.995 21.8828 181.995 24.5622C181.995 26.8315 183.552 28.0613 185.298 28.4973L188.028 29.1793C189.477 29.5333 190.132 30.0549 190.132 31.2027C190.132 32.5964 189.149 33.3902 187.429 33.3902C185.571 33.3902 184.617 32.4884 184.315 30.2226L181.422 31.0425C181.586 33.3939 183.772 34.8397 187.075 34.8397C190.762 34.8397 192.754 33.1181 192.754 30.3866C192.754 27.819 190.978 26.7533 189.123 26.2875L186.502 25.6317C185.19 25.3037 184.617 24.7038 184.617 23.828C184.617 22.7362 185.544 22.0803 186.937 22.0803C188.576 22.0803 189.585 22.9821 189.723 24.7038L192.453 23.8839C192.121 21.9648 190.237 20.627 187.209 20.627ZM200.75 33.3306C198.645 33.3306 197.472 31.3369 197.472 27.7296C197.472 24.0666 198.645 22.1287 200.75 22.1287C202.854 22.1287 204.027 24.0963 204.027 27.7296C204.027 31.3927 202.85 33.3306 200.75 33.3306ZM200.75 20.627C196.463 20.627 194.087 23.8243 194.087 27.7296C194.087 31.635 196.463 34.8323 200.75 34.8323C205.036 34.8323 207.412 31.635 207.412 27.7296C207.412 23.8243 205.036 20.627 200.75 20.627ZM216.477 20.627C214.454 20.627 213.337 21.5027 212.708 22.6206H212.544V20.899H209.322V34.5603H212.544V25.736C212.544 23.7163 213.583 22.5386 215.247 22.5386C216.86 22.5386 217.568 23.6044 217.568 25.218V34.5603H220.789V25.1882C220.789 22.3747 219.314 20.627 216.477 20.627ZM18.6693 15.436H15.2841V29.5593C15.2841 31.8549 14.4089 33.2187 12.3346 33.2187C10.2864 33.2187 9.38517 31.7692 9.38517 29.2836V26.6602L6 27.506V28.6799C6 32.2573 7.77638 34.9926 12.3346 34.9926C16.8929 34.9926 18.6693 32.2611 18.6693 28.6799V15.436ZM39.0361 15.436H35.8148V34.5603H39.0361V25.736C39.0361 23.7163 40.0752 22.5386 41.7398 22.5386C43.3523 22.5386 44.0599 23.6044 44.0599 25.218V34.5603H47.2812V25.1882C47.2812 22.3747 45.8065 20.627 42.9687 20.627C40.9466 20.627 39.8293 21.5027 39.2 22.6206H39.0361V15.436ZM137.217 15.436H133.832V29.5593C133.832 31.8549 132.957 33.2187 130.882 33.2187C128.835 33.2187 127.933 31.7692 127.933 29.2836V26.6602L124.548 27.506V28.6799C124.548 32.2573 126.324 34.9926 130.882 34.9926C135.441 34.9926 137.217 32.2611 137.217 28.6799V15.436ZM157.584 15.436H154.363V34.5603H157.584V25.736C157.584 23.7163 158.623 22.5386 160.288 22.5386C161.9 22.5386 162.608 23.6044 162.608 25.218V34.5603H165.829V25.1882C165.829 22.3747 164.355 20.627 161.517 20.627C159.495 20.627 158.377 21.5027 157.748 22.6206H157.584V15.436ZM112.862 33.0026C110.24 33.0026 108.631 30.8711 108.631 28.6054C108.631 27.1856 109.261 25.8739 110.296 25.136L116.467 31.8846C115.32 32.5666 114.035 33.0026 112.862 33.0026ZM118.869 29.6413L113.517 23.7386C114.474 23.3548 115.401 23.2206 116.165 23.2206C118.377 23.2206 119.74 24.5062 119.74 26.7198C119.744 27.7036 119.469 28.7134 118.869 29.6413ZM112.78 22.9486L111.607 21.6368C110.568 20.4891 110.27 19.7773 110.27 18.9314C110.27 17.3477 111.279 16.4459 112.862 16.4459C114.474 16.4459 115.428 17.3738 115.428 19.0693C115.428 20.627 114.664 22.1027 112.78 22.9486ZM112.944 15C109.175 15 107.32 17.1055 107.32 19.7252C107.32 21.145 107.92 22.5685 109.506 24.2863L109.533 24.3423C106.858 25.6279 105.63 27.7036 105.63 29.8351C105.63 32.6486 107.786 35 111.119 35C113.029 35 115.268 34.2062 117.29 32.7865L118.928 34.564H123.214V34.4261L119.722 30.5729C121.196 28.8252 122.042 26.9135 122.042 25.2441C122.042 23.1684 120.649 21.7747 118.467 21.7747C117.32 21.7747 116.035 22.1027 115.189 22.4306L115.133 22.3226C117.208 21.2009 118.083 20.1649 118.083 18.7153C118.076 16.6397 116.221 15 112.944 15Z" fill="white"/>
</svg>
