<svg width="180" height="50" viewBox="0 0 180 50" fill="none" xmlns="http://www.w3.org/2000/svg">
<path d="M52.5492 26.3068H39.5222V14.5211H41.8032V24.5364H52.5492V26.3068Z" fill="white"/>
<path d="M68.5161 22.4119C68.5161 23.6259 67.9079 24.6881 66.6407 25.4469C65.3734 26.2056 63.7514 26.6103 61.6732 26.6103C59.5949 26.6103 57.9222 26.2056 56.655 25.4469C55.3878 24.6881 54.7795 23.6259 54.7795 22.4119V14.5211H57.1112V21.9567C57.1112 23.6765 58.6318 24.587 61.6732 24.587C64.7145 24.587 66.2352 23.7271 66.2352 21.9567V14.5211H68.5668L68.5161 22.4119Z" fill="white"/>
<path d="M88.9944 26.3068H86.6627L86.612 16.595L80.6814 24.6376L74.7509 16.5444L74.7002 16.6455V26.3068H72.4192V14.5211H75.866L80.6814 21.198L85.4969 14.5211H88.9437L88.9944 26.3068Z" fill="white"/>
<path d="M95.3305 26.3068H92.9988V14.5211H95.3305V26.3068Z" fill="white"/>
<path d="M113.122 26.3068H109.675L101.667 16.4938V26.3068H99.3349V14.5211H102.782L110.791 24.3846V14.5211H113.072V26.3068H113.122Z" fill="white"/>
<path d="M131.117 26.3068H128.582L127.214 23.7777H119.256L117.887 26.3068H115.353L121.79 14.5211H124.629L131.117 26.3068ZM126.048 21.7038L123.26 16.4938L120.421 21.7038H126.048Z" fill="white"/>
<path d="M145.411 16.595H139.734V26.3068H137.453V16.595H131.826V14.5211H145.411V16.595Z" fill="white"/>
<path d="M162.696 20.3886C162.696 22.2602 161.783 24.0306 160.212 25.0928C158.691 26.155 156.816 26.7114 154.94 26.6609C153.065 26.7114 151.189 26.2056 149.618 25.0928C147.033 23.3224 146.374 19.7816 148.148 17.2019C148.554 16.595 149.061 16.0891 149.618 15.7351C152.811 13.6106 156.968 13.6106 160.161 15.7351C161.783 16.7467 162.696 18.5171 162.696 20.3886ZM160.313 20.3886C160.313 19.2252 159.756 18.1124 158.793 17.4043C156.461 15.8362 153.369 15.8362 151.037 17.4043C149.365 18.6688 149.01 21.0462 150.328 22.7154C150.53 22.9683 150.784 23.2213 151.037 23.4236C152.153 24.2329 153.572 24.6376 154.94 24.587C156.309 24.6376 157.678 24.2329 158.843 23.4236C159.807 22.7154 160.364 21.552 160.313 20.3886Z" fill="white"/>
<path d="M179.93 26.3068H177.243L174.151 21.9567H168.322V26.3068H166.041V14.5211H175.571C176.686 14.4705 177.75 14.8246 178.561 15.5327C179.322 16.2409 179.727 17.2525 179.676 18.2642C179.676 20.2369 178.713 21.4003 176.737 21.8555L179.93 26.3068ZM175.216 19.8828C176.635 19.8828 177.294 19.377 177.294 18.2642C177.294 17.1514 176.534 16.5444 175.064 16.5444H168.322V19.8322H175.216V19.8828Z" fill="white"/>
<path d="M46.8214 30.3028H43.6787V35.8669H42.6142V30.3028H39.4715V29.3417H46.8214V30.3028Z" fill="white"/>
<path d="M54.9823 35.8669H48.0886V29.3417H54.7288V30.3028H49.2037V31.972H53.0561V32.9837H49.2037V34.9058H54.9823V35.8669Z" fill="white"/>
<path d="M64.2583 30.8086L63.2445 31.1627C62.4842 30.4545 61.4704 30.0499 60.4566 30.1005C59.6456 30.0499 58.8853 30.3028 58.2263 30.8086C57.2632 31.6179 57.1112 33.0342 57.9222 34.0459C58.0236 34.1471 58.125 34.2482 58.2263 34.3494C59.7977 35.4116 61.8759 35.2093 63.2445 33.9447L64.1569 34.4505C63.7514 34.9564 63.1938 35.361 62.5856 35.6139C61.9266 35.8669 61.1663 36.0186 60.4566 35.968C59.4429 36.0186 58.4291 35.7151 57.5674 35.1081C56.1481 34.0459 55.7933 32.0732 56.8577 30.6063C57.0605 30.3534 57.3139 30.1005 57.5674 29.8981C58.3784 29.2911 59.3922 28.9876 60.4566 29.0382C61.9266 29.0382 63.3966 29.6452 64.2583 30.8086Z" fill="white"/>
<path d="M73.5343 35.8669H72.4699V32.9331H67.1982V35.8163H66.1338V29.3417H67.1982V31.972H72.4699V29.3417H73.5343V35.8669Z" fill="white"/>
<path d="M81.8473 35.8669L76.8291 30.5051V35.8669H75.7646V29.3417H77.1332L82.1514 34.7035V29.3417H83.2159V35.8669H81.8473Z" fill="white"/>
<path d="M93.455 32.6296C93.455 33.6412 92.9988 34.6529 92.1371 35.2599C90.363 36.4233 88.082 36.4233 86.3586 35.2599C84.9393 34.2482 84.5845 32.2249 85.6489 30.8086C85.8517 30.5051 86.1051 30.3028 86.3586 30.1005C87.1696 29.4935 88.234 29.19 89.2478 29.19C90.2616 29.1394 91.2754 29.4429 92.1371 30.0499C92.9481 30.6063 93.455 31.5673 93.455 32.6296ZM92.3398 32.6296C92.3398 31.8708 91.985 31.1627 91.3767 30.758C90.0588 29.8981 88.3354 29.9487 87.0682 30.8592C86.1051 31.6685 85.953 33.1354 86.7641 34.0965C86.8654 34.1976 86.9668 34.3494 87.0682 34.4C87.7272 34.9058 88.4875 35.1081 89.2985 35.0575C90.1095 35.1081 90.8699 34.8552 91.5288 34.3494C92.0357 33.9447 92.3398 33.2872 92.3398 32.6296Z" fill="white"/>
<path d="M101.464 35.8669H95.2798V29.3417H96.3442V34.9058H101.413V35.8669H101.464Z" fill="white"/>
<path d="M110.841 32.6296C110.841 33.6412 110.385 34.6529 109.523 35.2599C107.749 36.4233 105.468 36.4233 103.745 35.2599C102.326 34.2482 101.971 32.2249 103.035 30.8086C103.238 30.5557 103.491 30.3028 103.745 30.1005C104.556 29.4935 105.62 29.19 106.634 29.19C107.648 29.1394 108.662 29.4429 109.523 30.1005C110.334 30.6063 110.841 31.5673 110.841 32.6296ZM109.675 32.6296C109.675 31.8708 109.321 31.1627 108.712 30.758C107.394 29.8981 105.671 29.9487 104.404 30.8592C103.441 31.6685 103.289 33.1354 104.049 34.0965C104.15 34.1976 104.252 34.3494 104.404 34.4505C105.063 34.9564 105.823 35.1587 106.634 35.1081C107.445 35.1587 108.205 34.9058 108.814 34.4C109.371 33.9447 109.726 33.2872 109.675 32.6296Z" fill="white"/>
<path d="M120.726 32.5284C120.776 33.5401 120.32 34.4505 119.56 35.1081C118.698 35.8163 117.633 36.1703 116.518 36.1198C115.505 36.1703 114.44 35.8669 113.629 35.2599C112.21 34.1976 111.855 32.2249 112.919 30.758C113.122 30.5051 113.376 30.2522 113.629 30.0499C114.491 29.4429 115.555 29.1394 116.62 29.1394C117.988 29.0888 119.306 29.6958 120.168 30.7074L119.154 31.2133C117.887 29.9487 115.91 29.7464 114.44 30.758C113.426 31.4662 113.173 32.8825 113.883 33.9447C113.984 34.0965 114.136 34.2988 114.339 34.4C114.998 34.9058 115.758 35.1081 116.569 35.1081C118.039 35.1081 118.951 34.5517 119.408 33.4389H116.366V32.4272H120.776L120.726 32.5284Z" fill="white"/>
<path d="M129.799 29.3417L126.2 33.2872V35.8669H125.135V33.2872L121.537 29.3417H122.905L125.693 32.3767L128.481 29.3417H129.799Z" fill="white"/>
<path d="M141.66 32.5284C141.711 33.5401 141.254 34.4505 140.494 35.1081C139.632 35.8163 138.568 36.1703 137.453 36.1198C136.439 36.1703 135.375 35.8669 134.564 35.2599C133.144 34.1976 132.789 32.2249 133.854 30.758C134.057 30.5051 134.31 30.2522 134.564 30.0499C135.425 29.4429 136.49 29.1394 137.503 29.1394C138.872 29.0888 140.19 29.6958 141.052 30.7074L140.038 31.2133C138.771 29.9487 136.794 29.7464 135.324 30.758C134.31 31.4662 134.057 32.8825 134.766 33.9447C134.868 34.0965 135.02 34.2988 135.222 34.4C135.881 34.9058 136.642 35.1081 137.453 35.1081C138.923 35.1081 139.835 34.5517 140.291 33.4389H137.25V32.4272H141.66V32.5284Z" fill="white"/>
<path d="M150.987 35.8669H149.719L147.945 33.3883H144.651V35.8669H143.586V29.3417H148.756C149.365 29.2911 149.922 29.4935 150.378 29.8981C150.784 30.3028 150.987 30.8592 150.987 31.4156C150.987 31.9214 150.835 32.3767 150.48 32.7307C150.176 33.0848 149.719 33.2871 149.263 33.3377L150.987 35.8669ZM148.554 32.4272C149.415 32.4272 149.821 32.0732 149.821 31.4156C149.821 30.7074 149.365 30.3534 148.452 30.3534H144.651V32.4272H148.554Z" fill="white"/>
<path d="M160.77 32.6296C160.77 33.6412 160.313 34.6529 159.452 35.2599C157.678 36.4233 155.397 36.4233 153.673 35.2599C152.811 34.6529 152.305 33.6918 152.355 32.6802C152.355 31.6685 152.862 30.6569 153.673 30.1005C154.484 29.4935 155.549 29.19 156.562 29.19C157.576 29.1394 158.59 29.4429 159.452 30.1005C160.263 30.6063 160.77 31.5673 160.77 32.6296ZM159.604 32.6296C159.604 31.8708 159.249 31.1627 158.641 30.758C157.323 29.8981 155.599 29.9487 154.332 30.8592C153.369 31.6685 153.217 33.1354 153.977 34.0965C154.079 34.1976 154.18 34.3494 154.332 34.4505C154.991 34.9564 155.751 35.1587 156.562 35.1081C157.373 35.1587 158.134 34.9058 158.793 34.4C159.35 33.9447 159.654 33.2872 159.604 32.6296Z" fill="white"/>
<path d="M169.995 33.793C169.995 34.5011 169.589 35.1081 168.981 35.4622C168.17 35.9174 167.207 36.1703 166.244 36.1198C165.281 36.1703 164.368 35.9174 163.557 35.4622C162.949 35.1587 162.544 34.5011 162.544 33.793V29.3417H163.608V33.4895C163.608 33.9953 163.862 34.4505 164.267 34.6529C164.875 34.9564 165.534 35.1081 166.244 35.0575C166.903 35.1081 167.613 34.9564 168.221 34.6529C168.626 34.4 168.88 33.9447 168.88 33.4895V29.3417H169.944L169.995 33.793Z" fill="white"/>
<path d="M177.345 29.3417C177.902 29.2911 178.511 29.4935 178.916 29.8981C179.322 30.3028 179.524 30.8086 179.524 31.365C179.575 31.9214 179.322 32.4778 178.916 32.8319C178.409 33.186 177.75 33.3883 177.142 33.3377H173.239V35.8163H172.175V29.3417H177.345ZM177.142 32.3767C177.953 32.3767 178.409 32.0226 178.409 31.365C178.409 30.7074 177.953 30.3028 177.091 30.3028H173.239V32.3767H177.142Z" fill="white"/>
<path d="M16.0026 31.8708L31.8682 27.2678C33.1354 18.5171 27.0528 10.4239 18.2836 9.15934C14.3806 8.60293 10.3762 9.51342 7.08143 11.739L16.0026 31.8708Z" fill="white"/>
<path d="M5.76352 12.7001C-1.02877 18.3148 -1.94116 28.4312 3.68528 35.2093C5.15525 36.9291 6.92936 38.3454 8.95691 39.357L5.76352 12.7001Z" fill="white"/>
<path d="M10.7817 40.1158C19.0947 42.999 28.2186 38.5983 31.1079 30.3028C31.2599 29.8475 31.412 29.3923 31.5134 28.9371L10.7817 40.1158Z" fill="white"/>
</svg>
