<svg width="50" height="50" viewBox="0 0 50 50" fill="none" xmlns="http://www.w3.org/2000/svg">
<g clip-path="url(#clip0_40_24178)">
<path fill-rule="evenodd" clip-rule="evenodd" d="M42.0773 27.7802C42.0773 28.6728 41.71 29.5646 41.4996 30.4561L36.9879 13.038L37.0406 12.9332L37.5648 12.7233C38.9293 14.0872 39.7682 15.6612 39.7682 17.6025C39.7682 18.547 39.1915 19.3864 39.1915 20.3309C39.192 22.8488 42.0773 22.9536 42.0773 27.7802ZM45.0673 38.536V34.2342H42.3919C42.0773 33.5517 41.8677 32.8176 41.8677 32.0304C41.8677 30.0891 42.8643 28.3578 42.8643 26.4163C42.8643 23.0589 39.8742 22.6392 39.8742 19.8058C39.8742 19.0191 40.5035 18.3369 40.5035 17.5501C40.5035 14.9795 39.6117 13.9824 37.8803 12.2512H38.0377L37.9329 11.8315C36.6212 11.0445 35.3623 9.73301 35.9392 8.1066L35.7294 7.89675L35.4669 8.31671C35.4669 9.26117 35.6243 10.2578 36.1488 11.0972C33.7356 11.0972 27.0726 9.57555 25.6039 7.6345L26.076 7.26745L26.7053 7.42439L27.1774 7.05734L27.5968 5.79824C26.705 4.11917 28.3841 4.01438 25.8656 2.44063C25.0783 2.44063 24.2395 2.65074 23.5572 3.12258C23.4527 3.80479 22.7176 4.38168 22.7176 5.06363C22.7176 5.32588 22.7176 5.37854 22.8229 5.58839L22.2984 7.00495L21.8263 6.53285L22.4032 4.59153L22.0885 3.33243L20.9342 2.33557C19.8852 2.33557 18.7833 2.75553 18.1535 3.64707C18.3636 4.53913 18.5211 5.43094 18.4687 6.37539L19.2554 7.89701L18.4687 8.68401C15.5303 9.31356 12.8025 10.94 9.75923 11.0448L10.389 8.8936L9.23473 8.57922C8.91956 9.94312 8.71023 11.2025 7.71286 12.2517L8.18496 12.8289L7.08356 12.6714L6.97851 13.1435L8.13282 13.406L3.35865 34.2347H1.57504V38.5365H45.0673V38.536ZM42.0773 34.2342C37.5651 33.9712 35.519 26.5735 34.0503 23.1116C32.4768 19.3867 30.0105 16.4485 28.3841 12.8286L28.7514 11.8842L28.6461 11.4642C29.9054 11.8842 31.1124 12.3563 32.4768 12.3563C33.4202 12.3563 34.4176 12.3036 35.3621 12.2512C35.7294 12.6185 36.1488 12.9332 36.6212 13.143L41.2908 30.9811C41.5528 32.083 41.5528 33.1844 42.0773 34.2342ZM27.4396 20.2779C26.6002 21.957 26.0757 23.7404 25.7084 25.5771C24.6062 26.3639 23.6096 27.361 22.8753 28.4624C22.2455 27.361 21.3015 26.4687 20.252 25.787C19.6751 23.9507 19.3076 22.1145 18.6254 20.3306C19.1499 18.7042 19.2552 19.0191 19.2552 17.1302C20.8292 15.8711 22.1931 14.2973 22.8753 12.4084C24.0296 14.1399 25.4462 15.6088 26.9149 17.0775C26.705 17.3924 26.6523 17.7597 26.6523 18.1268C26.6523 18.9143 26.9675 19.6487 27.4396 20.2779ZM36.9882 32.4503C36.8838 33.0392 36.8311 33.6361 36.8308 34.2342H26.0233C25.3414 33.1318 24.7642 31.9777 23.9772 30.9811C25.0262 30.0891 25.4462 28.673 26.4428 27.7802C27.0726 27.2041 27.9114 26.9934 28.0692 26.049C29.0136 25.0524 29.6958 23.8457 30.273 22.5868C31.1124 23.5837 31.689 24.7377 32.5289 25.7343C32.5287 28.148 35.257 30.9811 36.9882 32.4503ZM23.5048 32.9746C23.3474 33.2371 23.0327 33.4461 22.8753 33.7087C22.613 33.4993 22.4553 33.2371 22.1931 33.0794C22.3508 32.7642 22.613 32.4501 22.8753 32.1873L23.5048 32.9746ZM17.9963 11.3594C17.4189 12.5659 17.2088 13.9303 16.4745 15.0319C15.11 17.0778 13.169 18.5994 12.2245 20.9604C10.9133 24.3183 8.60466 34.2342 4.09274 34.2342H3.67303C5.4569 27.3613 6.92585 20.3833 9.12916 13.6151L10.1787 13.9824L10.3885 13.3007L9.23421 13.143V13.0382L10.4409 12.3039C11.8575 12.3039 13.2738 12.4613 14.6906 12.3039C15.8452 12.1464 16.7896 11.3594 17.9963 11.3594ZM21.6162 30.9811C20.9864 32.083 20.3571 33.1844 19.6222 34.2342H9.07702C9.07702 33.7089 8.97222 33.1844 8.86717 32.6597C10.5981 30.5617 13.2743 28.5677 13.3267 25.5774C14.1664 24.6332 14.6908 23.4265 15.53 22.482C16.3697 25.787 19.7797 28.2001 21.6162 30.9811ZM49.2649 46.6151V44.202H48.6877L48.0058 46.1433L47.3233 44.202H46.7467V46.6151H47.2188V44.6214L47.7954 46.6151H48.1632L48.8978 44.6214V46.6151H49.2649ZM46.5366 44.5166V44.202H44.438V44.5166H45.3825V46.6151H45.645V44.5166H46.5366ZM45.0673 46.6151V46.4582C43.4938 45.9856 42.4972 43.9924 41.4475 42.7857C42.4441 41.7886 43.3883 40.3725 44.7527 39.8994V39.8478H42.3917C42.4438 40.0576 42.6015 40.2151 42.759 40.3193C42.03 41.3106 41.2415 42.2567 40.398 43.1525C40.8179 43.6251 43.0739 45.9334 43.1258 46.2481L42.7068 46.4585V46.6154L45.0673 46.6151ZM40.9754 39.9523V39.8475H38.4574V39.9523C38.6673 40.0571 38.8769 40.1622 39.0867 40.3191C39.192 40.5816 39.2442 42.1029 39.2442 42.4186V43.3621C39.2442 44.307 39.192 45.3034 39.192 46.2478C38.9295 46.4053 38.6144 46.4053 38.3 46.4582V46.6151H40.7131V46.4582C40.6088 46.4582 40.3463 46.4055 40.3463 46.2478V40.2669C40.5559 40.1621 40.7655 40.0047 40.9754 39.9523ZM38.0896 44.6743H37.8798C37.5651 45.3036 37.4076 46.1957 36.5164 46.1957C35.0993 46.1957 34.2077 45.0943 34.2077 43.7299C34.2077 42.5232 35.0996 41.3689 36.3584 41.3689C36.673 41.3689 36.9882 41.421 37.3029 41.4742C37.4603 41.7362 37.5654 42.3655 37.6702 42.6804H37.9327L38.0375 40.8965C37.5654 40.7917 37.0409 40.634 36.5166 40.634C34.5224 40.634 33.1061 41.7359 33.1061 43.7818C33.1061 45.6183 34.6801 46.7202 36.4113 46.7202C36.9885 46.7202 37.4079 46.7202 37.9327 46.4577L38.0896 44.6743ZM32.9484 46.6151V46.4582C32.7385 46.4582 32.5289 46.3534 32.3712 46.2478L32.3191 41.2635C32.4765 41.0542 32.7385 40.9489 32.9484 40.8441V40.6866H30.5347V40.8441C30.7972 41.0016 31.0068 41.2114 31.2172 41.4213V46.2478C31.1124 46.4053 30.8499 46.4582 30.64 46.4582C30.0501 45.6572 29.49 44.8347 28.961 43.9924C29.6956 43.5203 29.9581 43.0479 29.9581 42.208C29.9581 41.2635 28.6458 40.6866 27.8591 40.6866H24.8693V40.8441C25.1315 40.8968 25.394 41.1061 25.5504 41.3167V46.1957C25.2884 46.3005 25.0783 46.4055 24.8163 46.4582V46.6151H27.1774V46.4582C26.9675 46.4055 26.7053 46.4055 26.5481 46.2478V41.3689H26.8106C27.5452 41.3689 28.9612 41.421 28.9612 42.4186C28.9612 43.1522 28.3841 43.6772 27.7019 43.782C28.3843 45.1991 29.5384 46.3005 30.273 47.6649H32.1611V47.4545C31.3222 47.2976 31.3222 47.2447 30.7972 46.6151H32.9484ZM24.5541 44.9366H24.4493C23.9772 46.0385 23.295 46.1957 22.1931 46.1957H21.4587V43.6772C21.826 43.6772 22.1931 43.6251 22.5606 43.6251C23.0851 43.6251 23.3995 43.782 23.662 44.2549H23.8197C23.7671 43.6251 23.7671 43.0482 23.7671 42.4189H23.662L23.295 43.1003H21.4587C21.4587 42.4705 21.4587 41.8936 21.5111 41.2638L22.613 41.2117C23.3998 41.2117 23.8719 41.4747 24.2395 42.2083H24.4493L24.344 40.6869H18.3631V40.8444C18.5206 41.0018 18.6254 41.2117 18.7307 41.3691C18.4155 42.5753 17.8386 43.7301 17.4187 44.8837C16.7894 43.7301 16.3173 42.5756 15.7922 41.3691C15.9497 41.1593 16.1071 40.9492 16.3173 40.8444V40.6869H13.9036V40.8444C15.2153 41.9463 16.5268 45.1993 17.0519 46.8258H17.3141C17.8386 45.619 18.9929 41.6314 19.9374 41.0021C20.0943 41.1063 20.252 41.2119 20.4097 41.3172V46.0906C20.4097 46.3537 19.9374 46.4585 19.7275 46.4585V46.6154H24.4496L24.5541 44.9366ZM16.3697 46.6151V46.4582C15.1629 46.3007 13.4841 41.317 12.8546 40.1624H12.7498C11.9101 41.9989 11.1231 44.6217 9.86376 46.1438L9.49698 45.9334C8.97248 45.1462 8.9193 41.4747 8.81477 40.3193L9.33927 39.9526V39.8478H7.66046C6.92585 41.4744 6.40135 43.2056 5.66701 44.832C4.82734 43.2056 4.04034 41.5263 3.30599 39.8478H1.83729V40.0047L2.41419 40.3193C2.41419 42.1559 1.99423 43.9924 1.73224 45.8279C1.41759 46.0904 1.10295 46.3005 0.735382 46.4582V46.6151H3.25385V46.4582L2.41419 45.881L2.88629 41.6835C3.77835 43.4147 4.51296 45.2512 5.35184 46.983H5.56195C6.19176 45.0943 6.92611 43.2578 7.66046 41.4213C7.81791 42.8905 8.23787 44.307 8.23787 45.7762C8.23787 46.1436 7.81791 46.4055 7.50301 46.4582V46.6151H11.5428V46.4582L10.9135 46.0388C11.438 44.727 11.9104 43.3623 12.5923 42.1032C13.0644 43.5203 13.7988 44.7791 14.4289 46.0904L13.8514 46.4582V46.6151H16.3697Z" fill="white"/>
</g>
<defs>
<clipPath id="clip0_40_24178">
<rect width="50" height="50" fill="white"/>
</clipPath>
</defs>
</svg>
