<svg width="124" height="50" viewBox="0 0 124 50" fill="none" xmlns="http://www.w3.org/2000/svg">
<path d="M23.7119 14.6271V36.5932H19.9038V19.3559H19.853L13.0492 36.5932H10.5104L3.55424 19.3559H3.50347V36.5932H0V14.6271H5.48369L11.7798 30.8983H11.8813L18.5328 14.6271H23.7119ZM26.8599 16.3051C26.8599 15.6949 27.063 15.1864 27.52 14.7797C27.977 14.3729 28.4847 14.1695 29.094 14.1695C29.7541 14.1695 30.3126 14.3729 30.7188 14.7797C31.125 15.1864 31.3789 15.6949 31.3789 16.3051C31.3789 16.9153 31.1758 17.4237 30.7188 17.8305C30.2618 18.2373 29.7541 18.4407 29.094 18.4407C28.434 18.4407 27.9262 18.2373 27.52 17.8305C27.1138 17.3729 26.8599 16.8644 26.8599 16.3051ZM30.9727 20.8305V36.5932H27.2661V20.8305H30.9727ZM42.194 33.8983C42.7525 33.8983 43.3618 33.7966 44.0218 33.4915C44.6819 33.2373 45.2912 32.8814 45.8497 32.4746V35.9322C45.2404 36.2881 44.5804 36.5424 43.8187 36.6949C43.0571 36.8475 42.2447 36.9492 41.3308 36.9492C38.9951 36.9492 37.1165 36.2373 35.6948 34.7627C34.2223 33.2881 33.5114 31.4068 33.5114 29.1695C33.5114 26.6271 34.2731 24.5424 35.7455 22.9153C37.218 21.2881 39.2998 20.4746 42.0416 20.4746C42.7525 20.4746 43.4633 20.5763 44.1234 20.7288C44.8342 20.8814 45.3928 21.1356 45.799 21.339V24.8983C45.2404 24.4915 44.6311 24.1356 44.0726 23.9322C43.4633 23.7288 42.854 23.5763 42.2447 23.5763C40.7723 23.5763 39.6044 24.0339 38.6905 25C37.7765 25.9661 37.3703 27.2373 37.3703 28.8644C37.3703 30.4407 37.8273 31.7119 38.6905 32.5763C39.5537 33.4407 40.7215 33.8983 42.194 33.8983ZM56.3601 20.5763C56.6648 20.5763 56.9187 20.5763 57.1726 20.6271C57.4264 20.678 57.6295 20.7288 57.7818 20.7797V24.5424C57.5787 24.3898 57.3249 24.2373 56.9187 24.1356C56.5125 24.0339 56.1063 23.9322 55.5478 23.9322C54.6338 23.9322 53.8722 24.339 53.2629 25.1017C52.6536 25.8644 52.2982 27.0339 52.2982 28.661V36.5932H48.5916V20.8305H52.2982V23.322H52.3489C52.7044 22.4576 53.2121 21.7966 53.8722 21.2881C54.583 20.8305 55.3954 20.5763 56.3601 20.5763ZM57.9849 28.9661C57.9849 26.3729 58.7466 24.2881 60.1683 22.7627C61.6407 21.2373 63.6717 20.4746 66.2613 20.4746C68.6984 20.4746 70.6279 21.1864 71.9988 22.661C73.3697 24.1356 74.0806 26.1186 74.0806 28.6102C74.0806 31.1525 73.319 33.1864 71.8973 34.7119C70.4248 36.2373 68.4446 37 65.9058 37C63.4686 37 61.5392 36.2881 60.1175 34.8644C58.6958 33.3898 57.9849 31.4068 57.9849 28.9661ZM61.8438 28.8136C61.8438 30.4407 62.1993 31.7119 62.9609 32.5763C63.7225 33.4407 64.7888 33.8983 66.1597 33.8983C67.4799 33.8983 68.5461 33.4915 69.257 32.5763C69.9678 31.7119 70.3232 30.4407 70.3232 28.7119C70.3232 27.0339 69.9678 25.7627 69.257 24.8475C68.5461 23.9831 67.4799 23.5254 66.2105 23.5254C64.8396 23.5254 63.8241 23.9831 63.0624 24.8983C62.1993 25.8644 61.8438 27.1356 61.8438 28.8136ZM79.6151 25C79.6151 25.5085 79.7674 25.9661 80.1228 26.2712C80.4782 26.5763 81.1891 26.9322 82.3569 27.3898C83.8294 28 84.8956 28.661 85.4542 29.3729C86.0635 30.1356 86.3681 31 86.3681 32.0678C86.3681 33.5424 85.8096 34.7119 84.6418 35.6271C83.5247 36.5424 81.9507 36.9492 80.0213 36.9492C79.3612 36.9492 78.6503 36.8475 77.8379 36.6949C77.0255 36.5424 76.3655 36.339 75.8069 36.0847V32.4237C76.467 32.8814 77.2286 33.2881 77.9903 33.5424C78.7519 33.7966 79.4627 33.9492 80.1228 33.9492C80.9352 33.9492 81.5953 33.8475 81.9507 33.5932C82.3569 33.339 82.56 32.9831 82.56 32.4237C82.56 31.9153 82.3569 31.5085 81.9507 31.1017C81.5445 30.7458 80.7321 30.339 79.6151 29.8814C78.2441 29.322 77.2794 28.661 76.7209 27.9492C76.1624 27.2373 75.8577 26.322 75.8577 25.2034C75.8577 23.7797 76.4162 22.6102 77.5333 21.6949C78.6503 20.7797 80.1228 20.322 81.8999 20.322C82.4585 20.322 83.0678 20.3729 83.7278 20.5254C84.3879 20.678 84.9972 20.8305 85.4542 20.9831V24.5932C84.9464 24.2881 84.3879 23.9831 83.7278 23.7288C83.0678 23.4746 82.4077 23.3729 81.7984 23.3729C81.0875 23.3729 80.529 23.5254 80.1736 23.7797C79.8182 24.1356 79.6151 24.4915 79.6151 25ZM87.9421 28.9661C87.9421 26.3729 88.7038 24.2881 90.1255 22.7627C91.5979 21.2373 93.6289 20.4746 96.2185 20.4746C98.6557 20.4746 100.585 21.1864 101.956 22.661C103.327 24.1356 104.038 26.1186 104.038 28.6102C104.038 31.1525 103.276 33.1864 101.854 34.7119C100.382 36.2373 98.4018 37 95.863 37C93.4258 37 91.4964 36.2881 90.0747 34.8644C88.7038 33.3898 87.9421 31.4068 87.9421 28.9661ZM91.801 28.8136C91.801 30.4407 92.1565 31.7119 92.9181 32.5763C93.6797 33.4407 94.746 33.8983 96.1169 33.8983C97.437 33.8983 98.5033 33.4915 99.2142 32.5763C99.925 31.7119 100.28 30.4407 100.28 28.7119C100.28 27.0339 99.925 25.7627 99.2142 24.8475C98.5033 23.9831 97.437 23.5254 96.1677 23.5254C94.7968 23.5254 93.7812 23.9831 93.0196 24.8983C92.2072 25.8644 91.801 27.1356 91.801 28.8136ZM116.376 23.8814H110.842V36.5932H107.084V23.8814H104.444V20.8305H107.084V18.6441C107.084 17.0169 107.643 15.6441 108.709 14.5763C109.775 13.5085 111.146 13 112.822 13C113.279 13 113.685 13.0508 114.04 13.0508C114.396 13.0508 114.701 13.1525 114.954 13.2542V16.4576C114.853 16.4068 114.599 16.3051 114.294 16.2034C113.99 16.1017 113.634 16.0508 113.228 16.0508C112.466 16.0508 111.857 16.3051 111.451 16.7627C111.045 17.2203 110.842 17.9831 110.842 18.8983V20.7797H116.376V17.2203L120.083 16.1017V20.7797H123.84V23.8305H120.083V31.2034C120.083 32.1695 120.286 32.8305 120.59 33.2373C120.946 33.6441 121.504 33.8475 122.266 33.8475C122.469 33.8475 122.723 33.7966 123.028 33.6949C123.332 33.5932 123.586 33.4915 123.789 33.339V36.3898C123.535 36.5424 123.18 36.6441 122.621 36.7458C122.063 36.8475 121.555 36.8983 120.997 36.8983C119.423 36.8983 118.255 36.4915 117.493 35.678C116.732 34.8644 116.325 33.5932 116.325 31.9153L116.376 23.8814Z" fill="white"/>
</svg>
