<svg width="187" height="50" viewBox="0 0 187 50" fill="none" xmlns="http://www.w3.org/2000/svg">
<g clip-path="url(#clip0_41_24600)">
<path d="M187.199 15.8404V16.9862C186.763 18.4092 185.541 19.2532 184.257 19.87C183.507 23.4221 183.963 30.2911 179.008 30.8087C176.395 31.0818 174.179 29.4209 173.468 26.9719L167.138 30.8595C166.272 31.3114 164.804 31.263 164.481 30.1492C164.12 28.9067 165.642 26.5126 166.166 25.3077C166.984 23.4287 168.792 18.5856 164.798 21.735C164.124 22.2665 163.396 23.0506 162.821 23.6961C160.762 26.0073 159.124 28.6713 157.397 31.2261L155.211 30.0287L157.601 24.5163C156.104 25.7966 154.571 27.1548 152.689 27.8511C152.301 27.9946 151.661 28.0742 151.359 28.2464C151.083 28.4039 150.493 29.0789 150.159 29.343C147.523 31.4254 143.882 32.239 141.856 28.9378L141.198 26.9719C140.357 27.528 139.529 27.9914 138.545 28.2579C138.204 28.3498 137.558 28.3727 137.297 28.4892C137.14 28.5589 136.746 29.0674 136.556 29.2249C134.459 30.9604 131.355 32.4515 128.87 30.4904C128.058 29.8499 127.182 28.2948 127.182 27.2589V25.5808C125.471 27.0186 123.877 28.6032 122.168 30.0426C121.151 30.8989 119.65 32.4761 118.229 31.7519C116.606 30.9251 117.929 28.5983 118.507 27.4615C119.674 25.1642 121.33 22.6454 122.024 20.1595C122.154 19.6936 122.569 18.4346 121.673 18.6586C120.45 18.9637 117.184 22.2411 116.414 23.3319C116.059 23.8339 115.927 24.3432 115.66 24.8739C114.775 26.6348 112.605 31.2589 110.737 31.9225C110.037 32.171 109.186 31.8454 109.031 31.0875C108.62 29.0822 111.411 25.5308 112.597 23.9528C113.595 22.6258 114.202 22.1468 114.626 20.4072C114.758 19.8691 115.072 18.6348 114.191 18.7389C112.96 18.8833 110.906 20.8345 110.039 21.7334C107.65 24.2128 107.017 27.3746 104.936 30.0762C104.277 30.9309 102.651 32.7713 101.569 31.4779C100.611 30.333 102.228 27.7084 102.894 26.6528C104.248 24.5081 106.849 22.223 106.961 19.6501C106.98 19.1949 106.943 18.6561 106.363 18.7217C105.213 18.8521 102.783 21.4808 101.982 22.3895C99.5596 25.1347 97.5058 28.2161 95.5688 31.3114C95.5087 31.4008 95.4421 31.4082 95.3426 31.382C95.2348 31.3541 93.5471 30.3346 93.4426 30.237C93.3859 30.1837 93.2913 30.1665 93.3168 30.0574C95.1378 27.1482 97.032 24.2587 99.2298 21.6153C100.651 19.9052 102.985 17.2782 105.066 16.458C107.057 15.6739 109.115 16.3711 109.629 18.5445C111.307 17.1133 114.209 14.9177 116.368 16.6631C116.902 17.0961 117.263 17.8015 117.398 18.4617C119.035 17.1133 121.549 15.0063 123.754 16.3481C125.658 17.507 124.774 20.271 124.161 21.9622C123.561 23.6173 122.71 25.1732 121.854 26.7045C121.813 26.7767 121.673 26.9095 121.795 26.9735L128.54 20.7557C129.603 19.8224 130.388 18.6093 131.455 17.6834C136.271 13.5021 141.903 16.2136 140.46 22.6372L139.883 24.6819C141.669 23.4025 142.326 21.2864 143.557 19.5821C148.038 13.375 156.039 13.8925 154.452 22.7348L154.024 24.1906C157.08 21.6407 159.683 18.561 161.808 15.2023C162.041 15.0662 163.659 16.0282 164.046 16.0963L164.178 16.2899L162.37 20.4269C164.037 18.8661 166.807 16.8714 168.949 18.8291C171.253 20.9354 169.124 24.4908 168.346 26.7447C168.323 26.8119 168.224 26.9423 168.331 26.9752L181.916 18.36C182.435 16.5778 183.607 13.904 185.951 14.5068C186.619 14.6791 186.945 15.2622 187.199 15.8429V15.8404ZM149.771 17.9901C148.271 18.1935 146.508 19.7953 146.131 21.2413C145.604 23.2606 147.235 25.0928 149.133 25.5407C149.628 25.6579 150.041 25.8302 150.401 25.4103C151.582 24.0307 153.205 19.66 151.438 18.3354C150.962 17.9786 150.345 17.913 149.772 17.9901H149.771ZM135.796 18.2378C133.948 18.4338 131.871 20.5286 131.947 22.433C132.014 24.1291 133.759 25.667 135.383 25.8868C136.251 26.0041 136.248 25.8064 136.67 25.165C137.846 23.377 139.612 17.8326 135.795 18.2378H135.796ZM181.36 21.7342L175.809 25.4168C175.829 28.1316 179.389 29.6563 180.52 26.5856C180.712 26.0631 181.507 21.9319 181.36 21.7342H181.36ZM144.037 24.5171C143.839 25.5825 143.592 27.3746 144.526 28.1611C145.397 28.8944 146.973 28.431 147.815 27.8314C146.707 27.3713 145.726 26.784 144.941 25.8646L144.036 24.5171H144.037ZM130.058 24.8443C129.842 24.8255 129.922 24.8361 129.898 24.9682C129.695 26.0574 129.556 27.8076 130.593 28.5277C131.411 29.0961 133.025 28.6811 133.759 28.0766C132.171 27.4976 130.738 26.4109 130.058 24.8443Z" fill="white"/>
<path d="M33.8684 26.1542C32.202 27.5837 30.6195 29.124 28.9367 30.5347C27.9357 31.3738 26.4354 32.9706 25.0396 32.3662C23.2293 31.5829 24.5864 29.2249 25.1934 28.0356C26.3573 25.7531 27.9891 23.2786 28.7105 20.8148C28.8602 20.3038 29.2945 19.0325 28.3757 19.2532C27.2374 19.5263 24.9557 21.8047 24.125 22.716C21.7578 25.3118 20.9419 29.7473 18.2046 31.9635C16.8327 33.074 15.4928 32.5491 15.7083 30.7061C15.8604 29.4053 17.2233 27.3557 17.9833 26.2591C19.1678 24.5507 20.6187 23.3278 21.2298 21.3061C21.4321 20.6352 21.9988 19.1162 20.7766 19.2966C19.4375 19.4951 16.6303 22.296 15.7395 23.3705C14.9491 24.3227 14.7492 25.1273 14.208 26.1837C13.3863 27.7879 11.3712 31.792 9.63407 32.3514C8.96372 32.5671 8.2687 32.2907 8.04909 31.6018C7.56546 30.0828 9.45394 27.318 10.3242 26.0812C11.6237 24.2333 13.4916 22.7061 13.6479 20.3046C13.6775 19.8437 13.7376 19.1703 13.0837 19.2499C11.8647 19.3983 9.26887 22.2312 8.42334 23.2056C6.11291 25.8687 4.13067 28.8222 2.257 31.8002C2.19695 31.8896 2.13033 31.897 2.03081 31.8708C1.92059 31.8421 0.156312 30.7775 0.0798188 30.6938C0.0140182 30.6208 -0.0328648 30.5962 0.0288233 30.4888C1.70098 27.8773 3.39781 25.2618 5.34304 22.8406C6.89676 20.9083 10.3258 16.9296 12.8739 16.6688C14.5263 16.4998 16.0776 17.3963 16.3161 19.1137C18.4941 16.9903 22.9241 14.7151 24.1266 19.0317C25.645 17.708 28.1298 15.7346 30.2552 16.7787C32.689 17.9745 31.3162 21.5054 30.5373 23.368C29.973 24.718 29.255 26.0024 28.5427 27.2753C28.5024 27.3475 28.3617 27.4804 28.4843 27.5443L35.4328 21.2027C37.698 18.5733 40.9165 15.1318 44.8028 16.7016C48.2302 18.0861 47.6709 22.4683 46.5704 25.252C46.4635 25.5226 46.1904 25.8851 46.1205 26.1148C46.086 26.2296 46.123 26.2575 46.2365 26.2312C46.5885 26.1484 48.5888 25.2618 48.7098 25.0092C49.4023 20.4022 51.1987 15.7887 53.6489 11.8371C55.2092 9.32165 59.6697 3.09486 63.1974 5.59066C66.165 7.69032 63.4187 13.2601 61.9381 15.5886C59.2321 19.8437 55.3425 23.7026 51.151 26.4978C51.1468 27.1761 51.1222 29.311 52.0771 29.3315C52.7614 29.3463 54.2765 28.727 54.9452 28.4342C56.8057 27.6206 58.607 26.4593 60.266 25.3003C61.1296 20.0045 63.1966 14.7299 66.2769 10.3305C67.8067 8.14551 71.2349 3.95031 74.3177 5.24209C76.3205 6.08113 76.2983 8.65074 75.9068 10.4231C74.7076 15.8568 69.2445 21.4562 65.0678 24.9239C64.7659 25.174 62.9112 26.5183 62.8495 26.6438C62.6595 27.0285 62.9235 28.8648 63.3043 29.1396C64.0117 29.6497 66.2094 28.5433 66.9217 28.1611C68.3611 27.3885 69.8959 26.2181 71.114 25.1322C71.4093 24.8689 72.6011 23.7994 72.7451 23.564C73.2575 22.7274 73.686 21.2372 74.1943 20.2595C74.8046 19.0842 76.5122 16.1176 77.903 15.9306C78.524 15.847 79.2601 16.1299 79.3983 16.8008C79.8326 18.9194 76.9012 22.6044 75.6329 24.2284C75.3541 24.586 75.1567 24.6278 74.9749 25.1281C74.5932 26.1804 74.0076 29.2011 75.9002 28.9993C78.4154 28.7311 82.1792 23.6124 83.5948 21.5964C84.6755 20.0578 85.6486 18.4486 86.6496 16.8583L88.8654 18.1L81.8839 31.4336L85.9101 29.1002C85.9891 29.4857 87.3454 31.081 87.2171 31.2999L79.3621 36.1661C77.8241 38.4716 76.7531 41.8277 74.8548 43.8339C71.4751 47.4058 66.1395 41.9434 70.711 38.5626C72.3692 37.3364 74.4551 36.3481 76.2037 35.1909C76.5031 34.9924 77.1076 34.6577 77.3248 34.424C77.8158 33.8958 78.9706 31.5239 79.3778 30.7381C79.4419 30.6143 79.7907 29.9729 79.7454 29.9179C78.0247 31.1261 75.9093 32.1997 73.8546 31.0777C72.611 30.3977 72.0945 29.0609 71.9777 27.7084C71.4406 28.2128 70.8393 28.6631 70.2356 29.0846C68.4442 30.3354 65.1912 32.271 62.9548 31.7797C61.35 31.4279 60.5465 29.8581 60.3038 28.3629C58.755 29.3438 57.115 30.3321 55.4091 31.0203C52.2868 32.2801 49.5693 32.5359 48.6908 28.6286C48.6448 28.4228 48.7394 28.1734 48.5444 28.0356C47.1124 28.6959 45.5505 29.1716 43.9589 29.1986C41.7834 31.3631 37.874 33.3619 35.2149 30.7898C34.6169 30.2116 33.8709 28.6508 33.8709 27.8314V26.1533L33.8684 26.1542ZM51.7094 22.8792L53.1908 21.694C56.2653 18.9669 60.1434 14.7217 61.4948 10.8078C61.6889 10.246 62.5016 7.47789 61.3089 7.58861C59.9863 7.71164 57.6792 10.4961 56.9052 11.5583C54.4566 14.9153 52.8749 18.9144 51.7103 22.8784L51.7094 22.8792ZM63.3841 22.8792L64.8646 21.694C67.861 18.8751 71.0861 15.6009 72.7442 11.7773C73.4039 10.2567 74.7084 6.03684 71.5294 8.35794C70.0703 9.42335 68.5092 11.532 67.5419 13.0649C65.6567 16.052 64.2971 19.4746 63.3833 22.8792H63.3841ZM42.3164 18.8898C40.8071 19.0973 39.084 20.7377 38.7434 22.2083C38.2779 24.2161 39.9591 26.009 41.8402 26.4429C42.6306 26.6249 42.6767 26.7086 43.143 26.0976C44.561 24.2415 46.4939 18.3165 42.3164 18.8898ZM40.446 28.6098C39.371 28.3719 38.4021 27.6272 37.6528 26.8464L36.665 25.4168C36.0744 27.7879 36.6222 30.2157 39.6227 29.1396C39.7962 29.0773 40.1886 28.8894 40.3399 28.7918C40.4197 28.7402 40.4871 28.8009 40.446 28.6089V28.6098ZM75.5506 38.1861C74.525 39.0408 73.2122 39.7658 72.2244 40.6442C71.7951 41.0264 71.1741 41.6211 71.7663 42.1591C72.3034 42.6471 72.9219 42.2682 73.292 41.7884L75.5515 38.1861H75.5506Z" fill="white"/>
<path d="M176.777 9.6243L179.136 10.7873L175.498 18.1L173.139 16.9362L176.777 9.6243Z" fill="white"/>
</g>
<defs>
<clipPath id="clip0_41_24600">
<rect width="187" height="50" fill="white"/>
</clipPath>
</defs>
</svg>
