<svg width="130" height="50" viewBox="0 0 130 50" fill="none" xmlns="http://www.w3.org/2000/svg">
<path d="M2.86216 35.5985L6.75686 44.7433L10.4941 35.5985H12.7198V35.8372C11.91 35.7656 11.3866 36.0346 11.377 36.9037C11.377 37.0183 11.4518 37.16 11.4518 37.3065C11.4471 40.0603 11.7159 42.8029 11.7827 45.5631C11.9673 46.1457 12.6085 46.1059 13.1176 46.0964V46.3351H9.61902V46.0964C10.0661 46.0964 10.8759 46.1505 10.965 45.5743C10.8886 42.6645 10.685 39.7785 10.6516 36.8719L6.59617 46.3351L2.42305 36.8719C2.24805 38.2265 2.28623 39.605 2.22736 40.9708C2.17327 42.2474 1.87894 44.2117 2.06986 45.4167C2.1685 46.0407 2.97989 46.133 3.49696 46.098V46.3367H0V46.098C1.73734 46.1855 1.4271 45.0601 1.51142 43.8328C1.6212 42.2394 1.68007 40.6572 1.7453 39.0574C1.77234 38.3873 1.94894 37.402 1.90121 36.7652C1.83916 35.9518 1.28551 35.7927 0.55525 35.8404V35.6016H2.86216V35.5985Z" fill="white"/>
<path d="M58.839 35.5985C58.8342 35.9678 58.3553 35.8054 58.0912 35.8436C57.8923 35.8722 57.4882 36.0521 57.4882 36.2734V40.2895H63.9285V36.2734C63.9285 35.799 62.9962 35.8675 62.7321 35.7958C62.5889 35.7576 62.5491 35.772 62.5762 35.5969H66.0747C66.0684 35.9741 65.5863 35.7974 65.3238 35.8404C64.8767 35.9136 64.7574 36.1651 64.7176 36.587C64.4662 39.3583 64.9085 42.518 64.7288 45.3307C64.8338 46.1155 65.4129 46.0916 66.0731 46.0932V46.332H62.5746V46.0932C62.896 46.168 63.9269 45.9818 63.9269 45.5759V40.7654H57.4866V45.5759C57.4866 45.9818 58.5176 46.168 58.839 46.0932V46.332H55.3404V46.0932C56.0595 46.0932 56.6164 46.098 56.6959 45.2623C56.9632 42.483 56.4939 39.266 56.6848 36.4389C56.6673 36.0855 56.4207 35.8929 56.0914 35.8404C55.8289 35.7974 55.3468 35.9725 55.3404 35.5969H58.839V35.5985Z" fill="white"/>
<path d="M81.1014 35.5985V37.905C80.8946 37.9209 80.9678 37.9177 80.9439 37.7856C80.8103 37.0406 80.7737 36.3689 79.9257 36.0983C79.7284 36.0346 79.0952 35.9168 78.9139 35.9168H75.813C75.8051 35.9168 75.6937 36.0282 75.6937 36.0362V40.3707H78.5161C79.2289 40.3707 79.4262 39.4872 79.5105 38.9396C79.5407 38.9174 79.668 39.0447 79.668 39.059V42.1201C79.4993 42.1439 79.5391 42.1296 79.4898 42.0198C79.3116 41.6202 79.3243 40.9962 78.7977 40.8052C78.7516 40.7877 78.3045 40.689 78.2775 40.689H75.813C75.8051 40.689 75.6937 40.8005 75.6937 40.8084V45.2607C75.6937 45.622 75.9467 45.8783 76.2983 45.9292C76.9904 46.0279 79.6839 46.0072 80.3075 45.8194C81.2733 45.5281 81.2955 44.7561 81.4212 43.9092C81.4419 43.7692 81.3799 43.7771 81.5787 43.7899V46.3351H73.5475V46.0964C73.9866 46.1091 74.8155 46.1234 74.8919 45.5759L74.903 36.5106C74.9094 36.0967 74.6882 35.9041 74.2953 35.8452C74.0312 35.8054 73.5507 35.9693 73.5475 35.6H81.1014V35.5985Z" fill="white"/>
<path d="M123.321 35.5985C123.216 36.1062 122.141 35.5475 122.22 36.3339L125.03 41.4022L127.914 36.4946C128.035 36.1381 127.812 35.9216 127.477 35.8547C127.208 35.8022 126.743 35.9646 126.74 35.5985H130C130.002 35.955 129.585 35.799 129.341 35.8547C129.061 35.92 128.791 36.1811 128.614 36.4007C127.4 37.9161 126.455 40.1558 125.326 41.7794L125.343 45.7016C125.491 46.1553 126.425 46.098 126.82 46.0948V46.3336H122.923V46.0948C123.442 46.0852 124.129 46.1744 124.417 45.6411L124.414 41.8606L121.161 36.2081C120.892 35.7194 120.087 36.0298 119.98 35.6H123.319L123.321 35.5985Z" fill="white"/>
<path d="M47.9455 35.5985V38.8187C47.9455 38.833 47.839 38.9444 47.788 38.9381C47.7228 37.983 47.7849 36.579 46.73 36.1397C46.5169 36.0505 45.8136 35.9168 45.602 35.9168H43.774C43.7661 35.9168 43.6547 36.0282 43.6547 36.0362V45.3403C43.6547 46.0852 44.7811 46.1521 45.3252 46.0964V46.3351H41.2698V46.0964C41.6851 46.1298 42.8608 46.0996 42.8608 45.4995V35.9168H40.9134C40.7544 35.9168 40.1673 36.0426 39.9811 36.0983C39.4943 36.2447 39.2095 36.5026 39.0297 36.9754C38.982 37.0995 38.8054 37.7012 38.8054 37.7856V38.9381H38.6463V35.5985H47.9487H47.9455Z" fill="white"/>
<path d="M25.7006 35.2037C22.5441 35.2037 19.9858 37.7617 19.9858 40.9183C19.9858 44.0748 22.5441 46.6328 25.7006 46.6328C28.8571 46.6328 31.4154 44.0748 31.4154 40.9183C31.4154 37.7617 28.8571 35.2037 25.7006 35.2037ZM20.9134 40.2513C21.0963 38.0387 22.6762 36.0521 24.9497 35.7799C28.7696 35.3215 30.9938 38.3937 30.4321 41.9784C29.4792 48.0511 20.3231 47.3969 20.9134 40.2513Z" fill="white"/>
<path d="M110.122 35.5985C110.151 35.7751 110.11 35.7576 109.966 35.7974C109.534 35.9168 108.964 35.686 108.772 36.2766L108.811 45.6172C108.845 45.6921 109.029 45.8449 109.109 45.8767C109.433 46.0056 112.043 45.9802 112.55 45.9404C114.1 45.8178 113.98 45.1843 114.326 43.9745C114.364 43.8392 114.265 43.7532 114.496 43.7899V46.3351H106.544V46.0964C106.991 46.0964 107.801 46.1505 107.89 45.5743L107.854 36.1572C107.566 35.7019 107.112 35.912 106.699 35.7974C106.555 35.7576 106.514 35.7751 106.543 35.5985H110.122Z" fill="white"/>
<path d="M95.8132 41.6791C95.3072 41.2764 94.6868 41.165 94.0631 41.0838L95.0956 40.8052C96.6755 40.2624 97.4948 38.3937 96.5927 36.9244C96.0502 36.041 94.6868 35.678 93.7051 35.5985C92.2876 35.4838 90.7252 35.6844 89.2918 35.5985C89.279 35.7974 89.2727 35.7354 89.4111 35.756C89.7643 35.8086 90.477 35.7465 90.6075 36.1508L90.6377 45.5727C90.547 46.1457 89.75 46.0948 89.2918 46.0948C89.2584 46.1696 89.3618 46.3336 89.4111 46.3336H93.1085V46.0948C92.7696 46.1585 91.5175 46.0263 91.5175 45.5774V41.3226H93.5444C93.7751 41.3226 94.4036 41.4802 94.639 41.5788C96.4225 42.3238 95.6048 46.1935 98.0055 46.4816C98.4049 46.5293 98.9665 46.5293 99.3085 46.2906C96.5227 46.5484 97.3134 42.873 95.8116 41.6775L95.8132 41.6791ZM93.1467 41.0058H91.5159V35.9168C92.9717 35.9646 95.3741 35.7927 95.9134 37.5229C96.3652 38.9731 95.6604 40.2895 94.2365 40.7447C94.036 40.8084 93.3058 41.0058 93.1451 41.0058H93.1467Z" fill="white"/>
<path d="M78.7961 3.00159C78.7866 3.06526 78.812 3.22285 78.7961 3.24036C78.7659 3.2722 78.0659 3.31836 77.9179 3.35656C75.3103 4.01398 75.8067 6.08491 75.8576 8.20837C75.9483 11.922 76.0342 15.6437 76.2506 19.3446C76.3397 20.8552 76.276 22.6157 77.9577 23.2827C78.2377 23.3941 79.3848 23.5406 79.4309 23.5995C79.4484 23.6218 79.4198 23.7714 79.4309 23.8367H70.1285C70.1396 23.7475 70.0824 23.6584 70.1746 23.5915C70.2478 23.539 71.1404 23.4132 71.3981 23.3177C73.3852 22.5919 72.8713 20.357 72.8284 18.7111C72.69 13.4724 72.4386 8.25453 72.2747 3.00318H78.7945L78.7961 3.00159Z" fill="white"/>
<path d="M58.0832 3.00159L66.6156 20.1548C66.2004 21.4872 65.4335 22.7033 64.9674 24.0261L64.7621 24.0754C62.608 19.8221 60.5652 15.5068 58.4301 11.2423C57.1191 8.62542 55.7413 4.61408 52.8155 3.57782C52.5212 3.47436 51.4155 3.29289 51.3646 3.23877C51.3487 3.22126 51.3757 3.06526 51.3646 3H58.0832V3.00159Z" fill="white"/>
<path d="M49.9327 23.8351C49.9422 23.7714 49.9168 23.6138 49.9327 23.5963C49.9852 23.5406 51.1386 23.4132 51.4409 23.3145C53.7033 22.5759 54.1392 20.0211 54.7533 18.0266L55.0222 18.0298C55.0429 19.0995 55.0174 20.3681 55.3627 21.3885C55.8766 22.9086 57.66 23.5995 59.1587 23.5979V23.8367H49.9343L49.9327 23.8351Z" fill="white"/>
</svg>
