<svg width="105" height="50" viewBox="0 0 105 50" fill="none" xmlns="http://www.w3.org/2000/svg">
<path d="M70.6065 16.5567V13.3008H103.684L88.7022 29.136H102.201V36.6841H68.5283L83.5106 21.292H72.6816C76.3626 38.0548 55.0315 46.7046 42.9444 36.8268C41.1841 35.3877 40.5127 34.121 39.201 32.4305C39.1045 32.3057 39.204 32.1629 38.8609 32.2432V36.6826H30.8513V25.4355L30.4087 25.66L21.0726 37.3605C20.5943 37.7441 19.4505 37.5791 18.8385 37.4943L8.37794 25.431L8.01104 25.4385V36.6841H0L0.148545 13.3008H8.678L18.9113 25.2898L19.6495 25.88L28.7034 13.3008H38.8639V17.8889C40.0804 16.1524 41.2896 14.5051 42.9474 13.1581C49.9602 7.45796 61.0654 7.63042 67.8584 13.6011C68.8863 14.5036 69.6409 15.6082 70.6065 16.5567ZM54.4091 17.7848C49.1699 18.204 45.1013 23.3912 48.035 28.3465C50.9718 33.3062 59.1388 33.3657 62.1557 28.4729C65.5663 22.9393 60.2291 17.3179 54.4091 17.7833V17.7848Z" fill="white"/>
</svg>
