<svg width="101" height="50" viewBox="0 0 101 50" fill="none" xmlns="http://www.w3.org/2000/svg">
<path d="M1.55085 44.2891C2.95069 37.1446 5.14822 30.0662 6.35637 22.8849C6.45125 22.3199 6.73586 21.0813 6.68358 20.5882C6.65067 20.2776 6.14727 19.5456 5.83168 19.4893C5.0185 19.3457 3.80066 20.8347 3.34954 21.423C2.75514 22.1976 2.27304 23.0499 1.69607 23.8342L0 22.815C1.31077 20.1494 3.3902 16.2122 6.44156 15.3114C9.40193 14.4397 10.8966 16.8432 10.7398 19.5223C10.6023 21.8851 9.76012 24.3157 9.38838 26.6474L11.1464 23.9022C13.9635 20.1009 16.9994 15.2318 22.2967 15.1075C23.1641 15.0881 24.8427 15.5851 25.4468 16.2239C27.683 18.5827 26.6917 21.8637 26.018 24.6516C24.9705 28.9771 23.4468 33.4055 22.5116 37.7135C22.3006 38.6842 21.8088 41.1245 23.6036 40.4548C24.7653 40.0218 26.9705 36.3273 27.3423 36.2555L29.108 37.3543C27.8844 39.6685 26.4091 42.6563 24.1534 44.1105C20.9724 46.1606 17.952 44.5259 18.1882 40.6547C18.5154 35.2983 21.4196 29.0081 22.3199 23.5683C22.6645 21.489 23.0072 18.872 20.0895 18.9302C17.4795 18.9826 14.6044 23.0907 13.1755 25.0651C11.7466 27.0395 10.1919 29.3751 9.0786 31.5242C7.08824 35.3663 6.40671 39.9228 5.49479 44.1221L5.37087 44.2871H1.55085V44.2891Z" fill="white"/>
<path d="M40.6301 5.22571L40.4384 6.48569C40.9941 6.06635 41.7375 5.52469 42.3997 5.30143C44.4443 4.6161 46.7618 5.42568 47.4279 7.57289C48.2604 10.2501 47.3582 14.1893 45.604 16.3636C43.7589 18.6487 40.3958 19.2137 38.2138 17.0509L36.8584 23.1567H34.053L38.115 5.22571H40.6301ZM44.3746 7.967C44.3126 7.89322 43.2884 7.30692 43.1703 7.28362C42.1267 7.072 40.6475 7.92623 40.0608 8.77657L38.7869 14.3931C39.2806 16.517 41.8963 16.4297 43.2439 15.0687C44.4849 13.8165 45.1374 10.9626 44.878 9.2561C44.8586 9.12797 44.4327 8.04077 44.3726 7.96894L44.3746 7.967Z" fill="white"/>
<path d="M71.4884 5.22571L71.3432 14.8222L74.7779 5.32278H77.293L71.9724 18.2138H69.651L69.6994 9.392L65.7322 18.2138H63.556L64.04 5.32278H66.3615L65.7322 14.4358L69.7962 5.22571H71.4884Z" fill="white"/>
<path d="M88.6097 12.6905H79.9997C79.9997 13.2574 79.9687 13.9563 80.1856 14.4902C80.3133 14.8047 81.0239 15.624 81.3163 15.7793C83.1208 16.7442 84.964 15.7288 86.42 14.6358C86.6058 15.0124 87.4674 15.6123 87.5952 15.8899C87.7307 16.185 87.0066 16.8024 86.7607 16.9946C84.3522 18.8894 80.0888 19.0894 78.1778 16.4044C75.8079 13.0729 78.0674 7.54959 81.4789 5.79066C84.8904 4.03174 88.722 5.40044 88.997 9.44054C89.0725 10.5394 88.844 11.6285 88.6059 12.6905H88.6097ZM86.2883 10.5569C86.6465 9.32405 86.1295 8.01165 84.9388 7.49912C83.0724 6.69537 80.9213 8.87558 80.4837 10.5569H86.2883Z" fill="white"/>
<path d="M51.9817 7.00405C55.2906 3.6318 60.9112 4.49574 61.4165 9.74534C61.7883 13.6068 59.0738 18.076 54.9943 18.408C48.4889 18.936 48.4366 10.6209 51.9836 7.00599L51.9817 7.00405ZM53.0388 15.5716C53.3641 15.8997 54.4968 16.2472 54.973 16.1559C57.6837 15.6414 58.9731 11.8634 58.5162 9.45219C58.3671 8.66397 57.8444 7.72238 57.0699 7.41175C56.5413 7.1982 55.2848 7.44281 54.7794 7.72626C52.8491 8.81346 51.8229 12.5216 52.4754 14.5329C52.5064 14.6261 52.9943 15.5288 53.035 15.5716H53.0388Z" fill="white"/>
<path d="M95.3805 5.41985L95.0416 7.35739C96.5654 5.78484 98.577 4.81607 100.796 5.2723L99.8336 7.99224C99.2682 8.02912 98.7203 7.88352 98.1375 7.93982C96.6912 8.0796 94.85 9.14933 94.3988 10.5899L92.6718 18.309H89.9631L92.7686 5.41791H95.3805V5.41985Z" fill="white"/>
</svg>
