<svg width="223" height="50" viewBox="0 0 223 50" fill="none" xmlns="http://www.w3.org/2000/svg">
<g clip-path="url(#clip0_41_156)">
<path d="M69.6272 20.6001C70.4885 20.6001 71.2742 20.7561 71.9846 21.0705C72.6951 21.3825 73.3032 21.8432 73.8093 22.4526C74.3153 23.0619 74.7094 23.8077 74.9868 24.6877C75.2665 25.5676 75.4053 26.5742 75.4053 27.7101C75.4053 28.9117 75.2568 29.9574 74.9625 30.8446C74.6656 31.7342 74.2618 32.4728 73.746 33.0676C73.2302 33.6598 72.6172 34.1035 71.9092 34.4008C71.1989 34.6957 70.4373 34.8444 69.6272 34.8444C68.8 34.8444 68.0313 34.6957 67.3209 34.4008C66.6129 34.1035 65.9998 33.6598 65.484 33.0676C64.9683 32.4728 64.5644 31.7342 64.2676 30.8446C63.9708 29.9574 63.8249 28.9117 63.8249 27.7101C63.8249 26.5742 63.9635 25.5676 64.2433 24.6877C64.5206 23.8077 64.9172 23.0619 65.4329 22.4526C65.9487 21.8432 66.5618 21.3825 67.2697 21.0705C67.9801 20.7561 68.766 20.6001 69.6272 20.6001ZM99.6313 34.513H97.9356C97.7999 34.513 97.7074 34.4788 97.6558 34.413C97.605 34.3447 97.5659 34.2692 97.5417 34.1839C97.5176 34.0986 97.4859 34.023 97.4543 33.9547C97.4201 33.8865 97.3593 33.8548 97.2769 33.8548C97.1744 33.8548 97.0378 33.9036 96.8705 34.006C96.7022 34.1083 96.4224 34.2253 96.0334 34.3618C95.6778 34.4788 95.3105 34.5642 94.9316 34.6153C94.5518 34.6665 94.1746 34.6909 93.8048 34.6909C93.1285 34.6909 92.4939 34.6032 91.9026 34.4252C91.3113 34.2472 90.7999 33.9816 90.3693 33.6257C89.9388 33.2698 89.5965 32.8165 89.3433 32.2681C89.0901 31.7172 88.9635 31.0688 88.9635 30.3254C88.9635 29.5625 89.0951 28.8947 89.3549 28.3194C89.6181 27.7442 89.9804 27.2689 90.4451 26.896C90.9098 26.5255 91.4595 26.2452 92.0925 26.0599C92.7271 25.8722 93.4058 25.7797 94.1337 25.7797C94.9774 25.7797 95.632 25.8601 96.0967 26.0209C96.5615 26.1818 96.8871 26.2622 97.072 26.2622C97.2427 26.2622 97.3277 26.1697 97.3277 25.9819C97.3277 25.0021 97.0695 24.3197 96.554 23.9394C96.0384 23.5592 95.3738 23.3666 94.5643 23.3666C94.1088 23.3666 93.6932 23.4153 93.3234 23.508C92.9511 23.6006 92.6297 23.6981 92.3598 23.8004C92.09 23.9003 91.8659 23.9979 91.6886 24.0905C91.5103 24.1832 91.3796 24.2318 91.2946 24.2318C91.2288 24.2318 91.143 24.1709 91.0414 24.0539C90.9415 23.9345 90.7882 23.664 90.5859 23.2398C90.3993 22.8523 90.2844 22.5891 90.2436 22.4526C90.2019 22.3185 90.1803 22.2332 90.1803 22.1991C90.1803 22.0479 90.3069 21.8822 90.5592 21.7043C90.8124 21.5263 91.1555 21.3533 91.5861 21.1851C92.0167 21.0145 92.528 20.8755 93.1185 20.7658C93.7098 20.6562 94.3353 20.6001 94.9949 20.6001C95.7728 20.6001 96.4807 20.6927 97.1236 20.8804C97.7657 21.0656 98.3154 21.3703 98.7701 21.7944C99.2274 22.2161 99.583 22.7719 99.8362 23.4567C100.089 24.1417 100.215 24.9752 100.215 25.9576V33.9304C100.215 34.0986 100.159 34.2375 100.05 34.3497C99.9403 34.4593 99.802 34.513 99.6313 34.513ZM83.2099 23.3178C83.042 23.3178 82.9033 23.3715 82.7939 23.4812C82.6819 23.5908 82.6284 23.7322 82.6284 23.9004V30.401C82.6284 31.3321 83.1101 31.7977 84.0731 31.7977C84.4096 31.7977 84.6769 31.7587 84.8718 31.6831C85.0633 31.6076 85.2457 31.5685 85.4165 31.5685C85.6521 31.5685 85.7712 31.6709 85.7712 31.8732C85.7712 31.9244 85.7621 32.0097 85.7446 32.1267C85.7279 32.2462 85.7063 32.368 85.6813 32.4947C85.6572 32.6215 85.6305 32.7482 85.6063 32.8774C85.5797 33.0042 85.5597 33.0919 85.543 33.1432C85.5089 33.3284 85.4506 33.5014 85.3657 33.6623C85.2799 33.8232 85.1466 33.9645 84.9592 34.0815C84.7227 34.2351 84.4137 34.3667 84.0348 34.4764C83.655 34.5861 83.2609 34.6397 82.8571 34.6397C82.4167 34.6397 82.008 34.569 81.6261 34.4252C81.2465 34.2814 80.9181 34.062 80.6383 33.7647C80.3609 33.4697 80.1371 33.0968 79.9669 32.6483C79.799 32.1998 79.7138 31.6782 79.7138 31.0859V23.9004C79.7138 23.7322 79.6578 23.5908 79.5484 23.4812C79.4389 23.3715 79.3002 23.3178 79.13 23.3178H78.726C78.5557 23.3178 78.4171 23.2618 78.3076 23.1521C78.1981 23.0424 78.1422 22.901 78.1422 22.7328V21.5141C78.1422 21.3459 78.1981 21.2046 78.3076 21.0949C78.4171 20.9852 78.5557 20.9292 78.726 20.9292H79.13C79.3002 20.9292 79.4389 20.8755 79.5484 20.7658C79.6578 20.6562 79.7138 20.5148 79.7138 20.3466V17.7312C79.7138 17.6289 79.7528 17.5241 79.8281 17.4144C79.9036 17.3047 80.0009 17.2316 80.1201 17.1974C80.575 17.0463 80.9302 16.922 81.1832 16.8294C81.4363 16.7368 81.6261 16.6734 81.7526 16.6393C81.8815 16.6051 81.9618 16.5832 81.9934 16.5759C82.0275 16.5661 82.0542 16.5637 82.0712 16.5637C82.222 16.5637 82.3535 16.6149 82.4629 16.7148C82.5724 16.8172 82.6284 16.961 82.6284 17.1463V20.3466C82.6284 20.5148 82.6819 20.6562 82.7939 20.7658C82.9033 20.8755 83.042 20.9292 83.2099 20.9292H85.2899C85.4581 20.9292 85.5963 20.9852 85.7063 21.0949C85.8179 21.2046 85.8712 21.3459 85.8712 21.5141V22.7328C85.8712 22.901 85.8179 23.0424 85.7063 23.1521C85.5963 23.2618 85.4581 23.3178 85.2899 23.3178H83.2099ZM38.3042 34.513H36.3287C36.1584 34.513 36.0197 34.4593 35.9103 34.3497C35.7984 34.2375 35.7448 34.0986 35.7448 33.9304V17.5289C35.7448 17.3583 35.7984 17.2194 35.9103 17.1097C36.0197 17 36.1584 16.9439 36.3287 16.9439H43.1455C45.0359 16.9439 46.5321 17.4168 47.6293 18.365C48.729 19.3131 49.2788 20.6927 49.2788 22.5037C49.2788 23.4519 49.1206 24.2782 48.8092 24.9802C48.4954 25.6822 48.0697 26.2622 47.5296 26.7181C46.987 27.1763 46.3423 27.5151 45.5906 27.7344C44.8389 27.9538 44.0239 28.0659 43.1455 28.0659H39.4695C39.3017 28.0659 39.1605 28.1196 39.0511 28.2292C38.9416 28.3389 38.8881 28.4803 38.8881 28.6485V33.9304C38.8881 34.0986 38.8321 34.2375 38.7226 34.3497C38.6132 34.4593 38.4721 34.513 38.3042 34.513ZM55.2587 34.513H53.4852C53.3149 34.513 53.1762 34.4593 53.0668 34.3497C52.9573 34.2375 52.9013 34.0986 52.9013 33.9304V21.5141C52.9013 21.3459 52.9573 21.2046 53.0668 21.0949C53.1762 20.9852 53.3149 20.9292 53.4852 20.9292H55.0812C55.2491 20.9292 55.3901 20.9852 55.4996 21.0949C55.6091 21.2046 55.6651 21.3459 55.6651 21.5141C55.6651 21.7847 55.7478 21.9212 55.9181 21.9212C56.0518 21.9212 56.1735 21.8529 56.2855 21.7164C56.3949 21.5824 56.5166 21.4727 56.6528 21.3874C57.3778 20.8633 58.2414 20.6001 59.2364 20.6001C59.5916 20.6001 59.942 20.6415 60.2899 20.7268C60.6353 20.8121 60.9273 20.9218 61.1633 21.0583C61.3652 21.1924 61.4674 21.3776 61.4674 21.6165C61.4674 21.6823 61.4455 21.7774 61.4041 21.8944C61.3603 22.0138 61.2387 22.2917 61.0368 22.7328C60.8349 23.174 60.6767 23.447 60.5672 23.5592C60.4578 23.6688 60.3604 23.7224 60.2753 23.7224C60.1586 23.7224 59.9858 23.664 59.7571 23.5445C59.5284 23.4275 59.1684 23.3666 58.6794 23.3666C58.0882 23.3666 57.5554 23.5031 57.0834 23.7737C56.9983 23.8248 56.8888 23.9126 56.7525 24.0417C56.6188 24.1685 56.4825 24.3196 56.3487 24.4975C56.2124 24.6755 56.0956 24.8753 55.9935 25.0947C55.8913 25.3141 55.8402 25.5505 55.8402 25.804V33.9304C55.8402 34.0986 55.7867 34.2375 55.6772 34.3497C55.5653 34.4593 55.4266 34.513 55.2587 34.513ZM94.4619 32.2802C94.6493 32.2802 94.9025 32.2681 95.2231 32.2412C95.5446 32.2169 95.861 32.1682 96.1742 32.1023C96.4857 32.0341 96.7563 31.9415 96.9845 31.822C97.2136 31.705 97.3277 31.5442 97.3277 31.3394V28.5973C97.3277 28.4632 97.2277 28.3487 97.0353 28.2561C96.8413 28.161 96.6123 28.0903 96.3499 28.0392C96.0893 27.9879 95.8144 27.9538 95.5271 27.9367C95.2406 27.9222 95.0041 27.9124 94.8167 27.9124C94.3961 27.9124 93.9972 27.9538 93.6274 28.0392C93.2551 28.1244 92.9245 28.2561 92.6371 28.434C92.3498 28.6119 92.1241 28.8435 91.9534 29.1311C91.786 29.4187 91.7002 29.7648 91.7002 30.1719C91.7002 30.9177 91.9659 31.454 92.4981 31.7855C93.0311 32.1145 93.6857 32.2802 94.4619 32.2802ZM69.6272 23.3178C68.6979 23.3178 67.9631 23.6859 67.423 24.422C66.8829 25.1581 66.6129 26.2622 66.6129 27.7344C66.6129 29.1725 66.8854 30.2694 67.4352 31.0226C67.985 31.7757 68.7149 32.1535 69.6272 32.1535C70.5225 32.1535 71.2499 31.7855 71.807 31.0493C72.3642 30.3108 72.6439 29.2067 72.6439 27.7344C72.6439 26.2452 72.3642 25.1362 71.807 24.4098C71.2499 23.681 70.5225 23.3178 69.6272 23.3178ZM43.1967 19.8128H39.4452C39.2749 19.8128 39.1362 19.8689 39.0268 19.9786C38.9172 20.0882 38.8613 20.2272 38.8613 20.3978V24.7145C38.8613 24.8827 38.9172 25.0216 39.0268 25.1313C39.1362 25.2434 39.2749 25.297 39.4452 25.297H43.1967C44.0895 25.297 44.8291 25.0825 45.413 24.6511C45.9968 24.2172 46.2864 23.5104 46.2864 22.5305C46.2864 21.5653 45.9993 20.8706 45.4251 20.449C44.8509 20.0249 44.109 19.8128 43.1967 19.8128Z" fill="white"/>
<path d="M221.198 24.2318C220.777 23.9418 220.278 23.7029 219.701 23.508C219.127 23.313 218.495 23.2154 217.802 23.2154C217.043 23.2154 216.502 23.3422 216.182 23.5957C215.86 23.8492 215.699 24.1466 215.699 24.4853C215.699 24.7901 215.799 25.0338 216.003 25.2215C216.206 25.4067 216.452 25.5676 216.738 25.7041C217.059 25.8552 217.41 25.9917 217.789 26.1087C218.169 26.2282 218.554 26.3427 218.943 26.4523C219.331 26.5621 219.724 26.6839 220.12 26.8204C220.519 26.9569 220.894 27.1177 221.249 27.303C221.908 27.6418 222.397 28.0562 222.719 28.5462C223.039 29.0385 223.2 29.6892 223.2 30.5033C223.2 31.4003 223.028 32.1316 222.682 32.6995C222.334 33.265 221.896 33.7062 221.364 34.0182C220.831 34.3326 220.252 34.5471 219.626 34.6665C219.001 34.7835 218.419 34.8444 217.877 34.8444C217.237 34.8444 216.59 34.7835 215.94 34.6665C215.288 34.5471 214.702 34.4008 214.179 34.2229C213.653 34.045 213.228 33.85 212.899 33.6379C212.569 33.4258 212.403 33.2284 212.403 33.0407C212.403 32.9725 212.425 32.8336 212.469 32.6215C212.51 32.4095 212.598 32.1608 212.734 31.8732C212.953 31.3832 213.153 31.0811 213.33 30.9713C213.507 30.8617 213.612 30.8081 213.646 30.8081C213.714 30.8081 213.853 30.8787 214.065 31.0226C214.276 31.1663 214.551 31.3199 214.887 31.4807C215.225 31.6417 215.631 31.7927 216.103 31.9366C216.578 32.0804 217.128 32.1535 217.751 32.1535C218.546 32.1535 219.172 32.0219 219.626 31.7587C220.084 31.4954 220.31 31.0957 220.31 30.5522C220.31 30.2133 220.205 29.9403 219.994 29.7282C219.785 29.5162 219.441 29.3261 218.967 29.1555C218.713 29.0556 218.402 28.9532 218.031 28.8508C217.658 28.7509 217.273 28.6363 216.877 28.5096C216.481 28.3828 216.084 28.2463 215.687 28.1025C215.288 27.9587 214.931 27.7929 214.609 27.6077C214.391 27.4882 214.175 27.3444 213.962 27.1762C213.751 27.0081 213.561 26.8033 213.393 26.5669C213.223 26.3305 213.084 26.0502 212.974 25.7284C212.865 25.4067 212.81 25.0338 212.81 24.6121C212.81 23.9516 212.941 23.3715 213.203 22.8718C213.464 22.3721 213.824 21.9553 214.279 21.6165C214.736 21.2777 215.271 21.0242 215.889 20.8536C216.505 20.6854 217.169 20.6001 217.877 20.6001C218.454 20.6001 219.027 20.6513 219.602 20.7536C220.176 20.8536 220.691 20.995 221.147 21.1705C221.604 21.3484 221.972 21.5483 222.249 21.7676C222.529 21.987 222.667 22.2259 222.667 22.4794C222.667 22.5306 222.655 22.6183 222.631 22.745C222.604 22.8718 222.524 23.0887 222.39 23.3934C222.202 23.8322 222.064 24.1124 221.972 24.2318C221.879 24.3488 221.765 24.4098 221.628 24.4098C221.512 24.4098 221.368 24.3488 221.198 24.2318ZM181.513 34.513H179.915C179.747 34.513 179.609 34.4593 179.499 34.3497C179.387 34.2375 179.333 34.0986 179.333 33.9304C179.333 33.6598 179.248 33.5233 179.08 33.5233C178.961 33.5233 178.851 33.5745 178.749 33.6769C178.65 33.7768 178.455 33.9207 178.168 34.1083C177.847 34.3277 177.441 34.5057 176.952 34.6397C176.46 34.7762 175.912 34.8444 175.304 34.8444C174.645 34.8444 174.037 34.7518 173.48 34.5642C172.92 34.3789 172.441 34.0864 172.035 33.6891C171.628 33.2918 171.312 32.7872 171.084 32.1779C170.855 31.5685 170.743 30.8397 170.743 29.994V21.5141C170.743 21.3459 170.796 21.2046 170.906 21.0949C171.015 20.9852 171.156 20.9292 171.324 20.9292H173.097C173.268 20.9292 173.406 20.9852 173.516 21.0949C173.625 21.2046 173.682 21.3459 173.682 21.5141V29.487C173.682 30.4181 173.928 31.0811 174.417 31.4807C174.905 31.8781 175.531 32.0755 176.292 32.0755C176.883 32.0755 177.423 31.9415 177.915 31.6709C177.998 31.6197 178.107 31.5393 178.243 31.4296C178.377 31.3199 178.513 31.1761 178.65 30.9982C178.783 30.8202 178.902 30.6204 179.002 30.401C179.105 30.1817 179.155 29.9427 179.155 29.6892V21.5141C179.155 21.3459 179.211 21.2046 179.321 21.0949C179.43 20.9852 179.569 20.9292 179.739 20.9292H181.513C181.681 20.9292 181.82 20.9852 181.931 21.0949C182.041 21.2046 182.095 21.3459 182.095 21.5141V33.9304C182.095 34.0986 182.041 34.2375 181.931 34.3497C181.82 34.4593 181.681 34.513 181.513 34.513ZM201.052 28.6485C200.764 28.6485 200.621 28.7923 200.621 29.0799C200.72 29.621 200.878 30.0866 201.09 30.4766C201.3 30.8666 201.552 31.1882 201.849 31.4417C202.146 31.6952 202.47 31.8854 202.825 32.0122C203.18 32.1389 203.543 32.2022 203.915 32.2022C204.37 32.2022 204.747 32.1389 205.043 32.0122C205.338 31.8854 205.584 31.7416 205.779 31.5807C205.973 31.4198 206.131 31.2761 206.26 31.1493C206.387 31.0226 206.516 30.9592 206.652 30.9592C206.72 30.9592 206.8 30.9933 206.892 31.0616C206.985 31.1273 207.201 31.3151 207.538 31.6197C207.876 31.9073 208.085 32.0926 208.16 32.1779C208.236 32.2632 208.275 32.3461 208.275 32.4314C208.275 32.5508 208.177 32.7458 207.982 33.0164C207.788 33.2869 207.501 33.5575 207.121 33.828C206.739 34.0986 206.268 34.335 205.7 34.5397C205.136 34.7421 204.489 34.8444 203.762 34.8444C202.951 34.8444 202.188 34.6909 201.47 34.3862C200.752 34.0815 200.122 33.6282 199.582 33.0286C199.039 32.4265 198.614 31.6782 198.302 30.7812C197.988 29.8842 197.833 28.8362 197.833 27.6321C197.833 26.5157 197.971 25.5212 198.251 24.6511C198.528 23.7785 198.928 23.0424 199.441 22.4404C199.956 21.8408 200.569 21.3825 201.28 21.0705C201.988 20.7561 202.774 20.6001 203.635 20.6001C204.496 20.6001 205.282 20.7561 205.993 21.0705C206.703 21.3825 207.311 21.8432 207.817 22.4526C208.323 23.0619 208.717 23.8077 208.997 24.6877C209.274 25.5676 209.413 26.5669 209.413 27.6832C209.413 28.3267 209.245 28.6485 208.907 28.6485H201.052ZM132.07 28.6485C131.783 28.6485 131.64 28.7923 131.64 29.0799C131.74 29.621 131.895 30.0866 132.107 30.4766C132.318 30.8666 132.572 31.1882 132.868 31.4417C133.162 31.6952 133.489 31.8854 133.843 32.0122C134.199 32.1389 134.561 32.2022 134.934 32.2022C135.388 32.2022 135.766 32.1389 136.06 32.0122C136.357 31.8854 136.603 31.7416 136.795 31.5807C136.989 31.4198 137.15 31.2761 137.276 31.1493C137.403 31.0226 137.534 30.9592 137.67 30.9592C137.739 30.9592 137.819 30.9933 137.912 31.0616C138.004 31.1273 138.218 31.3151 138.556 31.6197C138.895 31.9073 139.101 32.0926 139.179 32.1779C139.254 32.2632 139.293 32.3461 139.293 32.4314C139.293 32.5508 139.193 32.7458 139.001 33.0164C138.807 33.2869 138.52 33.5575 138.14 33.828C137.759 34.0986 137.286 34.335 136.719 34.5397C136.153 34.7421 135.507 34.8444 134.78 34.8444C133.97 34.8444 133.206 34.6909 132.488 34.3862C131.771 34.0815 131.141 33.6282 130.6 33.0286C130.058 32.4265 129.633 31.6782 129.321 30.7812C129.007 29.8842 128.851 28.8362 128.851 27.6321C128.851 26.5157 128.99 25.5212 129.27 24.6511C129.548 23.7785 129.947 23.0424 130.46 22.4404C130.975 21.8408 131.588 21.3825 132.298 21.0705C133.007 20.7561 133.793 20.6001 134.654 20.6001C135.515 20.6001 136.301 20.7561 137.011 21.0705C137.722 21.3825 138.33 21.8432 138.836 22.4526C139.342 23.0619 139.736 23.8077 140.013 24.6877C140.293 25.5676 140.432 26.5669 140.432 27.6832C140.432 28.3267 140.264 28.6485 139.926 28.6485H132.07ZM164.508 23.3178C164.339 23.3178 164.199 23.3715 164.089 23.4812C163.98 23.5908 163.926 23.7322 163.926 23.9004V30.401C163.926 31.3321 164.405 31.7977 165.369 31.7977C165.707 31.7977 165.974 31.7587 166.167 31.6831C166.361 31.6076 166.544 31.5685 166.711 31.5685C166.95 31.5685 167.067 31.6709 167.067 31.8732C167.067 31.9244 167.059 32.0097 167.043 32.1267C167.025 32.2462 167.004 32.368 166.979 32.4947C166.953 32.6215 166.928 32.7482 166.901 32.8774C166.877 33.0042 166.855 33.0919 166.838 33.1432C166.804 33.3283 166.745 33.5014 166.663 33.6623C166.578 33.8232 166.441 33.9645 166.257 34.0815C166.021 34.2351 165.712 34.3667 165.332 34.4764C164.95 34.5861 164.558 34.6397 164.152 34.6397C163.715 34.6397 163.303 34.569 162.923 34.4252C162.544 34.2814 162.213 34.062 161.936 33.7647C161.656 33.4697 161.432 33.0968 161.264 32.6483C161.094 32.1998 161.011 31.6782 161.011 31.0859V23.9004C161.011 23.7322 160.955 23.5908 160.846 23.4812C160.736 23.3715 160.596 23.3178 160.427 23.3178H160.021C159.854 23.3178 159.715 23.2618 159.603 23.1521C159.493 23.0424 159.44 22.901 159.44 22.7328V21.5141C159.44 21.3459 159.493 21.2046 159.603 21.0949C159.715 20.9852 159.854 20.9292 160.021 20.9292H160.427C160.596 20.9292 160.736 20.8755 160.846 20.7658C160.955 20.6562 161.011 20.5148 161.011 20.3466V17.7312C161.011 17.6289 161.048 17.5241 161.123 17.4144C161.201 17.3047 161.299 17.2316 161.415 17.1974C161.872 17.0463 162.228 16.922 162.48 16.8294C162.734 16.7368 162.923 16.6734 163.05 16.6393C163.177 16.6051 163.257 16.5832 163.291 16.5759C163.325 16.5661 163.349 16.5637 163.367 16.5637C163.52 16.5637 163.651 16.6149 163.76 16.7148C163.87 16.8172 163.926 16.961 163.926 17.1463V20.3466C163.926 20.5148 163.98 20.6562 164.089 20.7658C164.199 20.8755 164.339 20.9292 164.508 20.9292H166.585C166.755 20.9292 166.894 20.9852 167.004 21.0949C167.113 21.2046 167.169 21.3459 167.169 21.5141V22.7328C167.169 22.901 167.113 23.0424 167.004 23.1521C166.894 23.2618 166.755 23.3178 166.585 23.3178H164.508ZM121.198 34.513H118.662C118.563 34.513 118.453 34.4764 118.334 34.4008C118.215 34.3228 118.139 34.2351 118.105 34.1327L111.972 17.7312C111.938 17.68 111.924 17.5947 111.924 17.4778C111.924 17.3413 111.972 17.2194 112.075 17.1097C112.176 17 112.32 16.9439 112.505 16.9439H114.661C114.761 16.9439 114.865 16.983 114.977 17.0585C115.086 17.1341 115.157 17.2243 115.191 17.3242L119.373 29.0556C119.475 29.3261 119.66 29.4602 119.93 29.4602C120.2 29.4602 120.387 29.3261 120.487 29.0556L124.645 17.3242C124.679 17.2243 124.75 17.1341 124.86 17.0585C124.969 16.983 125.076 16.9439 125.175 16.9439H127.356C127.525 16.9439 127.665 17 127.774 17.1097C127.884 17.2194 127.939 17.3413 127.939 17.4778C127.939 17.5436 127.922 17.6289 127.888 17.7312L121.755 34.1327C121.721 34.2351 121.646 34.3228 121.527 34.4008C121.409 34.4764 121.3 34.513 121.198 34.513ZM189.267 34.513H187.493C187.325 34.513 187.184 34.4593 187.075 34.3497C186.965 34.2375 186.909 34.0986 186.909 33.9304V21.5141C186.909 21.3459 186.965 21.2046 187.075 21.0949C187.184 20.9852 187.325 20.9292 187.493 20.9292H189.089C189.259 20.9292 189.398 20.9852 189.508 21.0949C189.617 21.2046 189.673 21.3459 189.673 21.5141C189.673 21.7847 189.758 21.9212 189.926 21.9212C190.062 21.9212 190.184 21.8529 190.293 21.7164C190.403 21.5824 190.524 21.4727 190.66 21.3874C191.388 20.8633 192.249 20.6001 193.245 20.6001C193.599 20.6001 193.95 20.6415 194.298 20.7268C194.643 20.8121 194.935 20.9218 195.171 21.0583C195.373 21.1924 195.475 21.3776 195.475 21.6165C195.475 21.6823 195.456 21.7774 195.412 21.8944C195.371 22.0138 195.247 22.2917 195.044 22.7328C194.843 23.174 194.687 23.447 194.575 23.5592C194.465 23.6688 194.368 23.7224 194.286 23.7224C194.166 23.7224 193.993 23.664 193.765 23.5445C193.536 23.4275 193.179 23.3666 192.687 23.3666C192.096 23.3666 191.566 23.5031 191.091 23.7737C191.006 23.8248 190.897 23.9126 190.763 24.0417C190.627 24.1685 190.493 24.3196 190.356 24.4975C190.223 24.6755 190.103 24.8753 190.001 25.0947C189.899 25.3141 189.851 25.5505 189.851 25.804V33.9304C189.851 34.0986 189.794 34.2375 189.685 34.3497C189.576 34.4593 189.437 34.513 189.267 34.513ZM146.869 34.513H145.096C144.925 34.513 144.787 34.4593 144.677 34.3497C144.568 34.2375 144.512 34.0986 144.512 33.9304V21.5141C144.512 21.3459 144.568 21.2046 144.677 21.0949C144.787 20.9852 144.925 20.9292 145.096 20.9292H146.692C146.862 20.9292 147 20.9852 147.11 21.0949C147.22 21.2046 147.275 21.3459 147.275 21.5141C147.275 21.6823 147.304 21.7969 147.363 21.8578C147.421 21.9163 147.494 21.9456 147.579 21.9456C147.697 21.9456 147.798 21.8993 147.883 21.8066C147.967 21.714 148.068 21.6238 148.188 21.5385C149.032 20.9145 150.071 20.6001 151.305 20.6001C152.79 20.6001 153.922 21.0364 154.701 21.909C155.476 22.7791 155.866 24.1124 155.866 25.9064V33.9304C155.866 34.0986 155.81 34.2375 155.7 34.3497C155.591 34.4593 155.452 34.513 155.282 34.513H153.508C153.341 34.513 153.199 34.4593 153.09 34.3497C152.98 34.2375 152.927 34.0986 152.927 33.9304V26.2378C152.927 25.1532 152.689 24.4049 152.217 23.9906C151.744 23.5737 151.12 23.3666 150.341 23.3666C149.733 23.3666 149.193 23.5031 148.72 23.7737C148.619 23.8248 148.497 23.9126 148.351 24.0417C148.207 24.1685 148.069 24.3074 147.935 24.4586C147.798 24.6121 147.684 24.7803 147.592 24.968C147.499 25.1532 147.453 25.3312 147.453 25.4993V33.9304C147.453 34.0986 147.397 34.2375 147.288 34.3497C147.178 34.4593 147.04 34.513 146.869 34.513ZM203.611 23.2398C203.239 23.2398 202.88 23.313 202.533 23.4567C202.188 23.6006 201.879 23.7956 201.609 24.0417C201.338 24.2855 201.122 24.5658 200.962 24.8778C200.803 25.1922 200.72 25.5262 200.72 25.882C200.72 26.1014 200.759 26.2622 200.835 26.3646C200.912 26.4646 201.052 26.5157 201.253 26.5157H205.993C206.331 26.5157 206.498 26.3037 206.498 25.882C206.498 25.5773 206.423 25.2677 206.273 24.9557C206.119 24.6413 205.912 24.3586 205.652 24.1051C205.389 23.8492 205.085 23.642 204.739 23.4812C204.392 23.3203 204.017 23.2398 203.611 23.2398ZM134.63 23.2398C134.257 23.2398 133.9 23.313 133.552 23.4567C133.206 23.6006 132.897 23.7956 132.627 24.0417C132.358 24.2855 132.141 24.5658 131.98 24.8778C131.82 25.1922 131.74 25.5262 131.74 25.882C131.74 26.1014 131.778 26.2622 131.854 26.3646C131.929 26.4646 132.07 26.5157 132.272 26.5157H137.011C137.35 26.5157 137.517 26.3037 137.517 25.882C137.517 25.5773 137.442 25.2677 137.291 24.9557C137.138 24.6413 136.931 24.3586 136.668 24.1051C136.408 23.8492 136.104 23.642 135.756 23.4812C135.411 23.3203 135.036 23.2398 134.63 23.2398Z" fill="white"/>
<path d="M19.1933 27.6463C20.2281 29.5233 21.2336 31.4151 22.212 33.3264C22.212 33.3264 22.3149 33.5525 22.3198 33.7515C22.3297 34.2527 21.9079 34.6924 21.3978 34.7416C15.1889 35.0536 8.94316 35.0831 2.6925 34.83L15.0834 32.4396C15.4316 32.3585 15.5322 32.2528 15.6842 32.0759L19.1247 27.747C19.1491 27.7127 19.1712 27.6782 19.1933 27.6463ZM0 33.3756C0.063757 33.1692 0.156925 32.9604 0.259917 32.7613C3.32025 26.8257 6.66259 21.0473 10.2747 15.4434C10.2747 15.4434 10.5689 14.9741 11.1796 15.0011C11.6994 15.0748 11.9937 15.581 12.2512 15.979C14.3797 19.303 16.4051 22.6762 18.335 26.1059C18.2811 26.1059 18.2419 26.1083 18.2419 26.1083L9.00937 26.9486C8.82548 26.9707 8.65625 27.037 8.50417 27.1402L0 33.3756Z" fill="white"/>
</g>
<defs>
<clipPath id="clip0_41_156">
<rect width="223" height="50" fill="white"/>
</clipPath>
</defs>
</svg>
