<svg width="114" height="50" viewBox="0 0 114 50" fill="none" xmlns="http://www.w3.org/2000/svg">
<path fill-rule="evenodd" clip-rule="evenodd" d="M41.7106 49.9999C42.3388 50.005 42.9567 49.8408 43.4994 49.5246C44.042 49.2083 44.4893 48.7518 44.794 48.2029V49.7993H47.4386V35.8591H44.794V41.6369C44.2605 40.6654 43.3083 39.9861 41.7651 39.9861C39.3615 39.9861 37.543 41.8376 37.543 44.993V45.1392C37.543 48.3319 39.3787 49.9999 41.7106 49.9999ZM42.4994 47.9278C41.1771 47.9278 40.2593 46.9935 40.2593 45.0847V44.9385C40.2593 43.0298 41.0853 42.021 42.574 42.021C44.0626 42.021 44.8686 42.9954 44.8686 44.9013V45.0475C44.8686 46.9935 43.8934 47.9278 42.4994 47.9278ZM10.5725 45.8184C10.5725 48.1484 8.6651 49.9999 5.56161 49.9999C1.96478 49.9999 0.312645 48.3147 0.134811 45.6894H2.98015C3.1207 46.8645 3.61691 47.8361 5.56161 47.8361C6.86668 47.8361 7.72717 47.1396 7.72717 46.0935C7.72717 45.0475 7.17645 44.6749 5.24897 44.3883C1.8902 43.9469 0.513427 42.9381 0.513427 40.4074C0.513427 38.1691 2.38642 36.5011 5.28625 36.5011C8.24346 36.5011 9.9673 37.8223 10.2054 40.4275H7.47189C7.29405 39.2353 6.58846 38.685 5.28625 38.685C3.98405 38.685 3.32148 39.2897 3.32148 40.1696C3.32148 41.1039 3.75746 41.551 5.76526 41.8376C8.94045 42.2417 10.5725 43.1043 10.5725 45.8184ZM17.138 49.7247C16.6174 49.9022 16.0703 49.9894 15.5203 49.9827C13.501 49.9827 12.4168 48.971 12.4168 46.9648V42.0926H11.1863V40.2039H12.4168V38.1318H15.0614V40.2039H17.0692V42.0926H15.0614V46.7097C15.0614 47.4893 15.4486 47.8561 16.1284 47.8561C16.4739 47.8646 16.8176 47.8022 17.138 47.6727V49.7247ZM21.1307 49.9998C22.6337 49.9998 23.4798 49.4266 24.0305 48.6442V49.7906H26.612V43.5457C26.612 40.9405 24.9426 39.9861 22.5964 39.9861C20.2501 39.9861 18.446 40.9949 18.2939 43.2705H20.8066C20.9184 42.4451 21.3802 41.9121 22.4415 41.9121C23.6519 41.9121 24.0018 42.5368 24.0018 43.6718V44.0587H22.9176C19.9805 44.0587 17.9268 44.9013 17.9268 47.1396C17.9182 49.1572 19.3868 49.9998 21.1307 49.9998ZM21.9195 48.1484C20.9471 48.1484 20.5226 47.6899 20.5226 47.002C20.5226 45.9731 21.4232 45.6436 22.9664 45.6436H23.9932V46.4518C23.9932 47.5064 23.0926 48.1484 21.9195 48.1484ZM30.2346 49.7992H27.5728L27.5786 40.2068H30.2404V41.7286C30.7194 40.7743 31.7663 39.9861 33.361 39.9861C35.2541 39.9861 36.5936 41.1124 36.5936 43.6918V49.8078H33.9318V44.0759C33.9318 42.7747 33.3897 42.1499 32.2424 42.1499C31.0951 42.1499 30.2346 42.8464 30.2346 44.2593V49.7992ZM54.3454 48.6442C53.7947 49.4266 52.9486 49.9998 51.4456 49.9998C49.7046 49.9998 48.2331 49.1572 48.2417 47.1396C48.2417 44.9013 50.2954 44.0587 53.2325 44.0587H54.3167V43.6718C54.3167 42.5368 53.9668 41.9121 52.7564 41.9121C51.6951 41.9121 51.2333 42.4451 51.1215 43.2705H48.6089C48.7609 40.9949 50.565 39.9861 52.9113 39.9861C55.2575 39.9861 56.9269 40.9405 56.9269 43.5457V49.7906H54.3454V48.6442ZM50.8375 47.002C50.8375 47.6899 51.262 48.1484 52.2344 48.1484C53.4075 48.1484 54.3081 47.5064 54.3081 46.4518V45.6436H53.2813C51.7382 45.6436 50.8375 45.9731 50.8375 47.002ZM57.8706 49.7992H60.5323V44.993C60.5323 43.1587 61.6796 42.5168 63.6358 42.5368V40.0606C62.0755 40.0778 61.1375 40.7571 60.5323 42.041V40.2068H57.8706V49.7992ZM70.1142 49.5246C69.5715 49.8408 68.9536 50.005 68.3255 49.9999C65.9935 49.9999 64.1578 48.3319 64.1578 45.1392V44.993C64.1578 41.8376 65.9763 39.9861 68.3799 39.9861C69.9231 39.9861 70.8754 40.6654 71.4089 41.6369V35.8591H74.0534V49.7993H71.4089V48.2029C71.1041 48.7518 70.6568 49.2083 70.1142 49.5246ZM66.8741 45.0847C66.8741 46.9935 67.792 47.9278 69.1142 47.9278C70.5082 47.9278 71.4834 46.9935 71.4834 45.0475V44.9013C71.4834 42.9954 70.6774 42.021 69.1888 42.021C67.7002 42.021 66.8741 43.0298 66.8741 44.9385V45.0847Z" fill="white"/>
<path fill-rule="evenodd" clip-rule="evenodd" d="M83.7884 18.9728C83.7884 19.7848 83.1296 20.4431 82.3169 20.4431C81.5043 20.4431 80.8455 19.7848 80.8455 18.9728C80.8455 18.1608 81.5043 17.5026 82.3169 17.5026C83.1296 17.5026 83.7884 18.1608 83.7884 18.9728ZM5.56161 31.6576C8.66509 31.6576 10.5725 29.8062 10.5725 27.4762C10.5725 24.7621 8.94045 23.8994 5.76525 23.4953C3.75745 23.2087 3.32147 22.7616 3.32147 21.8273C3.32147 20.9475 3.98405 20.3428 5.28625 20.3428C6.58845 20.3428 7.29405 20.893 7.47188 22.0853H10.2054C9.96729 19.4801 8.24345 18.1589 5.28625 18.1589C2.38641 18.1589 0.513423 19.8269 0.513423 22.0652C0.513423 24.5959 1.8902 25.6047 5.24896 26.0461C7.17645 26.3327 7.72716 26.7052 7.72716 27.7656C7.72716 28.8261 6.86668 29.5082 5.56161 29.5082C3.61691 29.5082 3.1207 28.5366 2.98015 27.3615H0.134807C0.31264 29.9725 1.96478 31.6576 5.56161 31.6576ZM14.4017 31.5946C15.9075 31.5946 16.7508 31.0071 17.3015 30.2361V31.3825H19.883V25.1375C19.883 22.5324 18.2108 21.5809 15.8674 21.5809C13.524 21.5809 11.7198 22.5897 11.5649 24.8624H14.0804C14.1894 24.037 14.6541 23.5068 15.7125 23.5068C16.9258 23.5068 17.2728 24.1287 17.2728 25.2665V25.6505H16.1915C13.2544 25.6505 11.1978 26.5103 11.1978 28.7343C11.1892 30.752 12.6578 31.5946 14.4017 31.5946ZM15.1904 29.7432C14.2181 29.7432 13.7965 29.2846 13.7965 28.5968C13.7965 27.5707 14.6942 27.2412 16.2374 27.2412H17.2642V28.0494C17.2642 29.1012 16.3664 29.7432 15.1904 29.7432ZM23.5085 31.457H20.8467L20.8553 21.8646H23.5171V23.3864C23.9932 22.432 25.0401 21.6439 26.6378 21.6439C28.528 21.6439 29.8675 22.7702 29.8675 25.3496V31.4656H27.2057V25.7336C27.2057 24.4325 26.6636 23.8077 25.5163 23.8077C24.369 23.8077 23.5085 24.5041 23.5085 25.9171V31.457ZM35.5151 31.457H38.4895V26.3756H42.792V24.1373H38.4895V20.6723H43.9393V18.3423H35.5151V31.457ZM47.5591 31.457H44.8973V21.8646H47.5591V23.6988C48.1643 22.4148 49.0993 21.7356 50.6597 21.7184V24.1946C48.7064 24.1746 47.5591 24.8165 47.5591 26.6508V31.457ZM54.1073 31.6576C55.6132 31.6576 56.4593 31.0844 57.0101 30.302V31.4484H59.5915V25.2034C59.5915 22.5983 57.9222 21.6439 55.5759 21.6439C53.2297 21.6439 51.4284 22.6527 51.2735 24.9283H53.789C53.9008 24.1029 54.377 23.5698 55.4239 23.5698C56.6343 23.5698 56.9842 24.1946 56.9842 25.3295V25.7164H55.9C52.9629 25.7164 50.9063 26.559 50.9063 28.7974C50.8949 30.815 52.3634 31.6576 54.1073 31.6576ZM54.899 29.8062C53.9238 29.8062 53.5021 29.3476 53.5021 28.6598C53.5021 27.6309 54.4028 27.3013 55.9431 27.3013H56.9728V28.1095C56.9728 29.1642 56.0721 29.8062 54.899 29.8062ZM63.2142 31.457H60.5524L60.5581 21.8646H63.2199V23.3864C63.6989 22.432 64.743 21.6439 66.3406 21.6439C68.2308 21.6439 69.5731 22.7702 69.5731 25.3496V31.4656H66.9114V25.7336C66.9114 24.4325 66.3693 23.8077 65.222 23.8077C64.0746 23.8077 63.2142 24.5041 63.2142 25.9171V31.457ZM75.4589 31.6576C78.2497 31.6576 79.9019 30.0813 80.0481 27.8057H77.6445C77.6328 28.0629 77.5701 28.3152 77.4601 28.548C77.3501 28.7808 77.195 28.9895 77.0037 29.1619C76.8124 29.3344 76.5888 29.4672 76.3458 29.5527C76.1028 29.6382 75.8452 29.6747 75.588 29.66C74.1022 29.66 73.2388 28.6684 73.2388 26.7425V26.5963C73.2388 24.7621 74.1567 23.7303 75.5335 23.7303C76.6148 23.7303 77.2946 24.2433 77.4782 25.3611H79.9936C79.7556 22.6097 77.699 21.6353 75.479 21.6353C72.7426 21.6353 70.5226 23.524 70.5226 26.625V26.7711C70.5226 29.9151 72.6508 31.6576 75.4589 31.6576ZM83.6507 31.457H81.0061V21.8646H83.6507V31.457ZM88.6386 31.6576C91.1713 31.6576 92.6772 30.5771 92.6772 28.505C92.6772 26.4329 91.3549 25.8454 88.9484 25.4958C87.5516 25.2951 87.0926 25.0544 87.0926 24.4497C87.0926 23.845 87.5888 23.4609 88.4522 23.4609C89.37 23.4609 89.8118 23.8278 89.958 24.6073H92.3989C92.1609 22.4062 90.5632 21.6353 88.435 21.6353C86.4702 21.6353 84.6345 22.6269 84.6345 24.6245C84.6345 26.496 85.6241 27.2297 88.1768 27.6137C89.5536 27.8172 90.1215 28.0923 90.1215 28.7601C90.1215 29.4279 89.6454 29.8062 88.6186 29.8062C87.4712 29.8062 87.0381 29.3104 86.9291 28.4477H84.4509C84.5456 30.5227 86.0514 31.6576 88.6386 31.6576ZM103.026 27.8057C102.88 30.0813 101.228 31.6576 98.4367 31.6576C95.6287 31.6576 93.5004 29.9151 93.5004 26.7711V26.625C93.5004 23.524 95.7204 21.6353 98.4568 21.6353C100.677 21.6353 102.733 22.6097 102.971 25.3611H100.456C100.272 24.2433 99.5926 23.7303 98.5113 23.7303C97.1345 23.7303 96.2167 24.7621 96.2167 26.5963V26.7425C96.2167 28.6684 97.08 29.66 98.5658 29.66C98.823 29.6747 99.0806 29.6382 99.3236 29.5527C99.5667 29.4672 99.7903 29.3344 99.9815 29.1619C100.173 28.9895 100.328 28.7808 100.438 28.548C100.548 28.3152 100.611 28.0629 100.622 27.8057H103.026ZM108.952 29.64C107.449 29.64 106.603 28.5394 106.603 26.7052V26.559C106.603 24.7248 107.483 23.6615 108.952 23.6615C110.42 23.6615 111.304 24.7621 111.304 26.5963V26.7253C111.304 28.5394 110.44 29.64 108.952 29.64ZM108.935 31.6461C111.803 31.6461 114 29.7202 114 26.6937V26.5476C114 23.5584 111.834 21.6324 108.952 21.6324C106.069 21.6324 103.886 23.6071 103.886 26.6164V26.7654C103.886 29.7517 106.072 31.6576 108.935 31.6576V31.6461Z" fill="white"/>
<path fill-rule="evenodd" clip-rule="evenodd" d="M3.54233 13.1147H6.53396V2.30998H10.0792V0H0V2.30998H3.54233V13.1147ZM11.0343 13.1147H13.6961V7.57478C13.6961 6.16185 14.5566 5.46542 15.7039 5.46542C16.8512 5.46542 17.3933 6.0902 17.3933 7.39136V13.1233H20.0551V7.00732C20.0551 4.42794 18.7156 3.30161 16.8254 3.30161C15.2277 3.30161 14.1808 4.08975 13.7047 5.04412V0H11.0429L11.0343 13.1147ZM30.6017 10.0883C30.292 12.169 28.6398 13.3154 26.0125 13.3154C23.1127 13.3154 21.0016 11.5012 20.9959 8.44319V8.29703C20.9959 5.27055 23.1442 3.30736 25.935 3.30736C28.4132 3.30736 30.6161 4.74035 30.6161 8.17952V8.91321H23.6949C23.7695 10.5096 24.63 11.4267 26.0813 11.4267C27.3176 11.4267 27.9228 10.8965 28.0891 10.0883H30.6017ZM25.9408 5.13585C24.7476 5.13585 23.9387 5.92399 23.7379 7.28247H28.0318C27.9486 5.83228 27.2057 5.13585 25.9408 5.13585Z" fill="white"/>
</svg>
