<svg width="36" height="50" viewBox="0 0 36 50" fill="none" xmlns="http://www.w3.org/2000/svg">
<g clip-path="url(#clip0_41_87)">
<path d="M35.9845 17.9303C35.9845 27.833 27.9385 35.8607 18.0136 35.8607C8.08866 35.8607 0.0424805 27.833 0.0424805 17.9303C0.0424805 8.02766 8.08842 0 18.0134 0C27.9383 0 35.9842 8.02766 35.9842 17.9303H35.9845ZM29.9942 17.9303C29.9942 11.3262 24.6284 5.97249 18.0093 5.97249C11.3902 5.97249 6.02442 11.3262 6.02442 17.9303C6.02442 24.5345 11.3902 29.8882 18.0093 29.8882C24.6284 29.8882 29.9942 24.5345 29.9942 17.9303Z" fill="white"/>
<path d="M22.2567 41.2315V40.2793H24.07V47.4926C24.07 47.839 23.6787 48.6434 23.4486 48.9199C22.0728 50.5728 17.5373 50.4379 17.3416 47.7544H19.2265C19.4486 48.3201 19.8026 48.6375 20.4254 48.7009C21.132 48.7728 21.8145 48.5519 22.1072 47.8671C22.1344 47.8037 22.2567 47.4316 22.2567 47.3975V46.0405C21.573 47.0706 20.3605 47.2979 19.2129 47.0062C16.2571 46.2549 16.4027 40.7049 19.5725 40.1485C20.6555 39.9584 21.6546 40.2951 22.2567 41.2317V41.2315ZM20.2877 41.5761C18.3421 41.8784 18.661 46.4968 21.1917 45.573C22.8392 44.9715 22.6823 41.2039 20.2877 41.5761Z" fill="white"/>
<path d="M5.12542 42.4694C5.19512 41.1574 6.17652 40.4054 7.40714 40.199C8.77717 39.9691 11.363 40.0344 11.5215 41.8725C11.6237 43.0582 11.384 44.4681 11.5254 45.6302C11.5707 46.0031 11.7268 46.0688 12.0928 46.04L12.0696 47.2791C11.3296 47.6522 9.97389 47.5269 9.77838 46.5642C8.64062 47.9272 5.18844 47.9517 4.93969 45.8208C4.76494 44.3249 5.49162 43.6262 6.88123 43.3403C7.46419 43.2202 9.10757 43.1742 9.46135 42.7722C9.75594 42.4374 9.61056 41.8046 9.24531 41.5723C8.84043 41.3144 7.88077 41.3252 7.48759 41.6125C7.1677 41.8463 7.14311 42.1291 7.01014 42.4694H5.12518H5.12542ZM9.61103 43.8976C8.90537 44.399 7.0882 44.0156 6.86452 45.0852C6.62771 46.2175 7.90106 46.4124 8.71773 46.1248C9.18014 45.9619 9.61103 45.4169 9.61103 44.9213V43.8976Z" fill="white"/>
<path d="M31.6576 44.2786H26.5516C26.612 45.1298 26.876 45.8313 27.7896 46.0193C28.6022 46.1863 29.4938 45.9189 29.8682 45.1357H31.5144C30.8176 48.1583 26.2715 48.3132 25.0156 45.6444C23.7301 42.9126 25.6454 39.646 28.8135 40.1411C30.8364 40.4573 31.7925 42.3762 31.6576 44.2786ZM29.701 43.0408C29.5982 41.0061 26.702 41.0773 26.5516 43.0408H29.701Z" fill="white"/>
<path d="M34.5684 38.1841V40.2791H35.9284L36 40.3506V41.5646H34.5684V45.3974C34.5684 45.9871 35.6104 45.9342 36 45.8496V47.3255C34.8694 47.4804 32.8155 47.6231 32.66 46.0634C32.5249 44.7059 32.819 43.0632 32.662 41.7288C32.6538 41.6595 32.656 41.6063 32.588 41.5646H31.4664V40.2791H32.6593V38.1841H34.5682H34.5684Z" fill="white"/>
<path d="M3.12103 38.1841V40.2791H4.55265V41.5646H3.19264L3.12103 41.6361V45.2546C3.12103 45.2744 3.19026 45.5649 3.20458 45.5997C3.37002 46 4.20483 45.8966 4.55265 45.8496V47.3255C3.32084 47.4964 1.30697 47.6093 1.21052 45.9228L1.21219 41.5646H0.0192913C0.0636939 41.216 -0.0411058 40.7273 0.0192913 40.3982C0.029079 40.3449 0.0436411 40.3091 0.0909084 40.2791H1.21243V38.1841H3.12127H3.12103Z" fill="white"/>
<path d="M17.1028 41.9456C15.9636 41.75 14.8755 42.0324 14.5879 43.269C14.553 43.4184 14.4783 43.7897 14.4783 43.9215V47.3258H12.5695V40.2791H14.3828V41.6123C14.6251 41.292 14.7595 40.9782 15.0761 40.709C15.5781 40.2822 16.4817 39.9286 17.1028 40.2076V41.9454V41.9456Z" fill="white"/>
<path d="M18.0093 23.9038C21.3154 23.9038 23.9955 21.2298 23.9955 17.9313C23.9955 14.6328 21.3154 11.9588 18.0093 11.9588C14.7032 11.9588 12.0231 14.6328 12.0231 17.9313C12.0231 21.2298 14.7032 23.9038 18.0093 23.9038Z" fill="white"/>
</g>
<defs>
<clipPath id="clip0_41_87">
<rect width="36" height="50" fill="white"/>
</clipPath>
</defs>
</svg>
