<svg width="167" height="50" viewBox="0 0 167 50" fill="none" xmlns="http://www.w3.org/2000/svg">
<g clip-path="url(#clip0_41_66)">
<path fill-rule="evenodd" clip-rule="evenodd" d="M161.678 22.3408C158.284 21.5746 157.104 21.4845 157.104 20.1324C157.104 18.8817 158.778 18.4873 159.745 18.4873C161.307 18.4873 163.151 18.8479 165.039 19.8169L166.41 16.5493C164.488 15.4901 162.015 15.062 159.633 15.062C154.957 15.062 151.821 16.9662 151.686 20.6732C151.552 24.0535 154.294 25.3155 156.812 25.8451C159.239 26.3521 161.701 26.7803 161.757 28.2225C161.802 29.5634 160.61 30.1268 158.351 30.1268C156.261 30.1268 154.316 29.4507 152.327 28.6169L151.169 32.1662C153.451 33.1465 155.766 33.6761 158.16 33.6761C161.487 33.6761 163.904 33.1577 165.691 31.4789C166.927 30.3296 167.332 28.9324 167.332 27.6028C167.332 24.7972 165.59 23.2197 161.689 22.3296" fill="white"/>
<path fill-rule="evenodd" clip-rule="evenodd" d="M138.357 15.5803V26.8479C138.357 27.7268 138.357 27.9746 138.3 28.3127C138.143 29.3831 137.098 30.0141 135.446 30.0254C134.22 30.0028 133.321 29.6423 132.905 29C132.692 28.6732 132.591 28.0761 132.591 27.1296V15.5803H127.376V27.7944C127.376 29.4845 127.6 30.2507 128.365 31.2197C129.624 32.7972 132.074 33.631 135.457 33.631H135.637C140.166 33.631 142.493 31.862 143.167 30.2056C143.504 29.4056 143.527 29.0225 143.527 27.4V15.5803H138.345" fill="white"/>
<path fill-rule="evenodd" clip-rule="evenodd" d="M121.205 29.8113H113.551V15.5803H108.527V33.3042H121.205V29.8113Z" fill="white"/>
<path fill-rule="evenodd" clip-rule="evenodd" d="M99.5807 19.0282V15.5803H87.3298V33.3042H99.5807V29.7099H92.2864V25.7775H98.3557V22.3408H92.2864V19.0282H99.5807Z" fill="white"/>
<path fill-rule="evenodd" clip-rule="evenodd" d="M80.1928 19.0732V15.5803H64.7724V19.0732H69.9875V33.3042H74.9778V19.0732H80.1928Z" fill="white"/>
<path fill-rule="evenodd" clip-rule="evenodd" d="M67.1215 9.56338L37.8991 15.4V17.4394L37.989 17.4169C57.2983 12.707 67.1215 9.87887 67.2114 9.85634C67.3238 9.8338 67.3575 9.74366 67.3463 9.67606C67.335 9.59718 67.2563 9.54085 67.1327 9.56338" fill="white"/>
<path fill-rule="evenodd" clip-rule="evenodd" d="M43.3615 9C41.9453 9.07887 39.3153 11.1859 37.8654 12.4479C32.1109 17.4394 27.8399 22.0141 24.7266 26.8254C18.2415 30.307 9.98055 33.8789 1.77582 36.6732L1.57351 36.7408L0 41L0.899149 40.6507C6.11421 38.6563 14.8247 34.9155 22.726 30.7465C22.2764 31.9296 22.0516 33.0225 22.0516 34.0254C22.0516 34.769 22.1753 35.4563 22.4225 36.0873C22.9171 37.338 23.8949 38.2845 25.2548 38.8254C27.2779 39.6366 30.0316 39.6479 33.1786 38.6901C41.2147 36.2451 50.7457 28.7521 52.825 27.2648L52.9037 27.2085C52.9824 27.1521 52.9936 27.062 52.9599 27.0056C52.9149 26.938 52.825 26.9155 52.7463 26.9718L52.6452 27.0394C50.4198 28.369 39.5963 34.8141 32.5604 36.707C28.9751 37.6761 26.2439 37.1465 25.2211 35.7042C24.8615 35.2085 24.6929 34.5887 24.6929 33.8563C24.6929 32.4366 25.356 30.6225 26.6485 28.6169C27.8287 27.9408 28.9301 27.2761 29.9304 26.6563C36.7977 22.7915 44.6989 15.2648 45.0361 10.6789C45.0361 10.6451 45.0361 10.6113 45.0361 10.5775C45.0361 10.1831 44.8675 9.77746 44.5641 9.47324C44.2381 9.14648 43.8223 8.97746 43.3615 9.01127V9ZM42.5972 11.1972C43.0468 10.9042 43.1816 11.0845 43.0468 11.4225C42.8332 11.9521 41.8441 15.1183 34.4824 21.1803C32.5604 22.7577 31.2005 23.6479 28.4356 25.2817C32.965 18.9155 39.5738 13.1803 42.5972 11.2085V11.1972Z" fill="white"/>
<path fill-rule="evenodd" clip-rule="evenodd" d="M37.8092 15.4113L7.05832 22.0366L5.86695 25.2479L37.8991 17.4394L37.9553 17.4282V15.3887L37.8092 15.4113Z" fill="white"/>
</g>
<defs>
<clipPath id="clip0_41_66">
<rect width="167" height="50" fill="white"/>
</clipPath>
</defs>
</svg>
