<svg width="105" height="50" viewBox="0 0 105 50" fill="none" xmlns="http://www.w3.org/2000/svg">
<path fill-rule="evenodd" clip-rule="evenodd" d="M76.6713 32.4717C73.4618 42.3299 64.4439 50 53.0122 50C40.8906 50 32.7406 42.4332 29.4689 32.6858C32.8728 41.7664 42.1361 48.277 53.0304 48.277C64.0082 48.277 73.3318 41.6636 76.6713 32.4717ZM29.4144 17.4283C32.6381 7.59534 40.2655 0 53.0122 0C64.8603 0 73.5669 7.69922 76.7237 17.6434C73.43 8.37583 64.0644 1.68857 53.0302 1.68857C42.0786 1.68857 32.7748 8.27195 29.4144 17.4283Z" fill="white"/>
<path fill-rule="evenodd" clip-rule="evenodd" d="M53.5138 14.9998C53.667 14.7755 54.1259 14.9249 54.4514 14.9327C54.8919 14.9414 54.7869 15.5805 55.3906 15.4531C55.9939 15.3268 56.002 16.0197 56.8632 15.9952C57.7295 15.9684 56.6912 16.2928 56.6912 16.2928C56.6912 16.2928 56.1568 16.0384 55.8093 16.208C55.6281 16.2974 55.8779 16.1576 55.5737 15.9095C55.0987 15.5269 55.1614 15.9821 54.3644 15.3138C53.8046 14.8433 53.2652 15.3699 53.5138 14.9998ZM57.847 32.4503C58.1906 32.5873 58.6182 32.9261 58.8163 33.4411C59.2831 34.6623 58.5894 33.6724 58.5894 35.5137C58.5894 37.2091 58.1044 36.9342 58.1044 36.9342C58.1044 36.9342 57.9994 38.9377 56.952 40.1682C56.2833 40.8305 56.8025 41.379 56.8025 41.379C56.8025 41.379 56.5756 41.5025 56.2482 42.9559C56.1433 43.427 56.7526 44.1523 57.2838 43.9714C57.6788 43.8362 56.3181 43.7066 57.7933 43.0915C58.3626 42.8539 57.8971 42.4076 57.8971 42.4076C57.8971 42.4076 58.8527 42.3369 59.3921 40.9116C60.3422 41.0479 59.9889 40.4737 61.9469 40.0573C62.4646 39.9465 62.5739 39.7934 62.5101 39.3121C62.4449 38.8331 63.1481 39.3825 65.0876 37.4315C66.617 35.8911 66.0658 35.5445 67.1219 34.9847C68.2389 34.3981 68.3413 35.0371 68.7151 34.5566C69.5713 33.4635 69.2681 33.5309 69.6238 32.8349L69.8763 32.4482L57.847 32.4503ZM47.092 16.2474C46.7744 15.4738 46.7957 14.2204 47.4747 13.0612C47.9023 12.3372 49.0359 12.0165 50.0258 12.3977C51.137 11.5334 51.4015 12.4633 52.3851 12.043C53.6768 11.4902 52.953 13.5067 54.205 14.0174C54.722 12.6575 53.0257 11.6363 54.0894 10.9943C54.8486 10.5383 55.4207 10.2549 55.7313 9.64184C56.175 8.77024 56.3488 8.13344 56.6888 8.01771C57.4776 7.75329 57.3076 7.01408 57.3076 7.01408C57.3076 7.01408 58.1451 7.25721 58.7984 6.653C58.3003 6.38895 57.5734 6.15989 57.7645 5.63308C57.9883 5.01054 59.6776 6.27599 60.1757 5.25496C59.1733 4.82259 58.1477 3.88525 57.5346 3.66934C57.1127 4.12116 56.851 3.93932 56.3083 3.51491C55.3908 2.79904 55.3133 3.4814 54.7397 2.98699C54.281 3.89581 54.9704 3.82359 55.184 4.05117C55.7734 4.68778 54.5866 3.47899 54.7009 5.10368C54.7308 5.52605 54.0996 5.6029 53.6296 4.68778C53.3847 4.21171 51.4347 4.313 51.1403 3.85711C51.409 3.32715 53.704 1.43896 57.229 1.8917C52.1091 -0.0918448 45.1912 2.07669 45.1222 2.83034C44.4329 3.25715 44.67 3.74323 44.3264 3.85711C43.7314 4.05357 43.0801 5.85047 43.0801 5.85047C43.0801 5.85047 43.4512 6.09471 42.2939 7.37313C41.3405 8.42564 41.0577 10.0216 41.0577 10.0216C41.0577 10.0216 41.6882 11.1586 41.5689 12.4694C41.4788 13.4684 41.4363 12.7279 41.8772 13.4525C42.1334 13.8763 42.4137 15.3566 42.5843 14.7794C42.9105 13.6765 41.9911 12.6579 42.143 11.5619C42.1768 11.6983 42.4964 11.1282 42.484 11.6445C42.4487 12.9977 44.1734 15.6053 44.1734 15.6053C44.1734 15.6053 43.5298 16.2487 44.2012 16.2487L47.092 16.2474Z" fill="white"/>
<path d="M10.4034 19.8733H6.51523L7.09544 20.5556V25.5913C7.09544 26.725 6.33583 27.2023 5.20131 27.2023C4.06735 27.2023 3.30607 26.725 3.30607 25.5913V20.5556L3.88739 19.8733H0L0.580206 20.5556V25.6734C0.580206 28.1865 2.0064 29.1551 5.20131 29.1551C8.39678 29.1551 9.8226 28.1865 9.8226 25.6734V20.5556L10.4034 19.8733Z" fill="white"/>
<path d="M23.897 19.8733H20.6164L21.2001 20.5556V25.1417L16.4962 19.8733H13.5476L14.1302 20.5556V28.2948L13.5476 28.9772H16.8257L16.2457 28.2948V23.6287L21.241 28.9772H23.3156V20.5556L23.897 19.8733Z" fill="white"/>
<path d="M31.4516 28.9772L30.8703 28.2948V20.5556L31.4516 19.8733H27.5363L28.1174 20.5556V28.2948L27.5363 28.9772H31.4516Z" fill="white"/>
<path d="M44.3623 19.8733H41.0689L41.6502 20.5556L39.327 25.5656L37.085 20.5556L37.6671 19.8733H33.7919L38.0947 28.9772H40.0176L44.3623 19.8733Z" fill="white"/>
<path d="M55.3558 28.9772V26.5074L54.6639 27.0809H49.9464V25.3317H52.934L53.6133 25.9067V22.9436L52.934 23.5178H49.9464V21.7698H54.6639L55.3558 22.3436V19.8733H46.6686L47.2498 20.5556V28.2948L46.6686 28.9772H55.3558Z" fill="white"/>
<path fill-rule="evenodd" clip-rule="evenodd" d="M68.5806 28.9772L66.0795 25.3871C67.3087 24.8947 68.1651 23.9537 68.1651 22.6305C68.1651 21.1141 67.2257 19.8733 64.5963 19.8733H58.8426L59.425 20.5556V28.2948L58.8426 28.9772H62.7026L62.1226 28.2948V25.715H63.2824L65.0512 28.2948L64.4722 28.9772H68.5806ZM65.4013 22.821C65.4013 23.4765 64.7639 24.0092 63.8776 24.0092H62.1228V21.7698H64.2102C64.8176 21.7698 65.4013 22.072 65.4013 22.821Z" fill="white"/>
<path d="M80.2687 26.3163C80.2687 24.869 79.0918 24.0639 77.3901 23.5178C76.2838 23.1776 74.7214 22.9323 74.7214 22.2077C74.7214 21.8524 75.1488 21.6059 75.8964 21.6059C76.8944 21.6059 78.5244 22.0161 79.7963 22.6164V19.5744L79.0645 20.2694C78.2895 19.9549 76.9471 19.6279 76.0214 19.6279C72.8833 19.6279 71.8708 20.9926 71.8708 22.2357C71.8708 23.9274 73.0053 24.6651 74.7909 25.2793C76.1165 25.7289 77.3483 25.7702 77.3483 26.5192C77.3483 27.1629 76.589 27.2447 76.2015 27.2447C75.2194 27.2447 73.4759 26.9024 71.9259 25.9069V29.2774L72.6597 28.4856C73.3802 28.7598 74.9984 29.2225 76.3258 29.2225C79.0493 29.2224 80.2687 28.035 80.2687 26.3163Z" fill="white"/>
<path fill-rule="evenodd" clip-rule="evenodd" d="M94.0675 28.9772L89.5302 19.8733H86.4174L86.7479 20.5556L82.6393 28.9772H86.0297L85.4484 28.2948L85.9041 27.3401H90.3031L90.7449 28.2948L90.1636 28.9772H94.0675ZM89.6263 25.7021H86.5672L88.0907 22.4399L89.6263 25.7021Z" fill="white"/>
<path d="M105 28.9772V26.5074L104.307 27.0809H99.8669V20.5556L100.447 19.8733H96.5868L97.1681 20.5556V28.2948L96.5868 28.9772H105Z" fill="white"/>
<path d="M102.536 21.1354C102.536 21.7729 103.058 22.2866 103.701 22.2866C104.348 22.2866 104.87 21.7729 104.87 21.1354C104.87 20.4988 104.348 19.9834 103.701 19.9834C103.058 19.9833 102.536 20.4986 102.536 21.1354ZM102.414 21.1354C102.414 20.4336 102.99 19.8642 103.701 19.8642C104.414 19.8642 104.991 20.4336 104.991 21.1354C104.991 21.8377 104.414 22.4081 103.701 22.4081C102.99 22.4081 102.414 21.8377 102.414 21.1354Z" fill="white"/>
<path fill-rule="evenodd" clip-rule="evenodd" d="M104.187 20.6386C104.059 20.5321 103.908 20.4834 103.742 20.4834C103.363 20.4834 103.081 20.7732 103.081 21.1389C103.081 21.5081 103.357 21.8022 103.737 21.8022C103.911 21.8022 104.076 21.7402 104.204 21.6272V21.4589C104.087 21.5974 103.915 21.6863 103.732 21.6863C103.429 21.6863 103.206 21.4257 103.206 21.1387C103.206 20.8512 103.432 20.5971 103.735 20.5971C103.917 20.5971 104.065 20.6697 104.187 20.8019L104.187 20.6386Z" fill="white"/>
</svg>
