<svg width="113" height="50" viewBox="0 0 113 50" fill="none" xmlns="http://www.w3.org/2000/svg">
<path d="M21.3948 33.3272L14.2702 28.9708V12.3564L21.3948 8V33.3272Z" fill="white"/>
<path d="M18.1794 39.1833L7.12461 32.4088V14.7567L0 19.116V36.3745L3.79561 38.6944L10.7497 43L18.1794 39.1833Z" fill="white"/>
<path d="M34.9218 16.3226H38.5887L43.6597 30.4517H43.7637L48.8868 16.3226H52.4234L45.0379 34.6774H42.2033L34.9218 16.3226Z" fill="white"/>
<path d="M64.0609 16.3226H66.8956L74.8272 34.6774H71.0825L69.366 30.4776H61.3823L59.718 34.6774H56.0513L64.0609 16.3226ZM68.2219 27.6778L65.3873 20.2113L62.5005 27.6778H68.2219Z" fill="white"/>
<path d="M81.852 16.3226H85.1286V31.7739H92.9563V34.6774H81.852V16.3226Z" fill="white"/>
<path d="M100.335 16.3226H112.532V18.9766H103.612V23.8408H112.064V26.5889H103.612V31.9715H113V34.6774H100.335V16.3226Z" fill="white"/>
</svg>
