<svg width="183" height="50" viewBox="0 0 183 50" fill="none" xmlns="http://www.w3.org/2000/svg">
<path d="M182.995 34.4036L178.967 34.3426L175.004 27.7722H170.126L169.945 27.9551V34.4036H166.53V16.7183H177.936C178.266 16.7183 179.399 17.1686 179.748 17.3515C183.976 19.5557 183.511 25.8166 179.093 27.4674L183 34.155V34.3989L182.995 34.4036ZM169.941 24.3346H177.564C177.88 24.3346 178.651 23.6921 178.847 23.4154C179.799 22.0366 178.8 20.2826 177.197 20.2263C174.865 20.4092 172.519 20.2029 170.187 20.2076C170.043 20.2076 170.029 20.2169 169.936 20.3389V24.3299L169.941 24.3346Z" fill="white"/>
<path d="M11.7076 8C12.8783 10.4856 12.056 12.671 9.45432 13.5293C8.24176 11.0812 9.05943 9.1021 11.466 8H11.7122H11.7076Z" fill="white"/>
<path d="M27.2014 8C29.5244 9.03176 30.5743 11.2172 29.097 13.4964C26.5882 12.6195 25.7938 10.4012 26.9552 8H27.2014Z" fill="white"/>
<path d="M9.87708 18.9319C10.0025 17.2905 10.7087 15.7945 11.2244 14.2656L12.9991 14.9972L13.0363 15.166C12.3626 16.7277 11.7912 18.4114 11.6007 20.1185C11.3126 22.7354 11.7633 23.3169 13.1942 25.3617C14.7552 27.594 16.7111 29.6341 18.5973 31.5944C18.7414 31.7445 19.2617 32.2369 19.4382 32.19C21.5103 29.9577 23.7217 27.8707 25.4732 25.3617C27.2247 22.8526 27.457 22.3461 26.9227 19.279C26.6811 17.8861 26.2026 16.4557 25.6312 15.166L25.6683 14.9972L27.443 14.2656C27.9913 15.7991 28.5906 17.3093 28.8461 18.9319C30.1191 16.2494 30.9646 13.2901 31.3502 10.3355L33.1853 10.6404L33.3061 10.8889C32.1911 17.3186 29.608 23.5279 25.4918 28.5695C24.0051 30.3938 22.2397 31.9555 20.753 33.7517L21.7751 35.1399C24.335 32.5089 26.997 29.9155 28.9622 26.7827C30.0633 25.0287 30.8856 23.134 31.7916 21.2721C31.9449 21.2252 33.111 21.7552 33.3758 21.8678C33.4919 21.9147 33.5988 21.7974 33.5337 22.046C32.5488 24.3815 31.4292 26.6607 30.0075 28.7524L33.0552 27.4017L33.7382 29.2495C30.5558 30.5626 27.5081 32.1806 25.004 34.5865C22.4999 36.9924 20.6833 39.7547 19.3314 43C18.8157 42.0996 18.4626 41.1053 17.9748 40.1908C15.8935 36.2795 12.279 32.856 8.37183 30.8206C7.23359 30.2297 5.96992 29.8217 4.88279 29.1698L5.66794 27.4064L8.65987 28.7524C7.23359 26.6607 6.1093 24.3768 5.13831 22.0413C5.05934 21.7974 5.18013 21.9147 5.29163 21.8678C5.56109 21.7552 6.7179 21.2206 6.87586 21.2721C7.7818 23.134 8.61341 25.024 9.70518 26.7827C11.6797 29.9624 14.3371 32.4526 16.8923 35.1399L17.9144 33.8267L17.8122 33.4797C12.121 28.3584 8.10237 21.9991 6.12788 14.5376C5.95134 13.8716 5.30092 11.4048 5.35667 10.8889C5.37525 10.7201 5.40777 10.6638 5.57038 10.6028C5.81196 10.5137 7.14997 10.2839 7.25682 10.4528C7.85149 13.0228 8.38112 16.2025 9.5751 18.5614C9.64479 18.7021 9.6866 18.9038 9.87708 18.9319ZM19.336 35.2665L18.2117 36.8001L19.336 38.5775L20.3674 36.8001C20.3674 36.5609 19.4289 35.2665 19.336 35.2665Z" fill="white"/>
<path d="M125.475 16.7183C128.778 20.4936 131.64 24.6629 134.892 28.4757C134.967 28.5648 134.888 28.7055 135.171 28.6304V16.7183H138.586V34.4036H135.231L125.656 22.6134V34.2207L125.475 34.4036H122.302L122.121 34.2207V16.7183H125.475Z" fill="white"/>
<path d="M161.829 25.5352C161.829 30.5908 157.754 34.6943 152.732 34.6943C147.71 34.6943 143.636 30.5955 143.636 25.5352C143.636 20.4749 147.71 16.376 152.732 16.376C157.754 16.376 161.829 20.4749 161.829 25.5352ZM158.349 25.5352C158.349 22.4211 155.84 19.898 152.751 19.898C149.661 19.898 147.153 22.4211 147.153 25.5352C147.153 28.6492 149.661 31.1723 152.751 31.1723C155.84 31.1723 158.349 28.6492 158.349 25.5352Z" fill="white"/>
<path d="M86.6172 34.4036H82.8355L81.1026 30.6236L72.4242 30.5908L70.6355 34.4036H66.9142L66.7841 34.155C69.5066 28.7242 71.8945 23.1199 74.5566 17.661C74.7564 17.2483 74.8446 16.7746 75.3232 16.7137C75.9039 16.6433 77.5671 16.6433 78.1432 16.7137C78.2779 16.7324 78.4127 16.7043 78.5056 16.8403L86.6172 34.4036ZM79.4162 27.0359L76.7913 21.3847L74.0456 27.0359H79.4162Z" fill="white"/>
<path d="M50.9928 16.7183L56.4796 29.8592L61.7248 16.7183H65.6273L58.4308 34.3426C58.2729 34.4411 55.1091 34.4599 54.7002 34.4083C54.5237 34.3895 54.3797 34.3942 54.2914 34.2066L47.2018 16.7183H50.9928Z" fill="white"/>
<path d="M95.5233 16.7183V30.844H106.26V34.4036H92.1086V16.7183H95.5233Z" fill="white"/>
<path d="M115.287 16.7183H111.872V34.4036H115.287V16.7183Z" fill="white"/>
<path d="M5.48673 20.4045C3.21027 19.7573 1.8258 17.7126 2.86647 15.3677C3.15452 14.7158 3.73525 15.1707 4.23235 15.4662C6.17896 16.6339 6.25794 18.416 5.48673 20.4045Z" fill="white"/>
<path d="M33.1807 20.4045C32.0935 17.9658 32.9437 15.7241 35.5454 15.0066C36.9391 17.3984 35.6941 19.6964 33.1807 20.4045Z" fill="white"/>
<path d="M5.11508 26.0464C2.55057 26.9187 0.49246 25.765 0 23.1105C2.50411 22.2195 4.78058 23.345 5.11508 26.0464Z" fill="white"/>
<path d="M38.6674 23.1105C38.1842 25.7509 36.0889 26.9187 33.5523 26.0464C33.8822 23.3263 36.1633 22.2242 38.6674 23.1105Z" fill="white"/>
</svg>
