<svg width="128" height="50" viewBox="0 0 128 50" fill="none" xmlns="http://www.w3.org/2000/svg">
<g clip-path="url(#clip0_40_24241)">
<path fill-rule="evenodd" clip-rule="evenodd" d="M26.9787 49.9986C13.9309 49.9986 7.15796 47.1279 3.09603 40.3621C0.80995 36.4731 -0.000305176 29.4824 -0.000305176 24.9977C-0.000305176 20.5129 0.80995 13.5328 3.09603 9.63475C7.15796 2.86894 13.9309 -0.000305176 26.9787 -0.000305176C40.0266 -0.000305176 46.8056 2.86894 50.8599 9.63475C53.1445 13.5328 53.9548 20.5129 53.9548 24.9977C53.9548 29.4824 53.1445 36.4655 50.8599 40.3621C46.8056 47.1279 40.0251 49.9986 26.9787 49.9986ZM33.5354 39.1296C32.0596 39.1296 29.9213 38.467 28.8917 36.1129L22.4066 20.4461C21.0039 16.9158 23.7347 13.6073 26.9026 13.6073C28.3769 13.6073 30.5137 14.2714 31.5448 16.624L38.0314 32.2878C39.4326 35.8181 36.7049 39.1281 33.5354 39.1281V39.1296ZM20.4891 39.1296C19.0163 39.1296 16.878 38.467 15.8454 36.1129L9.35875 20.4461C7.95908 16.9158 10.6853 13.6073 13.8547 13.6073C15.3306 13.6073 17.4674 14.2714 18.5 16.624L24.9851 32.2878C26.3863 35.8181 23.6601 39.1281 20.4891 39.1281V39.1296ZM41.6791 27.294C40.2048 27.294 38.0664 26.6298 37.0354 24.2758L35.4529 20.4476C34.0517 16.9173 36.7764 13.6088 39.9459 13.6088C41.4202 13.6088 43.5585 14.273 44.5896 16.6255L46.1766 20.4537C47.5793 23.981 44.8485 27.2924 41.6791 27.2924V27.294Z" fill="white"/>
<path d="M63.7664 16.0726L65.8256 8.10468L67.8847 16.0726H70.5074L73.8185 4.08652H71.1562L69.2677 11.594C69.2385 11.7479 69.2009 11.9001 69.1549 12.0499V12.0742C69.1549 12.056 69.1458 12.0377 69.1428 12.021C69.0948 11.866 69.0566 11.7082 69.0285 11.5484L67.0943 4.08044H64.563L62.6257 11.5651C62.5971 11.7253 62.559 11.8836 62.5115 12.0392C62.5086 12.0526 62.5051 12.0658 62.5008 12.0788C62.499 12.067 62.4965 12.0553 62.4932 12.0438C62.4456 11.8892 62.4074 11.7319 62.379 11.5727L60.495 4.08652H57.8312L61.1438 16.0726H63.7664Z" fill="white"/>
<path d="M75.0643 16.0726L76.2325 13.0255H80.5137L81.6819 16.0726H84.3929L79.577 4.18983L79.5359 4.08649H77.2179L72.3609 16.0726H75.0643ZM78.0936 8.15479L78.3723 7.34934L78.5246 7.78702L79.641 10.7322H77.1097L78.0936 8.15479Z" fill="white"/>
<path d="M94.6308 7.54842C94.6308 5.41321 92.9752 4.08649 90.3099 4.08649H85.1544V16.0726H87.6857V11.3432H89.2971L92.0005 16.0726H94.8942L92.0325 11.0651C93.7565 10.3812 94.6308 9.19884 94.6308 7.54842ZM92.0979 7.71407C92.0979 8.62591 91.4887 9.08182 90.3099 9.08182H87.6857V6.34632H90.316C91.4963 6.34632 92.0979 6.80679 92.0979 7.71407Z" fill="white"/>
<path d="M98.7216 8.20646L98.749 8.25661C98.8006 8.3547 98.8581 8.4496 98.9211 8.5408L103.795 16.0011L103.844 16.0756H106.334V4.08649H103.871V11.907L103.841 11.8538C103.789 11.7557 103.731 11.6608 103.668 11.5696L98.746 4.08649H96.2558V16.0726H98.7201L98.7216 8.20646Z" fill="white"/>
<path d="M116.197 11.0271V8.73381H110.807V6.37975H116.665V4.08649H108.274V16.0726H116.715V13.7808H110.807V11.0271H116.197Z" fill="white"/>
<path d="M125.134 11.0651C126.858 10.3812 127.723 9.19884 127.723 7.54842C127.723 5.41321 126.068 4.08649 123.404 4.08649H118.256V16.0726H120.787V11.3432H122.397L125.102 16.0726H127.996L125.134 11.0651ZM125.194 7.71407C125.194 8.62591 124.592 9.08182 123.405 9.08182H120.787V6.34632H123.412C124.598 6.34632 125.194 6.80679 125.194 7.71407Z" fill="white"/>
<path d="M66.2155 27.8732L62.6028 18.8886H60.0076V30.8762H62.4734V24.6423L62.7262 25.4295L65.0549 30.8762H67.3745L69.7093 25.4158L69.956 24.6423V30.8762H72.4218V18.8886H69.8266L66.2155 27.8732Z" fill="white"/>
<path d="M74.2297 18.8886V26.2988C74.2297 29.2212 76.1746 31.1087 79.1841 31.1087C82.1936 31.1087 84.1385 29.2212 84.1385 26.2988V18.8886H81.6073V26.0815C81.6073 27.776 80.7239 28.7486 79.1841 28.7486C77.6443 28.7486 76.761 27.776 76.761 26.0815V18.8886H74.2297Z" fill="white"/>
<path d="M90.351 28.8489C88.7762 28.8489 87.8882 28.0085 87.5577 26.2016L87.5181 25.9858L85.2732 27.1256L85.3006 27.2487C85.8184 29.7015 87.6659 31.1088 90.3677 31.1088C93.3361 31.1088 94.8881 29.2258 94.8881 27.3642C94.8881 25.3475 93.6697 24.194 90.9358 23.6226C89.0016 23.2259 88.2462 22.7624 88.2462 21.9676C88.2462 21.1728 89.2102 20.916 90.0357 20.916C91.3212 20.916 92.1954 21.5725 92.634 22.8703L92.698 23.0588L94.7328 21.8916L94.6856 21.7624C93.9347 19.7002 92.3888 18.6561 90.0921 18.6561C87.5379 18.6561 85.8276 20.0072 85.8276 22.0178C85.8276 23.8885 87.209 25.2213 89.6138 25.6757C91.6243 26.0845 92.3705 26.5648 92.3705 27.4477C92.3568 28.2988 91.5694 28.8489 90.351 28.8489Z" fill="white"/>
<path d="M98.8084 18.8886H96.2772V30.8747H98.8084V18.8886Z" fill="white"/>
<path d="M111.497 27.9052L111.584 27.773L109.584 26.3399L109.496 26.504C108.693 27.9933 107.551 28.7486 106.102 28.7486C104.02 28.7486 102.511 27.1225 102.511 24.8824C102.511 22.6424 104.02 21.0163 106.102 21.0163C107.595 21.0163 108.63 21.7169 109.358 23.2214L109.444 23.3977L111.497 21.922L111.442 21.8004C110.557 19.8248 108.586 18.6561 106.169 18.6561C102.563 18.6561 99.9446 21.2746 99.9446 24.887C99.9446 28.5526 102.47 31.1179 106.085 31.1179C108.821 31.1088 110.141 29.9386 111.497 27.9052Z" fill="white"/>
<path d="M64.1929 41.2468H67.9274C67.7552 42.0645 67.1369 43.5507 64.9194 43.5507C62.8831 43.5507 61.4621 41.9611 61.4621 39.6846C61.4621 37.408 62.9851 35.7181 65.0869 35.7181C66.5932 35.7181 67.7492 36.4187 68.4284 37.7439L68.5168 37.9141L70.4373 36.5205L70.3733 36.3959C69.4336 34.557 67.4704 33.4583 65.1189 33.4583C61.5717 33.4583 58.8958 36.1345 58.8958 39.6891C58.8958 43.2438 61.4575 45.92 64.8523 45.92C66.3403 45.92 67.5405 45.3607 68.3462 44.2984L68.7528 45.6875H70.4921V39.1207H64.1929V41.2468Z" fill="white"/>
<path d="M81.6347 37.1527C81.6347 35.0175 79.9792 33.6907 77.3139 33.6907H72.1538V45.6783H74.6866V40.9474H76.3041L79.0075 45.6783H81.9012L79.0349 40.6632C80.7559 39.9854 81.6347 38.8046 81.6347 37.1527ZM79.1034 37.3198C79.1034 38.2317 78.4942 38.6876 77.3139 38.6876H74.6866V35.9521H77.3093C78.4957 35.9506 79.0988 36.411 79.0988 37.3198H79.1034Z" fill="white"/>
<path d="M88.6239 33.4583C85.1041 33.4583 82.451 36.1345 82.451 39.6891C82.451 43.2438 85.1041 45.92 88.6239 45.92C92.1436 45.92 94.7967 43.2438 94.7967 39.6891C94.7967 36.1345 92.1436 33.4583 88.6239 33.4583ZM92.2319 39.6891C92.2319 42.0021 90.782 43.5553 88.6239 43.5553C86.4657 43.5553 85.0158 42.0021 85.0158 39.6891C85.0158 37.3761 86.4657 35.8229 88.6239 35.8229C90.782 35.8229 92.2319 37.3715 92.2319 39.6846V39.6891Z" fill="white"/>
<path d="M103.499 40.8806C103.499 42.5766 102.616 43.5477 101.076 43.5477C99.5364 43.5477 98.653 42.5766 98.653 40.8806V33.6907H96.1218V41.1009C96.1218 44.0218 98.0652 45.9108 101.076 45.9108C104.087 45.9108 106.031 44.0218 106.031 41.1009V33.6907H103.499V40.8806Z" fill="white"/>
<path d="M113.314 33.6907H107.839V45.6783H110.37V41.6146H113.314C116.113 41.6146 117.851 40.0949 117.851 37.6527C117.851 35.2105 116.11 33.6907 113.314 33.6907ZM115.32 37.6527C115.32 38.7438 114.602 39.3244 113.247 39.3244H110.37V35.981H113.244C114.599 35.984 115.317 36.5615 115.317 37.6527H115.32Z" fill="white"/>
</g>
<defs>
<clipPath id="clip0_40_24241">
<rect width="128" height="50" fill="white"/>
</clipPath>
</defs>
</svg>
